<svg width="119" height="104" viewBox="0 0 119 104" fill="none" xmlns="http://www.w3.org/2000/svg">
<path d="M62.2411 103.548C48.8763 104.703 35.2651 102.151 22.9162 94.2841C13.1796 88.0836 6.10402 79.6524 2.46366 68.5897C-1.68084 55.9879 -0.15879 43.8364 6.02812 32.2699C12.2206 20.6884 21.6647 12.4457 33.5596 7.12324C51.4279 -0.868711 69.5531 -1.44838 87.6695 6.28344C97.6665 10.5521 105.847 17.2011 111.411 26.6196C120.173 41.4412 120.308 56.6868 112.494 71.8869C106.094 84.3402 95.8295 92.7454 83.1282 98.2974C76.8138 101.058 70.1838 102.69 62.2408 103.544L62.2411 103.548ZM62.3303 101.551C68.825 100.834 74.3591 99.6044 79.6911 97.5504C91.9168 92.8414 102.041 85.4014 108.942 74.1408C116.937 61.0991 118.587 47.2974 112.514 33.0339C107.809 21.9834 99.5785 14.1135 88.8316 9.01354C71.6444 0.857919 54.1225 0.868368 36.6174 7.93664C24.7883 12.7128 15.2433 20.4225 8.71772 31.5089C1.94491 43.0102 0.24892 55.2438 4.37611 68.0261C7.76122 78.5144 14.5102 86.5143 23.7068 92.4339C35.7433 100.183 49.0271 102.714 62.3338 101.551H62.3303Z" fill="#ED946D"/>
<path d="M56.8059 7.44514C68.3841 6.40544 81.2206 8.73514 92.831 16.2883C100.947 21.5687 106.955 28.654 110.056 37.9198C113.566 48.4174 112.535 58.6435 107.493 68.4329C102.288 78.5331 94.276 85.8456 84.1376 90.6989C66.3727 99.2049 48.3658 99.7679 30.341 91.4211C24.6338 88.779 19.6277 85.0714 15.5682 80.2447C4.70772 67.3338 2.6296 53.0305 9.49489 37.6481C13.8666 27.8519 21.3275 20.7537 30.5424 15.4566C38.0543 11.1372 46.1517 8.58404 56.8098 7.44824L56.8059 7.44514ZM61.399 95.0779C70.2942 94.1585 77.8322 91.9531 84.8617 88.1386C94.3323 82.9948 101.857 75.8936 106.475 66.0148C112.973 52.1195 110.618 36.6927 100.347 25.3002C96.2112 20.7144 91.3356 17.0869 85.7138 14.5795C68.3464 6.84344 51.0908 7.60215 34.1376 15.8103C24.6331 20.4123 17.105 27.3093 12.1191 36.7414C4.31568 51.502 6.74449 68.36 18.3323 80.3568C21.507 83.6452 25.1119 86.373 29.1168 88.5612C39.5103 94.2368 50.6522 96.0469 61.3994 95.0819L61.399 95.0779Z" fill="#ED946D"/>
<path d="M38.3786 82.4738C37.057 82.8676 36.0148 83.2185 34.9536 83.4886C31.6855 84.3149 29.1313 82.7397 26.7671 80.8432C25.691 79.983 25.242 78.6131 25.0197 77.1409C24.6442 76.8775 24.21 76.602 23.811 76.2835C21.6478 74.5605 20.5266 72.2747 20.4453 69.5449C20.3905 67.7071 20.9046 65.9872 22.7311 65.1538C24.6294 64.2843 26.3131 65.007 27.6983 66.3602C28.5206 67.1638 29.1637 68.1473 29.8849 69.051C31.1225 68.2921 31.7142 67.2255 32.012 65.7793C32.427 63.7569 33.1313 61.7877 33.8004 59.8256C34.1019 58.9432 34.2656 58.1539 34.0032 57.2033C32.3007 50.9523 36.4298 45.8913 41.4023 44.4777C43.5533 43.8662 45.2538 42.8552 46.8788 41.4207C49.229 39.3479 51.8851 37.7361 54.8629 36.6701C55.927 36.2882 56.9563 36.0932 58.0958 36.3073C60.9607 36.8447 63.8545 37.2425 66.7074 37.8385C68.0149 38.1145 69.1873 38.1241 70.4976 37.7602C74.7226 36.5918 78.4525 37.6121 81.5723 40.7141C82.6963 41.8318 83.475 43.1932 83.9169 44.7039C84.1487 45.4959 84.5153 46.0945 85.14 46.6164C87.6144 48.6776 89.644 51.097 91.0291 54.2075C91.3617 53.9111 91.6305 53.6932 91.8786 53.4487C92.1562 53.176 92.3895 52.8575 92.6753 52.5947C94.6364 50.8276 97.162 51.0007 98.836 53.0647C100.163 54.7006 100.656 56.6409 100.591 58.7102C100.504 61.6154 99.647 64.2039 97.151 66.155C97.436 68.2029 97.405 70.2578 95.864 71.9461C94.3645 73.5906 92.4026 74.154 90.3179 74.3239C84.0995 80.4248 76.6479 84.1616 68.3349 86.3263C64.0369 87.4482 59.6644 88.0172 55.2263 87.8742C49.0794 87.6759 43.2594 86.3518 38.3683 82.4785L38.3786 82.4738ZM87.4527 74.3112C86.2025 73.8928 85.264 73.6402 84.3747 73.2711C81.2936 71.9905 78.7082 70.1094 77.2509 66.9956C75.4852 63.2197 77.1079 59.5827 81.0545 58.3278C83.2331 57.6344 85.4018 57.7578 87.5805 58.2969C88.2624 58.4644 88.9408 58.6682 89.6284 58.8567C90.1386 55.6208 87.6106 50.8197 84.4391 49.0057C83.2643 54.4224 79.9875 57.8368 74.4779 58.4609C68.9328 59.0886 65.0342 56.4182 62.7602 51.3253C61.6662 51.5556 60.6501 51.7385 59.6511 51.9844C58.603 52.2424 57.5141 52.3824 56.5775 52.8159C56.1773 58.7104 53.6633 62.381 48.8779 63.9372C43.8838 65.5615 39.4657 64.4534 35.7274 60.7139C34.6098 62.9985 34.2477 64.3435 34.3529 65.7593C34.5399 65.7258 34.7287 65.7101 34.9065 65.656C40.3335 64.0845 45.2823 68.3112 44.5414 73.8956C44.2618 76.0119 43.4278 77.8722 41.9533 79.4423C41.3957 80.0347 40.7267 80.5558 40.3156 81.4207C41.6439 82.2875 42.814 83.1884 44.0147 83.4754C46.1739 82.1695 48.0374 80.8544 50.0545 79.8469C57.7645 76.0011 65.9876 74.0109 74.5701 73.6046C78.3964 73.4221 82.2422 73.5717 85.7408 75.7043C86.2816 75.2646 86.7727 74.8658 87.4594 74.307L87.4527 74.3112ZM46.6558 84.4596C47.1136 84.614 47.5326 84.776 47.9615 84.8939C50.6706 85.6304 53.4508 85.9356 56.2397 85.9057C65.6069 85.7929 74.2712 83.233 82.2096 78.2463C82.7432 77.9115 83.2428 77.5263 83.8164 77.1263C82.9403 76.3247 81.9597 76.1877 81.0203 75.9963C78.5901 75.4936 76.1254 75.4616 73.661 75.6092C68.779 75.9033 64.0136 76.8466 59.3441 78.2724C55.5563 79.4285 51.8725 80.8649 48.4823 82.9578C47.8368 83.3579 47.088 83.6608 46.6558 84.4596ZM80.7081 60.6342C81.7277 61.3637 82.6276 61.5197 83.4589 61.848C83.9345 62.0365 84.4294 62.2375 84.8206 62.5496C85.0006 62.693 85.0456 63.1339 84.9911 63.409C84.9531 63.5997 84.6512 63.8462 84.445 63.8673C84.0751 63.9051 83.6745 63.8526 83.3175 63.7345C82.3326 63.4148 81.3688 63.021 80.3807 62.7051C79.9201 62.5581 79.4206 62.5229 78.9047 62.4319C78.5238 63.3117 78.3714 64.0351 78.7844 64.8769C79.3377 64.9461 79.908 65.0064 80.4769 65.0884C81.6326 65.2506 82.7872 65.4022 83.9365 65.6081C84.4087 65.6928 84.7538 66.0097 84.7343 66.5579C84.7155 67.0772 84.2752 67.4456 83.6323 67.3784C82.666 67.2759 81.7127 67.0894 80.745 66.9727C80.4177 66.9343 80.0759 67.0016 79.6545 67.0267C81.2185 69.4612 83.6184 71.1097 86.5903 71.92C88.2463 72.3724 89.9152 72.4929 91.5965 72.1378C94.4877 71.5262 95.748 69.5827 95.035 66.7234C94.7918 65.7457 95.071 65.1386 95.811 64.5419C96.456 64.0234 97.157 63.463 97.548 62.7618C98.696 60.7005 98.976 58.4835 98.264 56.1883C98.188 55.9409 98.119 55.6857 98.005 55.4529C97.507 54.4403 96.935 53.4495 95.652 53.3864C94.3779 53.3262 93.6019 54.2069 93.1114 55.2092C92.6362 56.1849 92.3657 57.2654 92.093 58.3245C91.9519 58.8779 92.0247 59.485 91.9655 60.066C91.8363 61.3332 91.1539 61.7587 89.9763 61.3113C89.0682 60.9693 88.1893 60.5273 87.2575 60.2704C85.1651 59.6972 83.0687 59.5773 80.707 60.6235L80.7081 60.6342ZM68.9802 40.5636C63.7463 43.3227 63.0139 49.8692 66.4848 53.6289C68.8365 56.177 71.7979 57.0602 75.1602 56.3465C78.6036 55.6173 80.9542 53.5481 82.0495 50.1662C82.388 49.1183 82.6222 48.0343 82.2464 46.9588C79.1496 44.4329 73.3523 41.644 68.9805 40.5671L68.9802 40.5636ZM42.4753 73.2982C41.8217 73.5482 41.3035 73.7521 40.7803 73.9421C40.3577 74.0967 39.9338 74.273 39.4986 74.3749C39.0247 74.4845 38.5549 74.3887 38.3827 73.8637C38.2205 73.3665 38.4406 72.9882 38.9328 72.7762C39.6449 72.4663 40.3614 72.1631 41.0592 71.8187C41.497 71.6015 41.9026 71.3157 42.3015 71.0701C41.9462 69.7733 41.3665 68.8479 39.9893 68.3814C39.718 68.7864 39.4888 69.1799 39.2128 69.5387C38.8191 70.0461 38.4439 70.5947 37.9528 70.9934C37.7373 71.17 37.2012 71.1277 36.9067 70.9889C36.514 70.8027 36.4963 70.3482 36.6986 69.9717C36.8832 69.6331 37.144 69.3369 37.3549 69.0099C37.653 68.5518 37.9394 68.0842 38.391 67.3697C37.5319 67.3317 36.9462 67.1903 36.415 67.3021C35.2719 67.5447 34.1744 67.9515 33.2666 68.7378C31.9299 69.8985 30.7 71.1201 30.4402 73.008C30.3593 73.5877 29.9324 73.9116 29.3212 73.8375C28.7135 73.763 28.4298 73.3428 28.3855 72.7688C28.3599 72.4481 28.4624 72.1142 28.4122 71.7995C28.1057 69.8545 27.2317 68.2297 25.5186 67.1831C24.1462 66.3423 22.9347 66.865 22.5607 68.4088C22.4422 68.9024 22.3794 69.4479 22.4516 69.9436C22.8154 72.3786 23.8016 74.3979 26.2878 75.344C26.516 75.4321 26.7074 75.6174 26.9432 75.7801C26.9716 76.0575 27.0412 76.3163 27.0161 76.5632C26.8547 78.2542 27.6178 79.4267 29.0469 80.2257C29.7253 80.6056 30.3914 81.0406 31.1172 81.2862C31.8986 81.5478 32.7714 81.8251 33.5633 81.7334C37.054 81.3264 39.7606 79.5765 41.5874 76.5654C42.1506 75.6419 42.5422 74.6209 42.4749 73.2946L42.4753 73.2982ZM36.5588 58.1603C36.9335 58.7328 37.1263 59.0725 37.3653 59.3715C37.6082 59.6736 37.8813 59.9548 38.1703 60.2163C42.4825 64.1559 50.0628 63.1549 53.199 58.2242C54.1281 56.7673 54.5772 55.1835 54.4727 53.4226C54.1865 48.5829 49.5941 45.8038 45.8581 45.7795C45.1136 45.7729 44.6385 46.1521 44.2324 46.6787C42.6568 48.737 41.0075 50.7417 39.5556 52.8844C38.4376 54.533 37.5711 56.3572 36.5588 58.1603ZM62.4389 49.3063C62.0553 45.4467 63.5841 42.4733 66.1984 39.7842C64.0961 39.1151 62.0972 38.9995 60.1871 38.5227C57.1781 37.7702 54.5722 38.6078 52.0832 40.1666C50.9891 40.8533 49.9218 41.5912 48.8706 42.3454C48.3613 42.7065 47.9148 43.1546 47.2612 43.7209C49.2485 44.391 51.0328 44.9381 52.5382 46.0958C54.1176 47.3107 55.1988 48.8891 56.0654 50.7589C58.1687 50.2781 60.1739 49.8216 62.4389 49.3063ZM35.7734 55.0101C37.6333 52.2184 39.3812 49.5963 41.2004 46.8627C39.3615 47.3992 37.8363 48.5792 36.8252 50.2887C36.0069 51.6696 35.3574 53.1194 35.7734 55.0101ZM72.7995 39.2929C72.8578 39.4415 72.8637 39.5343 72.9089 39.5548C75.4556 40.811 78.0019 42.0636 80.5514 43.3123C80.608 43.3388 80.6849 43.3525 80.7407 43.336C80.793 43.3199 80.8295 43.2551 80.9828 43.1029C78.9539 40.3385 76.2253 39.1656 72.7995 39.2929Z" fill="#ED946D"/>
<path d="M25.9206 48.9026C27.3399 50.5902 29.7788 51.0021 30.305 53.3379C29.1438 54.5633 27.5737 54.7418 26.1826 55.581C25.9577 57.0018 25.7148 58.5287 25.4716 60.0519C25.3797 60.6291 25.3173 61.214 25.1623 61.7724C24.8503 62.9039 23.9792 63.2049 23.1139 62.4381C22.3904 61.7934 21.7602 61.0421 21.1014 60.3261C20.5794 59.7541 20.0773 59.1658 19.5692 58.5889C17.9188 59.1061 16.3316 59.6097 14.7431 60.099C14.3112 60.233 13.8751 60.3961 13.4302 60.438C12.6869 60.514 12.1447 59.9549 12.3253 59.225C12.5227 58.4142 12.8333 57.6207 13.1906 56.8619C13.6831 55.8091 14.2663 54.8008 14.8533 53.688C13.6627 51.6716 12.4888 49.6787 11.3418 47.7369C11.6451 46.7321 12.4015 46.7842 13.1135 46.7545C14.6703 46.6924 16.2245 46.6055 17.7796 46.5975C18.8069 46.5931 19.6318 46.2968 20.4107 45.5848C21.3638 44.7148 22.4375 43.9691 23.4888 43.2149C24.7609 42.3015 25.4559 42.6329 25.6153 44.2624C25.7662 45.8101 25.8244 47.3637 25.9202 48.899L25.9206 48.9026ZM27.7319 52.7385C26.8234 52.0408 26.1052 51.3775 25.2832 50.8938C24.1054 50.1984 23.8122 49.1935 23.8888 47.9388C23.9342 47.1867 23.8856 46.4299 23.8762 45.3528C23.088 45.8682 22.4518 46.1129 22.0672 46.569C20.619 48.2909 18.703 48.5657 16.6474 48.5278C16.1938 48.5203 15.7389 48.5344 15.2908 48.5802C14.9459 48.6155 14.6074 48.7147 14.2416 48.7917C15.009 50.8513 16.6939 52.2889 17.0922 54.3935C15.993 55.3466 15.2801 56.422 14.9402 57.8438C16.0999 57.869 16.9694 57.4819 17.8417 57.0514C19.6716 56.1458 19.9155 56.2107 21.315 57.7745C21.9518 58.4856 22.5819 59.201 23.3574 60.0739C23.5394 59.5343 23.6825 59.2466 23.727 58.9438C23.8469 58.1123 23.977 57.2761 24.0136 56.4387C24.08 54.9083 24.7027 53.8637 26.2602 53.4566C26.7255 53.3336 27.1439 53.0321 27.7387 52.7342L27.7319 52.7385Z" fill="#ED946D"/>
<path d="M100.201 35.6715C101.412 36.094 102.573 36.4891 103.726 36.9103C104.275 37.1093 104.831 37.3077 105.334 37.594C106.269 38.1273 106.259 38.9764 105.323 39.5607C104.888 39.8352 104.406 40.0425 103.926 40.2388C102.492 40.8274 101.051 41.3915 99.5912 41.9755C99.3282 42.6743 99.0872 43.3386 98.8242 43.9979C98.5382 44.7206 98.2761 45.4589 97.9221 46.149C97.2421 47.4797 96.4042 47.6121 95.3382 46.5316C94.4764 45.6567 93.6927 44.7055 92.8605 43.77C91.4736 43.9117 90.1223 44.0498 88.7709 44.1879C88.3833 44.2275 87.9964 44.3102 87.6115 44.3064C86.6732 44.3017 86.1715 43.5409 86.6328 42.7104C87.1034 41.8645 87.7032 41.0882 88.2538 40.2881C88.5825 39.8125 88.9264 39.3461 89.3009 38.8264C88.6473 37.5996 88.0082 36.4072 87.376 35.2141C87.1628 34.8155 86.9215 34.4233 86.7737 33.9964C86.3427 32.7684 86.869 32.0822 88.1516 32.2206C89.3108 32.3465 90.4775 32.4753 91.6102 32.7296C92.7469 32.9872 93.5929 32.7211 94.3978 31.877C95.1082 31.1324 95.9622 30.517 96.7892 29.8899C97.1962 29.5788 97.6532 29.3057 98.1272 29.1315C98.6782 28.9314 99.2132 29.1355 99.3932 29.7064C99.6062 30.3782 99.7101 31.0862 99.7971 31.7888C99.9501 33.0057 100.053 34.2277 100.2 35.668L100.201 35.6715ZM102.418 38.8012L102.378 38.4171C101.535 38.1116 100.698 37.7947 99.8521 37.5002C98.1981 36.929 98.1992 36.9325 98.1212 35.1869C98.0972 34.6036 98.0662 34.0211 98.0072 33.4414C97.9522 32.9009 97.8572 32.3607 97.7352 31.5216C96.6652 32.4 95.7502 33.0145 95.0032 33.7915C94.0839 34.7478 93.0478 34.9472 91.8212 34.7239C91.0195 34.5795 90.2069 34.5044 89.0669 34.355C89.6514 35.5026 89.9664 36.4407 90.541 37.1761C91.5033 38.4001 91.2448 39.4219 90.3889 40.5047C90.0483 40.9348 89.7822 41.4255 89.3292 42.1258C90.5276 42.0033 91.4253 41.9619 92.3043 41.8074C93.1694 41.6579 93.7973 41.8956 94.3419 42.5837C94.9362 43.3351 95.6072 44.0284 96.4152 44.934C96.8532 43.7429 97.2082 42.7831 97.5632 41.8269C97.9432 40.7999 98.5442 40.063 99.6942 39.7838C100.627 39.5591 101.514 39.1378 102.421 38.8008L102.418 38.8012Z" fill="#ED946D"/>
<path d="M34.432 38.0538C33.9659 37.6379 33.5473 37.2656 33.0104 36.7861C32.414 37.2817 31.8872 37.7308 31.3476 38.1573C30.9689 38.4597 30.5443 38.5894 30.0993 38.2898C29.6932 38.0138 29.5491 37.3498 29.9683 36.9124C30.7221 36.128 31.5649 35.4212 32.4369 34.7735C32.6831 34.5918 33.2858 34.5879 33.5285 34.7677C34.3983 35.4197 35.3479 36.0668 35.9653 36.9352C36.7634 38.0611 36.382 39.2843 35.585 40.3589C33.8899 42.6506 31.0925 43.4309 28.299 42.3775C26.0862 41.5463 24.4621 38.6095 24.7724 36.0126C25.0754 33.4911 26.3388 31.8865 28.4823 31.3067C28.6073 31.2761 28.7358 31.2446 28.8608 31.214C29.4094 31.0798 29.9138 31.1109 30.1719 31.6991C30.357 32.1249 30.045 32.6245 29.4644 32.9138C29.3497 32.9713 29.2238 33.0132 29.098 33.0403C27.3247 33.4338 26.7961 34.7629 26.6279 36.3461C26.4442 38.0766 27.2274 39.4122 28.598 40.306C30.6263 41.6313 33.2634 40.6473 34.4303 38.0469L34.432 38.0538Z" fill="#ED946D"/>
<path d="M80.3338 25.3847C80.653 25.4132 80.899 25.4311 81.1495 25.4558C83.4318 25.6718 84.8383 27.0229 85.1195 29.2472C85.2523 30.3008 84.9263 31.1535 84.0883 31.814C82.8011 32.8259 80.2538 32.8311 79.0098 31.7688C78.5255 31.3548 78.1556 30.8644 77.4555 30.6951C77.1794 30.6299 76.9074 30.0073 76.8749 29.619C76.8392 29.1986 77.0661 28.7478 77.2057 28.3203C78.0563 25.7432 78.914 23.1653 79.7792 20.5903C79.9636 20.0396 80.1246 19.4698 80.4002 18.9673C80.5278 18.7387 80.9166 18.5337 81.1827 18.5352C81.6106 18.5382 81.8852 18.9054 81.8779 19.3266C81.8692 19.7695 81.7678 20.2182 81.6503 20.6506C81.2307 22.2063 80.7892 23.7571 80.3374 25.3843L80.3338 25.3847ZM79.6102 28.3261C80.0028 30.4097 80.7542 30.9761 82.379 30.4543C82.953 30.2699 83.2168 29.862 83.0896 29.2857C82.9158 28.4986 82.559 27.82 81.7346 27.5592C80.8362 27.2773 80.108 27.535 79.61 28.3226L79.6102 28.3261Z" fill="#ED946D"/>
<path d="M53.4453 26.595C53.0482 26.9745 52.803 27.2853 52.4907 27.4979C51.4344 28.2176 50.3136 28.2954 49.1945 27.6616C48.1189 27.0515 47.7341 26.0788 47.8255 24.8711C47.9498 23.1797 48.9246 21.9759 50.5856 21.5218C51.0115 21.4062 51.4532 21.3473 52.0401 21.2308C52.0248 20.3014 51.9963 19.4117 51.9965 18.5213C51.9982 18.0706 51.9523 17.582 52.1093 17.1842C52.2261 16.8841 52.6203 16.5298 52.9164 16.5036C53.2089 16.4776 53.6248 16.7735 53.8184 17.047C54.0306 17.3451 54.0747 17.773 54.1426 18.1537C54.6251 20.8295 55.0969 23.5056 55.5687 26.1816C55.6025 26.3702 55.6734 26.6007 55.6025 26.7529C55.4472 27.0791 55.2648 27.4632 54.9798 27.6321C54.7828 27.7485 54.3467 27.6248 54.1099 27.4705C53.8585 27.3059 53.7169 26.9737 53.4455 26.6022L53.4453 26.595ZM51.8568 23.3744C51.015 23.0654 50.4917 23.409 50.1722 23.8757C49.9077 24.2657 49.7841 24.8307 49.8082 25.3092C49.8232 25.5913 50.2143 26.0202 50.4985 26.0802C50.7826 26.1366 51.2872 25.8972 51.4409 25.639C51.8267 24.9845 52.0888 24.2513 51.8569 23.378L51.8568 23.3744Z" fill="#ED946D"/>
<path d="M71.6455 23.3337C71.7654 23.3466 72.3418 23.3955 72.9114 23.4846C74.3543 23.7145 75.207 24.5688 75.521 25.9884C75.8367 27.4258 75.302 28.5226 74.1631 29.3684C72.6939 30.4636 69.8251 30.2393 68.8202 28.9154C67.9566 27.7783 67.9438 26.4932 68.4611 25.2258C68.9441 24.0445 69.8903 23.4232 71.6452 23.3301L71.6455 23.3337ZM70.1737 27.638C71.6231 28.2481 72.1571 28.3049 72.8435 27.9186C73.397 27.6033 73.6991 27.1484 73.5948 26.4799C73.5029 25.8964 73.1606 25.5361 72.5849 25.4584C72.0782 25.388 71.5606 25.351 71.0531 25.3778C70.4563 25.41 70.1 25.7914 70.0554 26.3745C70.0291 26.7508 70.1221 27.133 70.1733 27.6345L70.1737 27.638Z" fill="#ED946D"/>
<path d="M67.3219 23.6221C67.2616 24.5087 67.2406 25.6751 67.092 26.8222C66.9373 28.0166 66.3138 29.0182 65.4334 29.8268C64.1125 31.0362 62.3696 31.0346 61.0398 29.8374C59.9553 28.8594 59.535 27.5944 59.6226 26.1661C59.6422 25.8658 59.792 25.5379 59.971 25.286C60.332 24.7748 61.1981 24.8803 61.391 25.4679C61.531 25.8884 61.462 26.3734 61.5985 26.7942C61.7757 27.3331 61.9815 27.905 62.3338 28.3289C62.8663 28.968 63.6075 28.9426 64.2131 28.3632C64.8903 27.7119 65.3033 26.9007 65.3732 25.9665C65.4433 24.9999 65.423 24.0282 65.4461 23.0592C65.4541 22.6092 65.384 22.1349 65.5066 21.7163C65.5761 21.4828 65.9504 21.2074 66.204 21.1923C66.443 21.175 66.8522 21.4171 66.9285 21.6357C67.1203 22.1766 67.1664 22.7684 67.3223 23.6257L67.3219 23.6221Z" fill="#ED946D"/>
<path d="M35.3125 31.6526C35.4012 31.2554 35.5325 30.4299 35.7976 29.6482C35.9082 29.3243 36.2587 29.0262 36.5695 28.8327C38.0536 27.9192 40.0114 28.5816 41.0026 30.2985C42.0498 32.1068 41.6785 33.9594 40.0961 34.8613C37.9837 36.0618 35.615 34.6832 35.3128 31.6561L35.3125 31.6526ZM37.9393 30.493C37.8352 30.5647 37.5836 30.6695 37.4446 30.8562C36.9126 31.5573 37.1727 32.7669 37.9427 33.1984C38.4423 33.4816 38.931 33.446 39.3363 33.0165C39.7384 32.5909 39.7213 32.1076 39.4862 31.5998C39.1445 30.8585 38.6424 30.4463 37.9429 30.4926L37.9393 30.493Z" fill="#ED946D"/>
<path d="M47.4762 27.8562C47.625 29.4185 46.4778 30.8509 44.8383 31.1585C43.3293 31.4421 41.908 30.4734 41.5403 28.8796C41.2649 27.6968 41.3973 26.5657 42.1549 25.5756C42.7476 24.7999 43.5219 24.4298 44.5194 24.6261C45.8873 24.8959 47.3469 26.486 47.4762 27.8562ZM44.5155 29.2655C45.1107 29.1472 45.5836 28.5706 45.5124 28.0497C45.4126 27.3196 44.5082 26.5568 43.9195 26.7032C43.3973 26.8321 43.1093 27.5658 43.2902 28.3163C43.4456 28.958 43.9804 29.3741 44.5155 29.2655Z" fill="#ED946D"/>
<path d="M66.2668 16.902C66.9106 16.8722 67.507 17.4688 67.4917 18.1279C67.48 18.6466 66.9926 19.1168 66.4875 19.0966C65.8852 19.0755 65.3965 18.5828 65.3738 17.9742C65.353 17.4194 65.766 16.9244 66.2664 16.8984L66.2668 16.902Z" fill="#ED946D"/>
<path d="M54.4567 65.0246C58.3903 66.2792 65.7612 64.3545 68.8803 61.1898C68.6529 61.0047 68.4405 60.8251 68.2189 60.6609C67.8259 60.3669 67.5648 60.0271 67.7921 59.508C68.0391 58.9365 68.5247 58.8007 69.0744 58.8702C70.1742 59.013 71.412 60.2951 71.6096 61.5254C72.0498 64.2509 71.413 66.6696 69.4631 68.6871C67.6726 70.541 65.4299 71.5212 62.9206 71.792C59.4907 72.1604 56.384 71.3316 53.7261 68.9873C52.2489 67.6829 52.1345 66.1063 52.4936 64.3808C52.5686 64.0245 52.82 63.6719 53.0723 63.3981C53.4478 62.9932 54.1657 63.1966 54.3212 63.7341C54.3886 63.9715 54.3372 64.2427 54.3598 64.4991C54.3787 64.684 54.4261 64.866 54.4535 65.0285L54.4567 65.0246ZM55.1083 67.4626C55.6443 67.9253 55.8521 68.1663 56.1086 68.3198C59.4381 70.344 62.8458 70.427 66.2812 68.635C67.8986 67.7941 69.029 66.4784 69.5448 64.7045C69.6377 64.3824 69.5601 64.0094 69.5633 63.5132C65.2064 66.3804 60.5631 67.534 55.1083 67.4626Z" fill="#ED946D"/>
<path d="M70.3828 45.2165C71.9757 45.086 73.3414 46.3191 73.4631 48.0027C73.5793 49.5971 72.4885 50.9842 70.9825 51.1561C69.3947 51.3363 68.0156 50.1477 67.8383 48.4482C67.6588 46.6914 68.7081 45.3552 70.3828 45.2165Z" fill="#ED946D"/>
<path d="M49.7002 54.1021C49.8376 55.4463 49.1832 56.6379 48.0431 57.121C46.9685 57.5757 45.7386 57.2846 44.8434 56.3663C43.8114 55.304 43.5239 53.6157 44.1693 52.4071C44.7606 51.301 45.9098 50.7667 47.1162 51.0387C48.4991 51.3501 49.5462 52.5942 49.7006 54.1056L49.7002 54.1021Z" fill="#ED946D"/>
</svg>
