<svg width="111" height="97" viewBox="0 0 111 97" fill="none" xmlns="http://www.w3.org/2000/svg">
    <defs>
        <linearGradient id="paint0_linear_5062_1709" x1="49.7254" y1="0.644111" x2="61.2516" y2="95.5699"
            gradientUnits="userSpaceOnUse">
            <stop stop-color="#FBAA19" />
            <stop offset="1" stop-color="#F26647" />
        </linearGradient>
        <linearGradient id="paint1_linear_5062_1709" x1="50.1467" y1="6.84856" x2="60.19" y2="89.5615"
            gradientUnits="userSpaceOnUse">
            <stop stop-color="#FBAA19" />
            <stop offset="1" stop-color="#F26647" />
        </linearGradient>
        <linearGradient id="paint2_linear_5062_1709" x1="51.0259" y1="31.1412" x2="57.1257" y2="81.3774"
            gradientUnits="userSpaceOnUse">
            <stop stop-color="#FBAA19" />
            <stop offset="1" stop-color="#F26647" />
        </linearGradient>
        <linearGradient id="paint3_linear_5062_1709" x1="22.6211" y1="33.0597" x2="24.6456" y2="49.7332"
            gradientUnits="userSpaceOnUse">
            <stop stop-color="#FBAA19" />
            <stop offset="1" stop-color="#F26647" />
        </linearGradient>
        <linearGradient id="paint4_linear_5062_1709" x1="51.6057" y1="12.72" x2="53.4346" y2="27.7818"
            gradientUnits="userSpaceOnUse">
            <stop stop-color="#FBAA19" />
            <stop offset="1" stop-color="#F26647" />
        </linearGradient>
        <linearGradient id="paint5_linear_5062_1709" x1="35.6898" y1="21.0629" x2="37.5628" y2="36.4887"
            gradientUnits="userSpaceOnUse">
            <stop stop-color="#FBAA19" />
            <stop offset="1" stop-color="#F26647" />
        </linearGradient>
        <linearGradient id="paint6_linear_5062_1709" x1="71.7919" y1="17.2929" x2="73.5358" y2="31.655"
            gradientUnits="userSpaceOnUse">
            <stop stop-color="#FBAA19" />
            <stop offset="1" stop-color="#F26647" />
        </linearGradient>
        <linearGradient id="paint7_linear_5062_1709" x1="87.8973" y1="25.2617" x2="89.7179" y2="40.256"
            gradientUnits="userSpaceOnUse">
            <stop stop-color="#FBAA19" />
            <stop offset="1" stop-color="#F26647" />
        </linearGradient>
        <linearGradient id="paint8_linear_5062_1709" x1="57.1848" y1="54.6466" x2="58.1741" y2="62.7943"
            gradientUnits="userSpaceOnUse">
            <stop stop-color="#FBAA19" />
            <stop offset="1" stop-color="#F26647" />
        </linearGradient>
        <linearGradient id="paint9_linear_5062_1709" x1="43.8718" y1="46.6959" x2="44.4252" y2="51.2534"
            gradientUnits="userSpaceOnUse">
            <stop stop-color="#FBAA19" />
            <stop offset="1" stop-color="#F26647" />
        </linearGradient>
        <linearGradient id="paint10_linear_5062_1709" x1="65.5951" y1="40.8326" x2="66.1306" y2="45.2427"
            gradientUnits="userSpaceOnUse">
            <stop stop-color="#FBAA19" />
            <stop offset="1" stop-color="#F26647" />
        </linearGradient>
    </defs>
    <path
        d="M59.2651 95.811C46.8345 97.123 34.1085 94.986 22.4644 87.873C13.2835 82.2671 6.54217 74.5354 2.95449 64.2907C-1.13009 52.6207 0.0724792 41.2703 5.63137 30.3824C11.1953 19.4806 19.8476 11.6326 30.8349 6.46235C47.3399 -1.30092 64.2157 -2.16147 81.2307 4.72335C90.6197 8.52455 98.3592 14.5759 103.709 23.2544C112.135 36.9113 112.531 51.1158 105.52 65.4184C99.7792 77.1364 90.3654 85.1503 78.6311 90.5481C72.7974 93.2329 66.6495 94.871 59.2647 95.808L59.2651 95.811ZM59.3127 93.9488C65.3507 93.1656 70.4847 91.9212 75.4158 89.9136C86.7222 85.3089 96.0212 78.1969 102.251 67.5815C109.468 55.287 110.761 42.3965 104.85 29.2122C100.271 18.9978 92.4642 11.8095 82.3618 7.24695C66.2049 -0.0492692 49.8811 0.270181 33.6981 7.16635C22.7623 11.8262 14.0065 19.1793 8.12357 29.6257C2.01772 40.4632 0.65455 51.8931 4.7262 63.7316C8.06577 73.4455 14.4953 80.7811 23.1681 86.1349C34.5191 93.1433 46.9397 95.268 59.316 93.9484L59.3127 93.9488Z"
        fill="url(#paint0_linear_5062_1709)" />
    <path
        d="M52.5212 6.56026C63.263 5.38946 75.2333 7.32476 86.1558 14.1314C93.7915 18.89 99.4986 25.3617 102.543 33.9095C105.989 43.5938 105.211 53.1065 100.697 62.2851C96.0376 71.7549 88.7192 78.6864 79.3825 83.3724C63.0222 91.5855 46.2977 92.4277 29.4002 84.9977C24.0499 82.6459 19.3326 79.2925 15.4752 74.8831C5.15574 63.0888 2.97348 49.8457 9.08374 35.4421C12.9745 26.2691 19.7836 19.5463 28.2543 14.4647C35.1596 10.321 42.64 7.80676 52.5249 6.56316L52.5212 6.56026ZM58.3276 87.842C66.578 86.8302 73.5446 84.6489 80.0104 80.9825C88.7216 76.0386 95.5906 69.3119 99.7086 60.058C105.503 47.0415 103.045 32.7603 93.2987 22.3652C89.3752 18.1809 84.7801 14.8994 79.5116 12.6713C63.2357 5.79676 47.2128 6.80746 31.6017 14.7293C22.8496 19.1707 15.9745 25.7079 11.5064 34.5536C4.51358 48.3966 7.06654 64.0053 18.046 74.9382C21.0541 77.935 24.4521 80.4036 28.2124 82.3642C37.971 87.4492 48.3573 88.9324 58.328 87.8453L58.3276 87.842Z"
        fill="url(#paint1_linear_5062_1709)" />
    <path
        d="M26.287 64.8981C25.8937 64.6286 25.4363 64.3537 25.0223 64.0233C22.7082 62.1776 21.5084 59.7759 21.6385 56.8054C21.7968 53.1871 25.0389 51.3746 28.1814 53.1965C29.2912 53.8396 30.192 54.852 31.2523 55.7483C31.7583 54.4716 32.0072 53.2762 31.5045 51.8315C30.3467 48.5099 31.317 45.5576 33.601 43.0033C34.9972 41.4416 36.7505 40.374 38.7634 39.8491C39.7571 39.5916 40.4828 39.1062 41.1747 38.3978C43.8787 35.6189 46.9474 33.3133 50.3986 31.5454C51.0616 31.2045 51.8661 30.9833 52.6094 30.9732C56.9051 30.9089 61.1079 31.5371 65.2363 32.7619C66.0637 33.0053 67.0082 33.0575 67.8662 32.9467C69.7399 32.7058 71.595 32.6408 73.4067 33.2088C77.0408 34.35 79.4781 36.6048 79.8023 40.5951C79.8736 41.4846 80.3589 42.0166 80.8666 42.596C83.6999 45.8309 85.6671 49.5217 86.3839 53.7748C87.3693 59.608 85.8991 64.8779 82.2771 69.5277C78.3544 74.5612 73.0673 77.5136 67.0419 79.2802C65.2045 79.8204 63.3688 80.4306 61.4906 80.7722C55.2471 81.8975 49.0281 81.6845 42.9243 79.9183C41.388 79.4738 39.9136 78.7147 38.5237 77.9086C37.8123 77.4942 37.1878 77.5199 36.4761 77.5429C31.0208 77.7078 26.3979 73.6752 26.0601 68.3911C25.9872 67.2682 26.1996 66.1306 26.2841 64.9017L26.287 64.8981ZM79.4349 43.9483C77.8111 47.5676 75.1775 49.8271 71.6083 50.9249C66.5135 52.4917 61.0302 51.1343 58.5872 46.4397C58.5398 46.3519 58.4043 46.3083 58.0561 46.0801C56.4253 46.562 54.6076 47.0998 52.8541 47.6166C52.9246 56.6657 41.5042 62.1189 33.3011 55.4093C33.1122 56.5207 32.9385 57.5367 32.7315 58.747C35.435 58.2452 37.8721 58.2998 40.1764 59.4322C42.5414 60.5974 44.2823 62.3691 45.2145 64.8501C46.9116 69.3682 45.5207 72.8156 40.2998 76.9184C41.062 77.2565 41.7322 77.5524 42.3249 77.8143C43.5967 76.4646 44.6619 75.1467 45.9123 74.0334C51.7678 68.8052 58.7086 65.9993 66.4697 65.274C71.4179 64.81 76.2074 65.4304 80.4863 68.2795C80.5662 68.3332 80.7082 68.2926 80.8221 68.2955C86.6127 61.2957 86.081 51.0606 79.4419 43.9508L79.4349 43.9483ZM79.4666 69.9458C77.425 68.3641 75.2655 67.6815 73.0029 67.3052C68.212 66.508 63.5423 67.1485 58.978 68.6576C53.9486 70.3232 49.4202 72.8429 45.758 76.7497C45.3264 77.2094 44.9513 77.7224 44.4097 78.3758C45.0051 78.5505 45.3303 78.6713 45.6692 78.7403C48.9773 79.4237 52.3243 79.685 55.6956 79.5695C58.2159 79.4838 60.688 79.1936 63.1016 78.3397C65.3584 77.5415 67.761 77.1463 69.9909 76.2912C73.5479 74.9279 76.7278 72.9058 79.4695 69.9421L79.4666 69.9458ZM37.1924 75.633C41.4128 75.1139 44.423 71.4465 43.9872 67.3628C43.5171 62.9962 39.2234 59.6948 34.6803 60.3333C30.4752 60.924 27.442 64.3472 27.899 68.6052C28.3739 73.0113 32.6035 76.1969 37.1924 75.633ZM34.0778 52.9246C34.3155 53.2596 34.4911 53.5788 34.7328 53.8366C38.901 58.3318 47.4631 57.0551 50.1398 51.5485C51.4566 48.8379 51.0005 45.8785 48.8716 43.7432C46.9815 41.8427 44.6324 41.0562 41.9919 41.1965C41.4611 41.2243 40.8002 41.5282 40.4613 41.9266C37.67 45.1968 35.4834 48.8277 34.0778 52.9246ZM69.0534 49.6259C72.7876 48.9521 75.8331 47.2803 77.4837 43.6611C78.0554 42.4031 77.9933 42.1937 77.013 41.3245C74.1985 38.8217 71.0048 36.9359 67.5046 35.578C66.9964 35.3793 66.2829 35.3324 65.7893 35.5292C63.3028 36.5256 61.3595 38.1738 60.3184 40.7074C59.0682 43.7471 60.1143 46.8085 62.9544 48.4768C64.8383 49.5835 66.8831 49.8994 69.0538 49.6292L69.0534 49.6259ZM63.5869 34.4111C63.3174 34.2536 63.1748 34.124 63.0093 34.0806C59.5668 33.1431 56.0541 32.7817 52.499 32.7861C52.2087 32.7879 51.8928 32.853 51.6383 32.9841C48.5142 34.5586 45.6786 36.5289 43.0151 39.2294C47.5103 39.8187 50.7866 41.8347 52.4255 45.9292C54.4004 45.3388 56.1659 44.8106 57.9535 44.2731C57.7191 39.7576 60.0446 36.7476 63.5898 34.4074L63.5869 34.4111ZM27.1022 63.0329C28.2833 61.8445 29.3659 60.7516 30.4963 59.6127C30.1332 57.5301 29.1432 55.8107 27.2354 54.7537C25.3661 53.7119 23.726 54.6122 23.4829 56.735C23.195 59.2306 24.6503 61.7849 27.1026 63.0362L27.1022 63.0329ZM37.4111 42.4872C34.1466 44.2525 32.5291 47.1265 33.1177 49.8294C34.5165 47.436 35.9019 45.071 37.4111 42.4872ZM70.8026 34.8037C73.1668 36.3195 75.289 37.6844 77.4977 39.1022C76.5395 36.4074 74.1225 34.8145 70.8026 34.8037Z"
        fill="url(#paint2_linear_5062_1709)" />
    <path
        d="M27.7719 44.5412C27.5989 45.8109 27.4804 47.0071 27.2625 48.1821C27.0022 49.5859 26.3707 49.8562 25.0949 49.1931C24.9345 49.1091 24.7489 49.0382 24.6392 48.9046C23.0445 46.9348 20.8768 47.2013 18.7307 47.3718C18.0728 47.425 17.4121 47.5386 16.7561 47.5247C15.5677 47.4988 15.0455 46.8277 15.5607 45.7635C16.099 44.6432 16.8927 43.6454 17.5985 42.6115C17.7625 42.3679 18.025 42.1924 18.3567 41.8717C17.6582 40.7112 17.0025 39.6557 16.3843 38.5789C15.9063 37.7489 15.4151 36.9205 15.0383 36.0448C14.5963 35.0167 15.0407 34.3318 16.1349 34.4626C17.4388 34.6148 18.7251 34.9528 20.0021 35.2684C20.7525 35.4544 21.4733 35.7542 22.1483 35.9794C23.4363 34.9282 24.6185 33.9133 25.8677 32.9837C26.2535 32.6965 26.9246 32.4214 27.2772 32.5755C27.6297 32.7297 27.8925 33.4089 27.9406 33.8872C28.0618 35.0777 28.0513 36.2842 28.0701 37.4839C28.0838 38.2835 28.3774 38.8321 29.1718 39.1329C29.8434 39.3852 30.4748 39.7459 31.1133 40.0824C31.7415 40.4168 32.511 40.6772 32.5458 41.5411C32.585 42.5245 31.7171 42.8002 31.043 43.1324C30.0258 43.6365 28.9564 44.0402 27.7756 44.5441L27.7719 44.5412ZM25.9615 35.0757C25.2099 35.7045 24.4181 36.1678 23.8994 36.8451C23.1816 37.7803 22.3427 37.8822 21.3524 37.6185C20.6 37.416 19.8748 37.1068 19.1273 36.8904C18.591 36.7352 18.033 36.6493 17.1556 36.4621C18.1805 38.1939 18.9418 39.6239 19.8505 40.9492C20.3781 41.7198 20.2601 42.2048 19.6778 42.8264C18.921 43.6328 18.0543 44.3857 17.6172 45.6807C18.5161 45.6317 19.2554 45.6989 19.9367 45.536C21.9639 45.0461 23.7201 45.3771 25.1727 46.9468C25.2149 46.9918 25.3775 46.9286 25.5881 46.903C25.685 46.1067 25.8347 45.2772 25.8705 44.4449C25.9146 43.3779 26.3942 42.8188 27.4511 42.587C28.2122 42.4211 29.0387 42.244 29.5979 41.515C28.6112 40.6199 26.9864 40.6569 26.669 39.1697C26.3976 37.8973 26.2237 36.603 25.9656 35.0819L25.9615 35.0757Z"
        fill="url(#paint3_linear_5062_1709)" />
    <path
        d="M52.1656 25.6418C51.4789 26.256 50.7561 26.9848 49.9491 27.5969C49.5546 27.8952 48.9752 28.1826 48.5269 28.1201C47.7799 28.0172 47.8069 27.2494 47.7855 26.661C47.7443 25.5242 47.7631 24.3868 47.7551 23.1659C46.7691 22.7447 45.7645 22.3626 44.8026 21.8918C43.2863 21.1444 43.2271 20.3269 44.6385 19.4678C45.612 18.8789 46.6529 18.4053 47.7834 17.8173C47.9866 16.7142 48.1522 15.4655 48.4586 14.2497C48.8164 12.8241 49.5152 12.6124 50.6394 13.5676C51.2759 14.108 51.8879 14.7214 52.3645 15.4014C53.0639 16.4049 53.992 16.6795 55.1433 16.7032C56.7062 16.7338 58.2668 16.8281 59.8222 16.9898C60.3059 17.0413 61.0777 17.3215 61.1523 17.6329C61.2624 18.1003 61.0141 18.8049 60.6707 19.1938C60.0429 19.9077 59.2806 20.5311 58.4952 21.0738C57.7526 21.5847 57.4715 22.1563 57.6496 23.0461C57.827 23.9294 57.9364 24.8309 57.9822 25.7301C58.0585 27.1831 57.5106 27.6203 56.1297 27.1636C54.8252 26.7311 53.563 26.1799 52.1681 25.6348L52.1656 25.6418ZM56.0951 25.3115C55.9609 24.206 55.9369 23.5412 55.7924 22.9011C55.4896 21.5623 55.8077 20.5522 57.0815 19.88C57.5272 19.6456 57.8846 19.2349 58.2821 18.9062C56.8569 18.5251 55.4272 18.1612 54.1968 18.5042C53.0311 18.8294 52.5509 18.477 51.96 17.7074C51.3933 16.9716 50.7564 16.2911 49.9437 15.3448C49.7765 16.4969 49.5954 17.26 49.5684 18.0279C49.5349 19.0168 49.1926 19.5792 48.1351 19.7243C47.5639 19.8037 47.0261 20.1595 46.1274 20.539C47.1545 20.9418 47.7467 21.2271 48.3693 21.4053C49.3479 21.6837 49.7264 22.2988 49.6457 23.2835C49.5984 23.8568 49.6186 24.4353 49.6034 25.2451C50.1408 24.8593 50.4767 24.6282 50.8003 24.3786C52.2162 23.2819 52.291 23.2928 53.8043 24.2075C54.3987 24.566 55.0601 24.8162 56.0947 25.3082L56.0951 25.3115Z"
        fill="url(#paint4_linear_5062_1709)" />
    <path
        d="M35.5932 23.3698C36.9622 22.6561 38.3222 21.8967 39.728 21.2385C40.1735 21.0309 40.8388 20.8999 41.2484 21.0839C41.926 21.3855 41.6336 22.1122 41.551 22.6965C41.4093 23.7019 41.2783 24.7128 41.153 25.6327C42.1968 26.6678 43.2386 27.5763 44.1295 28.6166C45.2578 29.9353 44.8937 30.7039 43.1469 30.9727C41.9672 31.156 40.7928 31.3822 39.6028 31.5901C39.2199 32.8085 38.9198 33.9667 38.49 35.0739C37.7967 36.8708 36.9083 37.0053 35.6808 35.475C34.9724 34.5895 34.29 33.644 33.8159 32.6266C33.4373 31.8178 32.9316 31.5855 32.1459 31.6042C31.4269 31.6213 30.6978 31.6932 29.989 31.6023C28.8799 31.4599 28.5697 30.8298 29.0814 29.8195C29.4043 29.1793 29.7696 28.5307 30.2471 28.0086C30.9284 27.2682 30.8909 26.575 30.5231 25.7182C30.1966 24.9533 29.9693 24.1262 29.8163 23.3067C29.5832 22.0463 30.184 21.4125 31.4415 21.7606C32.8132 22.1416 34.1133 22.785 35.5903 23.3735L35.5932 23.3698ZM32.0606 23.752C31.9637 23.8339 31.8705 23.9187 31.7736 24.0006C31.9667 24.6014 32.0907 25.2374 32.3658 25.7983C32.8752 26.8315 32.8889 27.7146 31.9717 28.5471C31.6587 28.8288 31.5005 29.2854 31.1747 29.8191C31.866 29.8486 32.343 29.9276 32.8044 29.8783C34.0727 29.7376 34.8055 30.2462 35.2564 31.4568C35.5781 32.3192 36.19 33.0694 36.8468 34.1616C37.238 32.9288 37.6047 32.0998 37.75 31.2342C37.9189 30.2054 38.5092 29.8433 39.4355 29.7174C40.2432 29.606 41.0418 29.4189 42.2298 29.1945C41.429 28.5105 40.9498 28.0011 40.3739 27.6304C38.9901 26.7367 38.99 26.7634 39.3547 25.0932C39.4709 24.565 39.4737 24.0104 39.5673 23.1043C38.326 23.8526 37.3905 24.2867 36.6163 24.9216C35.8812 25.5217 35.2961 25.5426 34.5266 25.0618C33.739 24.5699 32.8812 24.1866 32.0544 23.7561L32.0606 23.752Z"
        fill="url(#paint5_linear_5062_1709)" />
    <path
        d="M70.2586 27.9384C69.1773 28.2166 68.0908 28.5623 66.9773 28.7676C65.5371 29.0326 65.0209 28.4108 65.5346 27.0597C65.8533 26.2197 66.2836 25.4196 66.6795 24.6103C67.0675 23.8187 66.9781 23.1652 66.3643 22.4818C65.8115 21.8612 65.3401 21.1406 64.9628 20.3985C64.3309 19.1532 64.7037 18.4569 66.1225 18.318C67.0691 18.2231 68.0661 18.2122 68.9907 18.4037C70.8372 18.7905 72.5451 18.7232 74.1175 17.5674C74.4027 17.3592 74.7554 17.2397 75.0889 17.099C76.8255 16.3607 77.468 16.7299 77.494 18.5664C77.5054 19.4031 77.4744 20.2749 77.2467 21.0671C76.9175 22.2054 77.3792 22.9006 78.2131 23.5271C78.7388 23.9241 79.245 24.3534 79.7392 24.7942C80.2338 25.2382 80.7777 25.703 80.5633 26.4669C80.3322 27.2862 79.5838 27.2268 78.9361 27.3088C78.0449 27.4204 77.1528 27.5253 76.077 27.6559C75.7854 28.4992 75.4955 29.466 75.1214 30.3995C74.557 31.8002 73.7353 31.99 72.7024 30.9068C71.8763 30.0423 71.1731 29.0626 70.259 27.9417L70.2586 27.9384ZM73.4727 29.1941C73.9624 27.9761 74.1106 26.8865 74.731 26.277C75.3122 25.7023 76.3891 25.6349 77.2901 25.3286C77.1788 25.1818 77.1021 25.0175 76.9729 24.9164C75.5746 23.8208 74.9071 22.503 75.5186 20.6926C75.6984 20.1667 75.652 19.5647 75.7258 18.8246C74.0447 19.2223 72.9273 20.4964 71.3148 20.3316C69.8716 20.1863 68.419 20.129 66.6016 20.0091C67.3375 20.928 67.7788 21.5656 68.31 22.1187C68.8265 22.6603 69.0019 23.1699 68.6931 23.8985C68.3274 24.7642 68.078 25.6791 67.7256 26.7369C68.6404 26.4889 69.3855 26.3017 70.1275 26.0881C70.9307 25.857 71.5059 26.0576 71.9299 26.8274C72.329 27.5569 72.8344 28.2266 73.4727 29.1941Z"
        fill="url(#paint6_linear_5062_1709)" />
    <path
        d="M87.0764 28.0696C87.7598 27.3189 88.4545 26.4967 89.2099 25.7339C90.4262 24.5045 91.2353 24.7067 91.7692 26.3814C92.1144 27.4646 92.4681 28.5634 92.6311 29.6854C92.7732 30.6631 93.2631 31.1511 94.1261 31.467C94.744 31.6891 95.3502 31.9762 95.9122 32.3185C96.8782 32.909 96.9712 33.5855 96.1012 34.3187C95.2842 35.0089 94.3978 35.6841 93.4334 36.1284C92.3394 36.6318 91.7313 37.3701 91.5057 38.5092C91.4604 38.7417 91.3643 38.9671 91.2603 39.1833C90.7286 40.3029 89.952 40.5341 88.974 39.7381C88.2816 39.1778 87.6435 38.5141 87.1186 37.7933C86.5896 37.0662 86.0179 36.7851 85.1425 36.9715C84.3222 37.1446 83.4855 37.2929 82.6529 37.3372C81.6513 37.3921 81.1828 36.7512 81.5721 35.8325C81.873 35.1216 82.2915 34.4431 82.7533 33.8195C83.3175 33.0499 83.4556 32.3721 82.8348 31.5493C82.4052 30.9805 82.0906 30.3143 81.7973 29.6588C81.2291 28.389 81.6799 27.6198 83.057 27.6596C84.367 27.6975 85.6693 27.9199 87.0768 28.0729L87.0764 28.0696ZM90.3851 27.6311L89.9223 27.5037C89.4146 28.0795 88.8167 28.5995 88.428 29.2476C87.9698 30.011 87.4465 30.128 86.6328 29.943C85.7575 29.7455 84.8647 29.2396 83.8825 29.7294C84.2952 30.6809 84.947 31.5399 84.9772 32.421C85.0089 33.3419 84.4494 34.2879 84.1065 35.3412C84.6132 35.2797 85.037 35.2783 85.428 35.1707C86.7171 34.8172 87.6038 35.3005 88.3087 36.3767C88.6448 36.8901 89.1326 37.305 89.8525 38.0923C90.0224 35.8348 91.2295 34.9971 92.8042 34.4654C93.2758 34.3079 93.6682 33.9097 94.3502 33.4497C92.9719 32.8224 91.8166 32.2983 90.9017 31.8853L90.3847 27.6278L90.3851 27.6311Z"
        fill="url(#paint7_linear_5062_1709)" />
    <path
        d="M58.2342 62.7867C55.6294 62.9461 53.1247 62.2253 51.1843 60.0203C50.9091 59.7065 50.6505 59.364 50.4557 58.997C50.1695 58.4542 49.9181 57.8137 50.5892 57.4017C51.2822 56.977 51.6522 57.5497 52.0295 58.0447C54.0382 60.6754 56.7109 61.5695 59.6046 60.6005C62.0457 59.7799 63.2497 57.9277 62.9932 55.3747C62.9749 55.1966 62.8667 54.9928 62.9227 54.8491C63.06 54.4952 63.292 53.8761 63.4502 53.8869C63.8476 53.9155 64.5069 54.176 64.5557 54.4405C64.7447 55.4191 64.9194 56.4729 64.7528 57.438C64.2684 60.2679 61.6653 62.3935 58.2342 62.7867Z"
        fill="url(#paint8_linear_5062_1709)" />
    <path
        d="M46.3638 48.8611C46.5308 50.0995 45.7483 51.106 44.5063 51.2434C43.2972 51.3769 42.037 50.2913 41.9267 49.026C41.8304 47.9025 42.7785 46.8025 43.9431 46.6878C45.065 46.5783 46.1894 47.5903 46.3638 48.8611Z"
        fill="url(#paint9_linear_5062_1709)" />
    <path
        d="M66.2703 45.2243C64.9367 45.3495 63.786 44.4242 63.6283 43.0978C63.4845 41.9134 64.2702 40.9332 65.4228 40.8567C66.5688 40.781 67.9854 42.0546 68.1368 43.3016C68.2695 44.3939 67.5842 45.1014 66.2703 45.2243Z"
        fill="url(#paint10_linear_5062_1709)" />
</svg>