<svg width="117" height="104" viewBox="0 0 117 104" fill="none" xmlns="http://www.w3.org/2000/svg">
<path d="M67.6441 83.3446C63.6129 84.1656 59.5768 83.8838 55.5519 83.6687C50.2037 83.3868 44.967 82.4538 39.9267 80.5855C36.4536 79.2986 33.2112 77.5902 30.394 75.1577C24.4264 70.0105 22.2017 63.5029 23.4293 55.7727C23.8751 52.975 24.7961 50.3227 26.0684 47.7963C26.5389 46.8632 26.7491 45.986 26.5394 44.9098C25.7816 40.9901 27.0444 37.6438 29.7575 34.8301C32.1378 32.3585 35.0983 30.9167 38.5015 30.5481C39.6476 30.4232 40.5387 30.0272 41.3939 29.299C44.8623 26.3579 48.6146 23.812 52.4506 21.3808C53.5851 20.6618 54.6275 20.5182 55.9083 20.8821C57.4256 21.3108 59.0076 21.5031 60.5559 21.8299C61.7537 22.0829 62.9509 22.3562 64.1254 22.6857C65.6504 23.1131 67.1397 23.9009 68.6758 23.9882C70.1179 24.0671 71.5858 23.3443 73.0618 23.1235C78.1645 22.3554 82.4628 23.8333 85.746 27.907C87.2982 29.832 88.0167 32.1111 87.9761 34.5424C87.9583 35.7496 88.373 36.5617 89.1238 37.4096C91.7287 40.3492 93.8133 43.6142 95.0843 47.3587C98.0323 56.0317 96.4003 63.8463 90.563 70.8036C86.7697 75.3258 81.9191 78.3994 76.4707 80.5065C73.5917 81.6204 70.5855 82.4095 67.6363 83.3459L67.6441 83.3446ZM27.9312 49.0568C26.3823 52.2339 25.4935 55.3158 25.3221 58.5948C25.073 63.4173 26.4371 67.71 29.6547 71.3476C33.1556 75.304 37.65 77.6107 42.6675 79.1768C45.0017 75.5732 48.4555 73.5004 52.2138 71.9442C55.0653 70.7625 57.99 69.6569 60.982 68.9267C70.3109 66.6563 79.6864 65.4736 89.2092 68.9578C92.8599 64.5925 94.6733 59.5706 94.2493 53.8588C93.8223 48.0628 91.3085 43.1789 87.367 38.8296C82.6338 48.8507 68.4356 50.1704 62.6324 40.0096C59.9424 40.407 57.199 40.7973 54.6482 41.3282C54.4936 41.6523 54.4474 41.7125 54.4352 41.783C54.403 41.9978 54.3708 42.2127 54.3706 42.4262C54.3349 46.9388 52.1704 50.2842 48.4999 52.6472C42.0301 56.8115 33.1605 55.5529 28.7178 49.8786C28.5438 49.6583 28.3268 49.4693 27.928 49.0614L27.9312 49.0568ZM87.4274 70.8975C86.8526 70.6159 86.4997 70.3372 86.1133 70.2654C83.8536 69.8492 81.5995 69.2749 79.322 69.1355C71.3022 68.6438 63.5335 70.0469 55.9978 72.7356C52.8735 73.8507 49.8672 75.2599 47.2604 77.367C46.4494 78.0233 45.5568 78.6491 45.1769 79.8086C45.5706 79.9476 45.8279 80.0653 46.0949 80.121C54.2144 81.8001 62.3384 82.4796 70.472 80.2337C76.0827 78.6831 81.2936 76.314 85.761 72.4956C86.2886 72.0441 86.7665 71.5366 87.4274 70.8975ZM42.0706 52.7329C45.289 52.2706 48.1663 50.6697 50.0401 48.3923C53.4537 44.2442 52.522 38.5536 48.775 35.4522C46.8292 33.8433 44.5901 32.9765 42.0984 32.6639C41.3048 32.5641 40.7179 32.7356 40.1468 33.2629C36.272 36.8484 32.7756 40.7447 29.9375 45.2267C29.28 46.2679 29.4134 47.0589 30.0586 47.973C31.0782 49.412 32.3457 50.5554 33.9048 51.3758C36.4751 52.7264 39.2058 53.1437 42.0739 52.7284L42.0706 52.7329ZM85.5013 36.7883C81.0333 32.4192 75.8562 29.3819 70.22 27.0583C69.5323 26.7756 69.0088 26.9405 68.4178 27.3261C63.2461 30.6914 62.5706 37.9016 67.0493 42.0475C72.6484 47.2286 82.4985 44.9469 85.2386 37.8314C85.3392 37.5688 85.3797 37.2841 85.5013 36.7883ZM43.525 30.5988C48.4268 31.7655 52.0279 34.3598 53.8741 38.9578C56.4075 38.9211 60.5485 38.1783 61.9331 37.5339C61.7207 32.6725 61.9817 30.7597 66.2675 25.8644C66.1668 25.7686 66.0823 25.6258 65.9622 25.5816C62.4135 24.3478 58.7451 23.6456 55.029 23.1609C54.1897 23.0528 53.4718 23.3068 52.8034 23.782C49.979 25.7687 47.1533 27.7475 44.3395 29.7486C44.0626 29.9443 43.8635 30.2437 43.5256 30.6027L43.525 30.5988ZM72.6841 25.6801C77.3882 27.7984 81.5615 30.3728 85.4486 33.6599C85.6995 27.8463 77.7469 23.6018 72.6841 25.6801ZM28.6182 43.0368C29.658 41.6612 30.4544 40.5603 31.2985 39.5037C32.1054 38.4896 32.9778 37.529 33.7991 36.5286C34.6198 35.5242 35.7319 34.7446 36.3896 33.4416C32.7442 34.0927 28.4298 38.3646 28.6189 43.0407L28.6182 43.0368Z" fill="#ED946D"/>
<path d="M79.7532 62.036C78.7674 62.3501 77.9288 62.6115 77.0927 62.8883C76.6383 63.0369 76.2062 63.2496 75.7466 63.3671C75.0461 63.5452 74.2641 63.9848 73.6727 63.1855C73.1608 62.4967 73.6318 61.8379 73.888 61.1914C74.3509 60.0105 74.7772 58.8159 75.2569 57.6442C75.5592 56.9099 75.4384 56.307 74.9973 55.6542C74.2459 54.5383 73.5559 53.3801 72.88 52.2156C72.6375 51.793 72.4346 51.3118 72.3466 50.8352C72.1972 50.0173 72.6519 49.3972 73.4444 49.4034C74.1152 49.4101 74.804 49.5456 75.449 49.7605C76.819 50.2126 78.1613 50.7493 79.6509 51.3012C80.7366 50.0233 81.8393 48.7105 82.9557 47.4114C83.5347 46.7384 84.0521 45.836 85.1099 46.1291C86.1559 46.4201 86.2704 47.4596 86.4342 48.363C86.698 49.8368 87.0058 51.3232 87.0857 52.812C87.1396 53.7858 87.5322 54.3988 88.1631 55.0036C89.0752 55.8766 89.9818 56.7625 90.8125 57.7172C91.9843 59.0698 91.7289 59.9919 90.0381 60.4569C88.9946 60.7448 87.9029 60.8371 86.7264 61.0355C86.5271 61.8163 86.3514 62.5572 86.1473 63.2868C85.9199 64.1043 85.7515 64.9558 85.3994 65.7104C84.798 66.9946 83.7459 67.1641 82.7535 66.1528C82.1696 65.556 81.6975 64.8326 81.201 64.1452C80.746 63.5227 80.3246 62.8746 79.7576 62.0393L79.7532 62.036ZM84.406 48.9488C83.2771 50.1062 82.3533 51.0811 81.5539 52.2068C80.4401 53.7692 80.3175 53.7419 78.5067 53.0445C77.4769 52.6468 76.4762 51.9925 75.0292 52.0089C75.8 53.1494 76.282 54.1349 77.0025 54.8645C77.9793 55.8504 77.9848 56.7405 77.4242 57.9059C77.0586 58.6708 76.6795 59.5139 76.772 60.649C77.5459 60.3866 78.1806 60.1796 78.8097 59.9616C80.423 59.3978 80.668 59.4963 81.6714 61.0012C82.2825 61.917 82.7576 62.9516 83.8131 63.9083C84.1207 62.5739 84.3821 61.5069 84.615 60.4288C84.8201 59.4792 85.365 58.9877 86.2885 58.8679C86.9775 58.7796 87.7293 58.8606 88.5212 58.2995C87.5349 57.3471 86.7358 56.467 85.8251 55.7376C85.0377 55.1073 84.6499 54.5454 84.915 53.4099C85.2389 52.0367 84.8497 50.632 84.4017 48.9455L84.406 48.9488Z" fill="#ED946D"/>
<path d="M46.023 62.6672C47.2271 63.7227 48.5095 64.8205 49.7657 65.9504C51.1193 67.1668 50.8892 68.306 49.1368 68.8905C48.479 69.1084 47.7592 69.1466 47.0627 69.2284C46.3699 69.3097 45.6719 69.3365 44.9043 69.3947C44.5537 70.4751 44.2337 71.479 43.8963 72.474C43.714 73.0074 43.5592 73.5639 43.2821 74.05C42.7737 74.9432 41.9001 75.146 41.162 74.4433C40.4046 73.72 39.7978 72.8368 39.1514 71.9998C38.8543 71.6185 38.6158 71.1877 38.3859 70.8307C36.9123 71.0793 35.5347 71.3116 34.1571 71.544C33.8079 71.6029 33.4651 71.7002 33.1133 71.72C31.8267 71.7906 31.2165 71.0505 31.705 69.8757C32.191 68.7092 32.7608 67.5483 33.4685 66.5027C34.3974 65.1309 34.5625 63.8404 33.7451 62.3634C33.2688 61.5056 32.9242 60.5622 32.5937 59.6324C32.0699 58.1415 32.6294 57.4574 34.1835 57.7098C35.7133 57.9584 37.2388 58.2513 38.7496 58.5981C39.8296 58.8473 40.7688 58.7997 41.7224 58.1124C42.57 57.4984 43.5478 57.0485 44.4911 56.5807C45.1065 56.275 45.744 55.819 46.47 56.2863C47.2365 56.7824 46.9773 57.5387 46.8625 58.2151C46.6145 59.67 46.3173 61.1134 46.0166 62.6762L46.023 62.6672ZM34.3602 69.0279C34.4878 69.1528 34.6122 69.2824 34.7399 69.4073C35.745 69.119 36.7513 68.8147 37.7584 68.5379C39.2405 68.1296 39.5403 68.269 40.2916 69.6107C40.681 70.305 40.9523 71.0944 41.8689 71.7552C42.2032 70.6024 42.5004 69.6734 42.7362 68.7312C42.9953 67.694 43.591 67.178 44.6807 67.1803C45.4267 67.1811 46.1706 67.0754 47.1289 67.0008C46.5792 65.918 45.8606 65.3782 45.1618 64.8152C43.5649 63.537 43.488 63.2214 44.114 61.2001C44.3101 60.5614 44.6771 59.9295 44.3471 58.9561C43.5152 59.4289 42.6674 59.6906 42.1352 60.2554C41.3215 61.117 40.4892 61.1664 39.4597 60.9125C38.5045 60.6778 37.5303 60.5176 36.5561 60.3574C36.1906 60.2963 35.81 60.3327 35.2955 60.3245C35.5384 60.992 35.6445 61.4808 35.8835 61.8917C36.9 63.636 36.568 65.2476 35.5309 66.8436C35.0866 67.532 34.7487 68.2896 34.3659 69.0152L34.3602 69.0279Z" fill="#ED946D"/>
<path d="M58.6396 48.4898C62.3166 47.8972 64.8469 48.1672 67.3443 48.8307C67.8188 48.9565 68.2901 49.1581 68.7106 49.4118C69.4948 49.8892 69.5715 50.3672 69.1234 51.1752C68.8617 51.6509 68.542 52.1364 68.4344 52.6533C67.8477 55.492 66.0842 57.2463 63.4499 58.2925C59.3553 59.9215 54.6585 58.2869 52.5729 54.5252C52.1317 53.7247 52.142 53.1727 52.7378 52.4387C54.5735 50.1931 56.9007 48.8346 58.635 48.4866L58.6396 48.4898ZM66.3053 50.7321C64.9666 50.5501 63.7232 50.2967 62.4716 50.2307C60.0735 50.1086 57.8342 50.6447 55.8764 52.1191C54.3531 53.2708 54.3409 54.2824 55.8678 55.4858C57.4863 56.7607 59.3805 56.9123 61.316 56.6492C64.526 56.2106 66.0922 54.4183 66.3053 50.7321Z" fill="#ED946D"/>
<path d="M43.1071 41.2726C44.4939 41.0499 45.7079 41.2336 46.8242 41.8523C47.2621 42.0952 47.6547 42.5305 47.3178 43.0022C47.0905 43.3158 46.5569 43.4285 46.1454 43.5959C46.0431 43.6358 45.8852 43.5304 45.7485 43.5045C42.7545 42.897 41.2146 43.4811 39.5207 45.8749C38.7317 46.9885 38.1767 47.2744 37.6072 46.7822C36.7467 46.0411 37.5668 45.4352 37.9066 44.8424C39.0755 42.82 40.9152 41.7064 43.1102 41.2683L43.1071 41.2726Z" fill="#ED946D"/>
<path d="M80.1258 38.0876C79.9277 38.4249 79.817 38.8274 79.5515 38.9921C79.2937 39.1515 78.7995 39.1949 78.5316 39.0682C78.0745 38.8534 77.7362 38.4347 77.31 38.1508C75.065 36.6344 72.6788 35.8176 69.9024 37.0215C69.6291 37.1396 69.3048 37.2583 69.0307 37.2205C68.6919 37.1777 68.1643 37.0229 68.113 36.8196C68.0222 36.4831 68.1384 35.9877 68.3671 35.7053C68.6276 35.3855 69.0895 35.1756 69.5036 35.0098C72.5043 33.8 77.1421 34.7368 79.352 37.0028C79.6453 37.3051 79.8422 37.6917 80.123 38.0961L80.1258 38.0876Z" fill="#ED946D"/>
<path fill-rule="evenodd" clip-rule="evenodd" d="M66.4355 93.9512C93.1702 89.4412 111.132 67.1578 107.343 44.696C103.554 22.2341 79.2763 7.07602 52.5419 11.5856C25.8075 16.0953 7.8452 38.3786 11.6341 60.8405C15.4231 83.3024 39.7012 98.4602 66.4355 93.9512ZM66.8288 96.2822C94.5582 91.6045 113.75 68.3309 109.697 44.299C105.643 20.267 79.8779 4.57712 52.1487 9.25452C24.4195 13.932 5.2268 37.2055 9.2806 61.2375C13.3344 85.2694 39.0996 100.959 66.8288 96.2822Z" fill="#ED946D"/>
<path fill-rule="evenodd" clip-rule="evenodd" d="M67.0885 100.73C97.7466 95.559 118.434 69.5483 113.969 43.0815C109.505 16.6147 81.4299 -1.17072 50.7719 4.00075C20.1138 9.17225 -0.572924 35.1828 3.8916 61.6496C8.3561 88.1164 36.4305 105.902 67.0885 100.73ZM67.4801 103.052C99.1706 97.706 121.033 70.6797 116.311 42.6864C111.589 14.6932 82.0708 -3.66638 50.3803 1.67927C18.6898 7.02495 -3.17247 34.0515 1.54952 62.0447C6.2715 90.038 35.7896 108.397 67.4801 103.052Z" fill="#ED946D"/>
</svg>
