<svg width="215" height="210" viewBox="0 0 215 210" fill="none" xmlns="http://www.w3.org/2000/svg">
<path d="M76.8845 183.419C64.3345 178.949 53.4545 172.289 44.7345 162.139C43.4745 162.139 42.2245 162.169 40.9645 162.139C31.3145 161.899 22.8845 158.469 15.7345 152.069C11.7645 148.519 7.62452 145.429 2.60452 143.509C-0.525485 142.309 -0.845485 139.949 1.77452 137.749C9.17451 131.539 15.9945 124.779 21.6145 116.879C22.8745 115.109 24.2445 113.379 25.2945 111.479C29.9145 103.119 36.1145 96.0487 42.8445 89.3687C43.8645 88.3587 44.8445 87.3087 45.7545 86.3587C44.9445 81.6587 44.0445 77.2187 43.4445 72.7387C42.8945 68.6087 42.7045 64.4687 43.1345 60.2687C43.3645 57.9887 44.0645 56.0487 45.3145 54.2287C50.9545 45.9887 56.5845 37.7387 63.9145 30.8287C69.4645 25.5987 74.9045 20.2687 80.5045 15.0987C86.1545 9.87867 92.9745 6.33867 99.5045 2.43867C102.625 0.578672 106.565 0.688673 110.165 1.22867C114.815 1.92867 119.505 2.68867 124.005 4.02867C137.565 8.06867 149.665 14.8287 160.615 23.8487C168.585 30.4187 172.545 38.6987 172.945 48.8387C173.085 52.4387 172.965 56.0487 172.965 59.5587C178.965 63.7987 185.005 68.0687 191.405 72.5987C191.955 71.9287 192.785 71.0687 193.425 70.0787C195.205 67.3387 196.835 64.5087 198.635 61.7887C201.515 57.4587 207.775 56.7487 211.415 61.9787C214.835 66.8887 215.515 72.3787 214.695 78.1187C213.715 85.0187 211.484 91.5387 208.055 97.5887C206.635 100.099 206.235 102.559 206.575 105.389C207.985 117.119 205.425 128.109 200.065 138.529C196.215 146.029 191.145 152.629 185.135 158.519C183.845 159.779 182.515 160.989 181.375 162.059C182.295 166.709 183.424 170.919 183.885 175.199C184.205 178.209 183.755 181.329 183.365 184.369C183.185 185.749 182.465 187.139 181.735 188.359C179.135 192.709 174.905 194.209 170.025 192.619C166.265 191.389 163.385 188.899 160.935 185.929C159.095 183.709 157.495 181.279 155.605 178.689C154.475 179.059 153.295 179.389 152.165 179.839C138.204 185.479 123.745 188.529 108.645 188.299C107.215 188.279 105.775 188.439 104.355 188.509C103.005 191.479 101.825 194.329 100.425 197.079C98.6045 200.659 96.3845 203.979 93.2745 206.609C86.6145 212.229 79.9845 210.289 77.3145 201.969C76.0145 197.899 76.2945 193.719 76.4645 189.549C76.5445 187.589 76.7245 185.629 76.8845 183.399V183.419ZM57.3745 166.609C58.1845 165.989 58.8045 165.609 59.3045 165.109C66.7045 157.719 75.3145 152.019 84.5745 147.289C107.235 135.729 131.325 129.609 156.735 128.599C164.565 128.289 172.335 128.969 180.045 130.359C185.335 131.319 190.365 133.089 195.225 135.399C202.255 123.019 202.475 110.249 199.305 97.1887C197.375 89.2387 189.105 77.4487 182.725 74.0787C182.635 74.2287 182.445 74.4287 182.485 74.5387C182.995 75.8887 183.605 77.2087 184.065 78.5787C187.515 88.6287 186.225 97.9687 179.435 106.229C166.055 122.509 139.355 118.819 130.385 99.5287C129.635 97.9187 129.015 96.2387 128.365 94.6487C125.285 94.2087 122.795 95.0387 120.515 96.0987C120.255 100.549 120.015 104.649 119.775 108.759C120.055 108.809 120.385 108.929 120.695 108.899C124.105 108.499 127.515 108.019 130.925 107.669C132.265 107.529 133.475 108.039 134.125 109.309C134.855 110.719 134.665 112.129 133.755 113.409C133.445 113.849 133.045 114.239 132.615 114.569C130.145 116.479 127.265 116.649 124.315 116.439C121.835 116.259 120.555 114.489 119.385 112.589C119.165 112.229 118.825 111.949 118.415 111.499C117.815 112.519 117.365 113.299 116.915 114.079C107.445 130.469 83.4945 134.569 68.3945 122.429C56.2645 112.679 54.8545 95.9087 65.1545 84.2987C70.0545 78.7787 76.2445 75.5387 83.4045 74.2387C98.2245 71.5487 111.405 78.3687 117.165 88.8187C117.585 89.5887 118.155 90.2787 118.665 91.0287C121.795 90.2187 124.715 89.4687 127.655 88.7187C127.895 83.5487 128.795 78.9487 131.085 74.7187C133.295 70.6487 136.445 67.4887 140.115 64.6887C143.945 61.7587 148.615 61.0087 153.855 59.2487C148.065 57.4887 143.065 56.8187 138.075 56.4787C120.565 55.2987 103.675 58.0887 87.5645 65.0887C74.4145 70.7987 62.7045 78.6187 53.2945 89.5787C46.4545 97.5487 41.4245 106.499 39.0545 116.809C38.7045 118.359 37.9845 119.919 39.0745 121.849C40.5045 121.099 41.9245 120.379 43.3245 119.619C45.0745 118.669 46.7645 117.589 48.5745 116.739C50.7045 115.739 52.1145 115.979 52.9945 117.239C53.8445 118.459 53.2245 119.739 51.0945 121.049C50.4745 121.429 49.8145 121.729 49.1845 122.089C44.3145 124.899 39.4345 127.699 34.5945 130.559C33.3645 131.289 32.0345 132.069 31.1645 133.159C29.9845 134.639 27.8845 136.149 28.9445 138.319C29.9745 140.419 32.2445 140.939 34.5445 140.959C38.3645 140.989 42.0745 140.719 45.7545 139.359C48.2445 138.439 51.0345 138.229 53.7145 137.939C54.8245 137.819 55.7745 138.639 55.9645 139.889C56.1445 141.069 55.7445 142.129 54.6145 142.579C53.4545 143.039 52.1745 143.209 50.9645 143.579C47.9245 144.509 44.7445 145.119 41.7945 146.859C45.4245 154.969 50.6345 161.289 57.3345 166.609H57.3745ZM62.2745 170.089C64.2445 171.279 65.7245 172.239 67.2645 173.089C77.6145 178.779 88.8245 181.729 100.495 182.579C123.385 184.259 144.825 179.289 164.565 167.439C174.795 161.299 183.585 153.549 190.465 143.729C191.165 142.739 191.695 141.629 192.495 140.259C191.405 139.749 190.645 139.339 189.845 139.019C179.365 134.809 168.365 133.889 157.245 134.169C137.835 134.669 119.135 138.809 101.095 145.889C89.0545 150.619 77.6645 156.569 67.7145 164.969C65.9345 166.469 64.3245 168.149 62.2745 170.089ZM166.835 43.4587C166.045 42.8687 165.075 42.3187 164.335 41.5487C160.565 37.5787 155.785 35.4287 150.585 34.2987C146.525 33.4187 142.395 32.6987 138.255 32.4287C128.985 31.8387 119.785 32.7187 110.655 34.4887C93.2245 37.8787 76.7645 43.8087 61.7645 53.4087C57.8145 55.9387 54.1845 59.0087 50.5645 62.0187C49.5445 62.8687 48.5345 64.3287 48.4445 65.5787C48.0245 71.5487 48.8245 77.3987 50.9445 83.7787C57.0245 77.2887 63.4845 72.0287 70.5345 67.5987C77.6145 63.1487 85.2045 59.6987 93.1145 56.9587C101.205 54.1487 109.505 52.2887 117.995 51.3687C126.315 50.4687 134.645 50.5187 142.975 51.4187C151.245 52.3087 159.155 54.7287 167.035 57.2287C168.355 52.4487 168.275 49.2587 166.805 43.4487L166.835 43.4587ZM90.6445 79.1987C82.5945 79.2387 76.4245 81.5287 71.1845 86.1387C61.0045 95.0787 61.4645 109.919 72.1245 118.279C82.5645 126.469 98.5045 125.649 108.075 116.429C117.885 106.979 116.905 92.3887 105.875 84.3487C101.035 80.8187 95.5745 79.1587 90.6445 79.2087V79.1987ZM157.085 110.909C165.245 111.309 175.375 106.399 178.985 96.0987C182.085 87.2587 180.255 79.1587 173.665 72.5787C166.855 65.7787 158.535 63.4487 149.215 66.5587C136.725 70.7287 130.485 83.1087 134.595 95.1087C137.805 104.489 146.885 110.869 157.085 110.909ZM112.915 28.1887C111.415 22.1587 108.905 17.5987 105.655 13.4087C104.995 12.5587 104.225 11.7487 103.385 11.0787C100.865 9.07867 99.4745 9.16867 96.5045 10.7687C89.2345 14.6687 83.0745 20.0087 77.1045 25.5687C69.4245 32.7387 61.7545 39.9587 55.6545 48.6187C55.2845 49.1387 54.5445 49.6787 55.5445 50.6987C64.1045 45.0787 73.2145 40.3687 82.8445 36.6387C92.4545 32.9187 102.435 30.4987 112.915 28.1887ZM157.635 30.3187C157.855 30.0087 158.075 29.6887 158.295 29.3787C156.675 27.9887 155.115 26.5087 153.415 25.2187C144.835 18.6787 135.425 13.6987 125.225 10.1987C120.585 8.60867 115.875 7.27867 110.955 6.95867C110.165 6.90867 109.355 7.08867 107.745 7.23867C113.325 13.3587 116.475 19.9887 118.665 26.8787C125.505 26.8787 132.005 26.8187 138.505 26.8987C145.045 26.9687 151.345 28.6487 157.635 30.3187ZM36.3445 106.319C36.0945 106.119 35.8545 105.909 35.6045 105.709C31.5545 111.659 27.8145 117.859 23.3845 123.499C18.9345 129.159 13.7945 134.269 8.78452 139.809C11.0445 141.369 13.4745 142.869 15.7045 144.619C17.9745 146.399 19.8745 148.719 22.2645 150.279C26.5045 153.059 31.0445 155.349 36.1645 156.119C37.3745 156.299 38.6145 156.309 40.3245 156.439C38.5645 152.979 37.0345 149.959 35.8145 147.569C32.6045 146.419 29.9045 145.809 27.5545 144.549C22.8845 142.049 21.6945 137.429 24.6045 133.089C26.0945 130.879 28.0245 128.879 30.0545 127.139C31.5645 125.849 32.3045 124.479 32.5845 122.589C33.0645 119.369 33.5945 116.159 34.3045 112.989C34.8045 110.729 35.6445 108.549 36.3245 106.329L36.3445 106.319ZM204.055 92.2487C207.594 86.3187 209.905 78.3187 209.345 72.7687C209.095 70.3187 208.255 67.8387 207.195 65.5987C206.094 63.2687 204.085 63.2087 202.565 65.4387C199.925 69.3087 197.545 73.3387 195.175 77.1087C198.205 82.2787 201.025 87.0787 204.055 92.2487ZM161.135 176.089C163.165 180.239 165.635 183.479 169.085 185.939C169.815 186.459 170.645 186.879 171.485 187.169C174.155 188.079 176.135 187.259 177.315 184.759C177.695 183.949 177.945 183.059 178.125 182.179C179.215 176.909 178.305 171.899 176.245 166.629C171.165 169.809 166.435 172.759 161.125 176.079L161.135 176.089ZM98.4045 187.999C92.7045 187.509 87.9145 185.969 82.6245 185.659C81.6145 190.399 81.5345 194.889 82.3545 199.359C82.7445 201.459 83.4145 203.669 86.3745 204.329C92.8945 201.369 95.3645 195.139 98.4045 187.999Z" fill="black"/>
<path d="M57.3733 166.609C50.6733 161.299 45.4633 154.969 41.8333 146.859C44.7833 145.109 47.9633 144.499 51.0033 143.579C52.2133 143.209 53.4833 143.049 54.6533 142.579C55.7933 142.129 56.1833 141.069 56.0033 139.889C55.8133 138.639 54.8633 137.829 53.7533 137.939C51.0733 138.229 48.2833 138.429 45.7933 139.359C42.1133 140.729 38.4033 140.989 34.5833 140.959C32.2733 140.939 30.0033 140.419 28.9833 138.319C27.9233 136.149 30.0233 134.639 31.2033 133.159C32.0733 132.069 33.3933 131.289 34.6333 130.559C39.4733 127.689 44.3533 124.899 49.2233 122.089C49.8533 121.729 50.5233 121.429 51.1333 121.049C53.2633 119.729 53.8833 118.459 53.0333 117.239C52.1533 115.979 50.7433 115.739 48.6133 116.739C46.8133 117.589 45.1233 118.669 43.3633 119.619C41.9633 120.379 40.5433 121.099 39.1133 121.849C38.0233 119.929 38.7333 118.359 39.0933 116.809C41.4533 106.489 46.4833 97.5495 53.3333 89.5795C62.7433 78.6195 74.4533 70.7995 87.6033 65.0895C103.713 58.0995 120.603 55.2995 138.113 56.4795C143.113 56.8195 148.103 57.4795 153.893 59.2495C148.663 60.9995 143.983 61.7595 140.153 64.6895C136.483 67.4895 133.333 70.6495 131.123 74.7195C128.823 78.9495 127.933 83.5495 127.693 88.7195C124.753 89.4795 121.833 90.2295 118.703 91.0295C118.193 90.2795 117.623 89.5895 117.203 88.8195C111.453 78.3595 98.2633 71.5495 83.4433 74.2395C76.2833 75.5395 70.0933 78.7795 65.1933 84.2995C54.8933 95.9095 56.3033 112.679 68.4333 122.429C83.5333 134.569 107.483 130.459 116.953 114.079C117.403 113.299 117.863 112.519 118.453 111.499C118.863 111.949 119.203 112.229 119.423 112.589C120.593 114.489 121.883 116.259 124.353 116.439C127.293 116.659 130.183 116.479 132.653 114.569C133.083 114.239 133.483 113.849 133.793 113.409C134.703 112.129 134.893 110.719 134.163 109.309C133.513 108.049 132.303 107.539 130.963 107.669C127.543 108.019 124.143 108.499 120.733 108.899C120.423 108.939 120.093 108.809 119.813 108.759C120.053 104.649 120.293 100.549 120.553 96.0995C122.833 95.0395 125.323 94.2095 128.403 94.6495C129.053 96.2295 129.673 97.9095 130.423 99.5295C139.393 118.819 166.093 122.509 179.473 106.229C186.263 97.9695 187.553 88.6295 184.103 78.5795C183.633 77.2095 183.033 75.8895 182.523 74.5395C182.483 74.4295 182.683 74.2395 182.763 74.0795C189.133 77.4495 197.413 89.2395 199.343 97.1895C202.503 110.249 202.283 123.019 195.263 135.399C190.413 133.099 185.383 131.319 180.083 130.359C172.373 128.969 164.603 128.289 156.773 128.599C131.373 129.599 107.283 135.729 84.6133 147.289C75.3433 152.009 66.7433 157.719 59.3433 165.109C58.8433 165.609 58.2233 165.989 57.4133 166.609H57.3733Z" fill="#CE6626"/>
<path d="M62.2734 170.089C64.3234 168.149 65.9334 166.469 67.7134 164.969C77.6634 156.569 89.0534 150.619 101.093 145.889C119.133 138.809 137.833 134.659 157.243 134.169C168.353 133.889 179.363 134.809 189.843 139.019C190.633 139.339 191.393 139.739 192.493 140.259C191.703 141.629 191.163 142.729 190.463 143.729C183.583 153.549 174.793 161.299 164.563 167.439C144.823 179.289 123.383 184.259 100.493 182.579C88.8334 181.729 77.6134 178.779 67.2634 173.089C65.7234 172.239 64.2434 171.279 62.2734 170.089Z" fill="#ECB591"/>
<path d="M166.833 43.4595C168.303 49.2695 168.383 52.4595 167.063 57.2395C159.183 54.7395 151.273 52.3195 143.003 51.4295C134.673 50.5395 126.343 50.4795 118.023 51.3795C109.523 52.2995 101.223 54.1595 93.1428 56.9695C85.2328 59.7195 77.6428 63.1695 70.5628 67.6095C63.5028 72.0395 57.0528 77.2995 50.9728 83.7895C48.8528 77.4095 48.0428 71.5595 48.4728 65.5895C48.5628 64.3395 49.5728 62.8695 50.5928 62.0295C54.2128 59.0195 57.8328 55.9595 61.7928 53.4195C76.7928 43.8095 93.2528 37.8895 110.683 34.4995C119.803 32.7195 129.003 31.8395 138.283 32.4395C142.423 32.7095 146.553 33.4195 150.613 34.3095C155.813 35.4395 160.583 37.5895 164.363 41.5595C165.093 42.3295 166.073 42.8795 166.863 43.4695L166.833 43.4595Z" fill="#5C8EF2"/>
<path d="M90.6439 79.1995C95.5739 79.1495 101.034 80.8195 105.874 84.3395C116.904 92.3795 117.884 106.969 108.074 116.419C98.5039 125.639 82.5639 126.459 72.1239 118.269C61.4639 109.909 60.9939 95.0695 71.1839 86.1295C76.4239 81.5295 82.5939 79.2395 90.6439 79.1895V79.1995ZM101.634 100.319C101.984 94.9895 98.3339 90.3695 93.4539 89.9695C88.0339 89.5295 83.8439 93.3795 83.5239 99.1095C83.2339 104.249 87.0839 108.889 92.0039 109.329C96.8039 109.759 101.294 105.559 101.644 100.319H101.634Z" fill="#CE6626"/>
<path d="M157.084 110.909C146.884 110.869 137.804 104.489 134.594 95.1092C130.484 83.1092 136.724 70.7292 149.214 66.5592C158.534 63.4492 166.854 65.7792 173.664 72.5792C180.254 79.1592 182.094 87.2592 178.984 96.0992C175.374 106.399 165.244 111.299 157.084 110.909ZM163.914 87.7292C163.724 87.0392 163.474 85.4092 162.834 83.9592C161.164 80.1892 157.564 77.9592 153.864 78.1692C150.244 78.3692 146.934 81.1492 145.704 85.0692C144.904 87.6092 145.394 90.0792 146.404 92.4392C148.294 96.8192 152.714 99.2592 156.834 98.2792C161.144 97.2592 163.964 93.4292 163.914 87.7192V87.7292Z" fill="#CE6626"/>
<path d="M112.913 28.1888C102.433 30.4988 92.4533 32.9188 82.8433 36.6388C73.2233 40.3688 64.1033 45.0788 55.5433 50.6988C54.5433 49.6788 55.2833 49.1388 55.6533 48.6188C61.7533 39.9588 69.4133 32.7488 77.1033 25.5688C83.0633 19.9988 89.2333 14.6688 96.5033 10.7688C99.4633 9.17885 100.863 9.08885 103.383 11.0788C104.223 11.7488 104.993 12.5588 105.653 13.4088C108.903 17.5988 111.423 22.1688 112.913 28.1888Z" fill="#5C8EF2"/>
<path d="M157.634 30.3187C151.344 28.6487 145.044 26.9687 138.504 26.8987C132.014 26.8287 125.514 26.8787 118.664 26.8787C116.474 19.9887 113.324 13.3587 107.744 7.23872C109.344 7.08872 110.154 6.90872 110.954 6.95872C115.874 7.28872 120.584 8.60872 125.224 10.1987C135.424 13.6987 144.844 18.6787 153.414 25.2187C155.114 26.5087 156.664 27.9887 158.294 29.3787C158.074 29.6887 157.854 30.0087 157.634 30.3187Z" fill="#5C8EF2"/>
<path d="M36.3427 106.319C35.6527 108.539 34.8227 110.719 34.3227 112.979C33.6127 116.149 33.0827 119.369 32.6027 122.579C32.3227 124.459 31.5727 125.839 30.0727 127.129C28.0327 128.869 26.1127 130.869 24.6227 133.079C21.7127 137.419 22.8927 142.049 27.5727 144.539C29.9227 145.799 32.6227 146.409 35.8327 147.559C37.0527 149.949 38.5827 152.969 40.3427 156.429C38.6227 156.309 37.3927 156.299 36.1827 156.109C31.0627 155.339 26.5227 153.049 22.2827 150.269C19.8827 148.699 17.9927 146.389 15.7227 144.609C13.4927 142.859 11.0627 141.359 8.80273 139.799C13.8127 134.259 18.9627 129.149 23.4027 123.489C27.8427 117.839 31.5827 111.649 35.6227 105.699C35.8627 105.899 36.1127 106.109 36.3627 106.309L36.3427 106.319Z" fill="#5C8EF2"/>
<path d="M204.054 92.2496C201.024 87.0896 198.204 82.2796 195.174 77.1096C197.544 73.3396 199.924 69.2996 202.564 65.4396C204.084 63.2096 206.094 63.2696 207.194 65.5996C208.254 67.8396 209.094 70.3196 209.344 72.7696C209.904 78.3196 207.594 86.3196 204.054 92.2496Z" fill="#CE6626"/>
<path d="M161.133 176.089C166.453 172.769 171.173 169.809 176.253 166.639C178.303 171.909 179.213 176.909 178.133 182.189C177.953 183.069 177.703 183.959 177.323 184.769C176.143 187.269 174.153 188.099 171.493 187.179C170.653 186.889 169.813 186.469 169.093 185.949C165.643 183.479 163.173 180.239 161.143 176.099L161.133 176.089Z" fill="#ECB591"/>
<path d="M98.4044 187.999C95.3744 195.139 92.8944 201.369 86.3744 204.329C83.4144 203.669 82.7344 201.469 82.3544 199.359C81.5344 194.889 81.6144 190.399 82.6244 185.659C87.9144 185.959 92.7044 187.509 98.4044 187.999Z" fill="#ECB591"/>
<path d="M101.633 100.319C101.283 105.559 96.8034 109.759 91.9934 109.329C87.0734 108.889 83.2234 104.249 83.5134 99.1088C83.8434 93.3788 88.0234 89.5287 93.4434 89.9687C98.3234 90.3687 101.983 94.9888 101.623 100.319H101.633ZM92.8234 103.529C94.7334 103.409 96.2234 101.409 96.0434 99.2187C95.8834 97.2287 94.3434 95.5488 92.6834 95.5488C90.8234 95.5488 89.1034 97.5388 89.1234 99.6488C89.1434 101.849 90.8634 103.649 92.8234 103.519V103.529Z" fill="black"/>
<path d="M163.914 87.7287C163.964 93.4387 161.144 97.2687 156.834 98.2887C152.714 99.2687 148.294 96.8287 146.404 92.4487C145.384 90.0887 144.904 87.6187 145.704 85.0787C146.934 81.1587 150.254 78.3787 153.864 78.1787C157.574 77.9687 161.164 80.1987 162.834 83.9687C163.474 85.4187 163.724 87.0487 163.914 87.7387V87.7287ZM158.394 88.6887C158.354 86.5787 157.134 84.4987 155.324 83.9887C154.574 83.7787 153.484 83.9887 152.804 84.4087C151.364 85.3387 150.784 88.0087 151.384 89.8287C152.014 91.7187 153.804 92.9887 155.474 92.7487C157.134 92.5087 158.424 90.7087 158.394 88.6887Z" fill="black"/>
<path d="M92.8232 103.529C90.8632 103.659 89.1532 101.859 89.1232 99.6586C89.1032 97.5486 90.8232 95.5686 92.6832 95.5586C94.3332 95.5586 95.8732 97.2386 96.0432 99.2286C96.2232 101.419 94.7332 103.409 92.8232 103.539V103.529Z" fill="black"/>
<path d="M158.393 88.6887C158.433 90.7087 157.143 92.4987 155.473 92.7487C153.793 92.9987 152.013 91.7187 151.383 89.8287C150.773 88.0087 151.363 85.3387 152.803 84.4087C153.473 83.9787 154.563 83.7687 155.323 83.9887C157.133 84.4987 158.363 86.5887 158.393 88.6887Z" fill="black"/>
</svg>
