<svg width="628" height="737" viewBox="0 0 628 737" fill="none" xmlns="http://www.w3.org/2000/svg">
<path d="M343.18 659.657C339.68 657.927 337.38 654.487 337.1 650.597L334.44 613.377C321.56 618.487 304.17 622.577 280.87 623.467C255.95 624.417 237.42 622.067 223.83 618.597L240.4 706.667C240.4 706.667 240.4 729.967 278.44 731.627C316.48 733.287 339.73 731.627 339.73 731.627C339.73 731.627 370.11 728.787 370.11 694.627C370.11 675.467 352.48 664.237 343.18 659.647V659.657Z" fill="white" stroke="#162954" stroke-width="8" stroke-miterlimit="10"/>
<path d="M619.03 514.638C619.03 514.638 607.76 495.398 588.12 503.248C571.85 509.758 566.97 517.888 566.97 517.888C566.97 517.888 562.09 522.768 550.7 517.888C547.37 516.458 540.71 513.228 532.95 509.368C532.54 520.208 530.86 536.778 525.07 553.508C517.95 574.108 508.99 588.878 499.38 597.848C525.67 607.648 547.49 615.508 553.96 617.128C573.48 622.008 583.24 622.008 594.63 607.368C606.02 592.728 633.68 548.798 619.03 514.638Z" fill="white" stroke="#162954" stroke-width="8" stroke-miterlimit="10"/>
<path d="M258.77 389.708C393.55 341.938 531.36 344.568 575.93 387.128C592.68 307.288 544.85 223.478 477.74 176.698C385.62 112.498 273.97 67.8281 273.97 67.8281C273.97 67.8281 131.61 207.398 95.3202 316.268C71.6402 387.308 83.6302 447.648 119.64 489.538C125.46 465.078 153.7 426.948 258.79 389.708H258.77Z" fill="#A84325" stroke="#162954" stroke-width="8" stroke-miterlimit="10"/>
<path d="M154.06 243.318C154.06 243.318 119.51 349.918 141.61 359.868C163.72 369.818 190.24 364.288 190.24 364.288C190.24 364.288 149.34 383.078 127.24 404.078C105.13 425.078 107.34 422.868 104.03 409.608C100.71 396.348 102.7 328.918 124.92 292.448C147.14 255.968 154.06 243.328 154.06 243.328V243.318Z" fill="#C87936"/>
<path d="M171.21 212.417C176.32 206.057 248.17 116.967 277.11 101.067C279.41 99.7971 282.13 99.5671 284.62 100.407C299.41 105.437 357.65 125.647 382.57 140.017C382.57 140.017 292.18 84.907 276.75 82.287C263.38 80.027 171.26 201.317 170.85 212.257C170.85 212.467 171.09 212.567 171.22 212.407L171.21 212.417Z" fill="#C87936"/>
<path d="M285.06 252.467C297.017 252.467 306.71 241.346 306.71 227.627C306.71 213.908 297.017 202.787 285.06 202.787C273.103 202.787 263.41 213.908 263.41 227.627C263.41 241.346 273.103 252.467 285.06 252.467Z" fill="#203052"/>
<path d="M426.259 220.182C436.241 216.169 440.599 203.628 435.993 192.17C431.387 180.712 419.561 174.676 409.579 178.689C399.597 182.702 395.239 195.244 399.845 206.701C404.451 218.159 416.277 224.195 426.259 220.182Z" fill="#203052"/>
<path d="M320.51 271.737C320.51 267.227 323.16 265.547 328.47 266.427C333.78 267.307 323.16 260.237 315.2 265.547C311.52 267.997 312.55 273.507 312.55 276.167C312.55 278.827 314.32 282.357 314.32 274.397C314.32 271.747 318.74 273.517 319.63 275.277C320.51 277.047 341.75 334.567 384.23 323.947C426.71 313.327 422.87 267.147 422.87 267.147C422.87 267.147 426.71 257.567 422.87 249.167C419.03 240.757 398.39 239.877 408.12 243.417C417.85 246.957 416.08 252.267 416.08 252.267C416.96 265.537 410.77 274.387 377.14 281.467C343.51 288.547 321.39 273.507 321.39 273.507C321.39 273.507 320.51 272.627 320.51 271.737Z" fill="#162954"/>
<path d="M289.1 240.928C292.734 240.928 295.68 237.982 295.68 234.348C295.68 230.714 292.734 227.768 289.1 227.768C285.466 227.768 282.52 230.714 282.52 234.348C282.52 237.982 285.466 240.928 289.1 240.928Z" fill="white"/>
<path d="M424.73 212.508C428.364 212.508 431.31 209.562 431.31 205.928C431.31 202.294 428.364 199.348 424.73 199.348C421.096 199.348 418.15 202.294 418.15 205.928C418.15 209.562 421.096 212.508 424.73 212.508Z" fill="white"/>
<path d="M463.24 584.417C475.51 589.067 487.82 593.707 499.29 597.977C508.91 588.997 517.88 574.207 525.01 553.587C530.8 536.837 532.49 520.247 532.9 509.387C524.08 505.007 513.85 499.807 505.46 495.527L463.24 584.417Z" fill="#C87936" stroke="#162954" stroke-width="8" stroke-miterlimit="10"/>
<path d="M505.46 495.528L507.64 490.928C506.2 492.108 504.75 493.278 503.29 494.418C504 494.778 504.71 495.148 505.45 495.518L505.46 495.528Z" fill="#C87936"/>
<path d="M503.3 494.428C464.69 524.788 420.77 542.608 376.71 551.248C385.65 554.708 424.18 569.608 463.24 584.418L505.46 495.528C504.72 495.148 504 494.788 503.3 494.428Z" fill="#162954" stroke="#162954" stroke-width="8" stroke-miterlimit="10"/>
<path d="M258.41 389.598C153.2 426.888 124.93 465.058 119.1 489.548C138.29 511.878 164.29 528.968 195.36 539.648C199.89 541.208 204.58 542.678 209.39 544.068L223.44 618.748C237.04 622.228 255.59 624.578 280.54 623.618C303.86 622.728 321.28 618.638 334.17 613.518L330.14 557.108C345.53 556.198 361.12 554.308 376.71 551.248C420.77 542.608 464.69 524.778 503.3 494.428C504.76 493.278 506.2 492.118 507.65 490.938C514.6 485.238 521.38 479.138 527.93 472.578C554.48 446.028 569.69 416.798 575.93 387.018C531.32 344.408 393.34 341.778 258.41 389.598Z" fill="#C87936" stroke="#162954" stroke-width="8" stroke-miterlimit="10"/>
<path d="M248.48 415.238C248.48 415.238 192.11 442.638 183.27 464.748C174.43 486.858 192.11 499.008 199.85 502.328C207.59 505.648 249.59 534.378 318.12 527.748C318.12 527.748 323.65 538.798 256.22 535.488C188.8 532.168 149.01 493.488 146.79 480.218C144.58 466.958 184.37 439.778 248.48 415.238Z" fill="#E69C49"/>
<path d="M341.73 299.818C341.73 299.818 359.5 322.988 382.57 317.868C402.47 313.448 411.82 300.658 413.52 291.338C415.21 282.018 371.38 289.648 371.38 290.498C371.38 290.498 380.7 293.038 381.54 297.278C381.54 297.278 357.82 286.268 341.73 299.818Z" fill="#F48479"/>
<path d="M278.67 512.397C283.552 512.397 287.51 508.439 287.51 503.557C287.51 498.675 283.552 494.717 278.67 494.717C273.788 494.717 269.83 498.675 269.83 503.557C269.83 508.439 273.788 512.397 278.67 512.397Z" fill="#A14D12"/>
<path d="M496.41 427.287C500.071 427.287 503.04 424.319 503.04 420.657C503.04 416.996 500.071 414.027 496.41 414.027C492.748 414.027 489.78 416.996 489.78 420.657C489.78 424.319 492.748 427.287 496.41 427.287Z" fill="#A14D12"/>
<path d="M378.15 409.608C381.812 409.608 384.78 406.639 384.78 402.978C384.78 399.316 381.812 396.348 378.15 396.348C374.488 396.348 371.52 399.316 371.52 402.978C371.52 406.639 374.488 409.608 378.15 409.608Z" fill="#E69C49"/>
<path d="M400.25 389.707C403.912 389.707 406.88 386.739 406.88 383.077C406.88 379.416 403.912 376.447 400.25 376.447C396.588 376.447 393.62 379.416 393.62 383.077C393.62 386.739 396.588 389.707 400.25 389.707Z" fill="#E69C49"/>
<path d="M354.94 399.658C356.774 399.658 358.26 398.171 358.26 396.338C358.26 394.504 356.774 393.018 354.94 393.018C353.107 393.018 351.62 394.504 351.62 396.338C351.62 398.171 353.107 399.658 354.94 399.658Z" fill="#E69C49"/>
<path d="M431.2 393.027C433.033 393.027 434.52 391.54 434.52 389.707C434.52 387.873 433.033 386.387 431.2 386.387C429.366 386.387 427.88 387.873 427.88 389.707C427.88 391.54 429.366 393.027 431.2 393.027Z" fill="#E69C49"/>
<path d="M234.46 461.558C236.294 461.558 237.78 460.072 237.78 458.238C237.78 456.404 236.294 454.918 234.46 454.918C232.627 454.918 231.14 456.404 231.14 458.238C231.14 460.072 232.627 461.558 234.46 461.558Z" fill="#A14D12"/>
<path d="M519.63 405.187C521.464 405.187 522.95 403.7 522.95 401.867C522.95 400.033 521.464 398.547 519.63 398.547C517.796 398.547 516.31 400.033 516.31 401.867C516.31 403.7 517.796 405.187 519.63 405.187Z" fill="#A14D12"/>
<path d="M510.78 443.878C512.614 443.878 514.1 442.392 514.1 440.558C514.1 438.725 512.614 437.238 510.78 437.238C508.946 437.238 507.46 438.725 507.46 440.558C507.46 442.392 508.946 443.878 510.78 443.878Z" fill="#A14D12"/>
<path d="M474.31 464.878C476.144 464.878 477.63 463.392 477.63 461.558C477.63 459.725 476.144 458.238 474.31 458.238C472.477 458.238 470.99 459.725 470.99 461.558C470.99 463.392 472.477 464.878 474.31 464.878Z" fill="#A14D12"/>
<path d="M231.14 494.717C234.801 494.717 237.77 491.749 237.77 488.087C237.77 484.425 234.801 481.457 231.14 481.457C227.478 481.457 224.51 484.425 224.51 488.087C224.51 491.749 227.478 494.717 231.14 494.717Z" fill="#A14D12"/>
<path d="M482.24 184.597C433.65 142.787 370.32 118.037 331.63 100.117C331.67 100.137 514.1 153.167 509.38 350.167C509.35 351.537 508.85 353.017 508.58 354.337C537.32 359.867 555 365.387 572.69 378.657C572.69 378.657 587.06 309.027 539.53 246.017C539.53 246.017 527.76 223.757 482.25 184.597H482.24Z" fill="#7A2A1E"/>
<path d="M507.1 485.148C513.55 479.858 519.84 474.197 525.93 468.107C550.55 443.487 565.77 416.227 571.58 388.607C558.21 375.847 534.79 367.878 506.37 363.188C476.58 505.488 385.89 544.458 385.89 544.458C426.8 536.438 467.22 516.578 503.07 488.388C504.42 487.328 505.77 486.238 507.11 485.148H507.1Z" fill="#A65F26"/>
<path d="M417.56 137.117L389.53 71.2674C389.53 71.2674 385 48.7174 323.63 36.1374C262.26 23.5574 264.07 28.9674 245.11 17.2574C226.15 5.54743 190.95 -0.742576 172.92 8.29742C154.88 17.3374 177.46 39.8774 158.53 64.2574C139.6 88.6374 116.19 141.017 122.82 180.817C125.67 197.937 138.35 230.467 138.35 230.467C138.35 230.467 178.82 162.957 309.62 122.237C309.62 122.237 365.99 103.447 417.56 137.127V137.117Z" fill="#2A3F7F" stroke="#162954" stroke-width="8" stroke-linecap="round" stroke-linejoin="round"/>
<path d="M391.74 74.588C391.74 74.588 366.81 40.828 274.25 66.958C158.75 99.568 123.38 181.358 123.38 181.358" stroke="#162954" stroke-width="7" stroke-linecap="round" stroke-linejoin="round"/>
<path d="M172.56 8.37695C172.56 8.37695 225.13 13.7869 261.32 48.9869C278.67 65.857 268.72 68.067 268.72 68.067" stroke="#162954" stroke-width="7" stroke-linecap="round" stroke-linejoin="round"/>
<path d="M129.45 247.127C129.45 247.127 45.79 361.607 4 365.947C4 365.947 21.59 412.367 84.13 402.977C84.13 402.977 69.76 335.557 129.45 247.127Z" fill="#2A3F7F" stroke="#162954" stroke-width="8" stroke-linecap="round" stroke-linejoin="round"/>
</svg>
