<svg width="657" height="797" viewBox="0 0 657 797" fill="none" xmlns="http://www.w3.org/2000/svg">
<path d="M435.949 738.371C446.207 768.996 454.033 778.248 470.5 780.5C496.21 777.781 505.281 762.886 507.896 703.942L435.949 738.371Z" fill="#492B21"/>
<path d="M435 735.5C435.319 736.477 435.635 737.434 435.949 738.371M508 701.5C507.967 702.322 507.932 703.136 507.896 703.942M431.5 740.5L435.949 738.371M513 701.5L507.896 703.942M435.949 738.371C446.207 768.996 454.033 778.248 470.5 780.5C496.21 777.781 505.281 762.886 507.896 703.942M435.949 738.371L507.896 703.942" stroke="#492B21" stroke-width="4" stroke-linecap="round"/>
<path d="M657 405C657 588.359 509.926 737 328.5 737C147.074 737 0 588.359 0 405C0 221.641 147.074 73 328.5 73C509.926 73 657 221.641 657 405Z" fill="#492B21"/>
<path d="M236 25L279 124" stroke="#492B21" stroke-width="50" stroke-linecap="round"/>
<path d="M187 111.993L249.5 108L217.228 45C224.478 81.9288 214.875 94.0839 187 111.993Z" fill="#492B21"/>
<path d="M214 31C215.304 36.0369 216.381 40.6874 217.228 45M170 122.5C176.275 118.686 181.939 115.244 187 111.993M187 111.993L249.5 108L217.228 45M187 111.993C214.875 94.0839 224.478 81.9288 217.228 45" stroke="#492B21" stroke-width="4" stroke-linecap="round"/>
<path d="M261.282 20C282.866 44.7269 323.076 63.5253 324.5 64C325.278 64.2594 352.713 70.4911 379 76.6115L284 95.5L261.282 20Z" fill="#492B21"/>
<path d="M258 16C259.035 17.3489 260.132 18.6829 261.282 20M451 99C449.733 99.5566 426 89.5 426 89.5C426 89.5 403.385 82.2889 379 76.6115M261.282 20C282.866 44.7269 323.076 63.5253 324.5 64C325.278 64.2594 352.713 70.4911 379 76.6115M261.282 20L284 95.5L379 76.6115" stroke="#492B21" stroke-width="4" stroke-linecap="round"/>
<path d="M228.292 742.853C231.586 777.833 240.899 789.969 259 794.5C282.807 796.623 289.218 785.296 293.419 755.795L228.292 742.853Z" fill="#492B21"/>
<path d="M228 739.5C228.091 740.64 228.189 741.758 228.292 742.853M294 751.5C293.81 752.972 293.617 754.404 293.419 755.795M224 742L228.292 742.853M302 757.5L293.419 755.795M228.292 742.853C231.586 777.833 240.899 789.969 259 794.5C282.807 796.623 289.218 785.296 293.419 755.795M228.292 742.853L293.419 755.795" stroke="#492B21" stroke-width="4" stroke-linecap="round"/>
<path d="M631 433C631 603.02 495.998 740 330.5 740C165.002 740 30 603.02 30 433C30 262.98 165.002 126 330.5 126C495.998 126 631 262.98 631 433Z" fill="#492B21" stroke="#492B21" stroke-width="50"/>
<path d="M615 416.932C615 576.812 488.52 706.42 332.5 706.42C176.48 706.42 50 576.812 50 416.932C50 257.053 176.48 127.445 332.5 127.445C488.52 127.445 615 257.053 615 416.932Z" fill="#A35733"/>
<path d="M609.84 435.243C609.84 595.123 484.516 724.731 329.92 724.731C175.325 724.731 50 595.123 50 435.243C50 275.364 175.325 145.756 329.92 145.756C484.516 145.756 609.84 275.364 609.84 435.243Z" fill="#A35733"/>
<path d="M263.5 92C254.577 132.254 230.515 146.481 198 166L426.5 146.5C367.623 122.519 327.295 123.756 263.5 92Z" fill="#A35733" stroke="#A35733" stroke-width="4" stroke-linecap="round"/>
<path d="M254.278 395.855C246.416 596.61 407.062 681.773 538.5 628C627.488 525.577 636.407 450.786 607.78 343.855C482.518 286.883 402.038 307.595 254.278 395.855Z" fill="white" stroke="white" stroke-linecap="round"/>
<path d="M43 528C286.781 301.488 472.516 256.726 622 336.5" stroke="#492B21" stroke-width="50" stroke-linecap="round"/>
<path d="M54.3271 485.598L96.1173 448.5C68.8185 374.486 73.1626 334.111 107.498 241.5C57.3985 309.704 39.3527 387.204 54.3271 485.598Z" fill="#7D351F"/>
<path d="M68.5 538.5C103.965 505.668 122.369 490.459 154.5 465C179.375 656.68 291.83 718.322 464 690C295.386 774.123 131.441 699.779 68.5 538.5Z" fill="#7D351F"/>
<path d="M54.3271 485.598L96.1173 448.5C68.8185 374.486 73.1626 334.111 107.498 241.5C57.3985 309.704 39.3527 387.204 54.3271 485.598Z" stroke="#7D351F" stroke-width="0.1" stroke-linecap="round"/>
<path d="M68.5 538.5C103.965 505.668 122.369 490.459 154.5 465C179.375 656.68 291.83 718.322 464 690C295.386 774.123 131.441 699.779 68.5 538.5Z" stroke="#7D351F" stroke-width="0.1" stroke-linecap="round"/>
<path d="M155.129 465.5C185.557 439.971 202.683 427.612 234 409L233.129 421.213C205.732 444.13 189.636 455.426 168.471 491.764C158.779 482.854 156.955 476.144 155.129 465.5Z" fill="#904528" stroke="#904528" stroke-linecap="round"/>
<path d="M273 237V238" stroke="#4C2923" stroke-width="39" stroke-linecap="round"/>
<path d="M419 196V197" stroke="#4C2923" stroke-width="37" stroke-linecap="round"/>
<path d="M170 263V264" stroke="#4C2923" stroke-width="34" stroke-linecap="round"/>
<path d="M472 461C485.151 450.903 500.671 443.707 528 445.195" stroke="#492B21" stroke-width="20" stroke-linecap="round"/>
<path d="M495 486.824C498.993 488.864 533.854 493.712 529.649 445" stroke="#492B21" stroke-width="20" stroke-linecap="round"/>
<path d="M472 463C478.937 479.568 487.707 486.125 500 488" stroke="#492B21" stroke-width="20" stroke-linecap="round"/>
<line x1="427.262" y1="406.33" x2="429.33" y2="418.738" stroke="#492B21" stroke-width="30" stroke-linecap="round"/>
<line x1="541.832" y1="378.765" x2="545.765" y2="391.168" stroke="#492B21" stroke-width="30" stroke-linecap="round"/>
</svg>
