<svg width="639" height="751" viewBox="0 0 639 751" fill="none" xmlns="http://www.w3.org/2000/svg">
<path d="M351.2 664.51C347.7 662.78 345.4 659.34 345.12 655.45L342.46 618.23C329.58 623.34 312.19 627.43 288.89 628.32C263.97 629.27 245.44 626.92 231.85 623.45L248.42 711.52C248.42 711.52 248.42 734.82 286.46 736.48C324.5 738.14 347.75 736.48 347.75 736.48C347.75 736.48 378.13 733.64 378.13 699.48C378.13 680.32 360.5 669.09 351.2 664.5V664.51Z" fill="white" stroke="#162954" stroke-width="8" stroke-miterlimit="10"/>
<path d="M627.05 519.489C627.05 519.489 615.78 500.249 596.14 508.099C579.87 514.609 574.99 522.739 574.99 522.739C574.99 522.739 570.11 527.619 558.72 522.739C555.39 521.309 548.73 518.079 540.97 514.219C540.56 525.059 538.88 541.629 533.09 558.359C525.97 578.959 517.01 593.729 507.4 602.699C533.69 612.499 555.51 620.359 561.98 621.979C581.5 626.859 591.26 626.859 602.65 612.219C614.04 597.579 641.7 553.649 627.05 519.489Z" fill="white" stroke="#162954" stroke-width="8" stroke-miterlimit="10"/>
<path d="M266.79 394.56C401.57 346.79 539.38 349.42 583.95 391.98C600.7 312.14 552.87 228.33 485.76 181.55C393.64 117.35 281.99 72.6797 281.99 72.6797C281.99 72.6797 139.63 212.25 103.34 321.12C79.6602 392.16 91.6502 452.5 127.66 494.39C133.48 469.93 161.72 431.8 266.81 394.56H266.79Z" fill="#A84325" stroke="#162954" stroke-width="8" stroke-miterlimit="10"/>
<path d="M162.07 248.17C162.07 248.17 127.52 354.77 149.62 364.72C171.73 374.67 198.25 369.14 198.25 369.14C198.25 369.14 157.35 387.93 135.25 408.93C113.14 429.93 115.35 427.72 112.04 414.46C108.72 401.2 110.71 333.77 132.93 297.3C155.15 260.82 162.07 248.18 162.07 248.18V248.17Z" fill="#C87936"/>
<path d="M179.23 217.271C184.34 210.911 256.19 121.821 285.13 105.921C287.43 104.651 290.15 104.421 292.64 105.261C307.43 110.291 365.67 130.501 390.59 144.871C390.59 144.871 300.2 89.7606 284.77 87.1406C271.4 84.8806 179.28 206.171 178.87 217.111C178.87 217.321 179.11 217.421 179.24 217.261L179.23 217.271Z" fill="#C87936"/>
<path d="M293.07 257.321C305.027 257.321 314.72 246.199 314.72 232.481C314.72 218.762 305.027 207.641 293.07 207.641C281.113 207.641 271.42 218.762 271.42 232.481C271.42 246.199 281.113 257.321 293.07 257.321Z" fill="#203052"/>
<path d="M434.261 225.038C444.243 221.025 448.601 208.483 443.995 197.025C439.389 185.567 427.563 179.532 417.581 183.545C407.599 187.558 403.241 200.099 407.847 211.557C412.453 223.015 424.279 229.05 434.261 225.038Z" fill="#203052"/>
<path d="M328.52 276.59C328.52 272.08 331.17 270.4 336.48 271.28C341.79 272.16 331.17 265.09 323.21 270.4C319.53 272.85 320.56 278.36 320.56 281.02C320.56 283.68 322.33 287.21 322.33 279.25C322.33 276.6 326.75 278.37 327.64 280.13C328.52 281.9 349.76 339.42 392.24 328.8C434.72 318.18 430.88 272 430.88 272C430.88 272 434.72 262.42 430.88 254.02C427.04 245.61 406.4 244.73 416.13 248.27C425.86 251.81 424.09 257.12 424.09 257.12C424.97 270.39 418.78 279.24 385.15 286.32C351.52 293.4 329.4 278.36 329.4 278.36C329.4 278.36 328.52 277.48 328.52 276.59Z" fill="#162954"/>
<path d="M297.11 245.779C300.744 245.779 303.69 242.833 303.69 239.199C303.69 235.565 300.744 232.619 297.11 232.619C293.476 232.619 290.53 235.565 290.53 239.199C290.53 242.833 293.476 245.779 297.11 245.779Z" fill="white"/>
<path d="M432.74 217.359C436.374 217.359 439.32 214.413 439.32 210.779C439.32 207.145 436.374 204.199 432.74 204.199C429.106 204.199 426.16 207.145 426.16 210.779C426.16 214.413 429.106 217.359 432.74 217.359Z" fill="white"/>
<path d="M471.26 589.271C483.53 593.921 495.84 598.561 507.31 602.831C516.93 593.851 525.9 579.061 533.03 558.441C538.82 541.691 540.51 525.101 540.92 514.241C532.1 509.861 521.87 504.661 513.48 500.381L471.26 589.271Z" fill="#C87936" stroke="#162954" stroke-width="8" stroke-miterlimit="10"/>
<path d="M513.47 500.379L515.65 495.779C514.21 496.959 512.76 498.129 511.3 499.269C512.01 499.629 512.72 499.999 513.46 500.369L513.47 500.379Z" fill="#C87936"/>
<path d="M511.31 499.279C472.7 529.639 428.78 547.459 384.72 556.099C393.66 559.559 432.19 574.459 471.25 589.269L513.47 500.379C512.73 499.999 512.01 499.639 511.31 499.279Z" fill="#162954" stroke="#162954" stroke-width="8" stroke-miterlimit="10"/>
<path d="M266.42 394.449C161.21 431.739 132.94 469.909 127.11 494.399C146.3 516.729 172.3 533.819 203.37 544.499C207.9 546.059 212.59 547.529 217.4 548.919L231.45 623.599C245.05 627.079 263.6 629.429 288.55 628.469C311.87 627.579 329.29 623.489 342.18 618.369L338.15 561.959C353.54 561.049 369.13 559.159 384.72 556.099C428.78 547.459 472.7 529.629 511.31 499.279C512.77 498.129 514.21 496.969 515.66 495.789C522.61 490.089 529.39 483.989 535.94 477.429C562.49 450.879 577.7 421.649 583.94 391.869C539.33 349.259 401.35 346.629 266.42 394.449Z" fill="#C87936" stroke="#162954" stroke-width="8" stroke-miterlimit="10"/>
<path d="M256.5 420.09C256.5 420.09 200.13 447.49 191.29 469.6C182.45 491.71 200.13 503.86 207.87 507.18C215.61 510.5 257.61 539.23 326.14 532.6C326.14 532.6 331.67 543.65 264.24 540.34C196.82 537.02 157.03 498.34 154.81 485.07C152.6 471.81 192.39 444.63 256.5 420.09Z" fill="#E69C49"/>
<path d="M349.75 304.669C349.75 304.669 367.52 327.839 390.59 322.719C410.49 318.299 419.84 305.509 421.54 296.189C423.23 286.869 379.4 294.499 379.4 295.349C379.4 295.349 388.72 297.889 389.56 302.129C389.56 302.129 365.84 291.119 349.75 304.669Z" fill="#F48479"/>
<path d="M286.68 517.25C291.562 517.25 295.52 513.293 295.52 508.41C295.52 503.528 291.562 499.57 286.68 499.57C281.798 499.57 277.84 503.528 277.84 508.41C277.84 513.293 281.798 517.25 286.68 517.25Z" fill="#A14D12"/>
<path d="M504.43 432.141C508.091 432.141 511.06 429.173 511.06 425.511C511.06 421.849 508.091 418.881 504.43 418.881C500.768 418.881 497.8 421.849 497.8 425.511C497.8 429.173 500.768 432.141 504.43 432.141Z" fill="#A14D12"/>
<path d="M386.16 414.459C389.822 414.459 392.79 411.491 392.79 407.829C392.79 404.168 389.822 401.199 386.16 401.199C382.499 401.199 379.53 404.168 379.53 407.829C379.53 411.491 382.499 414.459 386.16 414.459Z" fill="#E69C49"/>
<path d="M408.27 394.561C411.931 394.561 414.9 391.592 414.9 387.931C414.9 384.269 411.931 381.301 408.27 381.301C404.608 381.301 401.64 384.269 401.64 387.931C401.64 391.592 404.608 394.561 408.27 394.561Z" fill="#E69C49"/>
<path d="M362.95 404.509C364.783 404.509 366.27 403.023 366.27 401.189C366.27 399.356 364.783 397.869 362.95 397.869C361.116 397.869 359.63 399.356 359.63 401.189C359.63 403.023 361.116 404.509 362.95 404.509Z" fill="#E69C49"/>
<path d="M439.21 397.88C441.043 397.88 442.53 396.394 442.53 394.56C442.53 392.727 441.043 391.24 439.21 391.24C437.376 391.24 435.89 392.727 435.89 394.56C435.89 396.394 437.376 397.88 439.21 397.88Z" fill="#E69C49"/>
<path d="M242.47 466.41C244.304 466.41 245.79 464.923 245.79 463.09C245.79 461.256 244.304 459.77 242.47 459.77C240.637 459.77 239.15 461.256 239.15 463.09C239.15 464.923 240.637 466.41 242.47 466.41Z" fill="#A14D12"/>
<path d="M527.64 410.04C529.474 410.04 530.96 408.554 530.96 406.72C530.96 404.887 529.474 403.4 527.64 403.4C525.807 403.4 524.32 404.887 524.32 406.72C524.32 408.554 525.807 410.04 527.64 410.04Z" fill="#A14D12"/>
<path d="M518.8 448.73C520.634 448.73 522.12 447.243 522.12 445.41C522.12 443.576 520.634 442.09 518.8 442.09C516.967 442.09 515.48 443.576 515.48 445.41C515.48 447.243 516.967 448.73 518.8 448.73Z" fill="#A14D12"/>
<path d="M482.32 469.73C484.154 469.73 485.64 468.243 485.64 466.41C485.64 464.576 484.154 463.09 482.32 463.09C480.486 463.09 479 464.576 479 466.41C479 468.243 480.486 469.73 482.32 469.73Z" fill="#A14D12"/>
<path d="M239.15 499.57C242.811 499.57 245.78 496.602 245.78 492.941C245.78 489.279 242.811 486.311 239.15 486.311C235.488 486.311 232.52 489.279 232.52 492.941C232.52 496.602 235.488 499.57 239.15 499.57Z" fill="#A14D12"/>
<path d="M490.25 189.451C441.66 147.641 378.33 122.891 339.64 104.971C339.68 104.991 522.11 158.021 517.39 355.021C517.36 356.391 516.86 357.871 516.59 359.191C545.33 364.721 563.01 370.241 580.7 383.511C580.7 383.511 595.07 313.881 547.54 250.871C547.54 250.871 535.77 228.611 490.26 189.451H490.25Z" fill="#7A2A1E"/>
<path d="M515.11 489.999C521.56 484.709 527.85 479.049 533.94 472.959C558.56 448.339 573.78 421.079 579.59 393.459C566.22 380.699 542.8 372.729 514.38 368.039C484.59 510.339 393.9 549.309 393.9 549.309C434.81 541.289 475.23 521.429 511.08 493.239C512.43 492.179 513.78 491.089 515.12 489.999H515.11Z" fill="#A65F26"/>
<path d="M425.57 141.971L397.54 76.1209C397.54 76.1209 393.01 53.5709 331.64 40.9909C270.27 28.4109 272.08 33.8209 253.12 22.1109C234.16 10.4009 198.96 4.11094 180.93 13.1509C162.89 22.1909 185.47 44.7309 166.54 69.1109C147.61 93.4909 124.2 145.871 130.83 185.671C133.68 202.791 146.36 235.321 146.36 235.321C146.36 235.321 186.83 167.811 317.63 127.091C317.63 127.091 374 108.301 425.57 141.981V141.971Z" fill="#2A3F7F" stroke="#162954" stroke-width="8" stroke-linecap="round" stroke-linejoin="round"/>
<path d="M399.76 79.4396C399.76 79.4396 374.83 45.6796 282.27 71.8096C166.77 104.42 131.4 186.21 131.4 186.21" stroke="#162954" stroke-width="7" stroke-linecap="round" stroke-linejoin="round"/>
<path d="M180.57 13.2305C180.57 13.2305 233.14 18.6405 269.33 53.8405C286.68 70.7105 276.73 72.9205 276.73 72.9205" stroke="#162954" stroke-width="7" stroke-linecap="round" stroke-linejoin="round"/>
<path d="M137.47 251.98C137.47 251.98 53.8095 366.46 12.0195 370.8C12.0195 370.8 29.6095 417.22 92.1495 407.83C92.1495 407.83 77.7795 340.41 137.47 251.98Z" fill="#2A3F7F" stroke="#162954" stroke-width="8" stroke-linecap="round" stroke-linejoin="round"/>
<path d="M349.63 672.121C346.07 670.361 343.72 666.851 343.44 662.891L340.73 624.961C327.61 630.171 309.88 634.341 286.14 635.241C260.75 636.211 241.86 633.821 228.02 630.281L244.9 720.021C244.9 720.021 244.9 743.761 283.66 745.461C322.42 747.161 346.11 745.461 346.11 745.461C346.11 745.461 377.06 742.571 377.06 707.751C377.06 688.231 359.1 676.791 349.61 672.111L349.63 672.121Z" fill="white" stroke="#162954" stroke-width="8" stroke-miterlimit="10"/>
<path d="M630.73 524.341C630.73 524.341 619.24 504.731 599.23 512.741C582.65 519.371 577.68 527.661 577.68 527.661C577.68 527.661 572.71 532.631 561.1 527.661C557.71 526.211 550.92 522.911 543.01 518.981C542.6 530.031 540.88 546.911 534.98 563.961C527.72 584.951 518.59 600.001 508.8 609.141C535.59 619.121 557.83 627.141 564.42 628.791C584.31 633.761 594.26 633.761 605.87 618.841C617.47 603.921 645.66 559.161 630.74 524.341H630.73Z" fill="white" stroke="#162954" stroke-width="8" stroke-miterlimit="10"/>
<path d="M263.62 397.039C400.96 348.359 541.4 351.039 586.8 394.409C603.87 313.049 555.13 227.649 486.74 179.979C392.87 114.559 279.09 69.0391 279.09 69.0391C279.09 69.0391 134.02 211.259 97.0404 322.199C72.9104 394.589 85.1304 456.079 121.82 498.769C127.75 473.849 156.52 434.989 263.61 397.039H263.62Z" fill="#C54528" stroke="#162954" stroke-width="8" stroke-miterlimit="10"/>
<path d="M156.91 247.869C156.91 247.869 121.7 356.499 144.23 366.629C166.76 376.769 193.79 371.139 193.79 371.139C193.79 371.139 152.12 390.289 129.59 411.689C107.06 433.089 109.32 430.839 105.94 417.319C102.56 403.799 104.58 335.099 127.22 297.929C149.86 260.759 156.92 247.869 156.92 247.869H156.91Z" fill="#DD8A4B"/>
<path d="M174.39 216.38C179.59 209.9 252.82 119.11 282.3 102.91C284.65 101.62 287.41 101.38 289.95 102.24C305.02 107.37 364.37 127.96 389.76 142.61C389.76 142.61 297.65 86.45 281.93 83.78C268.31 81.47 174.43 205.07 174.01 216.22C174.01 216.43 174.25 216.54 174.39 216.38Z" fill="#C87936"/>
<path d="M290.4 257.181C302.583 257.181 312.46 245.849 312.46 231.871C312.46 217.892 302.583 206.561 290.4 206.561C278.216 206.561 268.34 217.892 268.34 231.871C268.34 245.849 278.216 257.181 290.4 257.181Z" fill="#203052"/>
<path d="M434.283 224.282C444.455 220.193 448.896 207.416 444.204 195.743C439.511 184.069 427.461 177.921 417.29 182.01C407.118 186.099 402.676 198.877 407.369 210.55C412.061 222.223 424.111 228.371 434.283 224.282Z" fill="#203052"/>
<path d="M326.52 276.83C326.52 272.23 329.23 270.52 334.64 271.42C340.05 272.32 329.23 265.11 321.11 270.52C317.36 273.02 318.4 278.64 318.4 281.34C318.4 284.04 320.2 287.65 320.2 279.54C320.2 276.83 324.71 278.64 325.61 280.44C326.51 282.24 348.15 340.86 391.44 330.04C434.73 319.22 430.81 272.16 430.81 272.16C430.81 272.16 434.72 262.4 430.81 253.84C426.9 245.28 405.86 244.37 415.78 247.98C425.7 251.59 423.9 257 423.9 257C424.8 270.53 418.49 279.54 384.22 286.76C349.95 293.97 327.41 278.64 327.41 278.64C327.41 278.64 326.51 277.74 326.51 276.84L326.52 276.83Z" fill="#162954"/>
<path d="M294.52 245.429C298.221 245.429 301.22 242.43 301.22 238.729C301.22 235.029 298.221 232.029 294.52 232.029C290.82 232.029 287.82 235.029 287.82 238.729C287.82 242.43 290.82 245.429 294.52 245.429Z" fill="white"/>
<path d="M432.73 216.47C436.431 216.47 439.43 213.471 439.43 209.77C439.43 206.07 436.431 203.07 432.73 203.07C429.03 203.07 426.03 206.07 426.03 209.77C426.03 213.471 429.03 216.47 432.73 216.47Z" fill="white"/>
<path d="M471.97 595.449C484.47 600.189 497.02 604.919 508.7 609.269C518.5 600.119 527.64 585.049 534.91 564.039C540.81 546.969 542.53 530.069 542.95 518.999C533.97 514.529 523.54 509.239 514.99 504.869L471.97 595.449Z" fill="#C87936" stroke="#162954" stroke-width="8" stroke-miterlimit="10"/>
<path d="M514.99 504.87L517.22 500.18C515.75 501.38 514.28 502.57 512.79 503.74C513.51 504.11 514.24 504.48 514.99 504.87Z" fill="#C87936"/>
<path d="M512.79 503.75C473.45 534.68 428.7 552.85 383.8 561.66C392.91 565.19 432.18 580.37 471.98 595.46L515 504.88C514.25 504.5 513.52 504.12 512.8 503.75H512.79Z" fill="#162954" stroke="#162954" stroke-width="8" stroke-miterlimit="10"/>
<path d="M263.24 396.92C156.03 434.92 127.22 473.82 121.28 498.77C140.84 521.52 167.33 538.94 198.99 549.82C203.61 551.41 208.38 552.91 213.28 554.33L227.6 630.43C241.46 633.97 260.36 636.37 285.79 635.4C309.56 634.49 327.3 630.32 340.44 625.1L336.33 567.62C352.01 566.69 367.9 564.76 383.78 561.65C428.68 552.84 473.43 534.68 512.77 503.74C514.25 502.57 515.73 501.38 517.2 500.18C524.28 494.37 531.19 488.16 537.87 481.47C564.93 454.41 580.42 424.63 586.79 394.28C541.33 350.86 400.73 348.18 263.23 396.91L263.24 396.92Z" fill="#E58B48" stroke="#162954" stroke-width="8" stroke-miterlimit="10"/>
<path d="M253.13 423.061C253.13 423.061 195.69 450.981 186.68 473.511C177.67 496.041 195.69 508.431 203.57 511.801C211.45 515.181 254.25 544.461 324.09 537.711C324.09 537.711 329.72 548.971 261.02 545.591C192.31 542.211 151.77 502.791 149.51 489.271C147.26 475.751 187.8 448.061 253.13 423.051V423.061Z" fill="#FCB065"/>
<path d="M348.15 305.44C348.15 305.44 366.26 329.05 389.76 323.83C410.03 319.32 419.57 306.29 421.3 296.8C423.03 287.31 378.36 295.08 378.36 295.95C378.36 295.95 387.85 298.54 388.72 302.85C388.72 302.85 364.55 291.63 348.15 305.44Z" fill="#F48479"/>
<path d="M283.89 522.059C288.866 522.059 292.9 518.025 292.9 513.049C292.9 508.073 288.866 504.039 283.89 504.039C278.914 504.039 274.88 508.073 274.88 513.049C274.88 518.025 278.914 522.059 283.89 522.059Z" fill="#A14D12"/>
<path d="M505.78 435.34C509.513 435.34 512.54 432.314 512.54 428.58C512.54 424.847 509.513 421.82 505.78 421.82C502.046 421.82 499.02 424.847 499.02 428.58C499.02 432.314 502.046 435.34 505.78 435.34Z" fill="#A14D12"/>
<path d="M385.26 417.321C388.993 417.321 392.02 414.294 392.02 410.561C392.02 406.827 388.993 403.801 385.26 403.801C381.527 403.801 378.5 406.827 378.5 410.561C378.5 414.294 381.527 417.321 385.26 417.321Z" fill="#E69C49"/>
<path d="M407.79 397.04C411.524 397.04 414.55 394.013 414.55 390.28C414.55 386.546 411.524 383.52 407.79 383.52C404.057 383.52 401.03 386.546 401.03 390.28C401.03 394.013 404.057 397.04 407.79 397.04Z" fill="#E69C49"/>
<path d="M361.61 407.18C363.477 407.18 364.99 405.667 364.99 403.8C364.99 401.933 363.477 400.42 361.61 400.42C359.744 400.42 358.23 401.933 358.23 403.8C358.23 405.667 359.744 407.18 361.61 407.18Z" fill="#E69C49"/>
<path d="M439.32 400.42C441.187 400.42 442.7 398.907 442.7 397.04C442.7 395.173 441.187 393.66 439.32 393.66C437.454 393.66 435.94 395.173 435.94 397.04C435.94 398.907 437.454 400.42 439.32 400.42Z" fill="#E69C49"/>
<path d="M238.84 470.25C240.707 470.25 242.22 468.737 242.22 466.87C242.22 465.003 240.707 463.49 238.84 463.49C236.973 463.49 235.46 465.003 235.46 466.87C235.46 468.737 236.973 470.25 238.84 470.25Z" fill="#A14D12"/>
<path d="M529.43 412.811C531.297 412.811 532.81 411.297 532.81 409.431C532.81 407.564 531.297 406.051 529.43 406.051C527.563 406.051 526.05 407.564 526.05 409.431C526.05 411.297 527.563 412.811 529.43 412.811Z" fill="#A14D12"/>
<path d="M520.42 452.231C522.287 452.231 523.8 450.717 523.8 448.851C523.8 446.984 522.287 445.471 520.42 445.471C518.553 445.471 517.04 446.984 517.04 448.851C517.04 450.717 518.553 452.231 520.42 452.231Z" fill="#A14D12"/>
<path d="M483.25 473.629C485.117 473.629 486.63 472.116 486.63 470.249C486.63 468.382 485.117 466.869 483.25 466.869C481.383 466.869 479.87 468.382 479.87 470.249C479.87 472.116 481.383 473.629 483.25 473.629Z" fill="#A14D12"/>
<path d="M235.46 504.04C239.194 504.04 242.22 501.013 242.22 497.28C242.22 493.546 239.194 490.52 235.46 490.52C231.727 490.52 228.7 493.546 228.7 497.28C228.7 501.013 231.727 504.04 235.46 504.04Z" fill="#A14D12"/>
<path d="M491.33 188.029C441.81 145.429 377.29 120.209 337.85 101.949C337.89 101.969 523.79 156.009 518.98 356.759C518.95 358.149 518.44 359.659 518.16 361.009C547.44 366.639 565.47 372.269 583.49 385.789C583.49 385.789 598.13 314.829 549.7 250.629C549.7 250.629 537.71 227.949 491.33 188.039V188.029Z" fill="#823129"/>
<path d="M516.66 494.29C523.24 488.9 529.65 483.13 535.85 476.93C560.94 451.84 576.44 424.06 582.37 395.92C568.74 382.92 544.88 374.8 515.92 370.01C485.56 515.01 393.15 554.73 393.15 554.73C434.83 546.55 476.03 526.32 512.56 497.6C513.94 496.52 515.31 495.41 516.67 494.29H516.66Z" fill="#A65F26"/>
<path d="M425.42 139.65L396.86 72.55C396.86 72.55 392.24 49.57 329.71 36.75C267.17 23.93 269.02 29.45 249.7 17.51C230.38 5.57 194.52 -0.830001 176.13 8.38C157.75 17.59 180.76 40.56 161.47 65.4C142.18 90.24 118.32 143.62 125.08 184.17C127.99 201.62 140.9 234.76 140.9 234.76C140.9 234.76 182.13 165.97 315.42 124.47C315.42 124.47 372.86 105.32 425.41 139.64L425.42 139.65Z" fill="#2A3F7F" stroke="#162954" stroke-width="8" stroke-linecap="round" stroke-linejoin="round"/>
<path d="M399.11 75.9307C399.11 75.9307 373.71 41.5307 279.38 68.1607C161.68 101.391 125.64 184.731 125.64 184.731" stroke="#162954" stroke-width="7" stroke-linecap="round" stroke-linejoin="round"/>
<path d="M175.76 8.46094C175.76 8.46094 229.33 13.9709 266.21 49.8409C283.89 67.0309 273.75 69.2809 273.75 69.2809" stroke="#162954" stroke-width="7" stroke-linecap="round" stroke-linejoin="round"/>
<path d="M131.84 251.75C131.84 251.75 46.59 368.4 4 372.83C4 372.83 21.93 420.14 85.66 410.56C85.66 410.56 71.02 341.85 131.84 251.75Z" fill="#2A3F7F" stroke="#162954" stroke-width="8" stroke-linecap="round" stroke-linejoin="round"/>
</svg>
