<svg width="94" height="93" viewBox="0 0 94 93" fill="none" xmlns="http://www.w3.org/2000/svg">
<path d="M6.9367 52.3558C7.48513 52.4809 8.04262 52.6095 8.55762 52.7271C8.67522 53.1138 8.84548 53.3753 8.81625 53.6025C8.69499 54.4685 8.46267 55.3131 8.35672 56.1798C8.16419 57.739 7.92855 59.3026 7.90442 60.8687C7.88859 61.8939 8.05223 62.9923 9.10846 63.6366C10.4215 63.6994 11.256 62.8657 11.9026 61.9399C12.8965 60.5084 13.7772 58.9927 14.611 57.4642C15.1032 56.5628 15.5367 55.7479 16.7592 56.0769C17.6033 56.5837 17.6849 57.3246 17.3909 58.1406C16.3667 60.9907 14.9385 63.5942 12.4574 65.4356C9.32803 67.7565 6.17227 66.5956 5.25913 62.7877C4.48171 59.5236 5.08529 56.3481 6.19327 53.25C6.30216 52.9493 6.62739 52.7203 6.94576 52.3592L6.9367 52.3558Z" fill="black"/>
<path d="M71.8235 70.0958C71.7223 72.9851 70.9556 75.9484 72.2329 78.9876C73.7936 78.2065 74.3574 76.8296 75.0309 75.5461C75.6729 74.3181 76.2941 73.0769 76.8609 71.9654C77.3829 71.8732 77.6709 71.7286 77.8856 71.8048C78.274 71.9418 78.6189 72.2074 79.0337 72.4528C78.9946 73.0339 79.1086 73.6212 78.8983 74.0389C77.911 75.9858 76.9112 77.9383 75.7519 79.7785C75.2601 80.5558 74.4331 81.2059 73.6227 81.6757C72.2877 82.4492 70.7274 82.0956 69.9511 80.7544C69.3523 79.724 68.8534 78.4984 68.783 77.3317C68.6282 74.8168 68.7808 72.2837 68.8101 69.9527C69.9856 69.231 70.9915 69.2792 71.828 70.0975L71.8235 70.0958Z" fill="black"/>
<path d="M49.9097 54.8806C49.4625 55.1307 48.9761 55.4022 48.2481 55.8048C47.5271 54.6867 46.8822 53.6958 46.226 52.68C44.7896 52.5599 44.4769 54.2446 43.2452 54.5546C42.1315 54.5674 41.8052 53.8839 41.877 52.766C42.6335 51.4 43.8518 50.4424 45.3246 49.8248C46.5275 49.3174 47.6011 49.5744 48.3143 50.6585C49.1199 51.8813 49.9612 53.1332 49.9069 54.8744L49.9097 54.8806Z" fill="black"/>
<path d="M34.1095 46.1805C33.6267 46.2512 33.1223 46.3241 32.6395 46.3949C31.7637 45.5755 31.5491 44.5977 31.7806 43.5093C32.0878 42.0712 33.3884 40.9376 34.6734 40.9379C36.0366 40.9369 37.1145 41.9884 37.368 43.6287C37.6016 45.1164 37.2978 46.3951 35.6665 47.2531C35.1937 46.9286 34.6689 46.5637 34.105 46.1788L34.1095 46.1805Z" fill="black"/>
<path d="M61.3708 52.9984C60.9224 52.8282 60.6139 52.6853 60.2938 52.6002C60.0497 52.5334 59.7843 52.5364 59.4453 52.5011C59.0396 52.8602 58.6038 53.2441 58.2015 53.5941C57.1147 53.2492 56.701 51.5532 57.2729 50.1276C57.9192 48.5332 59.4823 47.7323 60.8092 48.3186C62.362 49.0061 62.6156 50.6051 61.3708 52.9984Z" fill="black"/>
<path d="M75.9015 35.7428C75.6794 38.5137 74.6698 40.9289 73.6111 43.3099C72.5625 43.4924 72.13 42.7065 71.5886 42.2213C66.3539 37.5254 60.4253 33.9756 53.8134 31.6123C43.4623 27.9186 32.934 26.9869 22.2044 29.8912C21.7083 30.0242 21.1976 30.1 20.44 30.253C21.0608 27.1825 21.6875 24.4925 24.8804 23.2062C27.7785 22.0412 30.7732 21.4414 33.8498 21.1991C40.7586 20.6488 47.5264 21.5633 54.2122 23.281C59.5248 24.6435 64.585 26.6306 69.2407 29.5472C71.7869 31.1401 74.1491 32.9586 75.9032 35.7383L75.9015 35.7428Z" fill="#5C8EF2"/>
<path d="M56.1739 10.0708C55.901 13.522 55.2854 16.8795 53.094 19.9241C44.2274 18.1771 35.461 17.204 26.2497 19.5753C26.6986 18.9113 26.862 18.4396 27.1945 18.2185C28.6511 17.2477 30.0959 16.2257 31.6594 15.4508C38.2667 12.1849 45.2786 10.3523 52.6207 9.77992C53.4914 9.71124 54.376 9.71519 55.2509 9.73101C55.493 9.73477 55.7362 9.89958 56.1802 10.068L56.1739 10.0708Z" fill="#5C8EF2"/>
<path d="M72.432 28.1729C67.5802 24.7622 62.1036 22.6846 56.4878 20.8235C57.3666 17.5919 58.1873 14.5817 59.0645 11.3545C61.1249 12.6025 62.4927 14.5153 64.0189 16.2291C65.6507 18.0607 67.1897 19.9867 68.6752 21.9442C70.1027 23.8226 71.4068 25.7942 72.7631 27.7234C72.6543 27.8738 72.5454 28.0242 72.432 28.1729Z" fill="#5C8EF2"/>
<path d="M-0.140813 49.3032C-0.492628 53.0716 -0.814903 56.53 -1.15078 60.1335C-4.02723 58.7417 -6.60078 56.8793 -9.35051 54.6754C-6.30439 52.6287 -3.01604 51.4459 -0.140813 49.3032Z" fill="#5C8EF2"/>
<path d="M90.1681 77.2117C87.4183 78.7232 85.0197 79.8963 81.965 80.0536C82.7569 77.5973 83.4903 75.3364 84.3086 72.7969C86.2186 74.2366 88.0574 75.6181 90.1681 77.2117Z" fill="#5C8EF2"/>
<path d="M27.4054 67.7994C28.5734 67.6984 30.0345 67.7397 31.6886 67.9009C31.9482 67.9268 32.2169 67.9562 32.4901 67.9873C32.5144 67.9913 32.5343 67.9937 32.5586 67.9978C32.8211 68.0299 33.0835 68.0621 33.355 68.0978C33.3901 68.1007 33.419 68.1065 33.4542 68.1095C33.7194 68.1479 33.9909 68.1836 34.2589 68.2282C34.2941 68.2312 34.3275 68.2387 34.3609 68.2462C34.6398 68.2898 34.9186 68.3334 35.2002 68.3832C35.2229 68.3918 35.2444 68.3897 35.2688 68.3937C38.0478 68.8676 41.0913 69.587 44.0632 70.4812C44.0723 70.4847 44.0768 70.4864 44.0859 70.4898C44.4115 70.5875 44.7355 70.6896 45.0595 70.7918C45.0595 70.7918 45.0685 70.7953 45.0731 70.797C48.6956 71.9432 52.1373 73.3474 54.7518 74.8834C54.99 75.0204 55.2203 75.1647 55.4415 75.3056C55.446 75.3073 55.4505 75.309 55.4596 75.3125C56.7012 75.9597 60.2062 78.3309 60.2062 78.3309C60.4977 78.4778 60.793 78.6417 61.0906 78.8271C61.1625 78.8699 61.2343 78.9127 61.309 78.9618C61.421 79.0353 61.5358 79.1152 61.6523 79.1905C61.7388 79.2492 61.8208 79.3062 61.9074 79.365C62.0176 79.4431 62.1307 79.5274 62.2438 79.6118C62.336 79.683 62.4253 79.748 62.5158 79.8238C62.6271 79.9126 62.7385 80.0015 62.8482 80.095C62.9431 80.1724 63.0409 80.2562 63.1387 80.3399C63.2483 80.4333 63.3608 80.533 63.4687 80.6309C63.5739 80.7226 63.6773 80.8188 63.7807 80.9151C63.8886 81.013 63.9965 81.111 64.1056 81.2197C64.2282 81.3336 64.3474 81.4565 64.4711 81.5812C64.5654 81.674 64.6597 81.7668 64.7569 81.8658C64.9704 82.0815 65.1805 82.3063 65.3979 82.5391C65.4906 82.6364 65.5797 82.7428 65.6724 82.8401C65.8119 82.9915 65.9468 83.1411 66.0874 83.3033C66.1884 83.4193 66.2895 83.5354 66.3906 83.6515C66.5238 83.8056 66.6598 83.9661 66.7959 84.1265C66.8998 84.2488 67.0019 84.3757 67.1086 84.5042C67.2475 84.6709 67.3846 84.8421 67.5263 85.015C67.6284 85.1419 67.7334 85.275 67.8355 85.4018C67.9828 85.5873 68.1329 85.7789 68.2813 85.9751C68.3789 86.1002 68.4794 86.2316 68.5753 86.3613C68.7412 86.5797 68.9126 86.8105 69.0813 87.0352C69.1671 87.1506 69.25 87.2598 69.3358 87.3752C69.593 87.7216 69.8468 88.077 70.1063 88.4448C70.1063 88.4448 70.1063 88.4448 70.1108 88.4465C70.6718 88.1153 71.2921 87.8324 71.8221 87.4324C72.9674 86.5714 74.0206 85.6393 74.9692 84.6415C75.4434 84.1426 75.8968 83.6306 76.3201 83.102C80.9249 77.3974 82.6015 70.0276 80.9394 62.6348C80.8552 62.2556 80.7603 61.8776 80.6563 61.4962C80.6082 61.3225 80.5618 61.1442 80.5091 60.9688C80.2321 60.0191 79.9011 59.0748 79.5089 58.128C79.1364 57.225 78.7321 56.3513 78.2993 55.4979C77.8665 54.6445 77.4035 53.816 76.9104 53.0123C73.9598 48.1827 69.9903 44.1947 65.242 40.8803C62.7553 39.1441 60.2088 37.6339 57.6069 36.3515C56.8643 35.9869 56.1149 35.6404 55.3648 35.3092C54.9866 35.145 54.6113 34.987 54.2297 34.8319C53.0939 34.3699 51.9473 33.9505 50.7868 33.5672C50.3994 33.441 50.0149 33.321 49.624 33.2038C47.2927 32.5059 44.9222 31.9797 42.509 31.6342C40.204 31.3039 37.8542 31.1327 35.4732 31.1259C35.1942 31.1237 34.918 31.1277 34.6373 31.1301C32.2947 31.1585 29.918 31.345 27.5028 31.688C25.4761 31.9762 23.514 32.4496 21.6086 33.074C18.6897 34.0342 15.9116 35.3743 13.2865 37.0626C10.0298 39.159 7.44136 41.7887 5.55924 44.7693C5.37381 45.0669 5.19119 45.3707 5.01935 45.6734C4.67394 46.2834 4.354 46.9082 4.06749 47.5405C3.49274 48.8097 3.02781 50.1308 2.6858 51.4831C2.51707 52.1601 2.37551 52.8474 2.26285 53.5404C1.93392 55.6231 1.87524 57.772 2.10506 59.9527C2.25884 61.4049 2.53619 62.873 2.94225 64.3432C3.04689 64.7093 3.15605 65.0772 3.27147 65.4423C3.50684 66.1741 3.77734 66.9089 4.07847 67.645C4.50658 68.6883 5.02841 69.6894 5.60552 70.9136C5.93434 70.7845 6.26597 70.6616 6.59136 70.5415C7.09107 70.3579 7.59359 70.1807 8.09268 70.0125C9.9022 69.4087 11.7101 68.9183 13.5335 68.5374C16.9437 67.8257 20.404 67.501 24.045 67.5195C24.4121 67.3167 27.4015 67.7824 27.4015 67.7824L27.4054 67.7994ZM71.8238 70.0947C71.7226 72.984 70.9559 75.9473 72.2332 78.9865C73.7939 78.2054 74.3577 76.8285 75.0312 75.545C75.6732 74.3169 76.2944 73.0758 76.8612 71.9642C77.3832 71.8721 77.6713 71.7275 77.8859 71.8037C78.2744 71.9407 78.6192 72.2063 79.034 72.4517C78.9949 73.0328 79.1089 73.6201 78.8986 74.0378C77.9113 75.9847 76.9115 77.9372 75.7522 79.7774C75.2604 80.5547 74.4334 81.2048 73.623 81.6746C72.288 82.4481 70.7277 82.0945 69.9514 80.7533C69.3526 79.7229 68.8537 78.4973 68.7833 77.3306C68.6285 74.8157 68.7811 72.2826 68.8104 69.9516C69.9859 69.2299 70.9918 69.2781 71.8283 70.0964L71.8238 70.0947ZM60.8041 48.3167C62.3569 49.0042 62.6105 50.6032 61.3658 52.9965C60.9173 52.8263 60.6088 52.6834 60.2888 52.5983C60.0446 52.5315 59.7792 52.5345 59.4403 52.4992C59.0346 52.8583 58.5987 53.2422 58.1965 53.5922C57.1096 53.2473 56.6959 51.5513 57.2679 50.1257C57.9142 48.5313 59.4772 47.7304 60.8041 48.3167ZM12.4459 65.4354C9.31651 67.7563 6.16075 66.5954 5.24761 62.7875C4.47019 59.5234 5.07378 56.3479 6.18175 53.2498C6.29064 52.9491 6.61587 52.7201 6.93424 52.359C7.48267 52.4841 8.04016 52.6127 8.55516 52.7304C8.67276 53.117 8.84302 53.3785 8.81379 53.6058C8.69253 54.4718 8.46021 55.3163 8.35426 56.183C8.16173 57.7422 7.9261 59.3058 7.90196 60.8719C7.88613 61.8971 8.04977 62.9955 9.106 63.6398C10.4191 63.7027 11.2536 62.8689 11.9001 61.9431C12.894 60.5117 13.7748 58.9959 14.6085 57.4675C15.1008 56.566 15.5343 55.7511 16.7567 56.0802C17.6008 56.5869 17.6825 57.3278 17.3885 58.1438C16.3642 60.9939 14.9361 63.5975 12.455 65.4388L12.4459 65.4354ZM45.3274 49.8294C46.5303 49.3219 47.6039 49.5789 48.3171 50.663C49.1227 51.8858 49.964 53.1377 49.9097 54.8789C49.4625 55.129 48.976 55.4005 48.2481 55.8031C47.5271 54.685 46.8822 53.6941 46.226 52.6783C44.7896 52.5582 44.4769 54.2429 43.2452 54.5529C42.1315 54.5657 41.8052 53.8822 41.8769 52.7643C42.6335 51.3983 43.8518 50.4407 45.3246 49.8231L45.3274 49.8294ZM31.7808 43.5087C32.0879 42.0707 33.3886 40.937 34.6735 40.9374C36.0367 40.9364 37.1146 41.9879 37.3681 43.6282C37.6017 45.1159 37.298 46.3946 35.6667 47.2525C35.1938 46.9281 34.669 46.5632 34.1051 46.1782C33.6223 46.249 33.1179 46.3219 32.6351 46.3926C31.7593 45.5733 31.5447 44.5954 31.7762 43.507L31.7808 43.5087Z" fill="#C46516"/>
<path d="M20.0968 86.3562C20.7913 86.6974 21.4704 87.0379 22.1388 87.3796C22.7082 87.6681 23.2685 87.9532 23.826 88.2321C25.1107 88.8749 26.3797 89.4911 27.6779 90.0302C30.3468 91.136 33.0806 92.1524 35.8723 92.8798C36.5459 93.0576 37.2308 93.219 37.9181 93.3606C39.4626 93.6875 41.0273 93.9339 42.5974 94.1253C43.1177 94.188 43.6363 94.2552 44.1572 94.3025C44.7422 94.3586 45.3278 94.3994 45.9169 94.4312C46.7248 94.4734 47.5395 94.4975 48.3685 94.5114C49.2128 94.526 50.0696 94.535 50.9417 94.5445C51.5456 94.5508 52.154 94.5588 52.7743 94.5765C52.7743 94.5765 54.7911 94.3415 55.4885 94.1967C55.9284 94.089 56.3638 93.9795 56.8019 93.8763C56.9677 93.8355 57.1317 93.7993 57.2929 93.7568C58.2005 93.5363 59.1018 93.3186 59.9947 93.0821C60.1048 93.0514 60.2194 93.0223 60.3296 92.9915C61.5296 92.6695 62.7099 92.3037 63.8644 91.8556C64.3522 91.6624 64.839 91.4585 65.3173 91.2357C65.7973 91.0085 66.2672 90.767 66.7366 90.4995C66.9691 90.3648 67.2032 90.2257 67.4346 90.0802C66.9113 89.0008 66.297 88.0112 65.6156 87.0894C65.1592 86.4758 64.6692 85.8961 64.1553 85.3385C63.8148 84.9657 63.4646 84.6049 63.1002 84.2542C62.2714 83.4475 61.3965 82.6803 60.4915 81.938C59.7143 81.2959 58.9165 80.6669 58.1081 80.0389L55.6143 78.5124C55.0434 78.187 54.4719 77.8769 53.8969 77.5759C52.7469 76.9738 51.5878 76.4097 50.4194 75.8836C48.6786 75.104 46.9098 74.4122 45.1191 73.8054C45.0783 73.79 45.033 73.7728 44.9905 73.7618C43.8698 73.3833 42.7353 73.041 41.595 72.7276C40.9339 72.5442 40.2677 72.3743 39.5981 72.2136C37.7455 71.7698 35.8683 71.4048 33.9618 71.1169C31.4228 70.734 28.8341 70.4826 26.1972 70.3579L23.2833 70.294C22.6622 70.3331 22.0457 70.3738 21.4319 70.4208C20.2045 70.5148 18.9854 70.6275 17.7725 70.7788C16.5658 70.9273 15.3652 71.1143 14.1843 71.3451C12.408 71.6973 10.6535 72.1561 8.93241 72.7727C8.68653 72.8608 8.43113 72.9194 8.17292 72.9717C7.91471 73.024 7.65369 73.0701 7.40001 73.1241C7.87216 74.2153 8.33714 75.1067 9.04283 76.074C9.23745 76.3396 9.44737 76.6058 9.68276 76.8868C9.91814 77.1678 10.1745 77.4619 10.4625 77.7681C10.5579 77.8717 10.6579 77.977 10.7579 78.0823C11.1651 78.5114 11.6232 78.9702 12.1452 79.4791C12.4062 79.7336 12.6836 79.9995 12.982 80.2785C13.1724 80.4595 13.3764 80.6457 13.5786 80.8365C14.0115 81.239 14.4754 81.6689 14.9794 82.1296C15.7214 82.8101 16.5526 83.5555 17.4709 84.3858L20.0849 86.3465L20.0968 86.3562Z" fill="#ECB591"/>
<path d="M55.4452 75.2988C55.224 75.1579 54.9921 75.0181 54.7556 74.8766C52.1411 73.3406 48.6976 71.941 45.0768 70.7902C45.0768 70.7902 45.0677 70.7868 45.0632 70.785C44.7392 70.6829 44.4153 70.5807 44.0896 70.483C44.0805 70.4796 44.076 70.4779 44.067 70.4744C41.0996 69.5819 38.0516 68.8608 35.2725 68.3869C35.2499 68.3783 35.2283 68.3805 35.204 68.3765C34.9223 68.3266 34.6435 68.283 34.3647 68.2394C34.3295 68.2365 34.2961 68.2289 34.2627 68.2214C33.9884 68.1796 33.7231 68.1411 33.4579 68.1027C33.4228 68.0997 33.3939 68.0939 33.3587 68.091C33.0918 68.0571 32.8265 68.0186 32.5624 67.991C32.538 67.9869 32.5182 67.9846 32.4938 67.9805C32.2206 67.9494 31.9565 67.9217 31.6923 67.8941C30.0383 67.7329 28.5771 67.6916 27.4092 67.7926C27.1414 67.8154 26.8873 67.8434 26.6495 67.8827C26.5186 68.6103 26.3817 69.4082 26.2159 70.3506C28.8528 70.4752 31.4416 70.7267 33.9806 71.1095C35.887 71.3975 37.7643 71.7625 39.6169 72.2062C40.2865 72.367 40.951 72.5414 41.6138 72.7202C42.7541 73.0336 43.8869 73.3805 45.0093 73.7545C45.0501 73.77 45.0954 73.7872 45.1379 73.7981C46.9286 74.4049 48.6929 75.0949 50.4381 75.8762C51.6082 76.3978 52.7674 76.962 53.9157 77.5686C54.4906 77.8696 55.0605 78.1842 55.6331 78.5051L56.5697 76.0363C56.2259 75.7815 55.8497 75.53 55.4566 75.2824L55.4452 75.2988Z" fill="black"/>
<path d="M2.6364 71.3431C3.16416 72.4242 3.74535 73.4738 4.38902 74.4953C4.70859 75.0051 5.04691 75.5066 5.39771 76.0024C5.74853 76.4982 6.1198 76.9811 6.50358 77.4583C6.61307 77.5931 6.72428 77.7234 6.83377 77.8582C7.10243 78.1881 7.37109 78.518 7.64771 78.8406C10.3563 82.0134 13.3683 84.892 17.1168 87.3452C17.1541 87.3698 17.1942 87.4006 17.2316 87.4251C17.365 86.6362 17.4748 86.2375 17.4928 85.8349C17.5214 85.3224 17.4843 84.8057 17.4796 84.3945C16.5596 83.5688 15.73 82.8188 14.9881 82.1383C14.4841 81.6777 14.0201 81.2478 13.5873 80.8452C13.3805 80.6527 13.1828 80.4637 12.9906 80.2872C12.6923 80.0082 12.4149 79.7423 12.1539 79.4878C11.6319 78.9789 11.1692 78.5184 10.7666 78.091C10.6666 77.9857 10.5666 77.8804 10.4712 77.7768C10.1849 77.4661 9.92684 77.1765 9.69145 76.8955C9.45607 76.6145 9.24786 76.3437 9.05152 76.0827C8.34583 75.1154 7.87461 74.2268 7.4087 73.1328C7.6641 73.0743 7.9234 73.0327 8.18162 72.9804C8.43982 72.9281 8.69523 72.8695 8.9411 72.7815C10.6622 72.1648 12.4167 71.706 14.193 71.3539C15.3801 71.1202 16.5745 70.936 17.7812 70.7875C18.9879 70.639 20.2086 70.5218 21.4406 70.4295C22.0544 70.3825 22.6709 70.3418 23.292 70.3028C23.5393 69.3913 23.7538 68.6073 24.046 67.5367C20.4095 67.52 16.9492 67.8447 13.5345 68.5546C11.7111 68.9355 9.90771 69.4276 8.09367 70.0297C7.59458 70.1979 7.09378 70.3706 6.59235 70.5587C6.26244 70.6771 5.93533 70.8017 5.60651 70.9309C5.03393 69.7084 4.50929 68.701 4.07946 67.6622C3.77662 66.9307 3.50611 66.1959 3.27246 65.4595C3.15252 65.0927 3.04335 64.7248 2.94324 64.3604C2.53718 62.8902 2.25812 61.4267 2.10605 59.9699C1.87623 57.7893 1.93492 55.6403 2.26384 53.5577C2.37197 52.8629 2.51353 52.1756 2.68679 51.5003C3.0288 50.1481 3.48749 48.8297 4.06848 47.5577C4.35672 46.9209 4.67494 46.3006 5.02034 45.6907C5.1939 45.3834 5.3748 45.0841 5.56023 44.7866C7.43782 41.8042 10.0308 39.1762 13.2875 37.0798C15.9143 35.387 18.6907 34.0514 21.6096 33.0912C23.515 32.4668 25.4771 31.9934 27.5037 31.7052C29.9207 31.3578 32.2957 31.1757 34.6383 31.1473C34.9145 31.1432 35.1952 31.1409 35.4742 31.1431C37.8597 31.1517 40.2067 31.3166 42.51 31.6514C44.9277 31.9987 47.2982 32.5249 49.625 33.2211C50.0113 33.3365 50.4004 33.4582 50.7878 33.5845C51.9454 33.9614 53.0921 34.3809 54.2307 34.8491C54.6077 35.0025 54.9876 35.1622 55.3658 35.3264C56.1176 35.6531 56.867 35.9996 57.6079 36.3687C60.2098 37.6511 62.7563 39.1613 65.243 40.8975C69.9913 44.212 73.9608 48.1999 76.9114 53.0295C77.4045 53.8332 77.8675 54.6618 78.3003 55.5151C78.7331 56.3685 79.1374 57.2422 79.5099 58.1452C79.8993 59.0858 80.2331 60.0363 80.5101 60.986C80.5628 61.1615 80.6109 61.3351 80.6572 61.5134C80.7613 61.8948 80.8562 62.2729 80.9404 62.652C82.607 70.0465 80.9259 77.4147 76.3211 83.1192C75.8932 83.6461 75.4444 84.1598 74.9702 84.6587C74.0171 85.6548 72.9684 86.5887 71.8231 87.4496C71.2931 87.8496 70.6728 88.1325 70.1118 88.4638C70.1118 88.4638 70.1118 88.4638 70.1073 88.4621C69.8478 88.0942 69.5878 87.7416 69.3368 87.3925C69.251 87.277 69.1681 87.1678 69.0823 87.0524C68.9108 86.8215 68.7421 86.5969 68.5763 86.3785C68.4758 86.2471 68.3782 86.122 68.2823 85.9924C68.1322 85.8007 67.9838 85.6045 67.8365 85.4191C67.7316 85.286 67.6294 85.1591 67.5273 85.0323C67.3856 84.8593 67.2484 84.6881 67.1096 84.5215C67.0074 84.3946 66.9008 84.2661 66.7969 84.1437C66.6608 83.9833 66.5248 83.8229 66.3916 83.6687C66.2905 83.5526 66.1912 83.432 66.0884 83.3205C65.9461 83.1629 65.8128 83.0087 65.6734 82.8573C65.5825 82.7555 65.487 82.6519 65.3989 82.5563C65.1815 82.3235 64.9669 82.097 64.7579 81.883C64.6607 81.784 64.5664 81.6912 64.472 81.5984C64.3511 81.48 64.2274 81.3553 64.1065 81.2369C63.9958 81.1327 63.8879 81.0348 63.7817 80.9323C63.6783 80.8361 63.5748 80.7399 63.4697 80.6482C63.3573 80.5485 63.2476 80.4551 63.1397 80.3571C63.0419 80.2734 62.9486 80.1914 62.8491 80.1122C62.7395 80.0188 62.6281 79.9299 62.5168 79.841C62.4246 79.7698 62.3324 79.6985 62.2448 79.629C62.1317 79.5446 62.0186 79.4603 61.9084 79.3822C61.8235 79.3189 61.7353 79.2647 61.6533 79.2077C61.5385 79.1279 61.4282 79.0498 61.31 78.979C61.2353 78.9299 61.1634 78.8871 61.0916 78.8443C60.7923 78.6634 60.4941 78.4933 60.2072 78.3482C59.7832 78.1407 59.3654 77.9718 58.9565 77.8478L58.1144 80.0674C58.9184 80.6937 59.7161 81.3228 60.4978 81.9665C61.4029 82.7089 62.2777 83.476 63.1065 84.2827C63.4692 84.638 63.8194 84.9988 64.1616 85.367C64.6755 85.9247 65.1655 86.5044 65.6219 87.118C66.3096 88.037 66.9239 89.0266 67.4409 90.1088C67.2096 90.2542 66.9754 90.3934 66.743 90.528C66.2736 90.7956 65.802 91.0416 65.3237 91.2643C64.8436 91.4915 64.3614 91.6973 63.8707 91.8842C62.7145 92.3368 61.5314 92.6964 60.3359 93.0201C60.2258 93.0509 60.1111 93.0799 60.001 93.1107C59.1081 93.3471 58.2068 93.5648 57.2992 93.7854C57.1335 93.8261 56.9695 93.8623 56.8083 93.9048C56.3701 94.0081 55.9348 94.1175 55.4949 94.2253C55.4836 95.1019 55.4737 95.9065 55.459 96.9425C57.3433 96.6469 59.1667 96.266 60.9264 95.7936C62.0986 95.4765 63.2431 95.1231 64.3561 94.7162C65.4674 94.3139 66.5544 93.8661 67.6082 93.3694C71.8171 91.3855 75.5198 88.6189 78.6224 84.8524C79.0081 84.3821 79.3899 83.8948 79.757 83.3915C80.7476 83.2388 81.6726 83.0818 82.5334 82.9162C83.3943 82.7505 84.1939 82.5823 84.9312 82.4008C86.0431 82.1334 87.0241 81.8423 87.8957 81.5253C90.5169 80.5713 92.1501 79.3669 93.3269 77.6991C93.2753 77.3842 93.2275 77.1277 93.183 76.9036C93.1396 76.6902 93.0967 76.5029 93.0417 76.3473C93.0036 76.2292 92.9649 76.1264 92.9136 76.0293C92.6704 75.5639 92.2559 75.2771 91.3092 74.6174C90.993 74.399 90.6769 74.1806 90.3607 73.9622C89.8834 73.636 89.4105 73.3116 88.9384 72.9718C88.3157 72.5232 87.7017 72.0519 87.123 71.5421C86.9795 71.4151 86.8331 71.2819 86.6913 71.1503C85.8455 70.3476 85.0778 69.4345 84.4543 68.3326C84.3636 61.2094 81.8154 54.9366 77.8426 49.3047C77.0699 48.2135 76.2535 47.1421 75.3853 46.0976C75.6964 45.2777 76.0006 44.476 76.3058 43.6849C76.6066 42.8922 76.9084 42.1103 77.2005 41.3402C77.7883 39.791 78.3639 38.2735 78.9079 36.7439C79.1206 36.1561 79.2267 35.5487 79.2086 34.9407C79.195 34.3345 79.0573 33.7278 78.7857 33.1324C78.6743 32.8933 78.5692 32.6513 78.4641 32.4094C78.301 32.0469 78.1397 31.68 77.9704 31.3204C77.8056 30.9625 77.6346 30.6075 77.4431 30.2654C76.6198 28.7612 75.7567 27.2938 74.8464 25.8551C74.5454 25.3782 74.2399 24.8996 73.9264 24.4283C73.3057 23.4829 72.6645 22.5504 72.0057 21.6372C71.6763 21.1806 71.3423 20.7223 71.005 20.273C70.3319 19.37 69.6384 18.4799 68.929 17.6045C67.1539 15.4128 65.276 13.3013 63.2951 11.2699C62.5049 10.4571 61.6942 9.65729 60.8694 8.86763C60.4931 8.50724 60.1069 8.20012 59.7065 7.94455C59.5062 7.81676 59.3025 7.69804 59.0937 7.5929C58.8848 7.48776 58.6726 7.39168 58.4579 7.31544C57.8102 7.0697 57.1183 6.92642 56.3859 6.87655C56.1381 6.8603 55.8915 6.85482 55.6306 6.85949C52.1385 6.91304 48.7173 7.25777 45.3715 7.89538C43.7008 8.21505 42.0458 8.60282 40.4075 9.06947C39.8614 9.22503 39.3181 9.38683 38.7776 9.55488C37.6949 9.89551 36.6201 10.2702 35.5547 10.6744C33.4223 11.4873 31.3246 12.4274 29.2553 13.4975C27.5542 14.3756 26.0339 15.4052 24.6917 16.5801C24.426 16.8161 24.1631 17.0584 23.9093 17.3041C23.4044 17.8017 22.9278 18.3205 22.484 18.862C22.2612 19.135 22.0475 19.4115 21.8366 19.6942C20.3813 21.6864 19.2985 23.9805 18.6047 26.588C18.3814 27.4361 18.1355 28.2755 17.8868 29.1087C17.638 29.9419 17.3882 30.7643 17.1515 31.5658C16.6509 31.8474 16.2763 32.0836 15.882 32.276C14.6378 32.8921 13.445 33.5641 12.3001 34.3008C11.7299 34.6701 11.1699 35.0535 10.6246 35.4529C10.0793 35.8523 9.54861 36.2676 9.03264 36.6989C8.77379 36.9168 8.51948 37.1364 8.26969 37.3577C7.76841 37.8049 7.27555 38.2709 6.80191 38.7545C6.56509 38.9962 6.32827 39.238 6.09707 39.4923C5.40411 40.2399 4.7416 41.0301 4.1158 41.8601C3.90662 42.1383 3.70198 42.4182 3.50015 42.7044C3.10617 43.2648 2.63799 43.8023 2.12577 44.292C1.87192 44.5377 1.60339 44.7675 1.32752 44.9893C1.05165 45.2111 0.769062 45.4096 0.480852 45.5956C-0.919265 46.4998 -2.35718 47.3534 -3.79619 48.1962C-5.2352 49.039 -6.6889 49.8659 -8.11947 50.7275C-9.70235 51.6763 -11.2706 52.6411 -12.7942 53.6798C-13.1081 53.8924 -13.3863 54.134 -13.5847 54.4111C-13.6514 54.505 -13.709 54.6023 -13.7531 54.7048C-13.9087 55.0603 -13.9256 55.4736 -13.7171 55.9621C-13.6861 56.0308 -13.6507 56.1013 -13.6124 56.178C-12.9914 56.4395 -12.3879 56.7202 -11.7931 57.0236C-10.6063 57.6241 -9.45949 58.3027 -8.33719 59.0187C-7.8275 59.3416 -7.32751 59.6764 -6.82298 60.0129C-6.71551 60.0847 -6.61258 60.1549 -6.50511 60.2267C-6.00683 60.566 -5.51027 60.9099 -5.01824 61.252C-4.19366 61.8239 -3.37361 62.3941 -2.54107 62.9587C-1.71305 63.5215 -0.869099 64.0697 -0.016559 64.5952C0.715615 66.9405 1.57228 69.2035 2.62953 71.3612L2.6364 71.3431ZM90.1697 77.2113C87.4199 78.7228 85.0213 79.8959 81.9665 80.0532C82.7585 77.5969 83.4918 75.336 84.3101 72.7965C86.2202 74.2362 88.0589 75.6177 90.1697 77.2113ZM64.0201 16.2293C65.6519 18.0609 67.1909 19.9868 68.6765 21.9443C70.1039 23.8228 71.408 25.7943 72.7644 27.7235C72.6555 27.8739 72.5466 28.0244 72.4332 28.1731C67.5815 24.7624 62.1048 22.6847 56.489 20.8237C57.3679 17.592 58.1886 14.5818 59.0657 11.3546C61.1261 12.6027 62.4939 14.5155 64.0201 16.2293ZM27.1947 18.2188C28.6512 17.2479 30.096 16.226 31.6595 15.4511C38.2669 12.1852 45.2787 10.3526 52.6209 9.78022C53.4961 9.71325 54.3762 9.71549 55.2511 9.73131C55.4932 9.73507 55.7364 9.89988 56.1803 10.0683C55.9074 13.5195 55.2918 16.8769 53.1004 19.9216C44.2338 18.1746 35.4674 17.2014 26.2561 19.5728C26.7049 18.9088 26.8684 18.437 27.2009 18.216L27.1947 18.2188ZM24.879 23.2165C27.7771 22.0515 30.7718 21.4517 33.8484 21.2094C40.7573 20.6592 47.525 21.5736 54.2108 23.2913C59.5235 24.6539 64.5836 26.6409 69.2393 29.5575C71.7856 31.1505 74.1478 32.969 75.9018 35.7486C75.6797 38.5195 74.6702 40.9347 73.6114 43.3157C72.5628 43.4982 72.1303 42.7123 71.589 42.2271C66.3543 37.5312 60.4257 33.9814 53.8138 31.6181C43.4627 27.9244 32.9343 26.9927 22.2047 29.897C21.7086 30.03 21.198 30.1058 20.4404 30.2588C21.0611 27.1883 21.6878 24.4983 24.8807 23.212L24.879 23.2165ZM-9.35261 54.6746C-6.30649 52.6278 -3.01814 51.445 -0.142914 49.3023C-0.494729 53.0708 -0.817005 56.5292 -1.15288 60.1327C-4.02933 58.7409 -6.60288 56.8785 -9.35261 54.6746Z" fill="black"/>
<path d="M52.8662 96.9429C52.8347 96.1381 52.8061 95.4484 52.7709 94.5852C52.1506 94.5676 51.5422 94.5596 50.9383 94.5533C50.0662 94.5437 49.2094 94.5348 48.3651 94.5202C47.5361 94.5063 46.7214 94.4821 45.9135 94.4399C45.3244 94.4082 44.7388 94.3674 44.1538 94.3113C43.6346 94.2594 43.1143 94.1967 42.594 94.1341C41.0239 93.9426 39.4592 93.6962 37.9147 93.3693C37.2291 93.2233 36.5487 93.0636 35.8689 92.8886C33.0772 92.1612 30.3434 91.1447 27.6745 90.039C26.3763 89.4999 25.1056 88.8882 23.8226 88.2409C23.2651 87.962 22.7003 87.6752 22.1354 87.3884C21.467 87.0467 20.7879 86.7061 20.0934 86.3649C20.0164 87.0871 19.9574 87.5156 19.9292 87.9453C19.8998 88.3642 19.9055 88.7861 19.8925 89.2165C23.0565 91.1889 26.3497 92.7388 29.7479 93.9709C30.4263 94.2179 31.1099 94.4513 31.7986 94.6712C32.5552 94.9168 33.3204 95.1397 34.0874 95.3581C34.715 95.534 35.3398 95.7037 35.9743 95.8615C37.0824 96.1368 38.1952 96.3724 39.3155 96.5746C40.8268 96.8526 42.3468 97.0665 43.87 97.2039C44.5315 97.2631 45.1982 97.3088 45.8638 97.3436C46.9319 97.3965 48.0082 97.4006 49.0823 97.3832C50.0168 97.3646 50.952 97.3308 51.8919 97.2572C52.2073 97.2318 52.5102 97.0617 52.8582 96.9502L52.8662 96.9429Z" fill="black"/>
<path d="M63.146 80.3387C63.0482 80.255 62.955 80.173 62.8555 80.0938C62.9504 80.1712 63.0482 80.255 63.146 80.3387Z" fill="black"/>
<path d="M79.5183 58.133C79.9076 59.0736 80.2414 60.0241 80.5185 60.9738C80.2414 60.0241 79.9104 59.0798 79.5183 58.133Z" fill="black"/>
<path d="M62.518 79.8204C62.4259 79.7491 62.3337 79.6779 62.2461 79.6084C62.3383 79.6796 62.4276 79.7446 62.518 79.8204Z" fill="black"/>
<path d="M55.4634 75.3067C55.4634 75.3067 55.4544 75.3032 55.4453 75.2998C55.8385 75.5474 56.2146 75.7989 56.5584 76.0537L55.6218 78.5225L58.1156 80.0489L58.9576 77.8293C59.3666 77.9533 59.7844 78.1222 60.2083 78.3297C60.2083 78.3297 56.7051 75.9539 55.4634 75.3067Z" fill="black"/>
<path d="M2.63544 71.343C1.57819 69.1853 0.718714 66.916 -0.0106451 64.577C-0.867718 64.0497 -1.70714 63.5033 -2.53516 62.9404C-1.70714 63.5033 -0.864906 64.056 -0.0106451 64.577C0.721525 66.9223 1.57819 69.1853 2.63544 71.343Z" fill="black"/>
<path d="M61.9094 79.362C61.8246 79.2987 61.7363 79.2445 61.6543 79.1875C61.7408 79.2462 61.8228 79.3033 61.9094 79.362Z" fill="black"/>
<path d="M10.6395 35.4378C11.1849 35.0384 11.7404 34.6532 12.3151 34.2857C11.7449 34.655 11.1849 35.0384 10.6395 35.4378Z" fill="black"/>
<path d="M17.8974 29.0916C17.6487 29.9248 17.3989 30.7472 17.1622 31.5486C16.6616 31.8303 16.287 32.0664 15.8927 32.2588C16.2824 32.0647 16.657 31.8285 17.1622 31.5486C17.4006 30.7426 17.6504 29.9202 17.8974 29.0916Z" fill="black"/>
<path d="M6.81111 38.7371C7.28928 38.2552 7.77589 37.7921 8.27889 37.3403C7.7776 37.7875 7.28475 38.2535 6.81111 38.7371Z" fill="black"/>
<path d="M64.4749 81.5734C64.354 81.455 64.2303 81.3303 64.1094 81.2119C64.232 81.3258 64.3512 81.4487 64.4749 81.5734Z" fill="black"/>
<path d="M66.7407 90.506C66.2713 90.7736 65.7997 91.0196 65.3214 91.2423C65.8014 91.015 66.2713 90.7736 66.7407 90.506Z" fill="black"/>
<path d="M45.1307 73.8137C45.09 73.7983 45.0447 73.7811 45.0022 73.7702C45.043 73.7856 45.0883 73.8028 45.1307 73.8137Z" fill="black"/>
<path d="M35.198 68.3769C35.198 68.3769 35.2422 68.3833 35.2665 68.3873C35.2439 68.3787 35.2223 68.3809 35.198 68.3769Z" fill="black"/>
<path d="M34.2548 68.2291C34.29 68.232 34.3234 68.2395 34.3568 68.247C34.3234 68.2395 34.2883 68.2366 34.2548 68.2291Z" fill="black"/>
<path d="M67.4382 90.0865C66.9149 89.0071 66.3006 88.0175 65.6191 87.0957C66.3069 88.0147 66.9212 89.0043 67.4382 90.0865Z" fill="black"/>
<path d="M41.6075 72.7367C40.9465 72.5533 40.2803 72.3834 39.6106 72.2227C40.2803 72.3834 40.9448 72.5578 41.6075 72.7367Z" fill="black"/>
<path d="M32.489 67.9882C32.489 67.9882 32.5332 67.9946 32.5576 67.9987C32.5332 67.9946 32.5134 67.9923 32.489 67.9882Z" fill="black"/>
<path d="M54.2352 34.8353C53.0995 34.3734 51.9528 33.9539 50.7924 33.5707C51.95 33.9476 53.0967 34.3671 54.2352 34.8353Z" fill="black"/>
<path d="M23.8297 88.2334C23.2722 87.9545 22.7074 87.6677 22.1426 87.3809C22.7119 87.6694 23.2722 87.9545 23.8297 88.2334Z" fill="black"/>
<path d="M87.1172 71.5234C87.7004 72.0349 88.3099 72.5045 88.9325 72.9531C88.3099 72.5045 87.6959 72.0332 87.1172 71.5234Z" fill="black"/>
<path d="M7.41471 73.1298C7.67011 73.0712 7.92941 73.0297 8.18762 72.9774C7.92941 73.0297 7.66839 73.0758 7.41471 73.1298Z" fill="black"/>
<path d="M70.1064 88.4417C69.847 88.0738 69.5869 87.7212 69.3359 87.3721C69.5932 87.7184 69.847 88.0738 70.1064 88.4417Z" fill="black"/>
<path d="M13.5406 68.5514C11.7172 68.9323 9.91375 69.4244 8.0997 70.0265C9.90922 69.4227 11.7172 68.9323 13.5406 68.5514Z" fill="black"/>
<path d="M20.0964 86.3562L17.4824 84.3955C17.4871 84.8066 17.5242 85.3234 17.4956 85.8359C17.4714 86.2412 17.3678 86.6372 17.2344 87.426C17.1925 87.3998 17.1569 87.3707 17.1196 87.3462L19.9001 89.2094C19.9131 88.7791 19.9073 88.3572 19.9367 87.9382C19.965 87.5085 20.0239 87.08 20.101 86.3579L20.0964 86.3562Z" fill="black"/>
<path d="M13.5889 80.8461C13.3821 80.6536 13.1843 80.4646 12.9922 80.2881C13.1826 80.4691 13.3866 80.6554 13.5889 80.8461Z" fill="black"/>
<path d="M5.61191 70.9267C5.94073 70.7976 6.27236 70.6746 6.59774 70.5545C6.26783 70.6729 5.94073 70.7976 5.61191 70.9267Z" fill="black"/>
<path d="M69.0842 87.0313C68.9127 86.8004 68.744 86.5758 68.5781 86.3574C68.744 86.5758 68.9155 86.8067 69.0842 87.0313Z" fill="black"/>
<path d="M4.08435 67.6587C3.7815 66.9272 3.51099 66.1924 3.27734 65.4561C3.51271 66.1879 3.78322 66.9227 4.08435 67.6587Z" fill="black"/>
<path d="M35.4767 31.1341C37.8623 31.1426 40.2093 31.3076 42.5125 31.6424C40.2076 31.3121 37.8578 31.1409 35.4767 31.1341Z" fill="black"/>
<path d="M42.5121 31.6418C44.9298 31.989 47.3004 32.5152 49.6272 33.2114C47.2958 32.5135 44.9253 31.9873 42.5121 31.6418Z" fill="black"/>
<path d="M55.3652 35.3105C56.117 35.6372 56.8665 35.9837 57.6074 36.3529C56.8648 35.9882 56.1153 35.6417 55.3652 35.3105Z" fill="black"/>
<path d="M26.2108 70.3619C26.3766 69.4196 26.5197 68.6189 26.6444 67.8941C26.8776 67.853 27.1363 67.8268 27.404 67.804C27.404 67.804 24.4163 67.3338 24.0492 67.5365C20.4128 67.5198 16.9525 67.8445 13.5378 68.5545C16.948 67.8428 20.4082 67.5181 24.0492 67.5365C23.7588 68.6026 23.5426 69.3911 23.2952 70.3026L26.2091 70.3665L26.2108 70.3619Z" fill="black"/>
<path d="M2.94461 64.3554C2.53855 62.8851 2.25949 61.4216 2.10742 59.9648C2.26121 61.4171 2.53855 62.8851 2.94461 64.3554Z" fill="black"/>
<path d="M56.3884 6.85081C56.1407 6.83455 55.894 6.82907 55.6332 6.83374C55.8895 6.82735 56.1407 6.83455 56.3884 6.85081Z" fill="black"/>
<path d="M2.26454 53.5525C2.37267 52.8577 2.51423 52.1704 2.6875 51.4951C2.51876 52.1721 2.3772 52.8594 2.26454 53.5525Z" fill="black"/>
<path d="M93.0391 76.3242C93.0923 76.4843 93.1325 76.6654 93.1804 76.8805C93.137 76.6671 93.094 76.4798 93.0391 76.3242Z" fill="black"/>
<path d="M88.9395 72.9551C89.4071 73.2931 89.8845 73.6193 90.3618 73.9455C89.8845 73.6193 89.4116 73.2948 88.9395 72.9551Z" fill="black"/>
<path d="M78.4644 32.3897C78.3014 32.0273 78.14 31.6604 77.9707 31.3008C78.14 31.6604 78.3031 32.0228 78.4644 32.3897Z" fill="black"/>
<path d="M87.8896 81.5063C90.5108 80.5523 92.144 79.3479 93.3207 77.6802C92.144 79.3479 90.509 80.5569 87.8896 81.5063Z" fill="black"/>
<path d="M58.4645 7.29286C58.6819 7.37535 58.8914 7.46518 59.1003 7.57031C58.8914 7.46518 58.6791 7.3691 58.4645 7.29286Z" fill="black"/>
<path d="M34.6394 31.1378C32.2968 31.1663 29.9201 31.3528 27.5048 31.6957C29.9218 31.3483 32.2968 31.1663 34.6394 31.1378Z" fill="black"/>
<path d="M84.9252 82.3827C84.1834 82.5625 83.3883 82.7324 82.5274 82.8981C83.3883 82.7324 84.1879 82.5642 84.9252 82.3827Z" fill="black"/>
<path d="M65.4067 82.5336C65.1892 82.3009 64.9746 82.0744 64.7656 81.8604C64.9791 82.0761 65.1892 82.3009 65.4067 82.5336Z" fill="black"/>
<path d="M78.6125 84.8322C75.5099 88.5986 71.8027 91.3635 67.5983 93.3492C71.8072 91.3653 75.5099 88.5986 78.6125 84.8322Z" fill="black"/>
<path d="M68.2817 85.9717C68.1316 85.7801 67.9832 85.5839 67.8359 85.3984C67.9832 85.5839 68.1333 85.7755 68.2817 85.9717Z" fill="black"/>
<path d="M66.0947 83.2981C65.9569 83.1422 65.8192 82.9863 65.6797 82.835C65.8192 82.9863 65.9541 83.136 66.0947 83.2981Z" fill="black"/>
<path d="M77.844 49.2832C77.0713 48.1921 76.2549 47.1206 75.3867 46.0762C76.2549 47.1206 77.0758 48.1938 77.844 49.2832Z" fill="black"/>
<path d="M22.1759 91.616C21.7275 91.4458 21.3723 91.0572 21.2687 90.5515C20.2844 85.7839 21.8116 81.0208 23.2911 76.4107C24.5789 72.4014 25.7933 68.613 25.428 64.9456C24.541 56.0695 32.437 45.7736 32.772 45.3411C33.261 44.7078 34.1767 44.5889 34.8127 45.0841C35.446 45.573 35.5649 46.4887 35.0715 47.1202C34.9985 47.2169 27.5521 56.9423 28.3239 64.6607C28.7504 68.9317 27.3851 73.1862 26.0668 77.303C24.6401 81.7467 23.2954 85.9469 24.1233 89.9659C24.2858 90.753 23.7822 91.5206 22.9951 91.6832C22.7136 91.7422 22.4341 91.7139 22.185 91.6194L22.1759 91.616Z" fill="#96B6F6"/>
<path d="M54.9331 98.2811C54.4666 98.1041 54.1001 97.6904 54.016 97.1611C53.9333 96.6685 52.0823 85.0067 56.9797 72.4799C59.209 66.781 59.459 62.0516 59.2736 59.0846C59.0739 55.8687 58.3417 53.9742 58.3332 53.9554C58.0401 53.212 58.4028 52.3651 59.1479 52.0674C59.893 51.7697 60.7354 52.1308 61.0349 52.8713C61.1725 53.2189 64.3963 61.4944 59.6873 73.5382C55.09 85.2876 56.8659 96.5737 56.8814 96.6832C57.0116 97.4736 56.4735 98.2229 55.6831 98.3531C55.422 98.3992 55.1642 98.3687 54.9331 98.2811Z" fill="#96B6F6"/>
</svg>
