<svg width="58" height="58" viewBox="0 0 58 58" fill="none" xmlns="http://www.w3.org/2000/svg">
<rect width="58" height="58" rx="10" fill="#FFC49D"/>
<mask id="mask0_4168_5004" style="mask-type:alpha" maskUnits="userSpaceOnUse" x="0" y="0" width="58" height="58">
<rect width="58" height="58" rx="10" fill="#FFC49D"/>
</mask>
<g mask="url(#mask0_4168_5004)">
<path d="M58 0H0V58H58V0Z" fill="#E37600"/>
<path d="M14.8851 52.4596H13.8863C13.7508 52.4596 13.6153 52.3958 13.5224 52.2789L10.984 48.9995V52.077C10.984 52.2896 10.818 52.4596 10.6201 52.4596H9.94402C9.74611 52.4596 9.58008 52.2896 9.58008 52.077V45.4118C9.58008 45.1993 9.74611 45.0293 9.94402 45.0293H10.6201C10.818 45.0293 10.984 45.1993 10.984 45.4118V48.5638L13.3563 45.2206C13.44 45.1037 13.5848 45.0293 13.7309 45.0293H14.6461C14.8333 45.0293 14.937 45.2524 14.8227 45.4118L12.3986 48.6913L15.0724 52.077C15.1867 52.2258 15.0831 52.4596 14.8851 52.4596Z" fill="white"/>
<path d="M22.6447 48.745C22.6447 50.9207 21.0946 52.597 18.9415 52.597C16.7884 52.597 15.2383 50.9207 15.2383 48.745C15.2383 46.5693 16.7884 44.9023 18.9415 44.9023C21.0946 44.9023 22.6447 46.568 22.6447 48.745ZM21.2301 48.745C21.2301 47.5137 20.4504 46.2718 18.9415 46.2718C17.4326 46.2718 16.6529 47.5137 16.6529 48.745C16.6529 49.9763 17.4326 51.2288 18.9415 51.2288C20.4504 51.2288 21.2301 49.9869 21.2301 48.745Z" fill="white"/>
<path d="M28.9806 52.4596H28.0548C27.8888 52.4596 27.7321 52.3639 27.6484 52.2152L26.2962 49.7845H25.0689V52.077C25.0689 52.2896 24.9029 52.4596 24.6943 52.4596H24.0289C23.8217 52.4596 23.6543 52.2896 23.6543 52.077V45.4118C23.6543 45.1993 23.8203 45.0293 24.0289 45.0293H26.182C27.8157 45.0293 28.8863 46.0374 28.8863 47.4494C28.8863 48.3938 28.3975 49.1057 27.6072 49.4869L29.1785 52.097C29.2728 52.2564 29.1679 52.4583 28.9806 52.4583V52.4596ZM25.0689 48.5425H26.182C26.8992 48.5425 27.4505 48.2025 27.4505 47.4494C27.4505 46.7799 26.9617 46.3669 26.182 46.3669H25.0689V48.5425Z" fill="white"/>
<path d="M34.0795 51.1217C34.2867 51.1217 34.454 51.2917 34.454 51.5042V52.078C34.454 52.2905 34.288 52.4606 34.0795 52.4606H30.5211C30.3138 52.4606 30.1465 52.2905 30.1465 52.078V45.4128C30.1465 45.2003 30.3125 45.0303 30.5211 45.0303H33.9852C34.1831 45.0303 34.3491 45.2003 34.3491 45.4128V45.9853C34.3491 46.1978 34.1831 46.3678 33.9852 46.3678H31.5611V48.0348H33.7461C33.944 48.0348 34.11 48.2048 34.11 48.4173V49.0004C34.11 49.2023 33.944 49.3724 33.7461 49.3724H31.5611V51.123H34.0781L34.0795 51.1217Z" fill="white"/>
<path d="M40.3622 52.1408L39.977 50.9839H36.9805L36.5953 52.1408C36.5328 52.3321 36.3562 52.4596 36.1583 52.4596H35.3879C35.19 52.4596 35.0545 52.2683 35.1169 52.077L37.4985 45.3375C37.5609 45.1568 37.7376 45.0293 37.9355 45.0293H39.018C39.2159 45.0293 39.382 45.1568 39.455 45.3375L41.8273 52.077C41.8897 52.2683 41.7542 52.4596 41.5669 52.4596H40.7966C40.5986 52.4596 40.422 52.3321 40.3596 52.1408H40.3622ZM39.5506 49.6995L38.4787 46.4837L37.4068 49.6995H39.5506Z" fill="white"/>
<path d="M47.5812 45.0293H48.2467C48.4552 45.0293 48.6212 45.1993 48.6212 45.4118V52.077C48.6212 52.2896 48.4552 52.4596 48.2467 52.4596H47.6436C47.4563 52.4596 47.2797 52.364 47.1748 52.2046L44.1158 47.545V52.077C44.1158 52.2896 43.9497 52.4596 43.7412 52.4596H43.0757C42.8685 52.4596 42.7012 52.2896 42.7012 52.077V45.4118C42.7012 45.1993 42.8672 45.0293 43.0757 45.0293H43.6894C43.8661 45.0293 44.0427 45.1249 44.1476 45.2843L47.2066 49.9439V45.4118C47.2066 45.1993 47.3727 45.0293 47.5812 45.0293Z" fill="white"/>
<path d="M16.3735 25.474C10.8041 25.474 6.27344 21.0681 6.27344 15.6542C6.27344 10.2402 10.8055 5.83301 16.3735 5.83301C21.9416 5.83301 26.4736 10.2388 26.4736 15.6528C26.4736 21.0668 21.9429 25.4727 16.3735 25.4727V25.474ZM16.3735 7.40567C11.6436 7.40567 7.79562 11.1049 7.79562 15.6528C7.79562 20.2008 11.6436 23.9 16.3735 23.9C21.1035 23.9 24.9514 20.1995 24.9514 15.6528C24.9514 11.1062 21.1035 7.40567 16.3735 7.40567Z" fill="#4F0000"/>
<path d="M18.6686 17.9823C19.6905 17.9823 20.5189 17.1485 20.5189 16.12C20.5189 15.0916 19.6905 14.2578 18.6686 14.2578C17.6468 14.2578 16.8184 15.0916 16.8184 16.12C16.8184 17.1485 17.6468 17.9823 18.6686 17.9823Z" fill="black"/>
<path d="M39.5573 17.9617C40.5792 17.9617 41.4076 17.128 41.4076 16.0995C41.4076 15.071 40.5792 14.2373 39.5573 14.2373C38.5354 14.2373 37.707 15.071 37.707 16.0995C37.707 17.128 38.5354 17.9617 39.5573 17.9617Z" fill="black"/>
<path d="M41.8032 25.416C36.2338 25.416 31.7031 21.0102 31.7031 15.5962C31.7031 10.1822 36.2338 5.77637 41.8032 5.77637C47.3726 5.77637 51.9033 10.1822 51.9033 15.5962C51.9033 21.0102 47.3726 25.416 41.8032 25.416ZM41.8032 7.3477C37.0733 7.3477 33.2253 11.0469 33.2253 15.5949C33.2253 20.1428 37.0733 23.842 41.8032 23.842C46.5331 23.842 50.3811 20.1415 50.3811 15.5949C50.3811 11.0482 46.5331 7.3477 41.8032 7.3477Z" fill="#4F0000"/>
<path d="M33.145 15.4199H24.9629V16.9926H33.145V15.4199Z" fill="#4F0000"/>
<path d="M0 33.0412C0 33.0412 8.66492 28 29 28C49.3351 28 58 33.0412 58 33.0412V41H0V33.0412Z" fill="#FFBE91"/>
<path d="M29.0506 28.6348C26.9758 28.6348 25.6741 29.542 24.9316 30.3363C25.625 33.103 26.8988 35.7635 29.2458 35.7635C31.4521 35.7635 32.7099 33.2983 33.4285 30.5939C32.8281 29.7532 31.5583 28.6348 29.0506 28.6348Z" fill="#E65D52"/>
<path d="M24.1133 23.668V24.2245C24.1133 24.2245 24.181 27.3419 24.9315 30.3372C25.674 29.5429 26.9757 28.6357 29.0504 28.6357C31.5569 28.6357 32.8267 29.7541 33.4284 30.5948C34.301 27.3087 34.3767 23.6693 34.3767 23.6693H24.1146L24.1133 23.668Z" fill="#9C0000"/>
<path d="M58.1442 40.626H-0.046875V57.8987H58.1442V40.626Z" fill="#E94A08"/>
<path d="M14.5887 52.1619H13.5991C13.465 52.1619 13.3308 52.0981 13.2378 51.9812L10.7221 48.6978V51.7793C10.7221 51.9919 10.5574 52.1619 10.3608 52.1619H9.69136C9.49611 52.1619 9.33008 51.9919 9.33008 51.7793V45.1062C9.33008 44.8937 9.49478 44.7236 9.69136 44.7236H10.3608C10.5561 44.7236 10.7221 44.8937 10.7221 45.1062V48.2621L13.0718 44.9149C13.1541 44.798 13.2989 44.7236 13.4424 44.7236H14.3496C14.5355 44.7236 14.6378 44.9468 14.5249 45.1062L12.1234 48.3896L14.772 51.7793C14.8849 51.9281 14.7826 52.1619 14.586 52.1619H14.5887Z" fill="white"/>
<path d="M22.338 48.4433C22.338 50.6217 20.8025 52.3006 18.668 52.3006C16.5335 52.3006 14.998 50.6217 14.998 48.4433C14.998 46.265 16.5335 44.5967 18.668 44.5967C20.8025 44.5967 22.338 46.265 22.338 48.4433ZM20.9367 48.4433C20.9367 47.2107 20.1637 45.9674 18.6694 45.9674C17.1751 45.9674 16.402 47.2107 16.402 48.4433C16.402 49.6759 17.1751 50.9298 18.6694 50.9298C20.1637 50.9298 20.9367 49.6866 20.9367 48.4433Z" fill="white"/>
<path d="M28.6769 52.1619H27.7591C27.5944 52.1619 27.439 52.0663 27.3567 51.9175L26.0164 49.4841H24.7998V51.7793C24.7998 51.9919 24.635 52.1619 24.4292 52.1619H23.769C23.5631 52.1619 23.3984 51.9919 23.3984 51.7793V45.1062C23.3984 44.8937 23.5631 44.7236 23.769 44.7236H25.9022C27.52 44.7236 28.5826 45.7331 28.5826 47.1464C28.5826 48.0921 28.0978 48.804 27.3155 49.1866L28.8722 51.8006C28.9652 51.96 28.8616 52.1619 28.6769 52.1619ZM24.8011 48.2409H25.9035C26.6142 48.2409 27.1614 47.9008 27.1614 47.1464C27.1614 46.4769 26.6766 46.0625 25.9035 46.0625H24.8011V48.2409Z" fill="white"/>
<path d="M33.7884 50.823C33.9942 50.823 34.1589 50.993 34.1589 51.2055V51.7793C34.1589 51.9919 33.9942 52.1619 33.7884 52.1619H30.2632C30.0573 52.1619 29.8926 51.9919 29.8926 51.7793V45.1062C29.8926 44.8937 30.0573 44.7236 30.2632 44.7236H33.6954C33.8906 44.7236 34.0567 44.8937 34.0567 45.1062V45.68C34.0567 45.8925 33.892 46.0625 33.6954 46.0625H31.2939V47.7308H33.459C33.6542 47.7308 33.8202 47.9008 33.8202 48.1134V48.6978C33.8202 48.8997 33.6555 49.0697 33.459 49.0697H31.2939V50.823H33.7884Z" fill="white"/>
<path d="M40.0769 51.8431L39.6957 50.6849H36.727L36.3458 51.8431C36.2847 52.0344 36.1094 52.1619 35.9128 52.1619H35.1504C34.9551 52.1619 34.821 51.9706 34.8821 51.7793L37.2424 45.0318C37.3048 44.8511 37.4802 44.7236 37.6754 44.7236H38.7473C38.9426 44.7236 39.1086 44.8511 39.1803 45.0318L41.53 51.7793C41.5925 51.9706 41.4583 52.1619 41.2723 52.1619H40.5099C40.3147 52.1619 40.1393 52.0344 40.0769 51.8431ZM39.2733 49.3991L38.212 46.1794L37.1508 49.3991H39.2746H39.2733Z" fill="white"/>
<path d="M47.2925 44.7236H47.9527C48.1585 44.7236 48.3233 44.8937 48.3233 45.1062V51.7793C48.3233 51.9919 48.1585 52.1619 47.9527 52.1619H47.3549C47.169 52.1619 46.9937 52.0663 46.8914 51.9069L43.8603 47.242V51.7793C43.8603 51.9919 43.6956 52.1619 43.4897 52.1619H42.8296C42.6237 52.1619 42.459 51.9919 42.459 51.7793V45.1062C42.459 44.8937 42.6237 44.7236 42.8296 44.7236H43.4379C43.6132 44.7236 43.7886 44.8193 43.8922 44.9787L46.9233 49.6435V45.1062C46.9233 44.8937 47.088 44.7236 47.2938 44.7236H47.2925Z" fill="white"/>
</g>
</svg>
