<svg width="42" height="42" viewBox="0 0 42 42" fill="none" xmlns="http://www.w3.org/2000/svg">
<mask id="mask0_4461_1900" style="mask-type:alpha" maskUnits="userSpaceOnUse" x="0" y="0" width="42" height="42">
<circle cx="21" cy="21" r="21" fill="#D9D9D9"/>
</mask>
<g mask="url(#mask0_4461_1900)">
<path d="M37.3773 25.3254C39.4446 24.451 41.4025 23.6467 43.3407 22.7943C44.7649 22.1676 46.3302 22.448 47.4364 23.6133C48.2482 24.4689 48.7123 25.5139 48.9358 26.6511C49.609 30.0693 49.1248 33.3335 47.3735 36.3465C46.8525 37.2456 46.1072 38.0549 45.3327 38.7561C44.4531 39.5519 43.3622 39.7354 42.1325 39.6076C41.0987 39.5019 40.4797 39.1448 39.8256 38.3122C38.7022 36.8865 37.0196 36.1192 35.3433 35.2385C34.7765 36.6448 33.7181 37.3268 32.267 37.4951C31.9384 37.5338 31.6232 37.8152 31.3293 38.0271C30.9332 38.3129 30.5969 38.6931 30.1768 38.9336C29.5046 39.3192 29.254 39.8616 29.1632 40.6141C28.9946 42.0301 28.6536 42.3001 27.249 42.1869C26.4922 42.1259 25.7545 41.8623 24.9962 41.7832C24.568 41.7377 24.1059 41.8281 23.6822 41.9447C21.5114 42.5523 19.3162 43.0017 17.063 43.1353C13.7696 43.3286 10.5348 43.0338 7.40103 41.9473C5.21342 41.1883 3.22532 40.0875 1.59126 38.4132C-0.906534 35.8559 -1.82992 32.7949 -1.12957 29.3073C-0.842443 27.8769 -0.319161 26.49 0.13574 25.0953C0.288744 24.6288 0.442871 24.2299 0.29657 23.6935C-0.772003 19.7845 2.03842 16.4235 5.80641 15.8024C6.6193 15.6692 7.20987 15.3333 7.84452 14.8492C9.52747 13.5621 11.2838 12.3704 13.015 11.147C13.4626 10.8298 13.9489 10.7599 14.5147 10.7759C16.9836 10.8478 19.3852 11.2752 21.7385 11.9911C22.3963 12.1914 22.9811 12.1652 23.6401 11.9726C25.7598 11.3489 27.7675 11.6014 29.5593 12.9736C30.5626 13.7434 31.2808 14.7491 31.5373 15.9851C31.6918 16.7285 32.0659 17.2076 32.6152 17.6765C33.3248 18.2811 33.9708 18.9632 34.6208 19.6382C36.084 21.1574 36.722 23.0977 37.375 25.3256L37.3773 25.3254ZM1.27692 25.7858C-1.98013 32.8616 1.02273 38.1467 6.83116 40.2565C12.6144 36.431 19.0955 34.8568 25.8739 34.3302C26.0038 33.6127 26.1106 33.0259 26.235 32.3518C25.5744 32.3075 25.0489 32.2859 24.527 32.2278C24.2969 32.2018 23.9985 32.1703 23.8597 32.0216C22.986 31.1011 22.3426 30.044 22.6566 28.7197C22.8318 27.9782 23.1911 27.2777 23.5027 26.5745C23.8825 25.7143 24.4811 25.4206 25.4693 25.6295C27.9993 26.1636 30.5718 26.2584 33.149 26.003C34.105 25.9075 35.0546 25.7357 36.0472 25.5921C35.5624 22.5916 34.0697 20.4472 31.7735 18.6564C30.7922 21.9688 28.8189 24.0251 25.5088 24.4793C22.2098 24.9304 19.9357 23.4313 18.6156 20.3786C17.2131 20.6964 15.8793 20.9995 14.53 21.3061C14.6041 24.5508 13.1822 26.8027 10.2934 27.9239C6.9105 29.2376 3.8814 28.4855 1.28178 25.7899L1.27692 25.7858ZM40.752 25.376C40.2498 25.5533 40.0238 25.6308 39.7981 25.7128C37.5273 26.5297 35.2086 27.1226 32.7841 27.2592C30.618 27.3811 28.4597 27.3804 26.3244 26.924C26.0049 26.8558 25.6739 26.757 25.3604 26.7876C25.0715 26.8162 24.6988 26.9218 24.5378 27.1294C23.9472 27.8987 23.6532 28.7856 23.8505 29.7715C24.013 30.5843 24.4108 30.8875 25.2605 30.9792C26.1125 31.0707 26.968 31.1507 27.8042 31.3248C31.5078 32.0974 35.0021 33.4203 38.2216 35.4275C38.4335 35.5589 38.681 35.6308 39.0112 35.7726C38.3064 32.0838 38.9215 28.7388 40.7498 25.3762L40.752 25.376ZM7.49188 27.2747C9.35495 27.1194 10.6684 26.5991 11.7213 25.5541C13.0726 24.2156 13.5847 22.613 13.0343 20.749C12.425 18.6935 9.92773 16.8473 7.83261 16.9271C7.55125 16.937 7.2228 17.1405 7.01243 17.3522C5.14828 19.2007 3.58548 21.2792 2.27156 23.5537C1.93247 24.1441 1.96704 24.586 2.40835 25.0865C3.8694 26.7437 5.72147 27.3772 7.49169 27.2725L7.49188 27.2747ZM25.6786 35.6423C19.3829 36.0835 13.6652 37.5806 8.4482 40.8328C14.0147 42.6399 19.4798 42.0399 24.9758 40.2385C25.2005 38.7637 25.4195 37.3277 25.6786 35.6423ZM24.5711 23.3317C27.6925 23.0512 29.8946 21.0864 30.4268 18.5881C30.5761 17.8871 30.4462 17.4125 29.7882 17.0746C27.9391 16.1248 26.1283 15.0928 24.2484 14.2065C22.7396 13.4924 22.4266 13.6111 21.2993 14.8474C20.9188 15.2651 20.5655 15.7393 20.3163 16.2432C19.4776 17.9363 19.433 19.649 20.5168 21.2495C21.6009 22.8523 23.2076 23.4137 24.5691 23.3341L24.5711 23.3317ZM40.0206 33.1758C39.9716 34.7015 40.2756 35.9923 41.0026 37.1575C41.8886 38.5782 43.2177 38.8421 44.5339 37.7865C45.1878 37.2624 45.7842 36.5896 46.2094 35.8679C47.8277 33.1278 48.3333 30.1486 47.721 27.0278C47.5682 26.2504 47.2096 25.4698 46.7745 24.7995C46.052 23.688 44.922 23.4571 43.7805 24.1438C42.1252 25.1396 41.3363 26.7518 40.6561 28.6123C41.8316 28.6317 42.807 28.6881 43.7817 28.6542C44.9186 28.6159 45.4554 28.9346 45.7474 30.0007C46.055 31.1173 45.8754 32.1866 45.332 33.1959C44.8257 34.1366 44.3881 34.3582 43.3409 34.1452C42.7461 34.0232 42.1686 33.8117 41.583 33.6393C41.09 33.493 40.5969 33.3467 40.0181 33.1737L40.0206 33.1758ZM18.4417 19.1311C18.4112 16.6797 19.3582 14.7699 21.2285 13.1579C18.8608 12.459 16.6421 12.0592 14.3598 12.0598C14.125 12.0591 13.8613 12.1194 13.6564 12.2336C11.9501 13.1863 10.3484 14.2838 8.73404 15.7435C11.3058 16.3712 13.1601 17.7089 14.1808 20.0687C15.6329 19.749 16.9784 19.4517 18.4417 19.1311ZM30.7188 33.3574C30.0539 33.7221 29.6485 33.9772 29.2178 34.1733C28.748 34.3863 28.4092 34.6832 28.6783 35.2026C29.004 35.8324 29.5009 36.3779 30.2656 36.3977C31.035 36.4194 31.8115 36.3366 32.5765 36.2254C32.9222 36.174 33.2846 35.9993 33.5623 35.7821C34.2091 35.2811 34.1556 34.7212 33.3959 34.3827C32.4324 33.9551 31.4271 33.6212 30.7186 33.3552L30.7188 33.3574ZM26.9286 35.6893C26.683 37.1298 26.369 38.5353 26.2257 39.9583C26.1254 40.9486 26.7834 41.2324 27.7841 40.7788C27.9589 39.7619 28.1384 38.7739 28.2929 37.7835C28.4674 36.6808 28.2155 36.2864 26.9309 35.6891L26.9286 35.6893ZM5.11946 17.3384C2.60866 18.173 1.1064 20.2465 1.48104 22.2222C2.67486 20.6192 3.85242 19.0378 5.11946 17.3384ZM42.3835 29.7822L40.2693 29.9584C40.1769 30.6366 40.0977 31.2301 40.0063 31.8947C40.7083 32.1094 41.3175 32.2956 41.957 32.4929C42.0971 31.6008 42.2225 30.8024 42.3811 29.7801L42.3835 29.7822ZM30.0729 15.6421C28.8723 13.5343 26.8282 12.5466 25.2278 13.1451C26.7727 13.9396 28.3085 14.7327 30.0729 15.6421ZM44.187 29.9682C43.3571 30.2225 43.3463 30.9594 43.2768 31.6153C43.2198 32.1506 43.133 32.7606 43.834 33.0182C44.7849 31.9411 44.8947 30.9838 44.187 29.9682ZM27.1422 34.2696C27.8003 33.77 28.3266 33.3672 28.9871 32.8674C28.3939 32.7385 27.9434 32.6429 27.4377 32.5338C27.342 32.9571 27.2595 33.2665 27.2021 33.5806C27.1662 33.7732 27.1672 33.974 27.1423 34.2719L27.1422 34.2696Z" fill="black"/>
<path d="M1.27828 25.7869C3.87585 28.4848 6.90719 29.2368 10.2899 27.9208C13.1787 26.7996 14.6006 24.5477 14.5265 21.303C15.8758 20.9964 17.2096 20.6933 18.6121 20.3755C19.9322 23.4283 22.2085 24.9272 25.5053 24.4763C28.8156 24.0242 30.7887 21.9657 31.77 18.6534C34.0683 20.4416 35.5609 22.5861 36.0438 25.589C35.0511 25.7327 34.1015 25.9044 33.1455 25.9999C30.5706 26.2551 27.9981 26.1603 25.4658 25.6264C24.4754 25.4177 23.879 25.7112 23.4992 26.5714C23.1876 27.2747 22.8285 27.9773 22.6531 28.7166C22.3392 30.0431 22.9825 31.098 23.8562 32.0185C23.9972 32.167 24.2934 32.1987 24.5235 32.2247C25.0454 32.2828 25.5709 32.3045 26.2315 32.3487C26.1094 33.0226 26.0025 33.6095 25.8704 34.3271C19.0921 34.8537 12.6109 36.4279 6.82766 40.2534C1.02166 38.1457 -1.98363 32.8585 1.27342 25.7827L1.27828 25.7869ZM17.2412 23.6729C15.4789 23.6279 14.187 24.677 13.9579 26.913C13.6942 29.4905 14.9314 31.4146 16.8596 32.9064C18.2543 33.9844 19.8248 33.5149 20.6292 31.9262C20.8289 31.5326 20.95 31.0891 21.0425 30.6547C21.4611 28.6896 21.1124 26.8629 20.0918 25.1262C19.2237 23.6499 18.9633 23.4774 17.2437 23.6749L17.2412 23.6729ZM3.94865 33.9894C4.372 33.8413 4.94426 33.7191 5.43431 33.4502C6.25244 33.0005 7.00628 32.4297 7.81338 31.9561C8.32548 31.6538 8.88241 31.2393 9.49429 31.7008C9.88459 31.9956 9.77307 32.7702 9.30395 33.5069C9.21615 33.6452 9.12871 33.7879 9.01381 33.8991C8.36515 34.513 7.73685 35.1546 7.04316 35.7159C6.47652 36.1762 5.80898 36.5095 5.23262 36.9617C5.06111 37.0979 4.9167 37.505 5.00021 37.6674C5.08971 37.8473 5.44768 37.9439 5.70102 37.9769C5.87889 37.9982 6.09953 37.8827 6.26431 37.7742C7.59341 36.9004 8.96155 36.0616 9.92501 34.7555C10.2841 34.2695 10.6327 33.7393 10.8227 33.1749C11.1229 32.2807 11.0545 31.3518 10.2952 30.6927C9.56282 30.0584 8.70322 30.2 7.87463 30.5784C7.68986 30.6638 7.49761 30.7407 7.33096 30.854C6.01868 31.7399 4.78693 32.7795 3.12788 32.9991C2.99392 33.017 2.77702 33.3127 2.8028 33.4325C2.8482 33.6251 3.03485 33.8331 3.2172 33.9353C3.37582 34.0236 3.6131 33.9722 3.95108 33.9915L3.94865 33.9894Z" fill="#CE6626"/>
<path d="M40.7513 25.3756C38.9231 28.7383 38.3079 32.0833 39.0127 35.7721C38.6848 35.6301 38.4352 35.5606 38.2232 35.427C35.0014 33.42 31.5093 32.0969 27.8058 31.3243C26.9695 31.1502 26.1118 31.0704 25.262 30.9787C24.4101 30.8871 24.0146 30.5837 23.852 29.771C23.6547 28.7851 23.9487 27.8982 24.5393 27.1289C24.6981 26.9215 25.0731 26.8157 25.3619 26.7871C25.6754 26.7565 26.0087 26.8551 26.326 26.9235C28.4613 27.3799 30.6173 27.3808 32.7856 27.2587C35.2101 27.1221 37.5289 26.5292 39.7996 25.7123C40.0253 25.6303 40.2514 25.5528 40.7536 25.3755L40.7513 25.3756Z" fill="#F92D3D"/>
<path d="M7.49196 27.2737C5.7238 27.376 3.86967 26.7449 2.40862 25.0878C1.96731 24.5872 1.93255 24.1431 2.27182 23.555C3.58332 21.2784 5.14836 19.1997 7.0127 17.3534C7.2255 17.1438 7.5517 16.9405 7.83288 16.9284C9.928 16.8485 12.4252 18.6947 13.0345 20.7502C13.5872 22.614 13.0729 24.2169 11.7216 25.5554C10.6664 26.6005 9.35522 27.1207 7.49215 27.276L7.49196 27.2737ZM9.97539 22.1837C9.89241 20.9173 9.15067 20.0355 8.21633 20.0931C7.46845 20.1396 6.73086 21.068 6.75965 21.928C6.79442 22.941 7.82332 23.9366 8.73655 23.8424C9.51545 23.7617 10.0311 23.0685 9.97315 22.1839L9.97539 22.1837Z" fill="#CE6626"/>
<path d="M25.6763 35.6421C25.4194 37.3273 25.1983 38.7635 24.9735 40.2384C19.4753 42.0399 14.0124 42.6398 8.44594 40.8327C13.6629 37.5804 19.3807 36.0834 25.6763 35.6421Z" fill="#ECB591"/>
<path d="M24.5716 23.332C23.2103 23.4139 21.6056 22.85 20.5194 21.2474C19.4355 19.6469 19.4801 17.9342 20.3188 16.2411C20.568 15.7372 20.9213 15.263 21.3019 14.8453C22.429 13.6068 22.7421 13.4903 24.251 14.2044C26.1288 15.0931 27.9417 16.1227 29.7908 17.0725C30.4488 17.4104 30.5786 17.885 30.4294 18.586C29.8972 21.0843 27.695 23.0491 24.5736 23.3296L24.5716 23.332ZM25.0145 18.4617C24.9461 17.5057 24.2482 16.7985 23.3946 16.8223C22.6017 16.8432 21.9132 17.6298 21.9516 18.4687C21.9957 19.4312 22.8861 20.3097 23.7517 20.2398C24.5274 20.1751 25.0832 19.3951 25.0145 18.4617Z" fill="#CE6626"/>
<path d="M40.0211 33.1748C40.5999 33.3478 41.093 33.4941 41.586 33.6403C42.1715 33.8128 42.747 34.0267 43.3439 34.1462C44.3933 34.359 44.8286 34.1376 45.3349 33.1969C45.8784 32.1876 46.0579 31.1184 45.7504 30.0017C45.4582 28.9334 44.9191 28.6149 43.7847 28.6553C42.81 28.6891 41.8346 28.6327 40.659 28.6133C41.339 26.7506 42.1259 25.1408 43.7835 24.1448C44.9229 23.4606 46.0551 23.6913 46.7775 24.8005C47.2124 25.4686 47.5734 26.2512 47.724 27.0288C48.3365 30.1519 47.8306 33.1288 46.2124 35.8689C45.7871 36.5907 45.1908 37.2635 44.5369 37.7875C43.2185 38.8434 41.8893 38.5794 41.0056 37.1586C40.2786 35.9933 39.9746 34.7025 40.0235 33.1768L40.0211 33.1748Z" fill="#F92D3D"/>
<path d="M18.4429 19.1323C16.9776 19.4553 15.6319 19.7504 14.1821 20.0699C13.1612 17.7078 11.307 16.3724 8.73531 15.7447C10.3499 14.2872 11.9515 13.1897 13.6577 12.2348C13.8626 12.1206 14.124 12.0604 14.3611 12.061C16.6434 12.0604 18.8618 12.4579 21.2297 13.159C19.3594 14.771 18.4122 16.6786 18.4429 19.1323Z" fill="#CE6626"/>
<path d="M30.7178 33.3576C31.4242 33.6261 32.4316 33.9575 33.3951 34.3851C34.1546 34.7214 34.208 35.2813 33.5614 35.7845C33.2813 35.9997 32.9191 36.1767 32.5757 36.2279C31.8129 36.3389 31.034 36.4196 30.2648 36.4002C29.5021 36.3779 29.0031 35.8348 28.6774 35.205C28.4086 34.6879 28.7493 34.3886 29.217 34.1758C29.6476 33.9796 30.053 33.7246 30.718 33.3599L30.7178 33.3576Z" fill="#CE6626"/>
<path d="M26.9285 35.6899C28.2131 36.2871 28.465 36.6815 28.2905 37.7842C28.1338 38.7748 27.9543 39.7628 27.7817 40.7795C26.7832 41.233 26.1228 40.9471 26.2233 39.959C26.3688 38.5359 26.6804 37.1283 26.9262 35.69L26.9285 35.6899Z" fill="#F92D3D"/>
<path d="M42.3811 29.782C42.2202 30.8045 42.0969 31.6004 41.957 32.4948C41.3153 32.2977 40.706 32.1114 40.0063 31.8966C40.0954 31.2322 40.1769 30.6385 40.2693 29.9603L42.3835 29.784L42.3811 29.782Z" fill="#F92D3D"/>
<path d="M27.1418 34.27C27.1667 33.9722 27.1657 33.7714 27.2016 33.5787C27.259 33.2647 27.3393 32.9555 27.4372 32.5319C27.9429 32.641 28.3936 32.7389 28.9866 32.8656C28.3263 33.3676 27.7999 33.7682 27.1417 34.2678L27.1418 34.27Z" fill="#F92D3D"/>
<path d="M17.2399 23.6709C18.9618 23.4731 19.2222 23.6456 20.088 25.1221C21.1087 26.8588 21.4574 28.6855 21.0387 30.6506C20.9463 31.085 20.8252 31.5285 20.6255 31.9222C19.821 33.5108 18.2505 33.9803 16.8558 32.9024C14.9279 31.4128 13.6905 29.4864 13.9542 26.9089C14.1832 24.6729 15.4751 23.6238 17.2375 23.6688L17.2399 23.6709ZM17.3747 24.8268C15.9897 24.9219 15.5168 25.3158 15.2187 26.5326C14.7765 28.3506 16.1507 31.2409 17.8157 32.0412C18.3802 32.3125 18.899 32.2534 19.2205 31.7503C19.5181 31.2853 19.7386 30.7341 19.8469 30.1923C20.1568 28.6562 19.8235 27.2301 19.0761 25.8476C18.6518 25.0635 18.1702 24.6205 17.3722 24.8247L17.3747 24.8268Z" fill="black"/>
<path d="M3.94706 33.9877C3.60908 33.9685 3.37181 34.0199 3.21319 33.9315C3.03102 33.8316 2.84437 33.6236 2.79878 33.4288C2.77076 33.3092 2.9899 33.0132 3.12386 32.9953C4.78291 32.7757 6.01466 31.7362 7.32694 30.8502C7.49359 30.737 7.68584 30.66 7.87062 30.5746C8.69715 30.1987 9.55899 30.0569 10.2912 30.6889C11.0505 31.348 11.1189 32.2769 10.8187 33.1711C10.6287 33.7355 10.2801 34.2658 9.92099 34.7517C8.95753 36.0579 7.58939 36.8966 6.2603 37.7704C6.09551 37.879 5.87506 37.9967 5.69701 37.9732C5.44385 37.9423 5.08588 37.8458 4.9962 37.6636C4.91473 37.4988 5.0569 37.0919 5.2286 36.9579C5.80272 36.506 6.4725 36.1725 7.03915 35.7121C7.73059 35.151 8.36113 34.5093 9.0098 33.8953C9.12694 33.784 9.21437 33.6412 9.29994 33.5032C9.76905 32.7665 9.88281 31.9917 9.49028 31.6971C8.8784 31.2356 8.32165 31.6522 7.80937 31.9523C7.00227 32.4259 6.25066 32.9965 5.4303 33.4464C4.94024 33.7153 4.36798 33.8375 3.94463 33.9857L3.94706 33.9877Z" fill="black"/>
<path d="M9.97637 22.1832C10.0343 23.0679 9.51867 23.761 8.73977 23.8418C7.8243 23.9361 6.79783 22.9426 6.76287 21.9274C6.73408 21.0674 7.47148 20.1368 8.21955 20.0925C9.15389 20.0349 9.89563 20.9167 9.97861 22.183L9.97637 22.1832Z" fill="black"/>
<path d="M25.0148 18.4616C25.0815 19.3975 24.5279 20.1773 23.752 20.2397C22.8887 20.3094 21.996 19.4312 21.9519 18.4686C21.9135 17.6298 22.602 16.8432 23.3949 16.8222C24.2485 16.7985 24.9464 17.5056 25.0148 18.4616Z" fill="black"/>
<path d="M17.3766 24.8276C18.1724 24.6236 18.6563 25.0664 19.0806 25.8505C19.8277 27.2308 20.1613 28.6591 19.8513 30.1952C19.7407 30.7372 19.5225 31.2882 19.2249 31.7532C18.9032 32.2541 18.3846 32.3154 17.8202 32.0442C16.1551 31.2438 14.7809 28.3536 15.2231 26.5355C15.519 25.3189 15.9917 24.9228 17.3791 24.8297L17.3766 24.8276Z" fill="#FFB0D0"/>
</g>
</svg>
