<svg width="92" height="78" viewBox="0 0 92 78" fill="none" xmlns="http://www.w3.org/2000/svg">
<path d="M78.5455 38.423C82.88 36.5243 86.9853 34.7791 91.0493 32.9262C94.0356 31.564 97.314 32.2308 99.6272 34.8614C101.325 36.7932 102.293 39.1385 102.757 41.6837C104.154 49.3339 103.127 56.6099 99.4466 63.2923C98.3515 65.2863 96.787 67.0742 95.1615 68.6198C93.3156 70.3737 91.0293 70.7551 88.4533 70.4378C86.2879 70.1749 84.9924 69.3616 83.6252 67.4852C81.2769 64.2726 77.7545 62.5156 74.2459 60.5055C73.053 63.6309 70.8329 65.1261 67.792 65.4644C67.1033 65.5422 66.4419 66.1623 65.8253 66.6277C64.9944 67.2558 64.2884 68.096 63.4071 68.622C61.9973 69.4656 61.4703 70.6702 61.2772 72.3482C60.9184 75.5057 60.203 76.0996 57.2606 75.8104C55.6751 75.6543 54.1307 75.0466 52.5422 74.8504C51.6452 74.7375 50.6768 74.9274 49.7886 75.1767C45.2382 76.4771 40.6372 77.4235 35.9159 77.6633C29.015 78.0092 22.2388 77.2669 15.6774 74.7593C11.0969 73.0075 6.93582 70.4979 3.51868 66.7167C-1.70472 60.9415 -3.62759 54.0825 -2.14687 46.3132C-1.5398 43.1267 -0.438131 40.0435 0.520305 36.9411C0.84266 35.9033 1.16711 35.0167 0.862649 33.8151C-1.36114 25.0587 4.53997 17.627 12.4368 16.338C14.1404 16.0617 15.379 15.3269 16.7106 14.2625C20.2415 11.4322 23.9259 8.81699 27.5576 6.13021C28.4967 5.43345 29.5159 5.29004 30.7011 5.3406C35.8736 5.56528 40.9035 6.5821 45.8313 8.2418C47.2088 8.70609 48.4341 8.66287 49.8154 8.24986C54.259 6.91231 58.4644 7.52843 62.2131 10.6391C64.3122 12.3839 65.813 14.6482 66.3458 17.415C66.6667 19.0789 67.4485 20.1583 68.5976 21.2197C70.0819 22.5881 71.4329 24.128 72.7922 25.6521C75.8518 29.0826 77.1812 33.4316 78.5408 38.4234L78.5455 38.423ZM2.90857 38.5126C-3.94255 54.2275 2.32855 66.1071 14.4899 70.969C26.6213 62.5773 40.2062 59.2307 54.4098 58.231C54.6846 56.6324 54.9107 55.3248 55.174 53.8228C53.79 53.7068 52.689 53.6448 51.5959 53.5015C51.1138 53.4376 50.4888 53.3593 50.1985 53.0237C48.3717 50.9455 47.0276 48.5684 47.6906 45.6196C48.0606 43.9683 48.816 42.4136 49.4715 40.8515C50.2706 38.9406 51.5259 38.3003 53.5954 38.7924C58.8942 40.0508 64.2835 40.3294 69.6839 39.826C71.6873 39.6377 73.6776 39.2789 75.7578 38.9838C74.7534 32.2713 71.6344 27.4442 66.8304 23.386C64.7617 30.7567 60.6195 35.297 53.6827 36.2253C46.769 37.1467 42.0102 33.7403 39.2563 26.8893C36.3166 27.5625 33.5209 28.2046 30.6928 28.8541C30.8355 36.1012 27.8478 41.0926 21.7911 43.5212C14.6984 46.3666 8.35495 44.6084 2.91874 38.5219L2.90857 38.5126ZM85.6158 38.6237C84.5629 39.0065 84.089 39.1738 83.6158 39.3511C78.8552 41.1161 73.9949 42.3796 68.9147 42.6217C64.3759 42.8375 59.8541 42.7798 55.3821 41.7052C54.713 41.5447 54.0197 41.3154 53.3628 41.3757C52.7575 41.432 51.9762 41.658 51.638 42.1173C50.3977 43.82 49.7783 45.7927 50.1879 47.9993C50.5253 49.8182 51.3576 50.5056 53.1375 50.7325C54.9221 50.9591 56.7141 51.1598 58.4655 51.5703C66.222 53.3919 73.538 56.4366 80.2756 61.0023C80.719 61.3011 81.2374 61.4681 81.9286 61.7934C80.466 53.5382 81.7677 46.085 85.6111 38.624L85.6158 38.6237ZM15.924 41.9988C19.828 41.7004 22.5818 40.5727 24.7919 38.2667C27.6282 35.3131 28.7072 31.7478 27.5611 27.5713C26.2924 22.9657 21.0675 18.7783 16.6777 18.9021C16.0881 18.9169 15.3992 19.3626 14.9576 19.8299C11.0449 23.9091 7.76264 28.5097 5.00104 33.5543C4.28835 34.8638 4.35909 35.8514 5.28176 36.9804C8.3365 40.7187 12.2144 42.1815 15.9237 41.9938L15.924 41.9988ZM53.9954 61.1558C40.8035 61.9774 28.8184 65.1715 17.8756 72.298C29.5312 76.4778 40.9837 75.2801 52.5054 71.4006C52.9819 68.1132 53.4461 64.9125 53.9954 61.1558ZM51.7225 33.6382C58.2632 33.093 62.8845 28.7631 64.0092 23.1983C64.3246 21.6369 64.0544 20.5739 62.677 19.8022C58.8066 17.6332 55.0167 15.2818 51.0815 13.2539C47.9229 11.6203 47.2668 11.877 44.9002 14.6083C44.1013 15.5312 43.3593 16.5808 42.8352 17.6995C41.0716 21.4582 40.9716 25.2814 43.2362 28.8835C45.5012 32.4906 48.8655 33.7859 51.7181 33.6436L51.7225 33.6382ZM84.0533 56.0211C83.945 59.4266 84.577 62.3168 86.0956 64.9376C87.9464 68.1328 90.7301 68.7568 93.4917 66.4339C94.8638 65.2807 96.1158 63.7939 97.0094 62.1933C100.41 56.1169 101.481 49.4777 100.21 42.4932C99.8932 40.7534 99.145 39.0011 98.2359 37.4929C96.7264 34.9924 94.3599 34.4474 91.9656 35.9509C88.4937 38.1316 86.8346 41.711 85.4023 45.8476C87.8651 45.9215 89.9086 46.0728 91.9509 46.0225C94.3329 45.9665 95.4563 46.6922 96.064 49.0802C96.7041 51.5816 96.3239 53.9645 95.1814 56.204C94.117 58.2914 93.1994 58.7748 91.0062 58.2721C89.7604 57.9842 88.5512 57.497 87.3251 57.0967C86.2927 56.7573 85.2603 56.4178 84.0482 56.0165L84.0533 56.0211ZM38.8966 24.0992C38.8421 18.6246 40.8335 14.3848 44.7583 10.8339C39.8003 9.21176 35.1535 8.26142 30.3717 8.20345C29.8797 8.19569 29.3271 8.32359 28.8973 8.57317C25.3187 10.6561 21.9588 13.0651 18.5708 16.2826C23.9565 17.7511 27.8365 20.7862 29.9659 26.0821C33.0094 25.406 35.8296 24.7772 38.8966 24.0992ZM64.5642 56.1849C63.1697 56.982 62.3193 57.5409 61.4163 57.9677C60.4311 58.4311 59.7203 59.0853 60.282 60.252C60.9619 61.6668 62.001 62.8979 63.6031 62.9619C65.2149 63.0303 66.842 62.8656 68.4454 62.6372C69.1698 62.5315 69.9298 62.1508 70.5123 61.6728C71.8693 60.5712 71.7595 59.3195 70.1692 58.5438C68.1522 57.5639 66.0472 56.7923 64.5638 56.1799L64.5642 56.1849ZM56.6143 61.2933C56.0941 64.5034 55.4308 67.6338 55.1252 70.8073C54.9112 73.0162 56.2888 73.6669 58.387 72.68C58.7573 70.4138 59.1372 68.2124 59.4647 66.0049C59.8344 63.5473 59.3083 62.6601 56.619 61.293L56.6143 61.2933ZM10.9917 19.7499C5.728 21.5483 2.5726 26.1392 3.34993 30.5606C5.85728 27.0121 8.3305 23.5117 10.9917 19.7499ZM89.0171 48.5048L84.5869 48.8433C84.3906 50.3553 84.2224 51.6786 84.0284 53.1602C85.4982 53.6577 86.774 54.0895 88.1131 54.5466C88.4101 52.5582 88.6758 50.7788 89.012 48.5001L89.0171 48.5048ZM63.279 16.611C60.7717 11.8732 56.4927 9.61458 53.1374 10.9093C56.3712 12.7236 59.5858 14.5344 63.279 16.611ZM92.7949 48.9671C91.0552 49.5134 91.0297 51.1584 90.8816 52.6214C90.7602 53.8151 90.5758 55.1749 92.0435 55.7684C94.04 53.3881 94.2738 51.2533 92.7949 48.9671ZM57.0671 58.1288C58.4481 57.0303 59.5523 56.1445 60.9379 55.0457C59.6956 54.7424 58.7522 54.5171 57.693 54.2604C57.4909 55.2032 57.3168 55.8919 57.1954 56.5917C57.1195 57.0209 57.1207 57.4694 57.0675 58.1338L57.0671 58.1288Z" fill="black"/>
<path d="M2.90965 38.5123C8.34154 44.6042 14.6897 46.3621 21.7821 43.5116C27.8387 41.0831 30.8264 36.0917 30.6837 28.8446C33.5119 28.195 36.3075 27.553 39.2472 26.8797C42.0011 33.7307 46.7647 37.1368 53.6736 36.2157C60.6108 35.2924 64.7526 30.7471 66.8213 23.3764C71.6296 27.4293 74.7487 32.2564 75.7487 38.9743C73.6685 39.2694 71.6782 39.6281 69.6748 39.8165C64.2791 40.3195 58.8898 40.0409 53.5863 38.7828C51.5121 38.2912 50.2615 38.9311 49.4625 40.8419C48.8069 42.4041 48.0519 43.9638 47.6815 45.61C47.0189 48.5639 48.3626 50.936 50.1894 53.0141C50.4844 53.3494 51.1047 53.428 51.5869 53.492C52.6799 53.6352 53.7809 53.6973 55.1649 53.8133C54.9063 55.3149 54.6802 56.6225 54.4007 58.2214C40.1971 59.2212 26.6122 62.5678 14.4808 70.9595C2.32454 66.1022 -3.95164 54.218 2.89948 38.503L2.90965 38.5123ZM36.3623 34.207C32.6701 34.0607 29.9593 36.3696 29.4709 41.3565C28.9084 47.1051 31.4932 51.4338 35.5272 54.815C38.4452 57.2583 41.7374 56.2507 43.4289 52.7243C43.8488 51.8504 44.1042 50.8632 44.2996 49.8957C45.1842 45.5186 44.4608 41.4308 42.3289 37.5262C40.5159 34.2071 39.9709 33.8153 36.3674 34.2116L36.3623 34.207ZM8.47293 56.8975C9.36049 56.5777 10.5599 56.3197 11.5877 55.7321C13.3035 54.7492 14.8851 53.4942 16.5779 52.4576C17.652 51.7959 18.8204 50.8851 20.1006 51.9314C20.9172 52.5998 20.6806 54.3265 19.6949 55.9593C19.5104 56.2658 19.3266 56.5822 19.0855 56.8275C17.7241 58.1815 16.4053 59.5978 14.9497 60.833C13.7608 61.8462 12.3609 62.5732 11.1516 63.5678C10.7917 63.8675 10.4876 64.7727 10.662 65.1374C10.8488 65.5415 11.5984 65.7665 12.1291 65.8469C12.5016 65.8991 12.9644 65.647 13.31 65.4089C16.098 63.4922 18.9677 61.655 20.9913 58.7635C21.7454 57.6877 22.4779 56.5128 22.8781 55.2574C23.5105 53.2686 23.3708 51.1926 21.7825 49.7011C20.2505 48.2657 18.4489 48.5596 16.7115 49.3829C16.324 49.5688 15.921 49.7357 15.5714 49.9842C12.8186 51.9284 10.2339 54.2176 6.75711 54.6648C6.47638 54.7013 6.0208 55.3561 6.07437 55.6242C6.16876 56.0555 6.55901 56.5246 6.94066 56.7576C7.27266 56.959 7.76998 56.8505 8.47801 56.9022L8.47293 56.8975Z" fill="#CE6626"/>
<path d="M85.6159 38.624C81.7726 46.085 80.4709 53.5383 81.9334 61.7934C81.247 61.4678 80.7243 61.3061 80.2805 61.0023C73.5382 56.437 66.2269 53.3919 58.4704 51.5704C56.719 51.1598 54.9222 50.9594 53.1423 50.7325C51.3577 50.506 50.5302 49.8183 50.1927 47.9993C49.7831 45.7927 50.4026 43.82 51.6429 42.1174C51.9764 41.6584 52.7624 41.432 53.3676 41.3757C54.0246 41.3154 54.7225 41.5443 55.3869 41.7052C59.8589 42.7798 64.3761 42.8379 68.9195 42.6217C73.9997 42.3797 78.8601 41.1161 83.6207 39.3511C84.0939 39.1738 84.5678 39.0066 85.6206 38.6237L85.6159 38.624Z" fill="#F92D3D"/>
<path d="M15.9212 41.9992C12.2163 42.1815 8.33406 40.7242 5.27932 36.9859C4.35665 35.8568 4.28553 34.8642 4.9986 33.5598C7.75512 28.5104 11.0421 23.9095 14.9552 19.8353C15.4018 19.3727 16.0861 18.9273 16.6752 18.9075C21.0651 18.7837 26.29 22.9711 27.5587 27.5767C28.7095 31.7529 27.6258 35.3185 24.7894 38.2721C22.5746 40.5785 19.8256 41.7059 15.9216 42.0042L15.9212 41.9992ZM21.1439 30.698C20.9749 27.8681 19.4242 25.8798 17.4664 25.9841C15.8993 26.0685 14.3504 28.1224 14.4075 30.0434C14.4764 32.3063 16.6283 34.5561 18.542 34.3695C20.1742 34.2095 21.2572 32.6752 21.1392 30.6983L21.1439 30.698Z" fill="#CE6626"/>
<path d="M53.9938 61.1567C53.4492 64.913 52.9803 68.1141 52.5038 71.4015C40.9774 75.2813 29.5295 76.4787 17.8739 72.2988C28.8167 65.1723 40.8019 61.9783 53.9938 61.1567Z" fill="#ECB591"/>
<path d="M51.7246 33.6377C48.8723 33.7851 45.5124 32.4845 43.2427 28.8777C40.978 25.2756 41.0781 21.4524 42.8417 17.6937C43.3657 16.575 44.1077 15.5254 44.9067 14.6025C47.2729 11.8662 47.9294 11.6144 51.0879 13.2481C55.0189 15.2813 58.8131 17.6274 62.6835 19.7964C64.0609 20.5681 64.3311 21.6311 64.0157 23.1925C62.891 28.7572 58.2697 33.0872 51.7289 33.6324L51.7246 33.6377ZM52.6712 22.7742C52.5315 20.6377 51.0722 19.0405 49.2837 19.0714C47.6223 19.0975 46.1769 20.836 46.254 22.7101C46.3427 24.8606 48.2049 26.8453 50.0187 26.7117C51.6442 26.5875 52.8117 24.8602 52.6712 22.7742Z" fill="#CE6626"/>
<path d="M84.0512 56.0214C85.2632 56.4228 86.2956 56.7622 87.3281 57.1017C88.5542 57.5019 89.759 57.9945 91.0092 58.277C93.2071 58.7794 94.12 58.2963 95.1843 56.209C96.3268 53.9694 96.7071 51.5866 96.067 49.0851C95.4588 46.6921 94.3307 45.9668 91.9538 46.0275C89.9116 46.0777 87.8681 45.9264 85.4052 45.8525C86.8371 41.7109 88.492 38.1369 91.9686 35.9559C94.3585 34.4577 96.7298 35.0023 98.2388 37.4979C99.1476 39.001 99.9008 40.7579 100.213 42.4982C101.485 49.4876 100.413 56.1219 97.0124 62.1983C96.1187 63.7988 94.8667 65.2856 93.4947 66.4388C90.7283 68.7621 87.9447 68.1381 86.0986 64.9425C84.5799 62.3217 83.9479 59.4315 84.0563 56.0261L84.0512 56.0214Z" fill="#F92D3D"/>
<path d="M38.8934 24.0988C35.8222 24.7821 33.0015 25.4059 29.9628 26.0817C27.8329 20.7807 23.9534 17.7506 18.5677 16.2822C21.956 13.0696 25.3159 10.6607 28.8941 8.57272C29.324 8.32314 29.8718 8.1956 30.3686 8.20301C35.1503 8.26098 39.7967 9.2063 44.7551 10.8334C40.8304 14.3843 38.8385 18.6192 38.8934 24.0988Z" fill="#CE6626"/>
<path d="M64.5641 56.1851C66.0431 56.8029 68.1525 57.5692 70.1695 58.5491C71.7594 59.3197 71.8692 60.5714 70.5125 61.6781C69.925 62.1514 69.1653 62.5371 68.4456 62.6425C66.847 62.8705 65.2148 63.0305 63.6033 62.9671C62.0056 62.8977 60.9621 61.672 60.2822 60.2572C59.7209 59.0955 60.436 58.436 61.4166 57.973C62.3196 57.5461 63.17 56.9872 64.5645 56.1901L64.5641 56.1851Z" fill="#CE6626"/>
<path d="M56.6148 61.2921C59.304 62.6592 59.8302 63.5464 59.4604 66.0041C59.1282 68.2119 58.7483 70.4133 58.3828 72.6791C56.2892 73.6657 54.9066 73.0103 55.1209 70.8064C55.4312 67.6325 56.0895 64.4976 56.6101 61.2925L56.6148 61.2921Z" fill="#F92D3D"/>
<path d="M89.0137 48.5055C88.6728 50.7845 88.4115 52.5585 88.1149 54.5519C86.7711 54.0951 85.4953 53.6634 84.0302 53.1655C84.2194 51.6843 84.3923 50.3606 84.5887 48.8487L89.0188 48.5101L89.0137 48.5055Z" fill="#F92D3D"/>
<path d="M92.7936 48.9664C94.2722 51.2476 94.0388 53.3874 92.0423 55.7678C90.5746 55.1743 90.7589 53.8144 90.8803 52.6207C91.0284 51.1578 91.0543 49.5177 92.7936 48.9664Z" fill="#F92D3D"/>
<path d="M57.068 58.1286C57.1212 57.4642 57.12 57.0157 57.1959 56.5865C57.3172 55.8867 57.4867 55.1984 57.6934 54.2552C58.7526 54.5119 59.6964 54.7422 60.9384 55.0405C59.5531 56.1443 58.4485 57.0251 57.0676 58.1236L57.068 58.1286Z" fill="#F92D3D"/>
<path d="M36.3629 34.2088C39.9712 33.8121 40.5162 34.2039 42.3245 37.5234C44.4563 41.428 45.1798 45.5158 44.2951 49.8928C44.0997 50.8604 43.8444 51.8476 43.4245 52.7215C41.7329 56.2479 38.4407 57.2555 35.5227 54.8121C31.4892 51.4359 28.904 47.1023 29.4665 41.3537C29.9549 36.3668 32.6656 34.0579 36.3579 34.2041L36.3629 34.2088ZM36.6408 36.7934C33.7387 36.9698 32.7465 37.8369 32.1171 40.5463C31.1837 44.5944 34.0518 51.0839 37.5372 52.9143C38.7187 53.5347 39.8059 53.4163 40.4815 52.3012C41.1068 51.2705 41.5708 50.0456 41.7999 48.8386C42.4551 45.4165 41.7622 42.2236 40.2017 39.117C39.3157 37.3551 38.3083 36.3535 36.6357 36.7887L36.6408 36.7934Z" fill="black"/>
<path d="M8.47497 56.8978C7.76694 56.8461 7.26962 56.9546 6.93763 56.7532C6.55635 56.5253 6.1661 56.0561 6.07133 55.6198C6.01307 55.3521 6.47334 54.697 6.75407 54.6604C10.2309 54.2132 12.8155 51.924 15.5683 49.9798C15.9179 49.7313 16.321 49.5644 16.7085 49.3786C18.4416 48.5606 20.2478 48.2664 21.7795 49.6967C23.3678 51.1882 23.5075 53.2642 22.8751 55.253C22.4748 56.5084 21.7424 57.6833 20.9882 58.7591C18.9646 61.6506 16.095 63.4878 13.307 65.4045C12.9613 65.6426 12.499 65.8997 12.126 65.8425C11.5958 65.7671 10.8461 65.5421 10.6589 65.1331C10.4889 64.763 10.7883 63.8581 11.1486 63.5634C12.3532 62.5691 13.7577 61.8418 14.9467 60.8286C16.3975 59.5938 17.721 58.1771 19.0824 56.8231C19.3283 56.5775 19.512 56.261 19.6918 55.9549C20.6775 54.3222 20.9188 52.5951 20.0976 51.927C18.8174 50.8807 17.6493 51.7965 16.5748 52.4532C14.882 53.4899 13.3051 54.7444 11.5846 55.7277C10.5569 56.3153 9.35745 56.5733 8.46989 56.8932L8.47497 56.8978Z" fill="black"/>
<path d="M21.1494 30.6988C21.2674 32.6757 20.1844 34.21 18.5522 34.3701C16.6338 34.557 14.487 32.3118 14.4176 30.0439C14.3606 28.1229 15.9092 26.064 17.4766 25.9846C19.4344 25.8803 20.9851 27.8687 21.1541 30.6985L21.1494 30.6988Z" fill="black"/>
<path d="M52.6671 22.7751C52.8033 24.8665 51.6405 26.5934 50.0146 26.7126C48.2056 26.8458 46.3386 24.8615 46.2499 22.711C46.1728 20.8369 47.6182 19.0984 49.2796 19.0723C51.0681 19.0414 52.5275 20.6386 52.6671 22.7751Z" fill="black"/>
<path d="M36.6405 36.792C38.3084 36.3571 39.3205 37.3584 40.2065 39.1203C41.7666 42.2218 42.4599 45.4198 41.8047 48.8419C41.5709 50.0492 41.1116 51.2738 40.4863 52.3045C39.8104 53.4146 38.7235 53.538 37.542 52.9176C34.0566 51.0872 31.1885 44.5977 32.122 40.5496C32.7466 37.8406 33.7384 36.9684 36.6456 36.7967L36.6405 36.792Z" fill="#FFB0D0"/>
</svg>
