<svg width="223" height="129" viewBox="0 0 223 129" fill="none" xmlns="http://www.w3.org/2000/svg">
<path d="M208.184 2.46631L205.697 8.18702" stroke="#492B21" stroke-width="3" stroke-linecap="round"/>
<path d="M196.83 43.5377C196.438 45.3276 196.129 46.3684 195.5 46.5C194.518 46.3411 194.182 44.9705 194.082 41.5255L196.83 43.5377Z" fill="#492B21"/>
<path d="M196.866 43.3699C196.854 43.427 196.842 43.483 196.83 43.5377M194.078 41.3827C194.079 41.4308 194.081 41.4784 194.082 41.5255M197 43.6622L196.83 43.5377M194 41L194.082 41.5255M196.83 43.5377C196.438 45.3276 196.129 46.3684 195.5 46.5C194.518 46.3411 194.182 44.9705 194.082 41.5255M196.83 43.5377L194.082 41.5255" stroke="#492B21" stroke-width="2" stroke-linecap="round"/>
<path d="M184 24.4786C184 35.0739 192.507 43.6632 203 43.6632C213.493 43.6632 222 35.0739 222 24.4786C222 13.8832 213.493 5.29395 203 5.29395C192.507 5.29395 184 13.8832 184 24.4786Z" fill="#492B21"/>
<path d="M210.423 7.7993L206.808 7.56859L208.5 4C208.081 6.13393 208.811 6.76445 210.423 7.7993Z" fill="#492B21"/>
<path d="M208.675 2.41113C208.675 2.41113 208.549 3.7508 208.5 4M211.406 8.40647C211.043 8.18608 210.716 7.98721 210.423 7.7993M210.423 7.7993L206.808 7.56859L208.5 4M210.423 7.7993C208.811 6.76445 208.081 6.13393 208.5 4" stroke="#492B21" stroke-width="2" stroke-linecap="round"/>
<path d="M208.177 2.23114C206.929 3.65998 204.603 4.74625 204.521 4.77368C204.476 4.78867 202.889 5.14877 201.369 5.50243L206.863 6.59391L208.177 2.23114Z" fill="#492B21"/>
<path d="M208.367 2C208.307 2.07795 208.244 2.15503 208.177 2.23114M197.204 6.79615C197.278 6.82832 198.65 6.2472 198.65 6.2472C198.65 6.2472 199.958 5.8305 201.369 5.50243M208.177 2.23114C206.929 3.65998 204.603 4.74625 204.521 4.77368C204.476 4.78867 202.889 5.14877 201.369 5.50243M208.177 2.23114L206.863 6.59391L201.369 5.50243" stroke="#492B21" stroke-linecap="round"/>
<path d="M207.988 42.6832C207.856 44.9148 207.228 46.7035 206.5 46.9926C205.542 47.128 205.537 45.3909 205.368 43.5088L207.988 42.6832Z" fill="#492B21"/>
<path d="M208 42.4693C207.996 42.542 207.992 42.6133 207.988 42.6832M205.344 43.2348C205.352 43.3288 205.36 43.4201 205.368 43.5088M207.999 42L207.988 42.6832M205 42.9391L205.368 43.5088M207.988 42.6832C207.856 44.9148 207.228 46.7035 206.5 46.9926C205.542 47.128 205.537 45.3909 205.368 43.5088M207.988 42.6832L205.368 43.5088" stroke="#492B21" stroke-width="2" stroke-linecap="round"/>
<path d="M184 26.5C184 37.2696 192.73 46 203.5 46C214.27 46 223 37.2696 223 26.5C223 15.7304 214.27 7 203.5 7C192.73 7 184 15.7304 184 26.5Z" fill="#492B21"/>
<path d="M187 25.1904C187 34.4412 194.163 41.9404 203 41.9404C211.837 41.9404 219 34.4412 219 25.1904C219 15.9397 211.837 8.44043 203 8.44043C194.163 8.44043 187 15.9397 187 25.1904Z" fill="#A35733"/>
<path d="M187.292 26.25C187.292 35.5008 194.39 43 203.146 43C211.902 43 219 35.5008 219 26.25C219 16.9992 211.902 9.5 203.146 9.5C194.39 9.5 187.292 16.9992 187.292 26.25Z" fill="#A35733"/>
<path d="M206.574 8C206.918 9.63407 208.336 11.2129 209.59 12.0053L200.287 10.253C201.266 9.87746 204.113 9.28911 206.574 8Z" fill="#A35733" stroke="#A35733" stroke-width="3" stroke-linecap="round"/>
<path d="M208.394 23.7243C208.848 35.3249 199.852 40.797 192.249 37.6898C187.138 32.5482 186.351 27.4283 187.848 20.9452C195.093 17.6531 199.847 18.6242 208.394 23.7243Z" fill="white" stroke="white" stroke-linecap="round"/>
<path d="M219 31C204.9 17.911 195.146 15.8904 186.5 20.5001" stroke="#492B21" stroke-width="3.5" stroke-linecap="round"/>
<path d="M218.937 28.5L216.52 26.4672C218.099 22.1902 218.036 20.8017 216.05 15.4502C218.916 19.3894 219.792 22.8098 218.937 28.5Z" fill="#7D351F"/>
<path d="M218 32.5C215.949 30.6028 215.858 30.4711 214 29C212.561 40.0762 205.458 42.6366 195.5 41C205.133 46.2158 214.55 42.514 218 32.5Z" fill="#7D351F"/>
<path d="M218.937 28.5L216.52 26.4672C218.099 22.1902 218.036 20.8017 216.05 15.4502C218.916 19.3894 219.792 22.8098 218.937 28.5Z" stroke="#7D351F" stroke-width="0.1" stroke-linecap="round"/>
<path d="M218 32.5C215.949 30.6028 215.858 30.4711 214 29C212.561 40.0762 205.458 42.6366 195.5 41C205.133 46.2158 214.55 42.514 218 32.5Z" stroke="#7D351F" stroke-width="0.1" stroke-linecap="round"/>
<path d="M213.699 29C213.699 29 210.935 26.2656 209.199 25.5V26.5C210.717 27.4427 212.003 30.0053 213.176 31.5C213.411 30.8725 213.703 29.0414 213.699 29Z" fill="#904528" stroke="#904528" stroke-width="0.5" stroke-linecap="round"/>
<path d="M191.644 29.3462C191.644 30.0292 191.309 30.5829 190.894 30.5829C190.527 30.7049 190.199 30.1655 190.145 29.3462C190.14 28.5998 190.474 28.0189 190.894 28.1094C191.325 28.0481 191.654 28.617 191.644 29.3462Z" fill="#492B21"/>
<path d="M198.489 29.3303C198.509 30.0047 198.143 30.4796 197.75 30.4934C197.315 30.5713 196.934 29.9461 197.01 29.1641C197.02 28.4582 197.394 27.981 197.75 28.0009C198.212 27.9719 198.567 28.6171 198.489 29.3303Z" fill="#492B21"/>
<path d="M194.999 14.0013C195.025 14.6117 194.495 15.0622 194 14.993C193.448 14.993 193.001 14.549 193.001 14.0013C192.981 13.3479 193.433 12.9301 194 13.0097C194.571 13.0805 194.999 13.4537 194.999 14.0013Z" fill="#492B21"/>
<path d="M204.999 15.0013C205.025 15.6117 204.495 16.0622 204 15.993C203.448 15.993 203.001 15.549 203.001 15.0013C202.981 14.3479 203.433 13.9301 204 14.0097C204.571 14.0805 204.999 14.4537 204.999 15.0013Z" fill="#492B21"/>
<path d="M213.999 20.0013C214.025 20.6117 213.495 21.0622 213 20.993C212.448 20.993 212.001 20.549 212.001 20.0013C211.981 19.3479 212.433 18.9301 213 19.0097C213.571 19.0805 213.999 19.4537 213.999 20.0013Z" fill="#492B21"/>
<path d="M209.999 13.0013C210.025 13.6117 209.495 14.0622 209 13.993C208.448 13.993 208.001 13.549 208.001 13.0013C207.981 12.3479 208.433 11.9301 209 12.0097C209.571 12.0805 209.999 12.4537 209.999 13.0013Z" fill="#492B21"/>
<path d="M200 12.0334C200.003 12.643 199.577 13.0323 199.001 12.9979C198.449 12.9979 198.002 12.5661 198.002 12.0334C197.975 11.4633 198.232 11.0689 199.001 11C199.693 11.0344 199.997 11.4237 200 12.0334Z" fill="#492B21"/>
<path d="M212 16.0334C212.003 16.643 211.577 17.0323 211.001 16.9979C210.449 16.9979 210.002 16.5661 210.002 16.0334C209.975 15.4633 210.232 15.0689 211.001 15C211.693 15.0344 211.997 15.4237 212 16.0334Z" fill="#492B21"/>
<path d="M196.5 32C195.537 33.1211 193.804 33.1464 192.5 32" stroke="#492B21" stroke-width="1.5" stroke-linecap="round"/>
<path d="M46.5732 40.02C48.9132 41.52 50.5332 43.5 51.4932 46.44C53.6532 52.98 51.8532 60.18 43.2132 61.98C40.8732 62.52 37.3932 62.88 34.9332 62.88C31.8132 62.94 28.3932 63.06 25.2732 62.4C23.8932 61.98 23.4132 60.9 23.1732 59.64C22.9932 59.22 22.9332 58.86 22.9332 58.56V24.48C22.9332 19.98 26.9532 19.8 31.0332 19.86C32.6532 19.86 34.2732 19.8 35.9532 19.86C38.5932 19.92 41.5932 20.22 44.1132 21.18C44.7732 21.42 45.4332 21.72 46.0332 22.02C46.6332 22.32 47.2332 22.74 47.6532 23.22C52.7532 27.84 52.6932 36.3 46.5732 40.02ZM36.0732 55.92C38.5332 55.8 41.5332 55.5 42.4932 54.36C44.6532 51.84 44.1132 46.92 41.3532 44.94C39.4932 43.5 36.9732 43.2 34.6332 43.2C32.3532 43.26 30.8532 43.02 30.9132 45.24C31.0332 47.28 30.7932 49.44 30.7932 51.36C30.7932 52.44 30.5532 54 31.3932 54.84C32.2932 55.68 34.0932 55.98 36.0732 55.92ZM37.2732 27.12C32.2932 27 30.9732 26.46 31.0932 30.18C31.0932 31.68 31.0332 33.18 31.0332 34.62C30.9732 37.86 35.8932 37.2 38.4732 36.78C41.3532 36.3 42.9132 34.92 43.1532 32.04C43.4532 28.44 40.9932 27.24 37.2732 27.12ZM63.3516 36.9C68.2116 34.44 74.0916 34.8 78.1716 38.76C80.2716 40.86 81.2916 43.32 81.7716 46.32C82.3716 50.4 84.9516 53.34 85.8516 57.24C86.2716 59.1 85.6116 61.14 83.5716 61.5C81.1116 61.98 79.3716 59.34 78.2916 57.6C76.4316 60 74.3916 61.26 71.3916 61.68C68.8116 61.98 66.6516 61.86 64.0116 61.14C57.1716 59.34 55.1916 51.84 56.9316 45.3C58.0716 40.98 60.4116 38.34 63.3516 36.9ZM64.8516 43.92C62.5716 46.08 62.3316 50.46 64.1316 53.04C64.9116 54.18 67.0716 55.02 69.1716 55.14C73.9716 55.44 76.5516 48.6 73.9716 44.46C72.1116 41.4 67.1316 41.7 64.8516 43.92ZM98.8234 57.36C98.7634 57.78 98.7034 58.14 98.7034 58.5L98.3434 59.76C98.2834 59.88 98.2234 60 98.1634 60.06L97.9834 60.42C97.7434 60.9 97.3234 61.26 96.9034 61.5C95.9434 61.98 94.9234 62.1 93.8434 61.86C93.1834 61.8 92.5834 61.56 92.2234 61.26C91.8634 61.02 91.5634 60.72 91.3834 60.24C91.2034 59.82 91.0834 59.4 91.0234 59.04C90.9034 58.62 90.8434 58.26 90.8434 57.96V24.36C90.8434 23.82 90.9034 23.4 90.9634 22.98C91.0234 22.44 91.1434 22.08 91.3234 21.6C91.4434 21.24 91.6834 20.88 91.9834 20.64C92.4034 20.34 92.8834 20.1 93.3634 20.04C93.9034 19.86 94.3834 19.86 94.9834 19.86C95.5834 19.86 96.2434 20.04 96.9034 20.34C97.4434 20.64 97.8634 21.12 98.1034 21.66C98.4634 22.38 98.7034 23.16 98.7034 23.88C98.7634 24.66 98.8234 26.7 98.8234 27.48V27.72C98.9434 30.3 98.9434 32.52 98.8834 35.28C98.8834 37.98 98.8234 40.5 98.8234 42.96V55.56C98.8234 55.86 98.8834 56.16 98.8834 56.46C98.8834 56.82 98.8834 57.06 98.8234 57.36ZM104.499 24.24C104.679 21.36 106.359 19.2 109.359 20.04C112.239 20.82 111.819 23.52 111.879 25.92V34.2C111.819 35.4 111.879 36.72 111.879 36.72C111.879 36.72 114.639 36.72 115.779 36.66C124.599 36.6 128.199 42.06 128.079 49.56C127.959 58.44 122.379 62.34 113.799 62.34C103.899 62.34 104.499 63.3 104.499 50.28C104.499 44.1 104.559 37.98 104.499 31.86C104.499 30.18 104.319 28.68 104.499 24.24ZM115.719 55.62C117.999 55.5 119.379 54.96 120.279 53.82C122.079 51.36 122.199 46.86 119.679 44.76C117.399 42.84 115.479 43.2 111.999 43.32V50.52L111.879 55.5C111.879 55.5 113.979 55.74 115.719 55.62ZM139.934 36.9C144.794 34.44 150.674 34.8 154.754 38.76C156.854 40.86 157.874 43.32 158.354 46.32C158.954 50.4 161.534 53.34 162.434 57.24C162.854 59.1 162.194 61.14 160.154 61.5C157.694 61.98 155.954 59.34 154.874 57.6C153.014 60 150.974 61.26 147.974 61.68C145.394 61.98 143.234 61.86 140.594 61.14C133.754 59.34 131.774 51.84 133.514 45.3C134.654 40.98 136.994 38.34 139.934 36.9ZM141.434 43.92C139.154 46.08 138.914 50.46 140.714 53.04C141.494 54.18 143.654 55.02 145.754 55.14C150.554 55.44 153.134 48.6 150.554 44.46C148.694 41.4 143.714 41.7 141.434 43.92ZM199.945 48.18C200.065 50.76 200.065 52.92 199.945 55.44C199.885 57.42 200.185 60.42 198.505 61.5C196.525 62.76 193.405 62.4 193.225 59.28C193.105 57.42 193.045 55.5 193.045 53.76C193.045 51.96 192.985 50.58 193.045 47.58C193.045 46.08 192.925 43.68 191.965 42.9C190.585 41.64 188.125 42.36 187.705 44.94C187.705 45.96 187.645 47.1 187.705 48.06C187.765 50.64 187.765 52.8 187.705 55.32C187.585 57.36 188.125 60.42 186.385 61.5C184.405 62.76 181.825 61.98 181.585 58.86C181.405 57 181.405 55.56 181.405 53.82C181.405 51.96 181.585 49.98 181.405 48.12C181.345 46.98 181.405 44.88 180.925 43.86C180.325 42.72 178.225 42.42 177.145 42.96C174.925 44.04 175.105 46.68 175.105 48.78C175.105 53.94 175.345 57.84 174.505 60.12C173.665 62.58 168.925 62.7 168.145 60C167.605 58.26 167.485 52.86 167.545 49.56V40.92C167.485 39.06 167.305 36.72 167.965 34.98C168.505 33.48 169.885 33.18 171.145 33.24C174.085 33.3 174.145 36.48 174.265 38.88C175.165 36.9 176.245 35.52 178.525 35.1C181.405 34.56 183.865 35.34 185.605 37.38C186.445 36.54 187.525 35.88 188.665 35.4C192.505 33.96 196.945 35.7 198.685 39.48C199.885 42 199.825 45.42 199.945 48.18Z" fill="#F26647"/>
<path d="M46.5732 94.02C48.9132 95.52 50.5332 97.5 51.4932 100.44C53.6532 106.98 51.8532 114.18 43.2132 115.98C40.8732 116.52 37.3932 116.88 34.9332 116.88C31.8132 116.94 28.3932 117.06 25.2732 116.4C23.8932 115.98 23.4132 114.9 23.1732 113.64C22.9932 113.22 22.9332 112.86 22.9332 112.56V78.48C22.9332 73.98 26.9532 73.8 31.0332 73.86C32.6532 73.86 34.2732 73.8 35.9532 73.86C38.5932 73.92 41.5932 74.22 44.1132 75.18C44.7732 75.42 45.4332 75.72 46.0332 76.02C46.6332 76.32 47.2332 76.74 47.6532 77.22C52.7532 81.84 52.6932 90.3 46.5732 94.02ZM36.0732 109.92C38.5332 109.8 41.5332 109.5 42.4932 108.36C44.6532 105.84 44.1132 100.92 41.3532 98.94C39.4932 97.5 36.9732 97.2 34.6332 97.2C32.3532 97.26 30.8532 97.02 30.9132 99.24C31.0332 101.28 30.7932 103.44 30.7932 105.36C30.7932 106.44 30.5532 108 31.3932 108.84C32.2932 109.68 34.0932 109.98 36.0732 109.92ZM37.2732 81.12C32.2932 81 30.9732 80.46 31.0932 84.18C31.0932 85.68 31.0332 87.18 31.0332 88.62C30.9732 91.86 35.8932 91.2 38.4732 90.78C41.3532 90.3 42.9132 88.92 43.1532 86.04C43.4532 82.44 40.9932 81.24 37.2732 81.12ZM63.3516 90.9C68.2116 88.44 74.0916 88.8 78.1716 92.76C80.2716 94.86 81.2916 97.32 81.7716 100.32C82.3716 104.4 84.9516 107.34 85.8516 111.24C86.2716 113.1 85.6116 115.14 83.5716 115.5C81.1116 115.98 79.3716 113.34 78.2916 111.6C76.4316 114 74.3916 115.26 71.3916 115.68C68.8116 115.98 66.6516 115.86 64.0116 115.14C57.1716 113.34 55.1916 105.84 56.9316 99.3C58.0716 94.98 60.4116 92.34 63.3516 90.9ZM64.8516 97.92C62.5716 100.08 62.3316 104.46 64.1316 107.04C64.9116 108.18 67.0716 109.02 69.1716 109.14C73.9716 109.44 76.5516 102.6 73.9716 98.46C72.1116 95.4 67.1316 95.7 64.8516 97.92ZM98.8234 111.36C98.7634 111.78 98.7034 112.14 98.7034 112.5L98.3434 113.76C98.2834 113.88 98.2234 114 98.1634 114.06L97.9834 114.42C97.7434 114.9 97.3234 115.26 96.9034 115.5C95.9434 115.98 94.9234 116.1 93.8434 115.86C93.1834 115.8 92.5834 115.56 92.2234 115.26C91.8634 115.02 91.5634 114.72 91.3834 114.24C91.2034 113.82 91.0834 113.4 91.0234 113.04C90.9034 112.62 90.8434 112.26 90.8434 111.96V78.36C90.8434 77.82 90.9034 77.4 90.9634 76.98C91.0234 76.44 91.1434 76.08 91.3234 75.6C91.4434 75.24 91.6834 74.88 91.9834 74.64C92.4034 74.34 92.8834 74.1 93.3634 74.04C93.9034 73.86 94.3834 73.86 94.9834 73.86C95.5834 73.86 96.2434 74.04 96.9034 74.34C97.4434 74.64 97.8634 75.12 98.1034 75.66C98.4634 76.38 98.7034 77.16 98.7034 77.88C98.7634 78.66 98.8234 80.7 98.8234 81.48V81.72C98.9434 84.3 98.9434 86.52 98.8834 89.28C98.8834 91.98 98.8234 94.5 98.8234 96.96V109.56C98.8234 109.86 98.8834 110.16 98.8834 110.46C98.8834 110.82 98.8834 111.06 98.8234 111.36ZM104.499 78.24C104.679 75.36 106.359 73.2 109.359 74.04C112.239 74.82 111.819 77.52 111.879 79.92V88.2C111.819 89.4 111.879 90.72 111.879 90.72C111.879 90.72 114.639 90.72 115.779 90.66C124.599 90.6 128.199 96.06 128.079 103.56C127.959 112.44 122.379 116.34 113.799 116.34C103.899 116.34 104.499 117.3 104.499 104.28C104.499 98.1 104.559 91.98 104.499 85.86C104.499 84.18 104.319 82.68 104.499 78.24ZM115.719 109.62C117.999 109.5 119.379 108.96 120.279 107.82C122.079 105.36 122.199 100.86 119.679 98.76C117.399 96.84 115.479 97.2 111.999 97.32V104.52L111.879 109.5C111.879 109.5 113.979 109.74 115.719 109.62ZM139.934 90.9C144.794 88.44 150.674 88.8 154.754 92.76C156.854 94.86 157.874 97.32 158.354 100.32C158.954 104.4 161.534 107.34 162.434 111.24C162.854 113.1 162.194 115.14 160.154 115.5C157.694 115.98 155.954 113.34 154.874 111.6C153.014 114 150.974 115.26 147.974 115.68C145.394 115.98 143.234 115.86 140.594 115.14C133.754 113.34 131.774 105.84 133.514 99.3C134.654 94.98 136.994 92.34 139.934 90.9ZM141.434 97.92C139.154 100.08 138.914 104.46 140.714 107.04C141.494 108.18 143.654 109.02 145.754 109.14C150.554 109.44 153.134 102.6 150.554 98.46C148.694 95.4 143.714 95.7 141.434 97.92ZM199.945 102.18C200.065 104.76 200.065 106.92 199.945 109.44C199.885 111.42 200.185 114.42 198.505 115.5C196.525 116.76 193.405 116.4 193.225 113.28C193.105 111.42 193.045 109.5 193.045 107.76C193.045 105.96 192.985 104.58 193.045 101.58C193.045 100.08 192.925 97.68 191.965 96.9C190.585 95.64 188.125 96.36 187.705 98.94C187.705 99.96 187.645 101.1 187.705 102.06C187.765 104.64 187.765 106.8 187.705 109.32C187.585 111.36 188.125 114.42 186.385 115.5C184.405 116.76 181.825 115.98 181.585 112.86C181.405 111 181.405 109.56 181.405 107.82C181.405 105.96 181.585 103.98 181.405 102.12C181.345 100.98 181.405 98.88 180.925 97.86C180.325 96.72 178.225 96.42 177.145 96.96C174.925 98.04 175.105 100.68 175.105 102.78C175.105 107.94 175.345 111.84 174.505 114.12C173.665 116.58 168.925 116.7 168.145 114C167.605 112.26 167.485 106.86 167.545 103.56V94.92C167.485 93.06 167.305 90.72 167.965 88.98C168.505 87.48 169.885 87.18 171.145 87.24C174.085 87.3 174.145 90.48 174.265 92.88C175.165 90.9 176.245 89.52 178.525 89.1C181.405 88.56 183.865 89.34 185.605 91.38C186.445 90.54 187.525 89.88 188.665 89.4C192.505 87.96 196.945 89.7 198.685 93.48C199.885 96 199.825 99.42 199.945 102.18Z" fill="#F26647"/>
</svg>
