<svg width="3970" height="2143" viewBox="0 0 3970 2143" fill="none" xmlns="http://www.w3.org/2000/svg">
<path d="M3534.05 738.371C3523.79 768.996 3515.97 778.248 3499.5 780.5C3473.79 777.781 3464.72 762.886 3462.1 703.942L3534.05 738.371Z" fill="#492B21"/>
<path d="M3535 735.5C3534.68 736.477 3534.37 737.434 3534.05 738.371M3462 701.5C3462.03 702.322 3462.07 703.136 3462.1 703.942M3538.5 740.5L3534.05 738.371M3457 701.5L3462.1 703.942M3534.05 738.371C3523.79 768.996 3515.97 778.248 3499.5 780.5C3473.79 777.781 3464.72 762.886 3462.1 703.942M3534.05 738.371L3462.1 703.942" stroke="#492B21" stroke-width="4" stroke-linecap="round"/>
<path d="M3313 405C3313 588.359 3460.07 737 3641.5 737C3822.93 737 3970 588.359 3970 405C3970 221.641 3822.93 73 3641.5 73C3460.07 73 3313 221.641 3313 405Z" fill="#492B21"/>
<path d="M3734 25L3691 124" stroke="#492B21" stroke-width="50" stroke-linecap="round"/>
<path d="M3783 111.993L3720.5 108L3752.77 45C3745.52 81.9288 3755.13 94.0839 3783 111.993Z" fill="#492B21"/>
<path d="M3756 31C3754.7 36.0369 3753.62 40.6874 3752.77 45M3800 122.5C3793.73 118.686 3788.06 115.244 3783 111.993M3783 111.993L3720.5 108L3752.77 45M3783 111.993C3755.13 94.0839 3745.52 81.9288 3752.77 45" stroke="#492B21" stroke-width="4" stroke-linecap="round"/>
<path d="M3708.72 20C3687.13 44.7269 3646.92 63.5253 3645.5 64C3644.72 64.2594 3617.29 70.4911 3591 76.6115L3686 95.5L3708.72 20Z" fill="#492B21"/>
<path d="M3712 16C3710.96 17.3489 3709.87 18.6829 3708.72 20M3519 99C3520.27 99.5566 3544 89.5 3544 89.5C3544 89.5 3566.61 82.2889 3591 76.6115M3708.72 20C3687.13 44.7269 3646.92 63.5253 3645.5 64C3644.72 64.2594 3617.29 70.4911 3591 76.6115M3708.72 20L3686 95.5L3591 76.6115" stroke="#492B21" stroke-width="4" stroke-linecap="round"/>
<path d="M3741.71 742.853C3738.41 777.833 3729.1 789.969 3711 794.5C3687.19 796.623 3680.78 785.296 3676.58 755.795L3741.71 742.853Z" fill="#492B21"/>
<path d="M3742 739.5C3741.91 740.64 3741.81 741.758 3741.71 742.853M3676 751.5C3676.19 752.972 3676.38 754.404 3676.58 755.795M3746 742L3741.71 742.853M3668 757.5L3676.58 755.795M3741.71 742.853C3738.41 777.833 3729.1 789.969 3711 794.5C3687.19 796.623 3680.78 785.296 3676.58 755.795M3741.71 742.853L3676.58 755.795" stroke="#492B21" stroke-width="4" stroke-linecap="round"/>
<path d="M3339 433C3339 603.02 3474 740 3639.5 740C3805 740 3940 603.02 3940 433C3940 262.98 3805 126 3639.5 126C3474 126 3339 262.98 3339 433Z" fill="#492B21" stroke="#492B21" stroke-width="50"/>
<path d="M3355 416.933C3355 576.812 3481.48 706.42 3637.5 706.42C3793.52 706.42 3920 576.812 3920 416.933C3920 257.053 3793.52 127.445 3637.5 127.445C3481.48 127.445 3355 257.053 3355 416.933Z" fill="#A35733"/>
<path d="M3360.16 435.244C3360.16 595.123 3485.48 724.731 3640.08 724.731C3794.68 724.731 3920 595.123 3920 435.244C3920 275.364 3794.68 145.756 3640.08 145.756C3485.48 145.756 3360.16 275.364 3360.16 435.244Z" fill="#A35733"/>
<path d="M3706.5 92C3715.42 132.254 3739.48 146.481 3772 166L3543.5 146.5C3602.38 122.519 3642.7 123.756 3706.5 92Z" fill="#A35733" stroke="#A35733" stroke-width="4" stroke-linecap="round"/>
<path d="M3715.72 395.855C3723.58 596.61 3562.94 681.773 3431.5 628C3342.51 525.577 3333.59 450.786 3362.22 343.855C3487.48 286.883 3567.96 307.595 3715.72 395.855Z" fill="white" stroke="white" stroke-linecap="round"/>
<path d="M3927 528C3683.22 301.488 3497.48 256.726 3348 336.5" stroke="#492B21" stroke-width="50" stroke-linecap="round"/>
<path d="M3915.67 485.598L3873.88 448.5C3901.18 374.486 3896.84 334.111 3862.5 241.5C3912.6 309.704 3930.65 387.204 3915.67 485.598Z" fill="#7D351F"/>
<path d="M3901.5 538.5C3866.04 505.668 3847.63 490.459 3815.5 465C3790.63 656.68 3678.17 718.322 3506 690C3674.61 774.123 3838.56 699.779 3901.5 538.5Z" fill="#7D351F"/>
<path d="M3915.67 485.598L3873.88 448.5C3901.18 374.486 3896.84 334.111 3862.5 241.5C3912.6 309.704 3930.65 387.204 3915.67 485.598Z" stroke="#7D351F" stroke-width="0.1" stroke-linecap="round"/>
<path d="M3901.5 538.5C3866.04 505.668 3847.63 490.459 3815.5 465C3790.63 656.68 3678.17 718.322 3506 690C3674.61 774.123 3838.56 699.779 3901.5 538.5Z" stroke="#7D351F" stroke-width="0.1" stroke-linecap="round"/>
<path d="M3814.87 465.5C3784.44 439.971 3767.32 427.612 3736 409L3736.87 421.213C3764.27 444.13 3780.36 455.426 3801.53 491.764C3811.22 482.854 3813.04 476.144 3814.87 465.5Z" fill="#904528" stroke="#904528" stroke-linecap="round"/>
<path d="M3697 237V238" stroke="#4C2923" stroke-width="39" stroke-linecap="round"/>
<path d="M3551 196V197" stroke="#4C2923" stroke-width="37" stroke-linecap="round"/>
<path d="M3800 263V264" stroke="#4C2923" stroke-width="34" stroke-linecap="round"/>
<path d="M3498 461C3484.85 450.903 3469.33 443.707 3442 445.195" stroke="#492B21" stroke-width="20" stroke-linecap="round"/>
<path d="M3475 486.824C3471.01 488.864 3436.15 493.712 3440.35 445" stroke="#492B21" stroke-width="20" stroke-linecap="round"/>
<path d="M3498 463C3491.06 479.568 3482.29 486.125 3470 488" stroke="#492B21" stroke-width="20" stroke-linecap="round"/>
<line x1="15" y1="-15" x2="27.5793" y2="-15" transform="matrix(-0.164399 0.986394 0.986394 0.164399 3560 394)" stroke="#492B21" stroke-width="30" stroke-linecap="round"/>
<line x1="15" y1="-15" x2="28.0116" y2="-15" transform="matrix(-0.302244 0.953231 0.953231 0.302244 3447 369)" stroke="#492B21" stroke-width="30" stroke-linecap="round"/>
<path d="M1055 716C1094 741 1121 774 1137 823C1173 932 1143 1052 999 1082C960 1091 902 1097 861 1097C809 1098 752 1100 700 1089C677 1082 669 1064 665 1043C662 1036 661 1030 661 1025V457C661 382 728 379 796 380C823 380 850 379 878 380C922 381 972 386 1014 402C1025 406 1036 411 1046 416C1056 421 1066 428 1073 436C1158 513 1157 654 1055 716ZM880 981C921 979 971 974 987 955C1023 913 1014 831 968 798C937 774 895 769 856 769C818 770 793 766 794 803C796 837 792 873 792 905C792 923 788 949 802 963C817 977 847 982 880 981ZM900 501C817 499 795 490 797 552C797 577 796 602 796 626C795 680 877 669 920 662C968 654 994 631 998 583C1003 523 962 503 900 501ZM1334.64 664C1415.64 623 1513.64 629 1581.64 695C1616.64 730 1633.64 771 1641.64 821C1651.64 889 1694.64 938 1709.64 1003C1716.64 1034 1705.64 1068 1671.64 1074C1630.64 1082 1601.64 1038 1583.64 1009C1552.64 1049 1518.64 1070 1468.64 1077C1425.64 1082 1389.64 1080 1345.64 1068C1231.64 1038 1198.64 913 1227.64 804C1246.64 732 1285.64 688 1334.64 664ZM1359.64 781C1321.64 817 1317.64 890 1347.64 933C1360.64 952 1396.64 966 1431.64 968C1511.64 973 1554.64 859 1511.64 790C1480.64 739 1397.64 744 1359.64 781ZM1925.84 1005C1924.84 1012 1923.84 1018 1923.84 1024L1917.84 1045C1916.84 1047 1915.84 1049 1914.84 1050L1911.84 1056C1907.84 1064 1900.84 1070 1893.84 1074C1877.84 1082 1860.84 1084 1842.84 1080C1831.84 1079 1821.84 1075 1815.84 1070C1809.84 1066 1804.84 1061 1801.84 1053C1798.84 1046 1796.84 1039 1795.84 1033C1793.84 1026 1792.84 1020 1792.84 1015V455C1792.84 446 1793.84 439 1794.84 432C1795.84 423 1797.84 417 1800.84 409C1802.84 403 1806.84 397 1811.84 393C1818.84 388 1826.84 384 1834.84 383C1843.84 380 1851.84 380 1861.84 380C1871.84 380 1882.84 383 1893.84 388C1902.84 393 1909.84 401 1913.84 410C1919.84 422 1923.84 435 1923.84 447C1924.84 460 1925.84 494 1925.84 507V511C1927.84 554 1927.84 591 1926.84 637C1926.84 682 1925.84 724 1925.84 765V975C1925.84 980 1926.84 985 1926.84 990C1926.84 996 1926.84 1000 1925.84 1005ZM2020.42 453C2023.42 405 2051.42 369 2101.42 383C2149.42 396 2142.42 441 2143.42 481V619C2142.42 639 2143.42 661 2143.42 661C2143.42 661 2189.42 661 2208.42 660C2355.42 659 2415.42 750 2413.42 875C2411.42 1023 2318.42 1088 2175.42 1088C2010.42 1088 2020.42 1104 2020.42 887C2020.42 784 2021.42 682 2020.42 580C2020.42 552 2017.42 527 2020.42 453ZM2207.42 976C2245.42 974 2268.42 965 2283.42 946C2313.42 905 2315.42 830 2273.42 795C2235.42 763 2203.42 769 2145.42 771V891L2143.42 974C2143.42 974 2178.42 978 2207.42 976ZM2611.01 664C2692.01 623 2790.01 629 2858.01 695C2893.01 730 2910.01 771 2918.01 821C2928.01 889 2971.01 938 2986.01 1003C2993.01 1034 2982.01 1068 2948.01 1074C2907.01 1082 2878.01 1038 2860.01 1009C2829.01 1049 2795.01 1070 2745.01 1077C2702.01 1082 2666.01 1080 2622.01 1068C2508.01 1038 2475.01 913 2504.01 804C2523.01 732 2562.01 688 2611.01 664ZM2636.01 781C2598.01 817 2594.01 890 2624.01 933C2637.01 952 2673.01 966 2708.01 968C2788.01 973 2831.01 859 2788.01 790C2757.01 739 2674.01 744 2636.01 781ZM3611.2 852C3613.2 895 3613.2 931 3611.2 973C3610.2 1006 3615.2 1056 3587.2 1074C3554.2 1095 3502.2 1089 3499.2 1037C3497.2 1006 3496.2 974 3496.2 945C3496.2 915 3495.2 892 3496.2 842C3496.2 817 3494.2 777 3478.2 764C3455.2 743 3414.2 755 3407.2 798C3407.2 815 3406.2 834 3407.2 850C3408.2 893 3408.2 929 3407.2 971C3405.2 1005 3414.2 1056 3385.2 1074C3352.2 1095 3309.2 1082 3305.2 1030C3302.2 999 3302.2 975 3302.2 946C3302.2 915 3305.2 882 3302.2 851C3301.2 832 3302.2 797 3294.2 780C3284.2 761 3249.2 756 3231.2 765C3194.2 783 3197.2 827 3197.2 862C3197.2 948 3201.2 1013 3187.2 1051C3173.2 1092 3094.2 1094 3081.2 1049C3072.2 1020 3070.2 930 3071.2 875V731C3070.2 700 3067.2 661 3078.2 632C3087.2 607 3110.2 602 3131.2 603C3180.2 604 3181.2 657 3183.2 697C3198.2 664 3216.2 641 3254.2 634C3302.2 625 3343.2 638 3372.2 672C3386.2 658 3404.2 647 3423.2 639C3487.2 615 3561.2 644 3590.2 707C3610.2 749 3609.2 806 3611.2 852Z" fill="#F26647"/>
<path d="M434 1606C473 1631 500 1664 516 1713C552 1822 522 1942 378 1972C339 1981 281 1987 240 1987C188 1988 131 1990 79 1979C56 1972 48 1954 44 1933C41 1926 40 1920 40 1915V1347C40 1272 107 1269 175 1270C202 1270 229 1269 257 1270C301 1271 351 1276 393 1292C404 1296 415 1301 425 1306C435 1311 445 1318 452 1326C537 1403 536 1544 434 1606ZM259 1871C300 1869 350 1864 366 1845C402 1803 393 1721 347 1688C316 1664 274 1659 235 1659C197 1660 172 1656 173 1693C175 1727 171 1763 171 1795C171 1813 167 1839 181 1853C196 1867 226 1872 259 1871ZM279 1391C196 1389 174 1380 176 1442C176 1467 175 1492 175 1516C174 1570 256 1559 299 1552C347 1544 373 1521 377 1473C382 1413 341 1393 279 1391ZM713.641 1554C794.641 1513 892.641 1519 960.641 1585C995.641 1620 1012.64 1661 1020.64 1711C1030.64 1779 1073.64 1828 1088.64 1893C1095.64 1924 1084.64 1958 1050.64 1964C1009.64 1972 980.641 1928 962.641 1899C931.641 1939 897.641 1960 847.641 1967C804.641 1972 768.641 1970 724.641 1958C610.641 1928 577.641 1803 606.641 1694C625.641 1622 664.641 1578 713.641 1554ZM738.641 1671C700.641 1707 696.641 1780 726.641 1823C739.641 1842 775.641 1856 810.641 1858C890.641 1863 933.641 1749 890.641 1680C859.641 1629 776.641 1634 738.641 1671ZM1304.84 1895C1303.84 1902 1302.84 1908 1302.84 1914L1296.84 1935C1295.84 1937 1294.84 1939 1293.84 1940L1290.84 1946C1286.84 1954 1279.84 1960 1272.84 1964C1256.84 1972 1239.84 1974 1221.84 1970C1210.84 1969 1200.84 1965 1194.84 1960C1188.84 1956 1183.84 1951 1180.84 1943C1177.84 1936 1175.84 1929 1174.84 1923C1172.84 1916 1171.84 1910 1171.84 1905V1345C1171.84 1336 1172.84 1329 1173.84 1322C1174.84 1313 1176.84 1307 1179.84 1299C1181.84 1293 1185.84 1287 1190.84 1283C1197.84 1278 1205.84 1274 1213.84 1273C1222.84 1270 1230.84 1270 1240.84 1270C1250.84 1270 1261.84 1273 1272.84 1278C1281.84 1283 1288.84 1291 1292.84 1300C1298.84 1312 1302.84 1325 1302.84 1337C1303.84 1350 1304.84 1384 1304.84 1397V1401C1306.84 1444 1306.84 1481 1305.84 1527C1305.84 1572 1304.84 1614 1304.84 1655V1865C1304.84 1870 1305.84 1875 1305.84 1880C1305.84 1886 1305.84 1890 1304.84 1895ZM1399.42 1343C1402.42 1295 1430.42 1259 1480.42 1273C1528.42 1286 1521.42 1331 1522.42 1371V1509C1521.42 1529 1522.42 1551 1522.42 1551C1522.42 1551 1568.42 1551 1587.42 1550C1734.42 1549 1794.42 1640 1792.42 1765C1790.42 1913 1697.42 1978 1554.42 1978C1389.42 1978 1399.42 1994 1399.42 1777C1399.42 1674 1400.42 1572 1399.42 1470C1399.42 1442 1396.42 1417 1399.42 1343ZM1586.42 1866C1624.42 1864 1647.42 1855 1662.42 1836C1692.42 1795 1694.42 1720 1652.42 1685C1614.42 1653 1582.42 1659 1524.42 1661V1781L1522.42 1864C1522.42 1864 1557.42 1868 1586.42 1866ZM1990.01 1554C2071.01 1513 2169.01 1519 2237.01 1585C2272.01 1620 2289.01 1661 2297.01 1711C2307.01 1779 2350.01 1828 2365.01 1893C2372.01 1924 2361.01 1958 2327.01 1964C2286.01 1972 2257.01 1928 2239.01 1899C2208.01 1939 2174.01 1960 2124.01 1967C2081.01 1972 2045.01 1970 2001.01 1958C1887.01 1928 1854.01 1803 1883.01 1694C1902.01 1622 1941.01 1578 1990.01 1554ZM2015.01 1671C1977.01 1707 1973.01 1780 2003.01 1823C2016.01 1842 2052.01 1856 2087.01 1858C2167.01 1863 2210.01 1749 2167.01 1680C2136.01 1629 2053.01 1634 2015.01 1671ZM2990.2 1742C2992.2 1785 2992.2 1821 2990.2 1863C2989.2 1896 2994.2 1946 2966.2 1964C2933.2 1985 2881.2 1979 2878.2 1927C2876.2 1896 2875.2 1864 2875.2 1835C2875.2 1805 2874.2 1782 2875.2 1732C2875.2 1707 2873.2 1667 2857.2 1654C2834.2 1633 2793.2 1645 2786.2 1688C2786.2 1705 2785.2 1724 2786.2 1740C2787.2 1783 2787.2 1819 2786.2 1861C2784.2 1895 2793.2 1946 2764.2 1964C2731.2 1985 2688.2 1972 2684.2 1920C2681.2 1889 2681.2 1865 2681.2 1836C2681.2 1805 2684.2 1772 2681.2 1741C2680.2 1722 2681.2 1687 2673.2 1670C2663.2 1651 2628.2 1646 2610.2 1655C2573.2 1673 2576.2 1717 2576.2 1752C2576.2 1838 2580.2 1903 2566.2 1941C2552.2 1982 2473.2 1984 2460.2 1939C2451.2 1910 2449.2 1820 2450.2 1765V1621C2449.2 1590 2446.2 1551 2457.2 1522C2466.2 1497 2489.2 1492 2510.2 1493C2559.2 1494 2560.2 1547 2562.2 1587C2577.2 1554 2595.2 1531 2633.2 1524C2681.2 1515 2722.2 1528 2751.2 1562C2765.2 1548 2783.2 1537 2802.2 1529C2866.2 1505 2940.2 1534 2969.2 1597C2989.2 1639 2988.2 1696 2990.2 1742Z" fill="#F26647"/>
</svg>
