<svg width="92" height="127" viewBox="0 0 92 127" fill="none" xmlns="http://www.w3.org/2000/svg">
<path d="M64.3386 36.181C65.064 35.54 65.4014 35.2406 65.8274 34.8652C65.5195 34.5236 65.3002 34.2284 65.0345 33.988C62.6348 31.816 60.9056 29.2434 60.505 25.9707C60.3785 24.9332 60.4502 23.8156 60.699 22.8034C61.2177 20.7158 62.9005 19.4716 65.0514 19.3704C67.6957 19.2439 69.8044 20.4501 71.5926 22.2172C72.7228 23.3348 73.6633 24.6422 74.7514 25.9369C76.8475 24.6591 78.9899 23.5625 81.5499 23.5246C88.5044 23.4149 93.0845 29.3193 91.2541 36.0419C89.4913 42.5072 81.9927 46.771 75.6413 43.7935C75.3671 43.6669 75.0846 43.5615 74.6502 43.3802C73.4988 44.2869 72.3137 45.2232 71.213 46.0877C71.9257 48.8206 72.765 51.3679 73.2416 53.9785C74.4393 60.5408 73.3554 66.7657 70.0701 72.6026C67.5017 77.1658 63.8663 80.7043 59.4886 83.4709C53.4999 87.2539 46.9713 89.3963 39.8692 89.9952C35.1119 90.3917 30.3927 90.6616 25.6776 89.8476C18.3815 88.5866 11.9457 85.5796 6.96493 79.9704C1.40217 73.7076 -0.689671 66.2596 0.195985 58.0315C1.47808 46.1341 7.58489 36.801 16.2643 28.9608C20.9035 24.7687 26.171 21.534 31.8814 18.9824C33.0876 18.4426 34.1883 18.3245 35.424 18.6577C46.1447 21.555 55.6128 26.6202 63.2969 34.764C63.6596 35.152 63.9337 35.6243 64.3386 36.181ZM67.5396 72.0248C70.6605 66.7404 71.8119 61.3168 71.0359 55.5052C70.1333 48.7742 67.1558 42.9711 62.7613 37.8849C55.3682 29.3151 45.9127 24.1024 35.1119 21.1164C34.0323 20.817 33.1635 21.1164 32.2525 21.5255C26.6349 24.0813 21.5108 27.3877 16.9982 31.6094C10.613 37.5896 5.81358 44.5695 3.56148 53.1266C1.74378 60.0305 2.04743 66.7784 5.31171 73.2352C6.37449 75.3355 7.61441 77.3388 9.57973 78.9498C14.1514 74.2601 19.8196 71.6621 25.8674 69.7938C33.0159 67.5839 40.3415 66.5759 47.8274 66.7784C54.7145 66.9639 61.3991 67.9508 67.5312 72.0206L67.5396 72.0248ZM66.0551 74.0998C65.1146 73.5051 64.4145 72.8767 63.5921 72.5731C61.1587 71.679 58.7295 70.6584 56.2074 70.1396C47.9708 68.4485 39.7511 69.0516 31.5904 70.8271C26.2469 71.9911 21.1228 73.7455 16.4246 76.6007C14.5942 77.7141 12.8735 78.9667 11.4101 80.835C12.165 81.417 12.7892 81.9568 13.464 82.4165C18.6008 85.9381 24.3575 87.6461 30.515 87.8823C33.6358 88.0004 36.7778 87.663 39.9071 87.4606C47.199 86.9882 53.7824 84.4957 59.7374 80.3205C62.0654 78.6883 64.1446 76.7694 66.0551 74.0956V74.0998ZM70.0658 44.017C71.1497 43.1777 72.0902 42.5156 72.9506 41.7691C74.1104 40.7654 75.2195 40.2804 76.6028 41.4359C77.0415 41.8028 77.7162 41.9251 78.3067 42.0601C83.5574 43.2536 89.0737 38.8127 89.1876 33.3174C89.2762 29.1675 86.1932 25.9749 82.0433 25.9538C79.458 25.9412 77.3072 26.9618 75.481 28.7753C74.1778 30.07 73.7181 29.8929 72.7819 28.2945C71.8625 26.7298 70.9009 25.1314 69.6652 23.824C68.8175 22.9299 67.5396 22.2931 66.3335 21.922C64.3597 21.3147 62.9722 22.3648 62.8878 24.4229C62.8499 25.3887 63.0354 26.4177 63.356 27.3371C64.2374 29.8844 65.878 31.8455 68.2397 33.2035C69.8634 34.1398 69.8634 34.6417 68.4295 35.8605C67.6408 36.5311 66.9154 37.2733 66.1647 37.9777C67.5143 40.0653 68.7121 41.9209 70.0616 44.0128L70.0658 44.017Z" fill="black"/>
<path d="M80.3459 17.7892C80.1013 17.6036 79.5952 17.3675 79.3127 16.9752C77.1787 14.002 74.315 12.6355 70.6585 12.8464C70.2832 12.8675 69.6042 12.5512 69.5536 12.2981C69.4524 11.7752 69.4819 10.9865 69.8066 10.666C71.1056 9.38811 71.6032 7.80236 71.6328 6.11118C71.6496 5.02731 71.2321 3.92656 70.9622 2.84691C70.8357 2.34503 70.435 1.86847 70.4392 1.38346C70.4434 0.927983 70.7176 0.34598 71.0718 0.0760661C71.3038 -0.101065 71.9575 0.059196 72.2949 0.270067C72.9359 0.670721 73.4758 1.23164 74.0746 1.70399C75.9725 3.19695 78.0896 4.1543 80.5231 4.36517C82.6655 4.55074 82.889 4.92609 82.2142 6.90406C81.3876 9.33329 81.1093 11.7963 81.8937 14.3098C82.0498 14.8159 82.2058 15.3473 82.2185 15.8703C82.248 16.8023 81.3792 17.7723 80.3459 17.7976V17.7892ZM79.009 12.6777C79.1988 10.6997 79.3844 8.75972 79.5615 6.8914C77.6594 6.16601 75.9683 5.52074 74.2602 4.87126C73.8891 6.81971 73.5432 8.6585 73.2101 10.3961C75.1332 11.151 76.9551 11.8679 79.009 12.6777Z" fill="black"/>
<path d="M67.5419 72.0263C61.4056 67.9565 54.7252 66.9696 47.8382 66.7841C40.3523 66.5816 33.0266 67.5896 25.8781 69.7995C19.8261 71.6721 14.1622 74.27 9.59048 78.9555C7.62516 77.3445 6.38103 75.3412 5.32245 73.2409C2.05818 66.7841 1.75452 60.0362 3.57223 53.1323C5.82433 44.5794 10.6237 37.5954 17.0089 31.6151C21.5173 27.3892 26.6457 24.087 32.2633 21.5312C33.17 21.1179 34.043 20.8227 35.1227 21.1221C45.9277 24.1081 55.3789 29.3208 62.7721 37.8906C67.1624 42.9768 70.1441 48.7799 71.0466 55.5109C71.8226 61.3225 70.6713 66.7461 67.5504 72.0305L67.5419 72.0263ZM31.5969 44.0775C33.5201 43.913 35.4812 43.7444 37.4338 43.5799C37.805 44.1703 38.1044 44.7017 38.4544 45.1994C40.8373 48.5902 45.1011 49.9988 49.0275 48.704C53.034 47.3798 55.6404 43.4154 55.0753 39.4974C54.4342 35.0438 50.9127 31.9103 46.2482 31.6277C42.1236 31.3789 38.1508 34.2847 37.1934 38.287C36.9657 39.2359 36.8307 40.2059 36.6199 41.3573C34.8275 41.4838 33.1068 41.6019 31.4873 41.7158C28.4465 35.2083 24.634 32.8381 19.6153 34.1666C15.381 35.2842 12.4794 39.6408 12.7957 44.4023C13.0951 48.8896 16.5998 52.7148 20.8088 53.145C26.2577 53.7017 29.5009 50.9983 31.5969 44.086V44.0775ZM43.8021 55.3971C38.5472 57.472 33.5791 58.2354 28.1176 56.9702C28.4339 56.0381 28.7249 55.3507 28.8767 54.6337C28.94 54.3258 28.7966 53.7691 28.5773 53.6511C28.2357 53.4697 27.6199 53.3853 27.3416 53.5793C26.051 54.4734 26.0131 55.8652 26.0468 57.2696C26.0763 58.6107 26.9283 59.1295 28.067 59.353C33.6846 60.4622 39.1503 59.9013 44.4474 57.7757C45.0294 57.5437 45.6578 57.0208 45.9193 56.4683C46.5097 55.2199 44.8649 52.1033 43.4774 51.7448C43.1105 51.6478 42.5032 51.787 42.2796 52.0526C42.0688 52.2973 42.073 52.9299 42.2459 53.2504C42.5917 53.9083 43.1147 54.4734 43.8063 55.3971H43.8021Z" fill="#CE6626"/>
<path d="M66.0532 74.1009C64.1427 76.7748 62.0635 78.6937 59.7355 80.3258C53.7805 84.5053 47.1972 86.9936 39.9053 87.4659C36.7759 87.6684 33.634 88.01 30.5131 87.8877C24.3599 87.6515 18.5989 85.9434 13.4621 82.4219C12.7873 81.958 12.1631 81.4224 11.4082 80.8404C12.8716 78.9678 14.5966 77.7153 16.4227 76.6061C21.1209 73.7509 26.2451 71.9922 31.5885 70.8324C39.7492 69.0569 47.9689 68.4538 56.2056 70.145C58.7276 70.6637 61.1568 71.6801 63.5902 72.5785C64.4126 72.8821 65.1127 73.5063 66.0532 74.1052V74.1009Z" fill="#ECB591"/>
<path d="M70.0674 44.0174C68.7136 41.9256 67.5201 40.0699 66.1705 37.9823C66.9212 37.278 67.6466 36.5357 68.4352 35.8652C69.8692 34.6463 69.8692 34.1402 68.2455 33.2082C65.8837 31.8502 64.2431 29.8891 63.3617 27.3418C63.0412 26.4224 62.8556 25.3933 62.8936 24.4275C62.9779 22.3737 64.3654 21.3193 66.3392 21.9266C67.5411 22.2977 68.8232 22.9346 69.6709 23.8287C70.9066 25.1361 71.8682 26.7302 72.7876 28.2991C73.7281 29.9017 74.1878 30.0789 75.4868 28.7799C77.3129 26.9664 79.4638 25.9458 82.049 25.9585C86.199 25.9795 89.2819 29.1721 89.1933 33.3221C89.0753 38.8173 83.5631 43.2583 78.3124 42.0648C77.722 41.9298 77.0472 41.8075 76.6086 41.4406C75.2253 40.2808 74.1161 40.77 72.9563 41.7738C72.096 42.5202 71.1555 43.1824 70.0716 44.0216L70.0674 44.0174Z" fill="#CE6626"/>
<path d="M79.0118 12.6775C76.958 11.8678 75.136 11.1508 73.2129 10.3959C73.5418 8.65411 73.8919 6.81954 74.263 4.87109C75.9711 5.52058 77.658 6.16584 79.5643 6.89123C79.3872 8.75955 79.2016 10.6996 79.0118 12.6775Z" fill="#FCEE21"/>
<path d="M31.5963 44.0756C29.5002 50.988 26.257 53.6913 20.8081 53.1346C16.5991 52.7045 13.0945 48.8793 12.795 44.3919C12.4787 39.6305 15.3803 35.2781 19.6146 34.1563C24.6333 32.8278 28.4458 35.198 31.4866 41.7054C33.1061 41.5916 34.8268 41.4735 36.6192 41.347C36.8301 40.1998 36.965 39.2256 37.1928 38.2767C38.1501 34.2744 42.1187 31.3686 46.2475 31.6174C50.9162 31.9 54.4335 35.0335 55.0746 39.4871C55.6397 43.4051 53.0334 47.3736 49.0268 48.6937C45.1046 49.9884 40.8366 48.5798 38.4538 45.189C38.1037 44.6914 37.8043 44.1642 37.4332 43.5695C35.4805 43.7382 33.5194 43.9027 31.5963 44.0672V44.0756ZM15.2116 43.6412C15.2411 47.6436 18.2566 50.7855 22.0565 50.7771C25.8015 50.7644 28.8592 47.5466 28.8887 43.5864C28.9182 39.6136 25.8901 36.3578 22.1408 36.3325C18.2439 36.3072 15.1779 39.5419 15.2116 43.6412ZM46.1168 46.682C49.7775 46.6736 52.7424 43.8394 52.6833 40.4107C52.6243 36.9777 49.6257 34.1478 46.0409 34.1394C42.3 34.131 39.4111 36.8006 39.3816 40.2884C39.3521 43.8099 42.3844 46.6904 46.1168 46.682Z" fill="black"/>
<path d="M43.7984 55.3959C43.1068 54.4723 42.5838 53.9072 42.238 53.2492C42.0693 52.9245 42.0609 52.2961 42.2717 52.0515C42.4953 51.79 43.1026 51.6508 43.4695 51.7436C44.857 52.1063 46.5018 55.2188 45.9114 56.4671C45.6499 57.0196 45.0215 57.5426 44.4395 57.7745C39.1424 59.9043 33.6767 60.4652 28.0591 59.3518C26.9204 59.1283 26.0684 58.6096 26.0389 57.2684C26.0094 55.864 26.0474 54.4681 27.3337 53.5782C27.612 53.3842 28.2278 53.4685 28.5694 53.6499C28.7929 53.768 28.9321 54.3247 28.8688 54.6325C28.7212 55.3495 28.426 56.037 28.1097 56.969C33.5712 58.2342 38.5393 57.4709 43.7942 55.3959H43.7984Z" fill="black"/>
<path d="M15.2092 43.6419C15.1797 39.5426 18.2415 36.3079 22.1384 36.3332C25.8877 36.3585 28.9158 39.6143 28.8863 43.5871C28.8567 47.5473 25.7991 50.7651 22.0541 50.7778C18.2542 50.7904 15.2387 47.6443 15.2092 43.6419Z" fill="#A84E0C"/>
<path d="M46.1143 46.6823C42.3819 46.6907 39.3496 43.8102 39.3791 40.2887C39.4086 36.7966 42.2976 34.1312 46.0384 34.1397C49.6232 34.1481 52.6176 36.978 52.6808 40.411C52.7399 43.8439 49.775 46.678 46.1143 46.6823Z" fill="#A84E0C"/>
<ellipse cx="40.5" cy="119.5" rx="31.5" ry="7.5" fill="#D4CDC7"/>
</svg>
