<svg width="140" height="141" viewBox="0 0 140 141" fill="none" xmlns="http://www.w3.org/2000/svg">
<path d="M39.5458 94.1972C38.8362 92.2462 39.3985 90.0541 38.7964 87.764C35.7445 82.9838 34.4581 77.4821 34.9103 71.6054C35.2527 67.1678 36.5831 62.9865 38.5524 58.9941C38.9596 58.1663 39.2667 57.221 39.3421 56.3062C39.7389 51.4463 42.4396 48.3221 46.7537 46.5323C48.1369 45.9562 49.3582 45.2884 50.4947 44.3339C55.5985 40.0422 61.3171 36.7956 67.5662 34.4815C68.1825 34.253 68.8169 34.0738 69.3376 33.9059C73.9671 35.0612 79.8594 37.9969 87.3125 42.835C88.5266 43.0039 89.7623 43.1373 90.9864 43.3552C96.7616 44.3854 101.011 49.3419 100.374 55.2754C100.353 55.4928 100.376 55.7122 100.382 56.0481C100.782 56.7242 101.231 57.4753 101.672 58.234C104.475 63.0724 106.27 68.2076 106.365 73.8648C106.414 76.9847 105.986 80.0236 104.836 82.9185C104.328 84.199 104.17 85.4459 104.319 86.7826C104.493 88.3145 104.666 89.8464 104.795 91.3805C104.854 92.0866 104.807 92.8044 104.812 93.6497C102.043 94.6683 99.297 93.8155 96.4192 94.2592C95.52 94.8639 94.4377 95.5902 93.1555 96.4536C97.7171 102.721 102.333 108.769 106.873 114.87C111.383 120.926 115.91 126.97 120.371 132.942C120.164 133.997 120.003 134.843 119.812 135.81C119.193 135.917 118.636 136.087 118.073 136.096C116.018 136.117 113.965 136.091 111.911 136.076C94.7434 135.932 77.5753 135.792 60.4079 135.636C49.9911 135.541 39.5717 135.413 29.1549 135.317C28.0675 135.307 26.9823 135.435 25.7906 135.502C25.5654 135.189 25.325 134.851 24.989 134.384C25.364 133.745 25.6984 133.108 26.0957 132.514C32.8126 122.529 39.5454 112.552 46.2506 102.558C47.3084 100.981 48.252 99.3312 49.3381 97.5658C47.8797 96.5817 46.4998 95.6536 45.1397 94.7344C43.3395 94.2777 41.445 95.1798 39.5414 94.2051L39.5458 94.1972ZM51.7868 98.7496C51.011 99.9702 50.2896 101.149 49.5211 102.293C43.1403 111.791 36.7476 121.285 30.3668 130.783C30.0171 131.302 29.7385 131.864 29.3062 132.614L34.4971 132.835C35.0326 133.461 34.8511 134.496 36.1697 134.488C36.6332 134.05 37.2442 133.47 37.9603 132.797C61.356 133.028 84.8084 133.257 107.836 133.484C108.909 134.133 109.148 135.158 110.332 134.982C110.645 134.574 111.022 134.077 111.578 133.353L117.141 133.589C116.391 131.729 92.0851 99.1821 90.7076 98.0074C87.222 99.1451 83.8346 100.255 80.4802 101.349C79.7493 103.13 79.1263 104.943 78.2739 106.634C77.6869 107.789 76.9107 108.925 75.983 109.82C74.4273 111.314 72.5506 110.943 71.7128 108.963C71.2093 107.777 71.0646 106.424 70.869 105.13C70.7304 104.206 70.779 103.254 70.7372 102.144C69.9884 102.161 69.3731 102.175 68.7215 102.188C68.6037 103.246 68.5501 104.125 68.4002 104.988C68.2391 105.924 68.105 106.888 67.7487 107.755C66.671 110.37 64.3888 110.786 62.6467 108.581C61.6682 107.343 61.0257 105.811 60.3638 104.355C59.8869 103.304 59.6285 102.152 59.3392 101.255C56.7713 100.401 54.4228 99.618 51.7952 98.7419L51.7868 98.7496ZM41.586 92.2459C44.6345 92.2583 47.4189 92.3 50.202 92.2768C56.8766 92.2211 63.5486 92.1329 70.2199 92.0609C75.5722 92.0055 80.9262 91.9098 86.284 91.9153C89.6524 91.9171 93.0194 92.0482 96.3828 92.167C98.3612 92.239 100.317 92.1847 102.36 91.5923C102.346 90.6778 102.391 89.8022 102.307 88.9373C101.901 84.7792 101.467 80.628 101.026 76.4724C100.835 74.6769 100.604 72.8878 100.38 71.0222C98.2548 71.0733 96.3645 71.1142 94.6402 71.1541C90.2495 75.9816 86.811 76.1062 81.8225 71.6966C73.6486 72.016 65.3774 72.3395 57.0981 72.6626C53.4926 75.8575 49.7458 76.0054 45.8802 73.1478C44.2685 73.2005 42.6772 73.2501 40.9158 73.3046C41.0099 78.982 41.0882 84.4606 41.203 89.9368C41.2172 90.6491 41.4337 91.3579 41.5823 92.2377L41.586 92.2459ZM65.7292 54.8488C68.3726 54.7834 70.8421 54.7186 73.4126 54.6541C74.6908 48.942 78.5676 45.5484 84.0149 43.4509C83.4419 43.0423 83.0975 42.7729 82.7314 42.539C79.0567 40.2314 75.1741 38.3435 71.1327 36.7644C69.9435 36.2973 68.9024 36.3419 67.7466 36.7982C63.009 38.659 58.5608 41.0376 54.469 44.0662C54.0139 44.4027 53.6082 44.8141 52.827 45.4966C59.0923 46.2241 63.5062 49.0242 65.7292 54.8488ZM86.9286 45.4916C82.0723 46.1504 78.5102 48.5141 76.6685 52.1681C73.8024 57.8491 76.9215 63.9019 83.336 64.9229C85.7618 62.8424 88.5806 62.7399 91.6164 63.8113C94.6299 62.1764 96.8411 59.9129 97.8112 56.5008C94.7358 52.1765 91.0903 48.6125 86.9326 45.4918L86.9286 45.4916ZM41.7841 58.0276C42.4641 61.7202 44.767 63.9533 47.5837 65.3267C49.3708 65.144 50.7651 64.7827 52.1058 64.9206C53.523 65.0659 54.8918 65.6862 56.5849 66.1909C57.1071 65.9867 57.9547 65.7396 58.7275 65.3479C64.3605 62.4981 65.4834 55.8736 61.0107 51.4131C57.8917 48.3041 54.0698 47.2721 49.7662 48.0555C46.5943 51.0384 43.8773 54.2589 41.7841 58.0276ZM91.4853 94.1746C77.598 94.2915 63.7106 94.4084 49.5037 94.5278C58.3713 101.193 80.5872 101.875 91.4853 94.1746ZM66.5589 61.0105C67.7745 61.1431 69.0176 61.4831 70.2081 61.3518C71.4596 61.2109 72.6615 60.6191 73.916 60.2155C73.6645 59.1898 73.406 58.1355 73.1614 57.1384C70.4612 56.5423 68.0435 56.6255 66.098 57.396C65.9746 62.959 62.7383 66.3152 57.7713 68.3401C57.8639 69.0153 57.9374 69.5684 58.0425 70.329C65.8869 69.9632 73.6095 69.7984 81.4625 69.3237C81.5438 68.4577 81.6095 67.769 81.6766 67.0481C78.4436 66.0492 76.0724 64.1852 74.4549 61.4273C72.0367 63.9933 69.2964 63.7716 66.5178 63.0226C65.926 62.3908 65.7884 61.8229 66.555 61.0063L66.5589 61.0105ZM95.0352 68.8093C97.4027 68.7644 99.7216 68.7215 102.138 68.6747C103.325 71.6691 102.829 74.7537 103.688 77.5844C104.73 70.9605 102.982 64.9782 99.6487 59.4096C97.6651 61.5493 95.7959 63.5685 93.8378 65.681C94.1508 66.499 94.5403 67.5144 95.0352 68.8093ZM40.1345 61.0631C37.1898 67.7354 36.1916 74.0903 38.141 80.7363C38.1975 80.9288 38.4261 81.0679 38.7662 81.4382C38.6581 78.5625 38.5727 76.0072 38.4591 73.4508C38.4257 72.7134 38.2952 71.9799 39.2192 71.17C40.8582 71.0457 42.7933 70.9015 44.6351 70.7615C45.0057 69.3701 45.3226 68.1947 45.6589 66.9433C43.3844 65.5606 41.656 63.6997 40.1385 61.0633L40.1345 61.0631ZM88.4001 64.7016C85.944 64.5486 83.6771 66.4093 83.4726 68.746C83.2699 71.0383 84.9836 72.9593 87.4054 73.1593C89.9159 73.3672 92.2578 71.453 92.4956 69.0005C92.7038 66.8621 90.7877 64.8517 88.4001 64.7016ZM51.642 66.6033C50.9327 66.7349 50.1873 66.7679 49.5177 67.0144C48.0305 67.5618 46.8291 69.4719 47.0276 70.7946C47.2576 72.3289 48.9264 73.7828 50.628 73.8027C52.2205 73.8219 53.6557 73.2602 54.8261 72.1737C55.8786 71.1954 55.9359 69.5641 55.0931 68.3677C54.2503 67.1713 53.0326 66.804 51.642 66.6033ZM73.1333 101.999C73.1464 104.256 72.6634 106.391 74.0637 108.359C76.0496 106.733 77.456 103.902 77.4279 101.616C76.129 101.73 74.834 101.849 73.1333 101.999ZM65.2395 107.709C66.2263 105.806 66.4367 103.995 66.2296 102.021C64.7725 101.862 63.4767 101.334 62.0855 101.622C62.4601 104.412 63.3844 106.259 65.2395 107.709ZM97.7031 52.3877C97.1868 49.0296 94.4738 46.3585 91.5852 46.1992C92.6221 47.2057 93.6291 48.1544 94.6024 49.134C95.6028 50.143 96.5651 51.1908 97.7031 52.3877Z" fill="black"/>
<path d="M51.7874 98.7491C54.419 99.6253 56.7675 100.409 59.3314 101.262C59.6207 102.16 59.879 103.311 60.356 104.362C61.0177 105.822 61.6604 107.35 62.6389 108.588C64.3809 110.794 66.663 110.381 67.7409 107.762C68.0972 106.896 68.2313 105.931 68.3924 104.996C68.5423 104.132 68.5959 103.253 68.7137 102.195C69.3653 102.182 69.9765 102.168 70.7294 102.151C70.7711 103.261 70.7225 104.213 70.8612 105.137C71.0568 106.431 71.2015 107.784 71.705 108.97C72.5427 110.951 74.4193 111.326 75.9752 109.827C76.9069 108.932 77.683 107.801 78.2661 106.641C79.1227 104.947 79.7455 103.137 80.4723 101.356C83.8267 100.262 87.2182 99.1524 90.6998 98.0146C92.0772 99.1893 116.383 131.733 117.133 133.596L111.57 133.36C111.018 134.084 110.637 134.582 110.324 134.989C109.136 135.161 108.901 134.14 107.828 133.492C84.8005 133.264 61.3482 133.035 37.9525 132.804C37.2404 133.477 36.6253 134.058 36.1619 134.495C34.8433 134.503 35.0248 133.468 34.4893 132.842L29.2984 132.622C29.7306 131.872 30.0095 131.305 30.359 130.79C36.7398 121.292 43.1325 111.798 49.5133 102.3C50.2818 101.156 50.9993 99.9732 51.779 98.7568L51.7874 98.7491Z" fill="#FC696E"/>
<path d="M41.5871 92.2444C41.4386 91.3646 41.222 90.6558 41.2079 89.9435C41.0931 84.4673 41.0148 78.9887 40.9207 73.3112C42.682 73.2568 44.2733 73.2072 45.885 73.1545C49.7506 76.0121 53.4975 75.8641 57.1029 72.6693C65.3822 72.3462 73.6575 72.0229 81.8274 71.7032C86.8201 76.109 90.2545 75.9842 94.6451 71.1607C96.3654 71.1207 98.2557 71.0758 100.385 71.0288C100.609 72.8945 100.84 74.6836 101.03 76.479C101.473 80.6306 101.906 84.7859 102.312 88.944C102.396 89.8089 102.351 90.6845 102.365 91.599C100.322 92.1914 98.3661 92.2457 96.3877 92.1737C93.0202 92.0547 89.6531 91.9276 86.2889 91.922C80.9351 91.9166 75.5811 92.0124 70.2248 92.0675C63.5535 92.1396 56.8775 92.2276 50.2069 92.2835C47.4237 92.3066 44.6393 92.265 41.5908 92.2526L41.5871 92.2444ZM82.3543 77.2818C81.6635 76.9815 81.2188 76.7887 80.6035 76.5199C79.4573 78.5577 80.6101 80.4508 80.6357 82.3201C80.6472 83.097 80.8973 83.7748 81.9382 83.9283C83.7855 83.0889 82.4524 80.7758 83.838 79.5731C84.735 80.1612 84.4399 81.7743 85.7649 81.9964C87.5883 81.9082 86.8625 79.6734 88.2805 78.9452C88.4162 80.795 88.5395 82.4582 88.6487 83.9792C89.4023 84.7998 90.0048 84.8012 90.734 83.9143C90.7363 81.4841 91.2775 78.8382 89.6473 76.6661C87.8957 75.9203 86.732 76.6593 85.7338 77.5954C84.5776 77.0799 83.4539 76.9741 82.3626 77.2781L82.3543 77.2818ZM42.1336 81.6809C43.3866 83.8815 43.8862 86.4908 46.1309 87.8115C48.0965 87.5191 47.982 85.743 48.7578 84.7125C49.9509 85.564 50.4962 87.0025 52.0213 87.0835C53.3578 86.3721 53.5072 86.2814 53.6712 85.2774C53.9778 83.3939 53.8441 81.4998 53.8008 79.8561C53.0531 78.9913 52.4827 78.9954 51.7262 79.6668C51.6238 80.8392 51.511 82.1607 51.3516 84.006C50.2374 82.5352 49.4603 81.5074 48.687 80.4837L47.3549 80.4271C46.969 81.7047 46.5834 82.9742 46.1129 84.5272C45.2962 83.1944 44.6701 82.1326 43.9899 81.1048C43.8532 80.8968 43.5125 80.8257 43.1766 80.6416C42.8514 80.9674 42.5642 81.2544 42.1378 81.6771L42.1336 81.6809ZM98.3974 78.393C97.6303 75.6065 95.7205 74.7772 93.7543 76.3191C91.5497 78.0491 90.8364 81.6986 92.2309 84.0872C93 85.4018 94.2484 85.7137 95.6286 85.6834C96.9644 85.6513 98.0526 85.0708 98.6975 83.8851C98.8774 83.5531 98.8897 82.9794 98.7178 82.6486C98.5609 82.3426 98.0608 82.2162 97.7019 82.0028C97.0294 82.508 96.457 82.9406 95.8512 83.396C95.3259 83.2928 94.8446 83.1995 94.3031 83.0956C94.1633 82.5801 94.0371 82.1259 93.8659 81.4918C96.0668 81.3712 97.8484 80.8404 98.3974 78.393ZM57.6769 83.988C58.6057 83.5423 59.206 83.309 59.7497 82.9803C60.9866 82.2323 61.2108 81.0489 61.0039 79.7339C60.8445 78.7283 60.3517 77.9552 59.3043 77.6721C58.1329 77.3554 56.8661 77.8555 56.0546 78.9653C55.1485 80.2087 54.9022 81.6257 55.0568 83.1244C55.2598 85.1024 56.4527 86.3379 58.2529 86.8917C59.9174 87.4033 61.3796 86.8711 62.6565 85.3726C62.3888 84.9163 62.1287 84.4726 61.8459 83.9915C60.8344 84.2881 60.0113 84.5321 59.1553 84.7869C58.76 84.5719 58.3925 84.3703 57.6811 83.9841L57.6769 83.988ZM72.1496 81.0411C72.4453 81.8867 72.615 82.9332 73.1379 83.7602C74.7214 86.27 78.0196 86.0221 79.314 83.3516C80.1565 81.6082 79.9575 79.9175 78.8422 78.3779C77.2226 76.1456 74.1892 76.3481 72.8849 78.7755C72.551 79.4002 72.4305 80.1432 72.1498 81.0371L72.1496 81.0411ZM71.7074 77.8439C69.0596 76.967 67.0511 77.8884 66.2757 80.0512C65.422 82.4371 66.4374 85.0886 68.4736 85.798C70.3345 86.4473 71.9244 85.8598 72.5787 84.2621C71.7714 82.7072 70.4634 84.0831 69.4504 83.7489C67.7165 82.3973 67.6804 81.4414 69.3474 79.6117C69.923 79.5796 70.5595 79.542 71.3825 79.4921C71.4908 78.9427 71.5895 78.4293 71.7074 77.8439ZM66.2621 86.359C65.4929 82.5776 64.7602 78.9839 64.0139 75.3289C63.3897 75.363 62.9926 75.3825 62.3968 75.4138C62.2316 78.9167 63.1382 82.1297 63.866 85.3633C64.0089 85.9962 64.2445 86.6371 65.1526 86.8698C65.3589 86.7734 65.6722 86.6331 66.2621 86.359Z" fill="white"/>
<path d="M65.7314 54.8469C63.5124 49.0224 59.0944 46.2221 52.8292 45.4946C53.6104 44.8121 54.012 44.4005 54.4712 44.0642C58.567 41.0358 63.0114 38.653 67.7488 36.7962C68.9043 36.344 69.9455 36.2993 71.1349 36.7624C75.176 38.3456 79.0588 40.2294 82.7335 42.537C83.0998 42.7669 83.4402 43.0361 84.0171 43.4489C78.5656 45.5502 74.693 48.94 73.4148 54.6521C70.8442 54.7166 68.3748 54.7814 65.7314 54.8469Z" fill="#CE6626"/>
<path d="M86.929 45.49C91.0869 48.6067 94.7324 52.1708 97.8076 56.499C96.8373 59.9152 94.6263 62.1746 91.6129 63.8095C88.5771 62.7382 85.7622 62.8409 83.3324 64.9211C76.918 63.8961 73.8028 57.8475 76.6649 52.1664C78.5066 48.5123 82.0687 46.1486 86.925 45.4899L86.929 45.49ZM83.4264 58.5278C85.4599 57.7813 86.1129 56.879 85.9088 55.3094C85.7474 54.0652 84.8117 53.1519 83.4436 52.8956C82.3003 52.6811 81.2259 53.2218 80.7411 54.2566C80.2342 55.3349 80.4785 56.4371 81.5676 57.3569C82.157 57.8551 82.8826 58.1933 83.4305 58.528L83.4264 58.5278Z" fill="#CE6626"/>
<path d="M41.7862 58.026C43.8795 54.2572 46.5965 51.0367 49.7683 48.0539C54.0721 47.2664 57.8941 48.2984 61.0128 51.4114C65.4856 55.8719 64.3626 62.4964 58.7297 65.3463C57.9569 65.738 57.1093 65.985 56.587 66.1892C54.8939 65.6845 53.5252 65.0642 52.108 64.919C50.7632 64.7809 49.3689 65.1421 47.5859 65.3251C44.769 63.9557 42.4662 61.7186 41.7862 58.026ZM54.2136 60.4795C54.8393 60.5061 55.7946 60.6721 56.7094 60.5574C58.4778 60.3374 59.2496 58.6395 58.3316 57.1204C57.7384 56.1408 56.8971 55.4783 55.7071 55.3144C54.5951 55.4086 53.7009 55.8963 53.4584 57.0344C53.222 58.1243 52.6729 59.3383 54.2138 60.4755L54.2136 60.4795Z" fill="#CE6626"/>
<path d="M91.4864 94.1727C80.5883 101.874 58.3726 101.187 49.5049 94.5259C63.7118 94.4065 77.5991 94.2896 91.4864 94.1727Z" fill="#ECB591"/>
<path d="M66.5602 61.0091C65.7934 61.8297 65.927 62.3975 66.523 63.0253C69.3017 63.7703 72.0419 63.9961 74.4601 61.4301C76.0775 64.188 78.4488 66.052 81.6818 67.0508C81.6147 67.7718 81.549 68.4605 81.4677 69.3265C73.6148 69.7971 65.8923 69.9619 58.0477 70.3318C57.9428 69.5671 57.8691 69.0181 57.7765 68.3429C62.7475 66.3181 65.9836 62.966 66.1032 57.3987C68.0487 56.6283 70.4664 56.5451 73.1666 57.1412C73.4112 58.1383 73.6699 59.1885 73.9212 60.2183C72.6667 60.6218 71.4648 61.2137 70.2133 61.3545C69.0228 61.4859 67.7797 61.1459 66.5641 61.0133L66.5602 61.0091Z" fill="#CE6626"/>
<path d="M95.0377 68.8079C94.5428 67.5131 94.1533 66.4977 93.8404 65.6797C95.7985 63.5672 97.6717 61.5482 99.6512 59.4083C102.985 64.9769 104.736 70.9553 103.69 77.5831C102.832 74.7523 103.327 71.6718 102.14 68.6734C99.7242 68.7202 97.4052 68.7631 95.0377 68.8079Z" fill="#CE6626"/>
<path d="M40.138 61.0616C41.6555 63.698 43.3799 65.5587 45.6584 66.9415C45.3219 68.197 45.0091 69.3725 44.6346 70.7598C42.7928 70.8998 40.8578 71.044 39.2188 71.1683C38.2947 71.9782 38.4293 72.7118 38.4586 73.449C38.5722 76.0055 38.6574 78.5648 38.7658 81.4365C38.4297 81.0663 38.1971 80.927 38.1405 80.7346C36.1911 74.0886 37.1893 67.7337 40.134 61.0614L40.138 61.0616Z" fill="#CE6626"/>
<path d="M88.4033 64.7002C90.7908 64.8503 92.703 66.8606 92.4988 68.9991C92.261 71.4517 89.919 73.3659 87.4086 73.158C84.9868 72.9579 83.2771 71.0371 83.4757 68.7447C83.6804 66.4039 85.9473 64.5432 88.4033 64.7002Z" fill="#CE6626"/>
<path d="M51.6439 66.602C53.0345 66.8027 54.2482 67.1698 55.0951 68.3664C55.938 69.5588 55.8807 71.19 54.828 72.1724C53.6576 73.2589 52.2224 73.8206 50.63 73.8013C48.9243 73.7813 47.2595 72.3275 47.0296 70.7932C46.8313 69.4665 48.0325 67.5604 49.5196 67.0131C50.1892 66.7666 50.9347 66.7336 51.6439 66.602Z" fill="#CE6626"/>
<path d="M73.1342 101.997C74.8351 101.843 76.1299 101.728 77.4288 101.613C77.4567 103.903 76.0504 106.735 74.0646 108.357C72.6642 106.389 73.1514 104.254 73.1342 101.997Z" fill="#ECB591"/>
<path d="M65.2423 107.707C63.3873 106.257 62.463 104.41 62.0883 101.62C63.4837 101.328 64.7755 101.856 66.2324 102.019C66.4394 103.997 66.2249 105.808 65.2423 107.707Z" fill="#ECB591"/>
<path d="M82.3531 77.2825C83.4444 76.9785 84.5681 77.0842 85.7243 77.5998C86.7265 76.6638 87.886 75.9287 89.6378 76.6704C91.2721 78.8427 90.727 81.4844 90.7246 83.9187C89.9953 84.8056 89.3888 84.8041 88.6392 83.9836C88.526 82.4624 88.4067 80.7993 88.2711 78.9496C86.8531 79.6778 87.583 81.9127 85.7555 82.0008C84.4305 81.7786 84.7296 80.1657 83.8326 79.5776C82.4471 80.7763 83.7803 83.0895 81.9328 83.9329C80.8919 83.7794 80.6379 83.0973 80.6303 82.3246C80.6089 80.4514 79.452 78.5582 80.598 76.5244C81.2134 76.7932 81.6581 76.986 82.3489 77.2864L82.3531 77.2825Z" fill="#65A2DA"/>
<path d="M42.1328 81.6804C42.5594 81.2537 42.8464 80.9707 43.1716 80.6449C43.5075 80.829 43.8482 80.9001 43.9849 81.1081C44.6651 82.1359 45.2912 83.1977 46.1079 84.5305C46.5784 82.9775 46.964 81.708 47.3499 80.4304L48.6819 80.487C49.4552 81.5107 50.2365 82.5387 51.3466 84.0093C51.506 82.164 51.6188 80.8425 51.7212 79.6701C52.4779 78.9946 53.0482 78.9906 53.7958 79.8594C53.8389 81.5071 53.9728 83.3972 53.6662 85.2807C53.5022 86.2847 53.3528 86.3754 52.0163 87.0868C50.4954 87.0019 49.946 85.5632 48.7528 84.7158C47.9772 85.7423 48.0917 87.5184 46.1259 87.8148C43.8812 86.4941 43.3815 83.8848 42.1286 81.6842L42.1328 81.6804Z" fill="#65A2DA"/>
<path d="M98.398 78.3937C97.8491 80.8411 96.0675 81.3719 93.8665 81.4926C94.0418 82.1268 94.164 82.5809 94.3038 83.0963C94.8453 83.2002 95.3266 83.2935 95.8519 83.3967C96.4576 82.9413 97.03 82.5087 97.7026 82.0035C98.0615 82.2169 98.5616 82.3434 98.7184 82.6493C98.8863 82.9799 98.8781 83.5538 98.6982 83.8858C98.0493 85.0713 96.9651 85.652 95.6293 85.6841C94.2531 85.7146 93.0006 85.4025 92.2316 84.0879C90.837 81.6993 91.5503 78.0498 93.755 76.3198C95.7214 74.7738 97.635 75.6074 98.398 78.3937ZM94.6881 79.1012C95.349 78.9649 95.7719 78.623 95.957 78.0755C95.3685 78.1583 94.9455 78.5002 94.6881 79.1012Z" fill="#65A2DA"/>
<path d="M57.6782 83.9879C58.3897 84.374 58.7572 84.5757 59.1524 84.7907C60.0082 84.54 60.8314 84.296 61.843 83.9953C62.126 84.4723 62.3862 84.9161 62.6537 85.3763C61.3768 86.8748 59.9146 87.4071 58.2501 86.8955C56.4497 86.3458 55.2568 85.1102 55.054 83.1282C54.8994 81.6294 55.1497 80.2126 56.0518 78.9691C56.8594 77.855 58.1301 77.3591 59.3014 77.6759C60.3489 77.959 60.8459 78.7283 61.0011 79.7377C61.2082 81.0486 60.9797 82.2359 59.7469 82.9841C59.2032 83.3128 58.6029 83.5461 57.674 83.9918L57.6782 83.9879ZM57.3552 81.2204C58.7038 81.1726 58.9951 80.9788 58.872 80.2618C58.7588 80.164 58.6108 80.0323 58.3378 79.7943C58.0101 80.2737 57.7129 80.7018 57.3592 81.2205L57.3552 81.2204Z" fill="#65A2DA"/>
<path d="M72.1519 81.0412C72.4366 80.1475 72.5531 79.4044 72.887 78.7796C74.1913 76.3522 77.2247 76.1497 78.8443 78.382C79.9595 79.9216 80.1586 81.6123 79.3161 83.3557C78.0217 86.0262 74.7235 86.2741 73.14 83.7643C72.6171 82.9373 72.4473 81.8908 72.1517 81.0452L72.1519 81.0412ZM75.9048 79.1345C74.0311 80.6885 74.1596 82.0405 76.1765 83.109C78.0413 81.8579 77.9858 80.5008 75.9048 79.1345Z" fill="#65A2DA"/>
<path d="M71.7075 77.8442C71.5934 78.4338 71.4907 78.947 71.3826 79.4924C70.5596 79.5423 69.9231 79.5799 69.3475 79.612C67.6803 81.4457 67.7166 82.3976 69.4505 83.7492C70.4634 84.0834 71.7715 82.7076 72.5788 84.2624C71.9247 85.8561 70.3388 86.4437 68.4737 85.7983C66.4335 85.0887 65.4221 82.4374 66.2758 80.0515C67.0512 77.8887 69.0597 76.9673 71.7075 77.8442Z" fill="#65A2DA"/>
<path d="M66.2632 86.3593C65.6735 86.6295 65.36 86.7738 65.1537 86.8702C64.2457 86.6375 64.0101 85.9966 63.8672 85.3637C63.1394 82.1301 62.2328 78.9171 62.398 75.4141C62.9937 75.3829 63.3908 75.3634 64.015 75.3293C64.7613 78.9843 65.49 82.5778 66.2632 86.3593Z" fill="#65A2DA"/>
<path d="M83.4304 58.5285C82.8827 58.1898 82.1569 57.8556 81.5675 57.3574C80.4784 56.4376 80.2341 55.3354 80.741 54.257C81.2298 53.2224 82.3042 52.6818 83.4435 52.896C84.8156 53.1525 85.7473 54.0656 85.9087 55.3099C86.1128 56.8795 85.4598 57.7818 83.4263 58.5283L83.4304 58.5285Z" fill="black"/>
<path d="M54.2148 60.4797C52.678 59.3427 53.227 58.1287 53.4594 57.0386C53.706 55.9007 54.6002 55.413 55.7082 55.3186C56.8982 55.4825 57.7394 56.1451 58.3326 57.1246C59.2467 58.6395 58.4788 60.3416 56.7104 60.5616C55.7916 60.6762 54.8403 60.5103 54.2146 60.4837L54.2148 60.4797Z" fill="black"/>
<path d="M94.6885 79.1012C94.9458 78.5029 95.3688 78.161 95.9574 78.0755C95.7752 78.6204 95.3522 78.9623 94.6885 79.1012Z" fill="white"/>
<path d="M57.3558 81.2203C57.7135 80.7017 58.0068 80.2694 58.3344 79.794C58.6073 80.0321 58.7554 80.1638 58.8685 80.2616C58.9957 80.9787 58.7044 81.1725 57.3517 81.2201L57.3558 81.2203Z" fill="white"/>
<path d="M75.9038 79.1348C77.985 80.4971 78.0403 81.8582 76.1755 83.1093C74.1586 82.0408 74.0259 80.6926 75.9038 79.1348Z" fill="white"/>
<path d="M5.92221 1.82853C5.92221 1.82853 7.51719 7.39595 14.1847 12.2612C14.1847 12.2612 19.296 10.6468 19.3544 9.27442L14.2344 0.350309C14.2344 0.350309 10.9361 2.50283 5.92221 1.82853Z" fill="#C7EB9F"/>
<path d="M118.692 68.2371C118.692 68.2371 123.809 70.9539 131.941 69.5286C131.941 69.5286 134.325 64.729 133.376 63.7343L123.398 61.2272C123.398 61.2272 122.655 65.0938 118.692 68.2371Z" fill="#C7EB9F"/>
<path d="M32.8261 25.2943L32.5829 31.01C32.5829 31.01 36.2529 30.2927 38.7778 27.9738C41.3027 25.655 41.3371 24.8477 41.3371 24.8477C41.3371 24.8477 40.7702 19.1622 39.2071 17.8826C39.2071 17.8826 36.9656 23.0442 32.8261 25.2943Z" fill="#FCEBA9"/>
<path d="M112.048 14.6447L109.898 19.9477C109.898 19.9477 113.594 20.5053 116.753 19.1677C119.911 17.8301 120.214 17.0828 120.214 17.0828C120.214 17.0828 121.59 11.5366 120.548 9.80601C120.548 9.80601 116.701 13.9126 112.048 14.6447Z" fill="#FEA8FF"/>
<path d="M127.551 109.533L129.835 114.778C129.835 114.778 132.822 112.527 134.074 109.337C135.326 106.147 135.005 105.406 135.005 105.406C135.005 105.406 132.006 100.543 130.04 100.075C130.04 100.075 130.282 105.698 127.547 109.533L127.551 109.533Z" fill="#FFC6C8"/>
<path d="M76.4041 122.29L73.7382 127.353C73.7382 127.353 77.3626 128.275 80.6369 127.258C83.9111 126.241 84.2892 125.529 84.2892 125.529C84.2892 125.529 86.2085 120.147 85.3438 118.323C85.3438 118.323 81.11 122.029 76.4041 122.29Z" fill="#FFC6C8"/>
<path d="M111.9 96.1898L111.657 101.906C111.657 101.906 115.327 101.188 117.852 98.8693C120.377 96.5505 120.411 95.7432 120.411 95.7432C120.411 95.7432 119.844 90.0577 118.281 88.7781C118.281 88.7781 116.04 93.9397 111.9 96.1898Z" fill="#FCEBA9"/>
<path d="M55.2852 20.1846C55.2852 20.1846 58.2224 27.184 60.5756 28.9016L64.7323 26.2478C64.7323 26.2478 62.4266 23.319 61.7395 20.4592C61.7395 20.4592 57.6727 21.0949 55.2852 20.1846Z" fill="#FFC6C8"/>
<path d="M75.2254 7.68816C75.2254 7.68816 79.8116 13.949 82.5685 15.6838C82.5685 15.6838 86.2872 13.8201 86.7252 13.0299C86.7252 13.0299 82.4396 9.2082 81.7182 7.15561C81.7182 7.15561 79.2447 8.26353 75.2254 7.68816Z" fill="#C7EB9F"/>
<path d="M99.825 37.8512C99.825 37.8512 104.411 44.1121 107.168 45.8469C107.168 45.8469 110.887 43.9832 111.325 43.193C111.325 43.193 107.039 39.3713 106.318 37.3187C106.318 37.3187 103.844 38.4266 99.825 37.8512Z" fill="#FFC6C8"/>
<path d="M4.7762 114.278C4.7762 114.278 9.36241 120.539 12.1193 122.274C12.1193 122.274 15.838 120.41 16.276 119.62C16.276 119.62 11.9904 115.798 11.2689 113.745C11.2689 113.745 8.79552 114.853 4.7762 114.278Z" fill="#FFC6C8"/>
<path d="M18.2684 90.569C18.2684 90.569 23.9058 85.2365 25.2849 82.2866C25.2849 82.2866 22.9692 78.8317 22.1344 78.4929C22.1344 78.4929 18.8761 83.223 16.9301 84.1957C16.9301 84.1957 18.3399 86.5121 18.2684 90.569Z" fill="#FFC6C8"/>
<path d="M7.76132 100.527C7.76132 100.527 14.2655 104.762 17.4569 105.408C17.4569 105.408 20.2762 102.349 20.4071 101.457C20.4071 101.457 15.0478 99.3972 13.6466 97.7322C13.6466 97.7322 11.7254 99.644 7.76132 100.527Z" fill="#C7EB9F"/>
<path d="M90.6098 117.537C90.6098 117.537 82.8496 117.445 79.837 116.209C79.837 116.209 79.1909 112.101 79.5815 111.285C79.5815 111.285 85.1809 112.55 87.273 111.944C87.273 111.944 87.8111 114.599 90.6139 117.537L90.6098 117.537Z" fill="#C7EB9F"/>
<path d="M120.454 123.244C120.454 123.244 125.04 129.505 127.797 131.239C127.797 131.239 131.516 129.376 131.954 128.586C131.954 128.586 127.668 124.764 126.947 122.711C126.947 122.711 124.473 123.819 120.454 123.244Z" fill="#C7EB9F"/>
<path d="M17.5116 36.0303C17.5116 36.0303 11.1707 40.504 9.38482 43.2263C9.38482 43.2263 11.1824 46.9786 11.9639 47.4284C11.9639 47.4284 15.8636 43.2108 17.9266 42.5302C17.9266 42.5302 16.864 40.0385 17.5116 36.0303Z" fill="#FEA8FF"/>
<path d="M35.8456 134.808C35.6761 134.801 35.5082 134.753 35.3546 134.658C34.8819 134.362 34.7344 133.742 35.0297 133.265L55.2161 100.762C55.5112 100.29 56.1321 100.142 56.6088 100.437C57.0815 100.732 57.229 101.353 56.9338 101.83L36.7474 134.333C36.5478 134.652 36.1968 134.823 35.8456 134.808Z" fill="#F6D482"/>
<path d="M110.242 135.142C109.94 135.13 109.647 134.98 109.456 134.713L85.6274 100.742C85.3072 100.284 85.4189 99.6534 85.8732 99.3371C86.3316 99.0169 86.9617 99.1287 87.278 99.5829L111.107 133.554C111.427 134.012 111.315 134.642 110.861 134.958C110.673 135.092 110.452 135.151 110.238 135.142L110.242 135.142Z" fill="#F6D482"/>
<path d="M52.6211 120.762L52.3779 126.478C52.3779 126.478 48.7822 125.452 46.4633 122.927C44.1444 120.402 44.1788 119.594 44.1788 119.594C44.1788 119.594 45.2265 113.978 46.8926 112.835C46.8926 112.835 48.6876 118.169 52.6211 120.762Z" fill="#FCEBA9"/>
</svg>
