<svg width="86" height="123" viewBox="0 0 86 123" fill="none" xmlns="http://www.w3.org/2000/svg">
<path d="M12.7552 111.101C12.7552 111.101 5.6661 103.066 15.1182 95.9773C24.5704 88.8882 47.2555 78.9634 58.1255 84.1621C68.9954 89.3608 88.3109 101.176 83.6132 111.101C78.9155 121.025 66.1598 122.443 47.7281 118.662C29.2964 114.882 26.4608 120.553 12.7552 111.101Z" fill="#97D1F7"/>
<path d="M63.9897 122.244C59.2731 122.244 53.7814 121.592 47.3965 120.283C40.5201 118.87 35.9689 118.808 31.9517 118.752C25.425 118.662 20.7084 118.596 11.8186 112.461L11.6532 112.348L11.5209 112.197C11.3791 112.041 8.10396 108.26 8.60965 103.326C8.9452 100.074 10.8026 97.1582 14.1344 94.6581C23.8843 87.3469 47.1649 77.0866 58.8478 82.6728C64.3017 85.2816 91.2025 98.9446 85.12 111.809C82.6246 117.088 77.9175 120.396 71.1308 121.649C68.9757 122.046 66.608 122.244 63.9992 122.244H63.9897ZM13.8839 109.871C21.819 115.302 25.6613 115.354 31.9942 115.443C35.95 115.5 40.8745 115.566 48.0581 117.041C67.2838 120.987 78.1065 118.87 82.1189 110.391C84.2457 105.897 79.7606 100.689 75.6253 97.1062C69.2168 91.5625 60.7524 87.2476 57.4111 85.6502C47.9495 81.1274 26.2852 89.6626 16.1099 97.2952C13.5578 99.2093 12.14 101.341 11.8943 103.628C11.5682 106.672 13.4019 109.252 13.8839 109.867V109.871Z" fill="#7DB3E4"/>
<path d="M80.4409 98.5337C79.3256 101.308 76.9531 102.088 74.4199 102.074C72.0522 102.059 69.6891 101.487 66.9575 101.114C62.6756 104.763 57.959 108.506 51.3331 108.359C50.4493 109.205 49.5324 110.098 48.5919 110.963C48.2139 111.313 47.8027 111.63 47.3773 111.913C44.5228 113.818 42.6418 113.099 41.7014 109.768C41.6588 109.607 41.5454 109.47 41.413 109.219C32.0412 108.09 23.506 104.479 15.3157 99.753C11.6672 83.949 14.4508 69.9646 26.1715 58.4094C31.4127 53.2438 37.8354 50.2238 45.2128 49.685C54.2443 49.0281 61.8864 52.2182 68.0965 58.7591C72.9738 63.8916 75.6156 70.1206 76.9673 77.0253C77.9125 81.8459 76.8255 86.2081 74.7555 90.4663C74.349 91.3028 73.9095 92.1251 73.3707 93.1838C76.2725 94.285 79.4815 94.7859 80.4362 98.5431L80.4409 98.5337ZM53.7198 105.349C56.5554 104.763 58.9231 104.186 60.4591 101.747C62.6756 98.2312 63.7863 94.3984 63.8241 90.2914C63.9186 79.5632 59.8494 70.5317 52.1318 63.2252C46.8764 58.2487 40.6805 55.4367 33.3031 56.5142C21.0248 63.7829 13.2835 80.9244 18.0096 98.0327C24.541 101.828 31.6159 104.578 39.1493 106.138C40.5387 106.426 41.8809 106.247 42.8829 105.481C44.2109 103.671 45.416 102.026 46.5078 100.538C47.9067 100.33 48.3604 100.906 48.4454 102.182C48.0815 102.721 47.5664 103.397 47.1363 104.125C46.3093 105.524 45.4869 106.932 44.7638 108.388C44.5417 108.837 44.6362 109.446 44.5417 110.51C45.624 109.701 46.3943 109.3 46.9378 108.69C48.2422 107.22 49.4521 105.665 50.6809 104.129C51.4701 103.146 51.9853 101.889 53.5921 101.388C53.9844 101.729 54.4428 102.13 54.9107 102.541C54.509 103.491 54.1924 104.243 53.7198 105.358V105.349ZM65.4688 98.2029C66.2911 97.4987 66.8109 97.1962 67.137 96.7567C68.6588 94.6819 70.313 92.6781 71.5701 90.4521C73.8859 86.3499 75.1005 82.1295 74.0844 77.1671C72.9501 71.6376 70.9982 66.6374 67.4962 62.2847C62.7465 56.3771 56.5838 52.9791 48.9653 52.4167C46.1675 52.2088 43.398 52.4262 40.6474 53.5415C50.1563 56.2495 56.8484 62.3273 61.5792 70.6924C66.3667 79.1568 68.0208 88.16 65.4735 98.2029H65.4688ZM77.5108 98.2927C75.7574 96.3077 73.5456 96.4306 71.4472 95.8257C70.9132 96.9457 69.7506 97.527 69.571 98.874C72.2554 99.4695 74.8122 100.112 77.5108 98.2974V98.2927Z" fill="black"/>
<path d="M40.4073 0.00472528C41.2344 0.051986 41.7164 0.0803432 42.4301 0.118152C42.586 1.00665 42.8271 1.81481 42.8507 2.63242C43.1248 12.5052 43.3705 22.3779 43.6021 32.2507C43.621 33.0778 43.4793 33.9095 43.4084 34.8264C42.7278 34.9304 42.2552 35.0013 41.9149 35.0485C40.9319 34.3963 40.913 33.522 40.8941 32.6571C40.6389 22.5244 40.3837 12.3965 40.1474 2.26379C40.1332 1.60686 40.2939 0.945214 40.412 0L40.4073 0.00472528Z" fill="black"/>
<path d="M15.1791 55.3372C14.5459 55.7058 14.1914 55.9138 13.9126 56.0745C12.4049 55.7625 12.4806 54.6566 12.4428 53.6311C12.3152 50.2945 12.1875 46.9579 12.0836 43.6213C11.8945 37.5435 11.715 31.4705 11.5401 25.3928C11.507 24.2964 11.5401 23.1999 11.5401 22.4012C12.4002 21.3851 13.0619 21.3284 14.0827 22.1649C14.6688 33.0018 14.7822 44.0986 15.1839 55.3325L15.1791 55.3372Z" fill="black"/>
<path d="M70.6099 14.0312C70.6714 14.8252 70.7753 15.657 70.799 16.4982C71.0542 25.5676 71.2952 34.6416 71.5362 43.711C71.5646 44.8121 71.7206 46.0031 69.9955 46.4332C69.6883 46.0551 69.1637 45.677 69.0314 45.1902C68.8093 44.3773 68.7904 43.4983 68.7667 42.6476C68.5399 33.7484 68.3272 24.8445 68.1098 15.9453C68.0956 15.4349 68.1098 14.9245 68.1098 14.5558C68.6675 13.4688 69.3197 13.1758 70.6099 14.0265V14.0312Z" fill="black"/>
<path d="M79.9824 34.5805C80.8 33.6967 81.457 33.6116 82.3124 34.4198C82.3927 34.8357 82.5676 35.4075 82.6054 35.9841C83.1016 43.6073 83.5884 51.2304 84.0563 58.8583C84.1272 60.0209 84.3966 61.3442 82.785 61.7223C81.7594 61.5616 81.49 60.8905 81.4192 60.0493C81.3294 58.9386 81.2017 57.828 81.1356 56.7126C80.7433 50.1151 80.3605 43.5175 79.9871 36.9151C79.9399 36.0739 79.9824 35.2232 79.9824 34.5757V34.5805Z" fill="black"/>
<path d="M2.16762 43.7354C2.3803 44.7278 2.63551 45.3753 2.64969 46.0322C2.78675 53.7168 3.524 61.3872 3.40112 69.1569C2.77255 69.3601 2.32359 69.5066 1.90297 69.6437C1.61468 69.3885 1.31694 69.2561 1.26023 69.0529C1.05701 68.3204 0.830135 67.5689 0.797053 66.8128C0.504036 59.9647 0.248832 53.1213 0.00307649 46.2732C-0.0205539 45.6069 0.0976106 44.9358 0.163776 44.1182C0.782891 44 1.31221 43.9008 2.16762 43.7401V43.7354Z" fill="black"/>
<path d="M24.712 10.9971C25.851 11.2806 26.04 12.0037 26.0589 12.8166C26.0826 13.8422 26.0873 14.8724 26.0967 15.9027C26.1487 21.2148 26.2149 26.5269 26.2433 31.839C26.248 32.8362 26.0873 33.8334 25.9928 34.963C25.2319 35.0102 24.6931 35.0433 24.1969 35.0717C23.9795 34.7078 23.7715 34.5093 23.7337 34.2777C23.625 33.6066 23.5305 32.9213 23.521 32.2408C23.4549 26.0732 23.4029 19.9057 23.3603 13.7335C23.3509 12.6323 23.1949 11.4319 24.712 10.9971Z" fill="black"/>
<path d="M56.8195 29.3579C56.3658 29.5375 55.9878 29.684 55.6947 29.8022C54.2391 29.2209 54.3525 28.0204 54.2958 26.9334C54.0501 22.4106 53.8374 17.8877 53.5964 13.3649C53.5302 12.0841 53.3837 10.8081 53.3411 9.52733C53.3128 8.70026 53.4073 7.86847 53.4593 6.82874C54.2674 6.7862 54.8724 6.75312 55.2836 6.72949C56.2099 7.73615 57.3063 25.4211 56.8243 29.3532L56.8195 29.3579Z" fill="black"/>
<path d="M53.7204 105.349C54.193 104.234 54.5096 103.487 54.9113 102.532C54.4387 102.121 53.985 101.719 53.5927 101.379C51.9859 101.88 51.4708 103.137 50.6815 104.12C49.4527 105.656 48.2428 107.211 46.9384 108.681C46.3997 109.291 45.6293 109.692 44.5423 110.5C44.6416 109.437 44.5423 108.827 44.7645 108.378C45.4875 106.923 46.3099 105.519 47.1369 104.115C47.567 103.388 48.0774 102.712 48.4461 102.173C48.361 100.897 47.9073 100.32 46.5084 100.528C45.4167 102.017 44.2115 103.662 42.8835 105.472C41.8863 106.242 40.5441 106.417 39.1499 106.129C31.6118 104.574 24.5416 101.823 18.0102 98.0236C13.2841 80.9152 21.0301 63.7785 33.3037 56.5051C40.6811 55.4275 46.877 58.2395 52.1324 63.2161C59.8501 70.5226 63.9192 79.5541 63.8247 90.2823C63.7869 94.3892 62.6762 98.2221 60.4597 101.738C58.919 104.182 56.556 104.754 53.7204 105.34V105.349Z" fill="#CE6626"/>
<path d="M65.4686 98.2033C68.016 88.1604 66.3619 79.1525 61.5744 70.6928C56.8436 62.3277 50.1514 56.25 40.6426 53.5419C43.3932 52.4266 46.1626 52.2092 48.9605 52.4171C56.5789 52.9795 62.7417 56.3776 67.4914 62.2852C70.9934 66.6426 72.9453 71.6381 74.0795 77.1676C75.0956 82.1299 73.8858 86.3503 71.5653 90.4525C70.3081 92.6785 68.654 94.6871 67.1322 96.7571C66.8061 97.2014 66.2862 97.5038 65.4639 98.2033H65.4686Z" fill="#ECB591"/>
<path d="M77.5101 98.293C74.8115 100.113 72.2547 99.4651 69.5703 98.8696C69.7499 97.5227 70.9125 96.9414 71.4465 95.8213C73.5449 96.4262 75.752 96.3033 77.5101 98.2883V98.293Z" fill="white"/>
</svg>
