<svg width="98" height="134" viewBox="0 0 98 134" fill="none" xmlns="http://www.w3.org/2000/svg">
<path d="M91.0466 127.115C91.0466 127.115 60.7132 139.706 34.3861 128.259C8.05906 116.813 23.5119 85.3348 23.5119 85.3348C23.5119 85.3348 36.1031 79.6115 52.1283 82.4731C68.1535 85.3348 73.8023 81.6719 73.8023 81.6719C73.8023 81.6719 88.7572 83.0455 95.0529 93.9197C101.348 104.794 95.6252 123.681 91.0466 127.115Z" fill="#B2ABAB"/>
<path d="M84.6272 91.9434C85.3941 94.6905 86.1668 97.266 86.8135 99.8758C87.2313 101.581 87.7349 103.333 87.7178 105.061C87.6834 109.245 83.8374 111.792 79.8712 110.493C78.2572 109.966 77.2327 108.884 76.689 107.322C76.0366 105.473 75.4242 103.607 74.6916 101.461C72.3164 102.423 70.0901 103.453 67.7779 104.22C65.5172 104.97 63.1878 105.57 60.847 106.023C58.4146 106.492 55.9364 106.704 53.1263 107.076C53.2923 108.083 53.3896 108.959 53.5784 109.806C54.0363 111.832 53.6528 113.657 52.7028 115.512C50.2246 120.331 44.1751 119.77 41.7885 116.433C40.6095 114.785 39.8769 112.776 39.173 110.842C38.5434 109.113 38.2286 107.265 37.7593 105.416C34.8805 104.689 32.0875 104.243 29.5063 103.247C27.0339 102.297 24.7846 100.78 22.4781 99.5439C22.1863 99.9044 22.0203 100.042 21.9344 100.225C20.0515 104.071 17.2471 105.187 13.3037 103.281C11.1804 102.257 9.07423 100.929 7.39731 99.2921C5.108 97.06 3.1392 94.4673 1.22762 91.8919C0.529385 90.9532 0.134481 89.6312 0.0314618 88.4465C-0.357721 83.8964 2.91027 81.4755 7.25423 83.038C8.48474 83.4844 9.6294 84.1769 11.1232 84.9095C11.003 83.988 10.9629 83.3985 10.837 82.8205C8.74801 73.1195 10.568 64.0138 15.1981 55.4117C21.6197 43.4787 31.292 34.9167 43.2651 28.8099C44.364 28.249 45.4686 27.6996 46.6819 27.0815C46.6819 25.851 46.7048 24.7235 46.6819 23.6017C46.6132 20.4826 46.5045 17.3691 46.4472 14.2499C46.4301 13.2369 46.2297 12.1209 47.4145 11.3997C48.9826 11.1822 49.2459 12.2353 49.2688 13.4944C49.3318 16.9227 49.389 20.3566 49.4348 23.7849C49.452 25.0211 49.4348 26.2573 49.4348 27.6309C50.5737 28.2376 51.5524 28.7928 52.554 29.2907C62.4609 34.1841 71.2061 40.5827 78.2515 49.1676C82.5153 54.3586 85.8405 60.0704 87.7464 66.5606C89.6065 72.902 89.7667 79.2091 87.7807 85.5905C87.0997 87.7883 86.5846 89.9803 84.6215 91.9491L84.6272 91.9434ZM46.7162 30.1721C45.4743 30.6585 44.6043 30.9161 43.8088 31.3224C35.0636 35.7923 27.6348 41.8647 21.7398 49.7399C17.5161 55.3831 14.477 61.5871 13.0347 68.5409C12.5941 70.6757 12.8115 72.6273 13.6986 74.6018C15.0436 77.5837 16.8522 80.2278 19.2216 82.4542C20.2804 83.45 21.5624 84.2112 22.7414 85.0754C22.5697 85.23 22.398 85.3902 22.2263 85.5448C23.3366 86.077 24.4756 86.5578 25.5573 87.1473C27.1026 87.9886 28.5448 89.0359 30.1359 89.7685C38.5434 93.6375 47.4145 94.8851 56.5889 94.1526C57.4703 94.0839 58.323 93.7405 59.2044 93.523C59.5707 89.6712 58.8667 86.0255 59.5764 82.2195C62.7815 81.733 65.8091 80.68 69.0255 81.3439C70.2332 84.2341 69.8211 87.3018 71.1832 90.1062C73.1749 89.5625 74.7202 88.5266 76.2426 87.4849C80.9357 84.2742 84.4326 80.1706 85.852 74.5103C86.2927 72.7532 86.3156 71.0477 85.8863 69.2792C84.8046 64.7807 82.9503 60.6256 80.5236 56.7109C76.3056 49.9059 70.7711 44.3257 64.4469 39.4781C63.0733 38.425 61.8543 37.1602 60.1659 35.6263C57.2356 34.3043 53.7845 32.7418 49.9098 30.9962C49.8812 32.4328 49.8468 33.4343 49.8526 34.4359C49.8526 35.9926 49.9041 37.5551 49.8984 39.1118C49.8984 40.1363 49.5721 40.9547 48.2214 41.1779C47.8609 40.9147 47.3858 40.5713 46.7048 40.0733V30.1606L46.7162 30.1721ZM52.3651 103.928C53.0691 104.06 53.4697 104.22 53.8589 104.197C62.0031 103.762 69.6322 101.724 76.3513 96.8826C80.5293 93.8721 83.3166 89.8086 85.2167 85.0926C85.5372 84.2914 85.646 83.3985 85.9378 82.2138C83.4482 84.5832 81.4336 86.8153 79.0928 88.641C76.7463 90.4668 74.0792 91.8861 71.4694 93.5287V97.4034C67.7092 98.5366 64.1894 99.9216 60.2747 99.8701C59.8511 98.6682 59.5192 97.7296 59.1872 96.7853C58.0884 96.7853 57.1612 96.7395 56.2397 96.791C44.9019 97.4549 34.1765 95.7436 24.3497 89.4995C20.7841 87.2331 17.6248 84.692 14.9234 81.5041C14.414 80.9032 13.899 80.2965 13.2179 79.4952C13.1092 90.5011 25.397 101.616 36.4315 101.896C36.504 100.133 37.1469 99.1337 38.3602 98.8971C38.9669 101.249 40.2146 103.373 40.5294 105.885C40.7869 107.928 41.4222 109.949 42.0975 111.906C42.4924 113.057 43.1334 114.218 43.9576 115.1C46.0351 117.309 48.914 116.828 50.4306 114.195C51.2033 112.862 51.3235 111.534 50.9343 110.012C50.3734 107.808 50.0128 105.548 49.658 103.293C49.5492 102.6 49.6236 101.833 49.824 101.158C50.133 100.128 50.6939 100.042 52.3537 100.66V103.928H52.3651ZM2.76719 85.8366C2.32649 87.6338 2.19486 89.0703 3.05335 90.3809C5.80625 94.5646 8.91398 98.405 13.4239 100.86C15.1409 101.793 16.8808 102.137 18.9755 101.295C19.4563 100.328 19.9828 99.2577 20.5494 98.1188C19.2846 96.9284 18.1685 95.881 17.0468 94.8336C14.2653 95.881 11.8443 95.8867 9.8755 93.2597C10.1788 92.7733 10.4764 92.3097 10.7111 91.9319C12.3136 92.0349 13.3152 94.2441 15.2268 92.5558C14.4198 91.2222 13.63 89.9288 12.9031 88.7326C12.0961 88.6067 11.4895 88.5151 10.9858 88.435C8.4733 86.7409 6.49304 83.6561 2.76719 85.8366ZM79.2874 107.516C83.7058 109.033 85.8176 107.362 85.1022 103.441C84.6043 100.711 83.6829 98.0902 82.4409 95.2171C80.4893 96.8768 78.7895 98.3248 76.8779 99.9445C77.702 102.531 78.509 105.067 79.2874 107.516ZM62.4037 90.7587C62.295 93.048 62.1748 95.1827 63.1764 97.2889C65.1394 97.5465 66.8908 97.2031 68.768 96.0584C68.6077 94.4044 68.4418 92.6989 68.293 91.2394C66.2612 89.7514 64.5385 89.0875 62.398 90.7587H62.4037ZM61.9573 84.6004C62.0374 85.911 62.1004 86.8783 62.1633 87.9027C64.0635 88.126 65.6545 88.2118 67.4745 87.5937C67.2055 86.3632 66.9537 85.2242 66.6676 83.9193C65.0307 84.154 63.7258 84.3429 61.9516 84.6004H61.9573Z" fill="black"/>
<path d="M0.15223 17.8559C1.10229 17.7529 1.57733 17.7014 2.25268 17.627C2.48733 18.5083 2.83645 19.281 2.87079 20.0651C3.17984 27.5168 3.43739 34.9742 3.69494 42.4316C3.72928 43.3989 3.62627 44.326 2.453 44.6523C1.29117 44.4977 0.97638 43.6621 0.919147 42.6663C0.856191 41.5273 0.861924 40.3884 0.821861 39.2495C0.598653 33.3488 0.363991 27.4481 0.15223 21.5417C0.112167 20.4256 0.146519 19.3039 0.146519 17.8559H0.15223Z" fill="black"/>
<path d="M85.4064 18.7031C86.076 18.8348 86.551 18.9263 87.3008 19.0751C87.9933 26.9675 88.5771 34.797 88.7602 42.8611C87.9647 43.0271 87.3523 43.153 86.8487 43.256C86.5625 42.8782 86.3736 42.7294 86.3278 42.552C85.3549 38.271 84.628 21.4274 85.4007 18.7031H85.4064Z" fill="black"/>
<path d="M72.1549 27.4671C70.9359 27.2267 70.81 26.2938 70.7241 25.338C70.581 23.684 70.4265 22.03 70.3063 20.3702C69.9629 15.6027 69.6138 10.8352 69.3105 6.06776C69.2475 5.07191 69.0129 3.92725 70.4723 3.33203C70.8042 3.50373 71.2392 3.73266 71.8173 4.03027C72.1893 8.37996 72.5727 12.7182 72.939 17.0622C73.1565 19.6491 73.3854 22.236 73.54 24.8287C73.6029 25.939 73.7746 27.2153 72.1549 27.4671Z" fill="black"/>
<path d="M30.3086 10.1699C31.8997 10.4733 31.8195 11.7152 31.871 12.8312C32.0599 17.0607 32.2488 21.296 32.3804 25.5312C32.4491 27.6946 32.3919 29.858 32.3919 32.2446C32.037 32.4907 31.5677 32.8112 31.19 33.0745C29.7477 32.6452 29.6275 31.6322 29.6046 30.562C29.5703 29.0109 29.536 27.4599 29.4787 25.9147C29.3185 21.5764 29.1353 17.2439 28.9808 12.9056C28.9407 11.7724 28.8663 10.5706 30.3086 10.1756V10.1699Z" fill="black"/>
<path d="M12.6504 23.4826C12.3242 23.1049 11.8034 22.7157 11.5973 22.2063C11.3741 21.6512 11.4199 20.9815 11.397 20.3634C11.1681 14.6573 10.9506 8.95121 10.7388 3.2451C10.7159 2.62699 10.6072 1.94019 10.8247 1.39648C11.0536 0.8356 11.6259 0.417799 11.9922 0C13.6348 0.692516 13.6005 1.88868 13.6463 3.01617C13.7207 4.88196 13.7378 6.75347 13.8065 8.61926C13.961 12.6656 14.1442 16.712 14.2873 20.7526C14.3273 21.8973 14.396 23.1106 12.6561 23.4769L12.6504 23.4826Z" fill="black"/>
<path d="M46.7171 30.1719V40.0846C47.4039 40.5825 47.8732 40.9259 48.2338 41.1892C49.5844 40.966 49.9107 40.1418 49.9107 39.1231C49.9107 37.5664 49.8649 36.0039 49.8649 34.4472C49.8649 33.4456 49.8992 32.444 49.9221 31.0075C53.7968 32.7588 57.2479 34.3155 60.1782 35.6376C61.8666 37.1714 63.0799 38.4363 64.4592 39.4894C70.7835 44.337 76.3179 49.9172 80.5359 56.7222C82.9626 60.6369 84.8112 64.792 85.8986 69.2905C86.3279 71.059 86.305 72.7645 85.8643 74.5215C84.4449 80.1761 80.948 84.2854 76.2549 87.4962C74.7325 88.5378 73.1872 89.568 71.1955 90.1175C69.8334 87.3073 70.2455 84.2454 69.0379 81.3551C65.8214 80.6912 62.7938 81.7443 59.5887 82.2308C58.8848 86.0425 59.5887 89.6825 59.2167 93.5343C58.3411 93.7517 57.4826 94.0894 56.6012 94.1638C47.421 94.8964 38.5557 93.6487 30.1482 89.7798C28.5571 89.0472 27.1149 87.9999 25.5696 87.1585C24.4879 86.569 23.3489 86.0883 22.2386 85.556C22.4103 85.4015 22.582 85.2412 22.7537 85.0867C21.5747 84.2225 20.2927 83.4613 19.2339 82.4654C16.8645 80.2391 15.0502 77.5949 13.7109 74.6131C12.8238 72.6386 12.6064 70.6869 13.047 68.5522C14.4893 61.5984 17.5284 55.3944 21.7522 49.7512C27.6471 41.876 35.0759 35.7979 43.8211 31.3337C44.6166 30.9273 45.4866 30.6698 46.7285 30.1833L46.7171 30.1719ZM29.118 58.9771C29.5702 60.9001 29.9479 62.6057 30.3771 64.2883C30.7663 65.805 31.6305 66.9325 33.2674 67.15C34.9443 67.3732 36.3122 66.7207 37.2565 65.3185C37.5942 64.8149 37.8575 64.2196 38.0063 63.6301C38.4355 61.9418 38.7903 60.2362 39.1624 58.5937C38.6473 57.449 37.9318 57.2258 36.9589 57.8611C36.6441 59.5094 36.3923 61.1176 36.026 62.6972C35.7227 64.0136 34.9042 64.6146 33.1357 64.0193C32.449 62.2451 31.6763 60.2706 30.8178 58.0557C30.1883 58.3934 29.6331 58.6852 29.118 58.9657V58.9771ZM30.9781 71.3508C30.6805 73.8691 29.9116 75.4506 28.6716 76.0954C26.76 75.981 27.3781 73.623 25.747 72.9705C25.4837 73.5715 25.003 74.1324 25.0774 74.6074C25.2262 75.6032 25.4952 76.6678 26.0274 77.5091C27.4926 79.8442 30.3027 79.7755 31.476 77.3088C32.2544 75.6662 32.8553 73.8576 32.3517 71.8774C31.9453 71.7229 31.5847 71.5798 30.9838 71.3508H30.9781ZM50.5288 74.8764C49.6016 76.3072 49.8534 76.9768 51.2327 77.429C51.6162 77.0169 52.0454 76.5533 52.6807 75.8722C51.8108 75.4659 51.227 75.1969 50.5288 74.8764ZM75.1331 71.3966C74.0286 71.3165 73.4104 71.2707 72.5691 71.2135C72.655 72.0147 72.7122 72.547 72.7866 73.2796C73.4677 73.1422 73.9828 73.1479 74.3605 72.919C74.6295 72.753 74.7096 72.278 75.1331 71.4024V71.3966Z" fill="#C46516"/>
<path d="M52.3649 103.929V100.661C50.6994 100.043 50.1386 100.129 49.8352 101.159C49.6349 101.828 49.5605 102.601 49.6693 103.293C50.0241 105.543 50.3847 107.803 50.9455 110.013C51.329 111.535 51.2088 112.857 50.4419 114.196C48.9195 116.829 46.0464 117.31 43.9689 115.101C43.1447 114.225 42.5037 113.057 42.1088 111.907C41.4335 109.95 40.7982 107.929 40.5406 105.886C40.2259 103.374 38.9724 101.25 38.3715 98.898C37.1582 99.1346 36.5153 100.134 36.4428 101.897C25.4083 101.617 13.1261 90.502 13.2292 79.4961C13.9102 80.2974 14.4253 80.904 14.9347 81.505C17.6361 84.6928 20.7953 87.234 24.3609 89.5004C34.1878 95.7502 44.9132 97.4557 56.251 96.7918C57.1725 96.7403 58.0996 96.7861 59.1985 96.7861C59.5305 97.7305 59.8624 98.6691 60.2859 99.871C64.2006 99.9225 67.7205 98.5317 71.4807 97.4042V93.5296C74.0905 91.8813 76.7575 90.4676 79.1041 88.6419C81.4392 86.8219 83.4595 84.5841 85.9491 82.2146C85.6572 83.4051 85.5542 84.2922 85.228 85.0935C83.3278 89.8094 80.5406 93.873 76.3626 96.8834C69.6435 101.725 62.0144 103.763 53.8701 104.198C53.481 104.221 53.0803 104.06 52.3764 103.929H52.3649Z" fill="#FCCFA2"/>
<path d="M2.76583 85.8364C6.49169 83.6559 8.47195 86.7407 10.9845 88.4348C11.4881 88.5149 12.0948 88.6065 12.9018 88.7324C13.6286 89.9286 14.4184 91.2277 15.2254 92.5555C13.3138 94.2439 12.3123 92.0404 10.7097 91.9317C10.4751 92.3037 10.1775 92.773 9.87415 93.2595C11.8372 95.8808 14.2639 95.8808 17.0454 94.8334C18.1615 95.8808 19.2775 96.9281 20.5481 98.1186C19.9872 99.2575 19.4549 100.328 18.9742 101.295C16.8852 102.136 15.1453 101.793 13.4226 100.86C8.90691 98.4105 5.80489 94.5701 3.052 90.3807C2.18778 89.0701 2.32514 87.6278 2.76583 85.8364Z" fill="#FCCFA2"/>
<path d="M79.2865 107.518C78.5081 105.063 77.7011 102.527 76.877 99.9462C78.7828 98.3265 80.4883 96.8785 82.44 95.2188C83.6819 98.0918 84.6091 100.713 85.1013 103.443C85.8167 107.369 83.7048 109.035 79.2865 107.518Z" fill="#FCCFA2"/>
<path d="M62.4049 90.76C64.5397 89.0831 66.2624 89.7527 68.2999 91.2408C68.443 92.7059 68.6089 94.4057 68.7749 96.0598C66.8977 97.2044 65.1463 97.5478 63.1833 97.2903C62.1817 95.1841 62.3019 93.0493 62.4106 90.76H62.4049Z" fill="#FFB0D0"/>
<path d="M61.957 84.601C63.7255 84.3434 65.0304 84.1603 66.673 83.9199C66.9592 85.2248 67.211 86.3638 67.48 87.5943C65.66 88.2124 64.0689 88.1265 62.1688 87.9033C62.1058 86.8731 62.0429 85.9116 61.9627 84.601H61.957Z" fill="#C63F23"/>
<path d="M50.5266 74.877C51.2248 75.2032 51.8086 75.4722 52.6785 75.8728C52.0432 76.5596 51.614 77.0175 51.2305 77.4295C49.8512 76.9774 49.5994 76.3078 50.5266 74.877Z" fill="black"/>
<path d="M75.1324 71.3979C74.7089 72.2735 74.6287 72.7543 74.3597 72.9145C73.9877 73.1434 73.4726 73.1377 72.7858 73.2751C72.7057 72.5425 72.6542 72.0102 72.5684 71.209C73.4097 71.2719 74.0278 71.312 75.1324 71.3921V71.3979Z" fill="black"/>
<path d="M28.6648 76.0965C30.3589 75.2151 30.5134 75.1292 30.8626 72.2676L25.7402 72.9715C27.3714 73.624 26.7532 75.982 28.6648 76.0965Z" fill="white"/>
<path d="M36.0265 62.7043C36.3699 61.2162 36.616 59.7053 36.9079 58.1543L31.0645 58.6866C31.8256 60.6439 32.5182 62.4239 33.142 64.0264C34.9105 64.6216 35.7289 64.0264 36.0323 62.7043H36.0265Z" fill="white"/>
<path d="M36.9522 57.869C36.9351 57.9663 36.9179 58.0636 36.9007 58.1609C36.6146 59.7119 36.3627 61.2228 36.0193 62.7109C35.716 64.0272 34.8976 64.6282 33.1291 64.0329C32.5052 62.4304 31.8127 60.6505 31.0515 58.6931C30.9714 58.4871 30.8913 58.2868 30.8111 58.075C30.1816 58.4127 29.6264 58.7046 29.1113 58.985C29.5635 60.908 29.9412 62.6136 30.3705 64.2962C30.7596 65.8129 31.6238 66.9404 33.2607 67.1579C34.9376 67.3811 36.3055 66.7286 37.2498 65.3264C37.5875 64.8228 37.8508 64.2275 37.9996 63.6381C38.4288 61.9497 38.7837 60.2441 39.1557 58.6016C38.6406 57.4569 37.9252 57.2337 36.9522 57.869Z" fill="black"/>
<path d="M30.9768 71.3514C30.9367 71.6891 30.9024 71.9867 30.868 72.2614C30.5189 75.1231 30.3644 75.2146 28.6703 76.0903C26.7587 75.9758 27.3768 73.6178 25.7457 72.9654C25.4824 73.5663 25.0017 74.1272 25.0761 74.6022C25.2249 75.5981 25.4939 76.6626 26.0262 77.504C27.4913 79.839 30.3014 79.7704 31.4747 77.3036C32.2531 75.6611 32.854 73.8525 32.3504 71.8723C31.944 71.7177 31.5834 71.5746 30.9825 71.3457L30.9768 71.3514Z" fill="black"/>
</svg>
