<svg width="138" height="111" viewBox="0 0 138 111" fill="none" xmlns="http://www.w3.org/2000/svg">
<ellipse cx="72.5" cy="103.5" rx="31.5" ry="7.5" fill="#D4CDC7"/>
<path d="M105.396 30.0333C107.856 28.5456 110.567 27.6908 113.547 27.9213C115.743 28.0931 117.033 29.1491 117.616 31.2653C118.114 33.0798 117.607 34.601 116.199 35.7618C115.508 36.3317 114.666 36.7424 113.84 37.1196C112.738 37.6266 111.611 38.1002 110.454 38.4731C108.112 39.2316 107.169 40.5852 106.984 43.2378C106.326 52.5325 101.327 59.25 93.5241 63.9937C92.0952 64.8611 91.1229 65.9172 90.2765 67.3294C88.5164 70.2544 86.6307 73.1124 84.6318 75.8782C83.9026 76.8881 82.7795 77.6885 81.7025 78.3674C79.8587 79.5323 78.8152 79.1929 77.9646 77.1269C77.4198 75.8069 77.0426 74.3863 76.808 72.9741C76.1626 69.0391 75.8818 68.7458 71.9343 68.7877C71.3351 68.7961 70.7316 68.8464 69.9857 68.8883C70.3545 70.6735 70.7652 72.3455 71.025 74.0427C71.1591 74.9227 71.1465 75.874 70.9705 76.7456C70.6227 78.4805 69.3613 79.3102 67.6138 79.0211C65.7281 78.711 64.2153 77.7555 63.1174 76.1673C61.6884 74.1013 60.2175 72.0689 58.8346 69.9778C57.8708 68.5237 56.7435 67.5557 54.8955 67.2707C49.7075 66.4703 44.9722 64.5259 40.7062 61.4081C35.8703 57.8755 33.2763 53.0689 33.3014 47.2021C33.314 44.0214 32.1742 42.4835 29.3497 41.6663C28.5745 41.44 27.8286 40.9456 27.1958 40.4217C24.7192 38.3725 25.0502 35.1961 27.8956 33.6707C29.6389 32.7362 31.4869 32.4513 33.4104 33.0966C34.0432 33.3103 34.6676 33.5576 35.3255 33.8006C36.3396 31.8269 37.3495 29.9579 38.2505 28.0386C38.4768 27.5525 38.5355 26.8443 38.3637 26.3372C35.5602 17.9812 42.5081 11.0961 50.1517 11.0542C50.5331 11.0542 50.9312 10.9788 51.2916 11.0752C53.391 11.6241 55.0128 10.6561 56.798 9.70904C66.9434 4.33672 67.8485 4.47082 78.2663 7.13183C78.7817 7.26174 79.293 7.42098 79.7833 7.63051C81.5517 8.3932 83.3201 8.56501 85.2939 8.42672C91.8395 7.95738 97.6644 12.2737 98.2385 18.614C98.2846 19.1085 98.49 19.6742 98.8126 20.043C101.319 22.9429 103.33 26.1486 104.931 29.6268C104.985 29.7483 105.157 29.8196 105.409 30.0207L105.396 30.0333ZM94.5089 15.7267C94.5508 15.7267 94.5969 15.7267 94.6388 15.7267C94.5802 15.7435 94.5215 15.7644 94.4628 15.7812C93.7923 13.359 91.0475 11.3601 88.3907 11.4314C90.4692 12.8939 92.4849 14.3103 94.5089 15.7267ZM104.545 42.605C104.424 42.538 104.302 42.4709 104.181 42.4039C103.38 43.3677 102.58 44.3315 101.775 45.2912C101.239 45.9281 100.581 46.3681 99.8226 45.7479C99.1689 45.2157 99.3784 44.5075 99.8058 43.9083C101.675 41.2808 103.829 38.9299 106.783 37.5177C108.908 36.5035 111.125 35.6864 113.274 34.7267C115.051 33.9347 115.575 33.105 115.231 31.8478C114.896 30.6242 114.209 30.2093 112.327 30.3266C108.874 30.5404 105.803 31.8436 103.23 34.094C101.696 35.4308 100.418 37.0651 99.0892 38.624C98.5403 39.2693 97.9578 39.8351 97.1993 39.2568C96.3025 38.5737 96.8179 37.7649 97.3711 37.0818C97.656 36.7298 97.9787 36.3988 98.3056 36.0803C99.5586 34.8608 100.858 33.6833 102.06 32.4135C102.421 32.0364 102.831 31.2989 102.689 30.9217C101.599 28.0135 100.02 25.3818 97.853 22.813C97.5303 23.3954 97.3543 23.7097 97.1825 24.024C97.0023 24.3593 96.8431 24.7071 96.6377 25.0256C93.7043 29.6101 89.3922 31.7389 84.0786 31.4371C78.7859 31.1354 74.8216 28.6211 73.0784 23.341C72.7934 22.4819 72.412 22.0419 71.4859 22.1299C69.5247 22.3185 67.5594 22.4777 65.5982 22.6663C64.1357 22.8046 63.4065 23.5337 63.1299 25.0759C62.5768 28.1559 60.7204 30.4482 58.139 32.1495C53.148 35.4391 46.3593 34.9949 41.758 31.1187C41.2593 30.6996 40.7565 30.2889 40.0944 29.74C39.3987 31.1606 38.833 32.3926 38.2002 33.5911C37.668 34.601 37.6764 35.3176 38.7282 36.0845C40.0106 37.0232 41.1252 38.1923 42.2735 39.2987C42.8476 39.8518 43.2876 40.5265 42.5836 41.2766C41.9592 41.9429 41.3222 41.5993 40.769 41.1341C39.8974 40.3966 38.9923 39.6842 38.2338 38.8461C36.6958 37.1489 34.6718 36.2354 32.6184 35.4852C31.7174 35.1542 30.5063 35.3679 29.5341 35.6612C28.9307 35.8456 28.1512 36.6125 28.1051 37.1698C28.059 37.7314 28.696 38.5569 29.2575 38.9215C30.3974 39.659 31.6671 40.2164 32.9201 40.7612C35.8409 42.0351 37.7141 44.407 39.4532 46.9213C39.7046 47.2817 39.8387 47.751 39.9351 48.1869C40.0902 48.8825 40.1069 49.6368 39.2688 49.8924C38.3972 50.1606 38.108 49.5153 37.844 48.8154C37.4543 47.7678 36.9598 46.7704 35.5769 46.0329C35.711 51.1203 37.249 55.227 40.878 58.4496C41.3264 58.8477 41.8754 59.1284 42.3824 59.4553C43.0613 59.8911 43.8491 60.2138 44.4023 60.7711C45.2781 61.6554 45.9444 61.6218 46.9292 60.8885C50.3738 58.3155 54.2082 56.4968 58.3694 55.3821C58.6418 55.3108 58.8933 55.1683 59.1237 55.072C59.1028 54.8121 59.1363 54.6403 59.0735 54.5314C56.0479 49.2135 54.9583 43.4683 55.2642 37.4045C55.3648 35.4056 55.4528 35.1961 57.4433 35.0327C59.6434 34.8525 61.8476 34.7686 64.0477 34.6304C69.8935 34.27 75.7394 33.8761 81.5894 33.5534C83.9068 33.4277 84.9963 34.3119 85.4363 36.5119C86.4253 41.4442 86.3331 46.3388 84.8958 51.1831C84.7323 51.7321 84.6401 52.3062 84.4935 52.9683C85.2142 53.0312 85.7381 53.0689 86.2619 53.1192C90.0334 53.4963 93.5325 54.7619 96.7425 56.7021C97.7943 57.3391 98.2763 57.2092 98.9845 56.3794C101.977 52.8761 103.841 48.8615 104.537 44.3148C104.621 43.7532 104.55 43.1707 104.55 42.5966L104.545 42.605ZM83.6805 43.0157C83.6093 41.8046 83.6051 40.5852 83.4584 39.3825C83.0435 35.9755 83.0226 35.9755 79.6911 36.1599C79.4648 36.1725 79.2343 36.1767 79.008 36.1893C72.7138 36.5496 66.4237 36.8975 60.1337 37.2788C57.7073 37.4255 57.5942 37.5512 57.6361 39.9817C57.7241 45.1026 59.0148 49.8757 61.7931 54.2213C63.0042 56.1112 64.5673 57.6408 66.4489 58.8351C70.4718 61.383 74.9725 60.9723 78.3124 57.5905C79.5193 56.371 80.5292 54.8834 81.3422 53.3622C83.0519 50.1522 83.6805 46.6489 83.6805 43.0199V43.0157ZM48.2786 62.9796C49.5776 63.4028 50.5457 63.7632 51.5346 64.0314C59.6224 66.2021 67.8695 66.6254 76.1919 66.3069C77.5539 66.2566 78.9451 66.4368 80.2778 66.2273C84.1289 65.6196 87.8292 64.4588 91.2361 62.5312C92.8662 61.6093 94.3832 60.4904 96.3905 59.1745C95.7242 58.7722 95.4141 58.5459 95.0747 58.3867C92.3298 57.0876 89.585 55.8095 86.5091 55.4198C84.4348 55.1558 83.0142 55.4952 81.6062 57.4732C76.963 63.9895 69.1727 64.6642 63.1341 59.3883C62.7905 59.0865 62.4133 58.8016 62.1535 58.4412C61.416 57.4103 60.515 57.36 59.3542 57.6492C56.0688 58.4621 53.0474 59.845 50.1769 61.5883C49.6112 61.9319 49.1083 62.3719 48.2786 62.9838V62.9796ZM84.9125 29.1198C89.5431 29.0066 93.763 26.2827 95.2213 22.4023C95.6446 21.2792 95.808 20.307 94.7352 19.3222C91.4037 16.2631 87.7412 13.7068 83.6218 11.842C83.0058 11.5613 82.0797 11.511 81.4595 11.7624C78.3585 13.0112 74.9892 16.108 75.0898 20.6506C75.1736 24.4515 77.9226 27.6698 81.9875 28.7091C82.9346 28.9521 83.9361 28.9899 84.9125 29.1239V29.1198ZM51.0611 31.9023C51.6855 31.8185 52.6032 31.764 53.4874 31.5587C57.4559 30.6326 60.4312 27.4938 60.9006 23.8103C61.3615 20.1729 59.3794 16.6277 55.9305 14.809C54.9751 14.3061 54.1747 14.151 53.215 14.8928C49.0245 18.1237 45.3829 21.8617 42.3196 26.1864C41.6323 27.1544 41.8293 27.783 42.5626 28.5331C44.8213 30.8505 47.5955 31.8562 51.0611 31.9065V31.9023ZM79.0038 9.95628C74.9431 8.71168 71.1088 7.30365 67.1026 8.01185C63.5029 8.64882 60.1965 10.3083 56.9656 12.5167C60.0038 14.3899 62.1032 16.6235 63.0084 19.7664C63.3101 20.8182 63.922 20.7428 64.7349 20.6255C66.826 20.3237 68.9213 19.9592 71.025 19.8544C72.2612 19.7915 72.6928 19.3096 72.9317 18.1949C73.6105 15.0017 75.4335 12.5628 78.1196 10.7399C78.3543 10.5807 78.547 10.3628 79.0038 9.95628ZM87.7914 66.9648C85.5453 67.5096 83.8607 67.9328 82.1761 68.3226C81.0027 68.5949 79.8252 68.8254 78.6476 69.0769C78.7901 70.3256 78.9074 71.5786 79.0834 72.8232C79.2636 74.0678 79.448 75.3292 80.3783 76.4523C83.911 74.1558 85.3986 70.51 87.7914 66.9648ZM60.7581 68.2932C60.8209 68.6327 60.7958 68.8967 60.9131 69.0601C62.405 71.147 63.8675 73.2549 65.4515 75.2705C65.8831 75.8195 66.6374 76.1924 67.3205 76.4481C68.3095 76.821 68.8752 76.4564 68.6992 75.4088C68.3765 73.4937 67.8611 71.6038 67.2828 69.7473C67.1445 69.3115 66.4614 68.8254 65.9753 68.7542C64.2698 68.5111 62.5433 68.4357 60.7581 68.2932ZM50.4199 13.5644C43.9832 13.5308 39.2521 18.5595 40.5134 23.9821C43.7737 20.5542 47.0298 17.1305 50.4199 13.5644Z" fill="black"/>
<path d="M126.644 20.2476C127.708 20.1806 128.768 20.1093 129.833 20.0423C131.589 19.9333 132.125 20.1303 132.569 21.7479C133.42 24.8363 134.417 27.8451 135.963 30.6738C136.542 31.7256 136.085 32.5805 134.752 32.8571C132.678 33.2887 130.558 33.6197 128.446 33.7203C124.222 33.9298 124.121 33.7916 122.914 29.7309C122.16 27.1872 121.431 24.6394 120.693 22.0915C120.383 21.0271 120.806 20.3859 122.072 20.3147C123.589 20.2267 125.114 20.2937 126.635 20.2937C126.635 20.277 126.635 20.2644 126.635 20.2476H126.644ZM132.93 30.7199C132.108 28.1888 131.35 25.9049 130.633 23.6043C130.432 22.9631 130.193 22.5022 129.422 22.5273C127.758 22.5818 126.095 22.6111 124.431 22.6572C123.807 22.674 123.362 22.9254 123.568 23.6294C124.247 25.951 124.938 28.2684 125.701 30.5606C125.81 30.8917 126.346 31.2898 126.69 31.2982C128.785 31.3359 130.91 31.5035 132.93 30.7241V30.7199Z" fill="black"/>
<path d="M25.0737 47.0809C24.5709 47.7514 24.3111 48.3465 23.8627 48.6608C21.3106 50.4502 18.7334 52.206 16.1269 53.9074C15.1295 54.5569 14.0609 54.4102 13.1767 53.6056C11.6011 52.1767 10.0086 50.7561 8.52098 49.2349C7.43143 48.116 7.50687 47.3449 8.70118 46.3602C10.457 44.9102 12.2171 43.4519 14.0861 42.1528C14.7691 41.6751 15.7874 41.7044 16.613 41.3985C17.8785 40.9292 18.0629 42.1654 18.7502 42.6222C20.2713 43.6279 21.8763 44.5037 23.4017 45.5053C23.9842 45.8908 24.441 46.4733 25.0779 47.0809H25.0737ZM10.5283 47.9945C11.798 49.1553 12.8834 50.2197 14.0567 51.1709C14.3836 51.4391 15.1211 51.6235 15.4229 51.4391C17.4595 50.1987 19.4332 48.8535 21.6249 47.4078C19.4793 46.004 17.6522 44.8096 15.8335 43.6195C14.1196 45.0317 12.4224 46.4314 10.5325 47.9945H10.5283Z" fill="black"/>
<path d="M102.996 18.1858C103.356 17.5404 103.537 16.7903 104.01 16.4592C106.24 14.9129 107.819 12.8009 109.412 10.6763C110.665 9.0084 110.757 9.06707 112.856 9.66213C113.866 9.94709 114.931 10.0435 115.974 10.186C117.68 10.4164 118.199 11.2252 117.588 12.8428C117.374 13.4043 117.11 13.9617 116.775 14.4645C114.742 17.532 112.178 20.0967 109.165 22.1877C107.505 23.3402 107.069 23.2396 105.657 21.8357C105.066 21.2491 104.417 20.7043 103.918 20.0464C103.532 19.5393 103.336 18.8856 103 18.1899L102.996 18.1858ZM115.052 12.7296C113.95 12.4405 113.209 12.2938 112.5 12.0466C111.721 11.7742 111.264 12.0675 110.765 12.6584C109.165 14.5483 107.501 16.388 105.749 18.3701C106.072 18.718 106.529 19.1957 106.973 19.6818C107.396 20.1469 107.824 20.2266 108.347 19.8117C110.841 17.8379 113.095 15.6421 115.052 12.7296Z" fill="black"/>
<path d="M127.05 13.3747C126.756 13.2741 126.216 13.2448 125.935 12.9556C124.774 11.7697 123.58 10.5838 122.616 9.24696C121.933 8.29989 122.49 7.38216 123.354 6.6949C124.364 5.8945 125.42 5.13182 126.325 4.22666C127.062 3.48492 127.62 2.55881 128.236 1.70393C129.342 0.174375 130.452 -0.0477279 131.969 1.24297C133.809 2.81024 135.594 4.45714 137.245 6.21718C138.335 7.37796 138.251 8.37532 136.939 9.04162C133.905 10.5838 130.754 11.8912 127.649 13.2867C127.515 13.3453 127.351 13.3328 127.045 13.3747H127.05ZM135.309 7.37378C133.671 5.88193 132.468 4.75467 131.223 3.66931C130.742 3.25025 130.26 3.07844 129.673 3.71541C128.353 5.15696 126.932 6.50633 125.57 7.91436C125.382 8.11132 125.176 8.42142 125.193 8.66028C125.277 9.64506 127.159 10.9609 128.043 10.5921C130.323 9.64087 132.569 8.59742 135.309 7.37378Z" fill="black"/>
<path d="M20.8803 25.9885C20.4445 25.7957 19.9961 25.6742 19.6315 25.427C17.4608 23.9603 15.7008 22.0997 14.4939 19.7697C13.836 18.5041 14.0287 17.8127 15.1602 17.071C16.4257 16.2412 17.7416 15.4911 19.0155 14.674C19.9584 14.0663 20.8929 13.9951 21.7142 14.7913C23.5329 16.5597 25.4648 18.0222 28.0881 18.4706C29.2112 18.6634 29.5003 19.8493 28.6454 20.5491C26.4831 22.3218 24.2118 23.9603 21.9615 25.6239C21.6765 25.8335 21.2616 25.8628 20.8887 25.9843L20.8803 25.9885ZM16.6604 19.1788C17.3518 20.0337 17.9595 20.9012 18.6803 21.6513C20.7588 23.8136 20.8174 23.801 23.0594 21.9278C23.6628 21.425 24.2411 20.8886 24.9116 20.2935C23.9478 19.6691 23.248 19.2291 22.5649 18.7723C21.71 18.2024 20.8761 17.1632 20.0212 17.1548C19.1161 17.1422 18.1983 18.0977 17.2932 18.6382C17.1675 18.7137 17.0627 18.831 16.6562 19.1788H16.6604Z" fill="black"/>
<path d="M6.44252 31.7093C1.86223 31.5752 1.57726 31.3363 0.743341 26.7309C0.542193 25.612 0.315901 24.4847 0.257233 23.3491C0.177612 21.8237 0.751724 21.3753 2.15976 21.786C4.32628 22.4146 6.497 22.3894 8.6761 21.9369C10.566 21.5429 10.9641 21.7567 11.2575 23.655C11.5005 25.2306 11.7143 26.8189 11.8274 28.4071C11.9741 30.5611 11.3413 31.2818 9.17477 31.5584C8.27379 31.6716 7.35607 31.6632 6.44671 31.7093H6.44252ZM6.2707 29.3039C8.47495 29.329 9.41782 28.2493 9.09934 26.0646C8.88562 24.5979 8.88562 24.6063 7.23873 24.6901C6.55985 24.7236 5.87679 24.7403 5.19792 24.7152C2.59138 24.6104 2.59138 24.6021 3.12778 27.1709C3.17387 27.393 3.2116 27.6193 3.24093 27.8414C3.36246 28.8303 3.91141 29.3206 4.90877 29.3081C5.36135 29.3039 5.81812 29.3081 6.2707 29.3081V29.3039Z" fill="black"/>
<path d="M119.502 52.3516C117.868 52.3977 115.659 50.6125 115.622 49.062C115.605 48.3999 116.007 47.6121 116.456 47.0841C117.558 45.785 119.234 44.9636 119.649 43.0863C119.72 42.772 120.143 42.5289 120.416 42.2691C122.368 40.3959 122.658 40.3498 124.858 41.8794C126.228 42.8306 127.602 43.7903 128.864 44.8673C130.125 45.9442 130.163 47.0589 128.805 47.83C125.977 49.4266 123.022 50.8053 120.114 52.2552C119.921 52.3516 119.67 52.3265 119.498 52.3516H119.502ZM126.81 46.2753C125.503 45.3366 124.514 44.5446 123.437 43.9118C123.139 43.7358 122.398 43.8783 122.138 44.1465C120.944 45.3869 119.854 46.7279 118.718 48.0269C118.387 48.4083 117.75 48.7854 118.358 49.2925C118.752 49.6194 119.523 49.9378 119.896 49.766C122.125 48.7393 124.288 47.566 126.806 46.2711L126.81 46.2753Z" fill="black"/>
<path d="M37.3855 64.06C36.9077 64.6803 36.6437 65.137 36.275 65.4806C35.3949 66.3062 34.4437 67.0605 33.5595 67.886C32.6543 68.7241 31.6821 68.8541 30.668 68.2003C29.1468 67.2155 27.655 66.1763 26.1673 65.1412C25.2621 64.5126 25.1825 63.6997 25.6938 62.7652C26.3349 61.5834 26.9593 60.3933 27.5795 59.2032C27.9483 58.4908 28.5266 58.1849 29.2599 58.4992C29.876 58.7632 30.4291 59.1738 31.0032 59.5384C32.6543 60.5902 34.318 61.6253 35.9439 62.7191C36.4552 63.0627 36.8616 63.5656 37.3938 64.0684L37.3855 64.06ZM29.4234 61.4996C28.4148 62.8601 28.5308 63.9762 29.7712 64.8479C29.8969 64.9359 30.0226 65.0197 30.1483 65.1077C32.0048 66.3732 32.0257 66.369 33.4044 64.2989C32.1053 63.3854 30.8105 62.476 29.4234 61.5038V61.4996Z" fill="black"/>
<path d="M104.544 42.6038C104.544 43.1779 104.62 43.7604 104.532 44.3219C103.836 48.8687 101.971 52.8833 98.9794 56.3866C98.2711 57.2163 97.785 57.342 96.7374 56.7093C93.5274 54.769 90.0325 53.4993 86.2568 53.1263C85.7329 53.076 85.2091 53.0341 84.4883 52.9755C84.635 52.3133 84.7314 51.7392 84.8907 51.1903C86.328 46.346 86.4202 41.4514 85.4312 36.5191C84.9912 34.3148 83.9017 33.4306 81.5843 33.5605C75.7342 33.8832 69.8926 34.2771 64.0426 34.6375C61.8425 34.7716 59.6341 34.8596 57.4382 35.0398C55.4519 35.2032 55.3597 35.4128 55.2591 37.4117C54.9532 43.4754 56.0428 49.2207 59.0684 54.5385C59.1312 54.6517 59.0977 54.8193 59.1186 55.0791C58.8882 55.1755 58.6367 55.3138 58.3643 55.3892C54.2031 56.5039 50.3687 58.3226 46.9241 60.8956C45.9393 61.629 45.273 61.6667 44.3972 60.7783C43.844 60.221 43.0562 59.8983 42.3773 59.4625C41.8702 59.1356 41.3171 58.8548 40.8729 58.4567C37.2438 55.2384 35.7059 51.1274 35.5718 46.0401C36.9505 46.7776 37.4492 47.775 37.8389 48.8226C38.0987 49.5266 38.3921 50.1678 39.2637 49.8996C40.1018 49.6439 40.0851 48.8896 39.93 48.194C39.8336 47.754 39.6995 47.2888 39.4481 46.9285C37.7132 44.4141 35.84 42.0464 32.915 40.7683C31.662 40.2235 30.3923 39.6704 29.2524 38.9287C28.6909 38.5641 28.0539 37.7385 28.1 37.177C28.1461 36.6197 28.9214 35.8528 29.529 35.6684C30.5012 35.3751 31.7123 35.1613 32.6133 35.4924C34.6625 36.2425 36.6865 37.1519 38.2286 38.8532C38.9913 39.6913 39.8965 40.4037 40.7639 41.1413C41.3129 41.6064 41.9541 41.9459 42.5785 41.2838C43.2867 40.5295 42.8424 39.8548 42.2683 39.3058C41.1201 38.1995 40.0054 37.0303 38.7231 36.0916C37.6755 35.3248 37.6629 34.604 38.1951 33.5983C38.8279 32.3998 39.3936 31.1677 40.0893 29.7471C40.7514 30.2961 41.2542 30.7068 41.7529 31.1258C46.3542 35.0021 53.1387 35.4463 58.1338 32.1567C60.7111 30.4595 62.5717 28.1631 63.1248 25.083C63.4014 23.5409 64.1306 22.8117 65.5931 22.6734C67.5542 22.4849 69.5196 22.3298 71.4808 22.137C72.4069 22.049 72.7925 22.489 73.0732 23.3481C74.8165 28.6282 78.7808 31.1426 84.0735 31.4443C89.3871 31.746 93.6992 29.6172 96.6326 25.0327C96.838 24.7142 96.993 24.3664 97.1774 24.0312C97.3492 23.7127 97.5252 23.3984 97.8479 22.8201C100.014 25.3889 101.594 28.0164 102.684 30.9289C102.826 31.306 102.411 32.0436 102.055 32.4207C100.853 33.6904 99.5577 34.868 98.3005 36.0875C97.9736 36.4059 97.6551 36.7328 97.366 37.089C96.8128 37.7721 96.2974 38.5766 97.1942 39.2639C97.9527 39.8422 98.5351 39.2765 99.0841 38.6311C100.408 37.0722 101.691 35.4379 103.224 34.1011C105.802 31.8508 108.873 30.5517 112.322 30.3338C114.204 30.2165 114.891 30.6313 115.226 31.855C115.57 33.1121 115.046 33.9419 113.269 34.7339C111.119 35.6935 108.903 36.5107 106.778 37.5248C103.824 38.937 101.67 41.2879 99.8007 43.9154C99.3733 44.5147 99.1637 45.2229 99.8175 45.7551C100.58 46.3753 101.234 45.9353 101.77 45.2983C102.575 44.3387 103.375 43.3749 104.176 42.411C104.297 42.4781 104.419 42.5451 104.54 42.6122L104.544 42.6038Z" fill="#CE6626"/>
<path d="M83.6773 43.0152C83.6773 46.6442 83.0488 50.1517 81.339 53.3575C80.5302 54.8787 79.5161 56.3663 78.3092 57.5858C74.9693 60.9676 70.4687 61.3741 66.4457 58.8304C64.5642 57.6361 63.0011 56.1107 61.79 54.2166C59.0075 49.8752 57.7168 45.0979 57.633 39.977C57.591 37.5465 57.7042 37.4208 60.1305 37.2741C66.4206 36.8928 72.7148 36.5449 79.0049 36.1846C79.2312 36.172 79.4616 36.1678 79.6879 36.1552C83.0194 35.975 83.0404 35.9708 83.4552 39.3778C83.6019 40.5805 83.6061 41.7999 83.6773 43.011V43.0152Z" fill="#FFB0D0"/>
<path d="M48.2773 62.9789C49.1029 62.3671 49.6099 61.9271 50.1757 61.5835C53.0462 59.8402 56.0676 58.4573 59.353 57.6443C60.518 57.3552 61.4148 57.4055 62.1523 58.4364C62.4121 58.8009 62.7893 59.0859 63.1329 59.3834C69.1715 64.6594 76.966 63.9847 81.605 57.4683C83.013 55.4904 84.4336 55.1509 86.5079 55.415C89.5838 55.8047 92.3244 57.087 95.0734 58.3819C95.4129 58.5411 95.723 58.7674 96.3893 59.1697C94.382 60.4855 92.865 61.6044 91.2349 62.5264C87.8279 64.454 84.1277 65.6148 80.2765 66.2224C78.9439 66.432 77.5527 66.2518 76.1907 66.3021C67.8724 66.6205 59.6212 66.1931 51.5334 64.0266C50.5402 63.7584 49.5764 63.398 48.2773 62.9747V62.9789Z" fill="#ECB591"/>
<path d="M84.9126 29.1196C83.9362 28.9855 82.9347 28.9478 81.9876 28.7047C77.9227 27.6655 75.1695 24.4471 75.0899 20.6462C74.9935 16.1079 78.3628 13.0068 81.4596 11.758C82.0798 11.5066 83.0059 11.5611 83.6219 11.8377C87.7371 13.7067 91.3996 16.2587 94.7353 19.3178C95.8081 20.3026 95.6447 21.2748 95.2214 22.3979C93.7631 26.2784 89.5432 28.9981 84.9126 29.1154V29.1196ZM82.0756 20.6672C83.5381 19.3639 84.6947 18.3959 85.7675 17.3357C86.0231 17.0843 86.1991 16.3467 86.0399 16.1749C85.7465 15.8564 85.1892 15.7181 84.7198 15.6469C84.4768 15.6092 84.1499 15.8355 83.9278 16.0282C82.503 17.2686 81.0447 18.4755 79.7079 19.8081C78.807 20.7091 78.9536 21.5598 80.0557 22.2345C81.2123 22.9427 82.4444 23.5336 83.6638 24.1328C84.3385 24.4639 85.0341 24.8368 85.7591 24.9458C86.1572 25.0086 86.8612 24.6608 87.0079 24.3214C87.1462 23.9903 86.8612 23.3282 86.5553 22.9972C86.2159 22.6326 85.646 22.4859 85.1766 22.2429C84.2505 21.7693 83.3202 21.2958 82.0714 20.6588L82.0756 20.6672Z" fill="#CE6626"/>
<path d="M51.0581 31.9016C47.5925 31.8513 44.8142 30.8456 42.5596 28.5282C41.8263 27.7781 41.6335 27.1495 42.3166 26.1815C45.3799 21.861 49.0173 18.123 53.2121 14.8879C54.1717 14.1462 54.9721 14.3012 55.9276 14.8041C59.3806 16.6186 61.3585 20.1638 60.8976 23.8055C60.4282 27.4932 57.4529 30.6319 53.4845 31.5538C52.6002 31.7592 51.6783 31.8136 51.0581 31.8974V31.9016ZM54.7877 22.9296C53.5557 23.994 52.529 24.7777 51.649 25.6996C51.3766 25.9845 51.2844 26.9149 51.4855 27.0741C51.8711 27.3758 52.5458 27.4722 53.0612 27.3926C53.4509 27.3339 53.761 26.8436 54.134 26.5838C55.1858 25.8463 56.2251 25.0878 57.3146 24.4089C58.576 23.6253 58.7227 22.8835 57.432 22.037C55.9192 21.0481 54.2639 20.256 52.6086 19.5269C52.2189 19.3551 51.3305 19.5855 51.0916 19.925C50.5929 20.6458 51.1922 21.1989 51.8334 21.53C52.6966 21.9826 53.5976 22.3681 54.7919 22.9254L54.7877 22.9296Z" fill="#CE6626"/>
<path d="M79.0031 9.9553C78.5463 10.3618 78.3535 10.5797 78.1189 10.7389C75.4369 12.5618 73.6098 14.9966 72.9309 18.194C72.6921 19.3128 72.2604 19.7906 71.0242 19.8534C68.9206 19.9624 66.8253 20.3228 64.7342 20.6245C63.9212 20.7418 63.3094 20.8215 63.0077 19.7654C62.1025 16.6225 59.9988 14.3889 56.9648 12.5157C60.1958 10.3073 63.5021 8.64784 67.1018 8.01088C71.1122 7.30267 74.9424 8.70651 79.0031 9.9553Z" fill="#CE6626"/>
<path d="M87.7903 66.9629C85.3933 70.5123 83.9057 74.1539 80.3772 76.4503C79.4511 75.3273 79.2625 74.0701 79.0823 72.8213C78.9063 71.5767 78.789 70.3237 78.6465 69.0749C79.824 68.8235 81.0016 68.593 82.175 68.3206C83.8638 67.9267 85.5442 67.5077 87.7903 66.9629Z" fill="#ECB591"/>
<path d="M60.7559 68.292C62.541 68.4345 64.2717 68.5099 65.9731 68.753C66.4634 68.8242 67.1465 69.3061 67.2806 69.7461C67.8589 71.6025 68.3743 73.4925 68.697 75.4076C68.873 76.4552 68.3073 76.8198 67.3183 76.4468C66.6352 76.1912 65.8809 75.8183 65.4493 75.2693C63.8653 73.2536 62.4028 71.1458 60.9109 69.0589C60.7936 68.8954 60.8187 68.6356 60.7559 68.292Z" fill="#ECB591"/>
<path d="M94.4612 15.7801C94.5199 15.7633 94.5786 15.7423 94.6372 15.7256C94.5953 15.7256 94.5492 15.7256 94.5031 15.7256L94.457 15.7801H94.4612Z" fill="white"/>
<path d="M132.932 30.7192C130.912 31.5029 128.788 31.3352 126.692 31.2933C126.349 31.285 125.816 30.8868 125.703 30.5558C124.941 28.2635 124.249 25.9462 123.57 23.6246C123.365 22.9206 123.809 22.6691 124.434 22.6524C126.097 22.6063 127.761 22.5811 129.424 22.5225C130.196 22.4973 130.434 22.9583 130.636 23.5994C131.352 25.9001 132.111 28.1839 132.932 30.715V30.7192Z" fill="#8CC63F"/>
<path d="M10.5257 47.9921C12.4198 46.4333 14.1128 45.0336 15.8267 43.6172C17.6455 44.8073 19.4725 46.0016 21.6181 47.4055C19.4265 48.8512 17.4527 50.1964 15.4161 51.4368C15.1144 51.6212 14.381 51.4368 14.05 51.1686C12.8766 50.2131 11.7912 49.1529 10.5215 47.9921H10.5257Z" fill="#FF7BAC"/>
<path d="M115.049 12.7299C113.092 15.6465 110.838 17.8382 108.344 19.8119C107.825 20.2268 107.393 20.143 106.97 19.682C106.526 19.1959 106.069 18.7182 105.746 18.3704C107.498 16.3882 109.161 14.5486 110.762 12.6586C111.261 12.0678 111.722 11.7744 112.497 12.0468C113.205 12.294 113.947 12.4407 115.049 12.7299Z" fill="#D9E021"/>
<path d="M135.311 7.37374C132.57 8.59738 130.324 9.64084 128.044 10.5921C127.16 10.9609 125.279 9.64084 125.195 8.66024C125.174 8.42138 125.383 8.10709 125.572 7.91432C126.934 6.50629 128.355 5.15692 129.675 3.71537C130.257 3.0784 130.743 3.25021 131.225 3.66927C132.47 4.75463 133.677 5.88189 135.311 7.37374Z" fill="#FF7BAC"/>
<path d="M16.6582 19.1785C17.0647 18.8306 17.1694 18.7133 17.2952 18.6379C18.2045 18.0973 19.1223 17.1418 20.0232 17.1544C20.8781 17.167 21.712 18.2021 22.5669 18.772C23.25 19.2329 23.9498 19.6688 24.9136 20.2932C24.2431 20.8882 23.6648 21.4246 23.0614 21.9275C20.8152 23.8007 20.7608 23.809 18.6822 21.6509C17.9573 20.8966 17.3538 20.0333 16.6624 19.1785H16.6582Z" fill="#29ABE2"/>
<path d="M6.26922 29.3033C5.81664 29.3033 5.35987 29.2991 4.90729 29.3033C3.90574 29.3159 3.35679 28.8256 3.23945 27.8366C3.21012 27.6103 3.17239 27.3882 3.1263 27.1661C2.5899 24.6015 2.5899 24.6057 5.19644 24.7105C5.87531 24.7398 6.55837 24.7188 7.23725 24.6853C8.88414 24.6015 8.88414 24.5931 9.09786 26.0598C9.41634 28.2445 8.47346 29.3243 6.26922 29.2991V29.3033Z" fill="#8CC63F"/>
<path d="M126.814 46.2738C124.291 47.5687 122.129 48.7421 119.904 49.7688C119.531 49.9406 118.756 49.6221 118.366 49.2952C117.758 48.7882 118.395 48.4068 118.726 48.0297C119.862 46.7306 120.952 45.3896 122.146 44.1492C122.401 43.881 123.143 43.7385 123.445 43.9145C124.526 44.5473 125.511 45.3393 126.818 46.278L126.814 46.2738Z" fill="#29ABE2"/>
<path d="M29.4245 61.5003C30.8074 62.4725 32.1065 63.386 33.4055 64.2954C32.0227 66.3655 32.0059 66.3739 30.1495 65.1042C30.0238 65.0204 29.898 64.9324 29.7723 64.8444C28.5319 63.9699 28.416 62.8538 29.4245 61.4961V61.5003Z" fill="#D9E021"/>
<path d="M82.0733 20.6676C83.322 21.3046 84.2524 21.7781 85.1785 22.2516C85.6478 22.4905 86.2177 22.6414 86.5572 23.0059C86.8631 23.3328 87.148 23.9949 87.0097 24.3302C86.8673 24.6696 86.1591 25.0132 85.761 24.9545C85.036 24.8456 84.3403 24.4726 83.6657 24.1416C82.4462 23.5423 81.2142 22.9515 80.0576 22.2433C78.9555 21.5686 78.8088 20.7179 79.7098 19.8169C81.0424 18.4843 82.5049 17.2774 83.9297 16.037C84.1476 15.8484 84.4786 15.6221 84.7217 15.6557C85.191 15.7269 85.7442 15.8652 86.0417 16.1837C86.201 16.3555 86.025 17.093 85.7693 17.3445C84.6965 18.4005 83.5399 19.3727 82.0774 20.676L82.0733 20.6676Z" fill="black"/>
<path d="M54.7888 22.9302C53.5945 22.3729 52.6977 21.9874 51.8303 21.5348C51.1933 21.1995 50.5899 20.6464 51.0885 19.9298C51.3232 19.5904 52.2116 19.3557 52.6055 19.5317C54.2608 20.265 55.9161 21.0529 57.4289 22.0418C58.7196 22.8883 58.5729 23.6301 57.3115 24.4137C56.222 25.0926 55.1827 25.8511 54.1309 26.5886C53.7579 26.8484 53.4478 27.3387 53.0581 27.3974C52.5427 27.477 51.868 27.3806 51.4825 27.0789C51.2813 26.9197 51.3735 25.9894 51.6459 25.7044C52.5259 24.7825 53.5484 23.9988 54.7846 22.9344L54.7888 22.9302Z" fill="black"/>
</svg>
