<svg width="113" height="108" viewBox="0 0 113 108" fill="none" xmlns="http://www.w3.org/2000/svg">
<path d="M113 83.4215C111.108 88.151 107.084 89.4804 102.788 89.4562C98.772 89.432 94.7641 88.4571 90.131 87.8206C82.8688 94.0407 74.869 100.422 63.6309 100.172C62.132 101.614 60.577 103.137 58.9818 104.611C58.3406 105.208 57.6432 105.748 56.9218 106.231C52.0802 109.478 48.89 108.253 47.2949 102.573C47.2227 102.299 47.0303 102.065 46.8059 101.638C30.9106 99.7128 16.4342 93.5572 2.54291 85.5002C-3.64525 58.5575 1.076 34.7167 20.9551 15.0173C29.8445 6.21091 40.738 1.06246 53.2506 0.143962C68.5687 -0.975966 81.5301 4.46253 92.0629 15.6135C100.335 24.3634 104.816 34.9826 107.108 46.7539C108.712 54.9721 106.868 62.4087 103.357 69.6681C102.668 71.0942 101.922 72.4961 101.008 74.3009C105.93 76.1782 111.373 77.0322 112.992 83.4376L113 83.4215ZM67.6789 95.0397C72.4884 94.0406 76.5042 93.0577 79.1094 88.9003C82.8688 82.9058 84.7525 76.3716 84.8166 69.37C84.9769 51.0805 78.0753 35.6835 64.9856 23.2274C56.0721 14.7433 45.5635 9.94937 33.0509 11.7864C12.2259 24.1781 -0.903854 53.401 7.1119 82.5674C18.1897 89.0372 30.1892 93.7264 42.9664 96.3853C45.323 96.8767 47.5995 96.5706 49.2988 95.2653C51.5512 92.1795 53.5953 89.3756 55.4469 86.8377C57.8196 86.4832 58.589 87.4661 58.7333 89.6415C58.1161 90.56 57.2424 91.7122 56.513 92.9529C55.1102 95.3378 53.7155 97.7388 52.4891 100.22C52.1123 100.986 52.2726 102.025 52.1123 103.838C53.9479 102.46 55.2545 101.775 56.1763 100.736C58.3887 98.2303 60.4407 95.5795 62.5248 92.961C63.8634 91.2851 64.7371 89.142 67.4625 88.2879C68.1278 88.868 68.9053 89.5529 69.6989 90.2538C69.0175 91.8733 68.4805 93.1544 67.6789 95.0558V95.0397ZM87.6061 82.8575C89.0008 81.657 89.8825 81.1413 90.4356 80.392C93.0167 76.855 95.8222 73.4388 97.9544 69.6439C101.882 62.6504 103.942 55.4555 102.219 46.9956C100.295 37.5689 96.9845 29.0445 91.0448 21.624C82.989 11.5527 72.5365 5.75971 59.6151 4.80093C54.8698 4.44642 50.1725 4.81705 45.5073 6.71851C61.635 11.3352 72.9854 21.6965 81.0091 35.9575C89.1291 50.3876 91.9346 65.7363 87.6141 82.8575H87.6061ZM108.03 83.0106C105.056 79.6266 101.305 79.8361 97.746 78.8048C96.8402 80.7143 94.8684 81.7053 94.5638 84.0016C99.1167 85.0168 103.453 86.1125 108.03 83.0186V83.0106Z" fill="black"/>
<path d="M67.6786 95.0402C68.4802 93.1387 69.0172 91.8657 69.6986 90.2382C68.897 89.5372 68.1275 88.8524 67.4622 88.2723C64.7368 89.1263 63.8631 91.2695 62.5245 92.9454C60.4404 95.5639 58.3883 98.2146 56.176 100.72C55.2622 101.76 53.9556 102.445 52.112 103.822C52.2803 102.01 52.112 100.97 52.4888 100.205C53.7152 97.7232 55.1099 95.3303 56.5127 92.9373C57.2421 91.6965 58.1078 90.5444 58.733 89.6259C58.5887 87.4505 57.8193 86.4675 55.4466 86.822C53.595 89.36 51.5509 92.1638 49.2985 95.2497C47.6072 96.563 45.3307 96.8611 42.9661 96.3696C30.1809 93.7188 18.1894 89.0296 7.1116 82.5518C-0.904158 53.3853 12.2337 24.1705 33.0506 11.7707C45.5632 9.93374 56.0718 14.7277 64.9853 23.2117C78.075 35.6679 84.9766 51.0649 84.8163 69.3544C84.7522 76.3559 82.8685 82.8902 79.1091 88.8846C76.4959 93.0501 72.4881 94.025 67.6786 95.0241V95.0402Z" fill="#CE6626"/>
<path d="M87.6048 82.8573C91.9253 65.7361 89.1198 50.3794 80.9999 35.9573C72.9761 21.6964 61.6257 11.335 45.498 6.71836C50.1632 4.8169 54.8605 4.44627 59.6058 4.80078C72.5272 5.75957 82.9797 11.5526 91.0355 21.6239C96.9752 29.0525 100.286 37.5687 102.21 46.9955C103.933 55.4554 101.881 62.6503 97.9451 69.6438C95.8129 73.4387 93.0075 76.8629 90.4264 80.3919C89.8733 81.1492 88.9915 81.6649 87.5968 82.8573H87.6048Z" fill="#ECB591"/>
<path d="M108.031 83.0107C103.454 86.1127 99.1174 85.0089 94.5645 83.9937C94.8691 81.6974 96.8409 80.7064 97.7467 78.7969C101.306 79.8282 105.049 79.6187 108.031 83.0026V83.0107Z" fill="#ECB591"/>
</svg>
