<svg width="132" height="112" viewBox="0 0 132 112" fill="none" xmlns="http://www.w3.org/2000/svg">
<path d="M23.0155 73.3321C23.6918 73.238 24.3799 73.1439 25.015 73.0557C25.315 73.4438 25.6208 73.6673 25.6855 73.9378C25.9207 74.9729 26.0207 76.0315 26.2736 77.0607C26.7264 78.9132 27.1322 80.7893 27.7791 82.5771C28.2026 83.7475 28.8613 84.9237 30.3374 85.2001C31.8547 84.7061 32.4428 83.4005 32.7781 82.0714C33.2897 80.0189 33.6367 77.9193 33.9249 75.8257C34.0954 74.5906 34.2366 73.4791 35.7657 73.3262C36.9419 73.5379 37.3535 74.3436 37.3712 75.3963C37.4359 79.072 36.936 82.6418 34.9129 85.8C32.3605 89.7815 28.279 89.8226 25.6031 85.8941C23.3154 82.5242 22.6332 78.6603 22.5567 74.6671C22.5509 74.2789 22.8214 73.879 23.0272 73.3321H23.0155Z" fill="black"/>
<path d="M104.3 65.5285C105.429 68.8513 105.835 72.5446 108.593 75.444C110.028 73.8855 110.075 72.08 110.287 70.3334C110.487 68.6631 110.657 66.987 110.822 65.4815C111.375 65.1521 111.64 64.8639 111.916 64.8581C112.416 64.8463 112.922 64.9992 113.498 65.0992C113.704 65.7755 114.086 66.393 114.027 66.9576C113.745 69.5923 113.451 72.2388 112.928 74.8265C112.704 75.9204 112.045 77.0143 111.328 77.8964C110.146 79.3491 108.223 79.6196 106.764 78.4316C105.641 77.52 104.547 76.3438 103.965 75.05C102.706 72.2624 101.789 69.3218 100.818 66.6636C101.842 65.3384 103.004 64.96 104.306 65.5285H104.3Z" fill="black"/>
<path d="M72.8769 57.6942C72.4769 58.1706 72.0417 58.6881 71.3889 59.4586C70.0892 58.4999 68.9307 57.6531 67.7486 56.7827C66.0666 57.2649 66.4371 59.3115 65.1726 60.1937C63.9141 60.6877 63.2495 60.0526 62.8496 58.7528C63.1201 56.8768 64.0905 55.2653 65.4961 53.9303C66.6429 52.8365 67.972 52.6659 69.2482 53.5892C70.6891 54.6302 72.1829 55.6888 72.871 57.6884L72.8769 57.6942Z" fill="black"/>
<path d="M51.1993 54.6245C50.6817 54.9127 50.1407 55.2127 49.6231 55.5008C48.2764 54.948 47.6118 53.9306 47.406 52.5956C47.1354 50.8312 48.1235 48.9846 49.582 48.4318C51.1287 47.8436 52.8048 48.5729 53.7987 50.3255C54.7044 51.9134 54.9102 53.4954 53.4282 55.1715C52.7519 55.0068 51.9991 54.8186 51.1934 54.6245H51.1993Z" fill="black"/>
<path d="M85.0752 50.6252C84.493 50.6252 84.0813 50.5958 83.6814 50.637C83.3756 50.6664 83.0757 50.784 82.6757 50.8899C82.3699 51.4721 82.0406 52.0955 81.7348 52.666C80.3527 52.7424 79.153 50.9958 79.1883 49.1314C79.2353 47.0437 80.6644 45.4616 82.4229 45.5557C84.4812 45.6675 85.4575 47.373 85.0752 50.6252Z" fill="black"/>
<path d="M94.1388 24.7845C95.0797 28.0249 94.9739 31.2007 94.7974 34.3589C93.6859 35.0176 92.8567 34.3118 92.0333 33.9942C84.0703 30.9184 75.8133 29.4423 67.2916 29.607C53.9533 29.8716 41.603 33.3473 30.6759 41.2633C30.1702 41.6279 29.6232 41.9337 28.8293 42.4336C28.2118 38.6815 27.7648 35.3587 30.8347 32.524C33.6224 29.9539 36.7629 27.9838 40.1504 26.3841C47.7546 22.7849 55.8294 20.9088 64.157 19.9796C70.7732 19.2386 77.3718 19.3151 83.9116 20.6207C87.4873 21.3323 90.9512 22.3791 94.1388 24.7786V24.7845Z" fill="#5C8EF2"/>
<path d="M60.6904 4.1403C61.8666 8.17472 62.6135 12.2503 61.4372 16.6494C50.6219 18.4843 40.2536 21.1543 30.8203 27.8117C31.0438 26.8648 31.0261 26.2591 31.3084 25.865C32.5435 24.136 33.7432 22.354 35.1841 20.8014C41.2769 14.2499 48.4459 9.15098 56.5324 5.34004C57.491 4.88719 58.4967 4.51081 59.4965 4.15206C59.7729 4.05208 60.1199 4.13442 60.6962 4.13442L60.6904 4.1403Z" fill="#5C8EF2"/>
<path d="M86.9363 17.685C79.9613 15.903 72.8511 15.903 65.6761 16.2088C65.2821 12.1626 64.9175 8.39285 64.5234 4.35254C67.3993 4.88184 69.7753 6.46385 72.2453 7.75181C74.8859 9.12798 77.4618 10.6512 79.9907 12.2332C82.4196 13.7505 84.7485 15.4266 87.1186 17.0322C87.0598 17.2498 87.0009 17.4674 86.9363 17.685Z" fill="#5C8EF2"/>
<path d="M13.6707 72.9141C14.8939 77.3425 16.0172 81.4064 17.1876 85.6407C13.3237 85.2996 9.60096 84.294 5.53125 82.9766C8.10717 79.3421 11.33 76.5839 13.6707 72.9141Z" fill="#5C8EF2"/>
<path d="M128.182 65.7045C125.712 68.6039 123.495 70.9681 120.095 72.4619C119.937 69.3331 119.796 66.4514 119.631 63.2168C122.418 64.0284 125.1 64.8047 128.182 65.7045Z" fill="#5C8EF2"/>
<path d="M52.8978 82.0483C54.1799 81.4307 55.856 80.8485 57.8026 80.3192C58.1085 80.2369 58.426 80.1545 58.7495 80.0722C58.7789 80.0663 58.8024 80.0604 58.8318 80.0546C59.1435 79.9781 59.4552 79.9017 59.7787 79.8252C59.8199 79.8134 59.8551 79.8076 59.8963 79.7958C60.2139 79.7252 60.5373 79.6488 60.8608 79.5841C60.902 79.5723 60.9431 79.5664 60.9843 79.5605C61.3195 79.49 61.6548 79.4194 61.9959 79.3547C62.0253 79.3547 62.0488 79.343 62.0782 79.3371C65.4363 78.6784 69.2002 78.1844 72.9582 77.9197C72.97 77.9197 72.9758 77.9197 72.9876 77.9197C73.3993 77.8903 73.811 77.8668 74.2226 77.8433C74.2226 77.8433 74.2344 77.8433 74.2403 77.8433C78.8452 77.5845 83.356 77.6962 86.9846 78.3138C87.3139 78.3667 87.6374 78.4314 87.9491 78.4961C87.955 78.4961 87.9608 78.4961 87.9726 78.4961C89.6605 78.696 94.6594 79.8781 94.6594 79.8781C95.0534 79.9193 95.4592 79.9781 95.8768 80.0604C95.9768 80.0781 96.0768 80.0957 96.1826 80.1193C96.3414 80.1545 96.5061 80.1957 96.6707 80.231C96.7942 80.2604 96.9119 80.2898 97.0354 80.3192C97.1942 80.3604 97.3588 80.4074 97.5235 80.4545C97.6588 80.4956 97.7881 80.5309 97.9234 80.578C98.0881 80.6309 98.2528 80.6838 98.4174 80.7426C98.5586 80.7897 98.7056 80.8426 98.8526 80.8956C99.0173 80.9544 99.1878 81.0191 99.3525 81.0838C99.5113 81.1426 99.6701 81.2073 99.8289 81.2719C99.9936 81.3366 100.158 81.4013 100.329 81.4778C100.517 81.5542 100.705 81.6425 100.899 81.7307C101.046 81.7954 101.193 81.8601 101.346 81.9306C101.681 82.0835 102.017 82.2482 102.364 82.4188C102.511 82.4893 102.658 82.5717 102.805 82.6422C103.028 82.754 103.246 82.8657 103.475 82.9892C103.64 83.0774 103.804 83.1657 103.969 83.2539C104.187 83.3715 104.41 83.495 104.634 83.6185C104.804 83.7126 104.975 83.8126 105.151 83.9126C105.381 84.0419 105.61 84.1772 105.845 84.3125C106.016 84.4124 106.192 84.5183 106.363 84.6183C106.61 84.7653 106.863 84.9182 107.116 85.077C107.28 85.177 107.451 85.2828 107.615 85.3887C107.898 85.5651 108.192 85.7533 108.48 85.9356C108.627 86.0297 108.768 86.118 108.915 86.2121C109.356 86.4944 109.797 86.7884 110.25 87.0942C110.25 87.0942 110.25 87.0942 110.256 87.0942C110.75 86.4767 111.332 85.8886 111.762 85.2064C112.691 83.7361 113.485 82.2247 114.132 80.6838C114.455 79.9134 114.749 79.1371 115.002 78.3549C117.772 69.8979 116.502 60.8116 111.432 53.1368C111.173 52.7428 110.903 52.3546 110.621 51.9665C110.491 51.7901 110.362 51.6077 110.227 51.4313C109.503 50.4727 108.721 49.5435 107.868 48.6378C107.057 47.7733 106.222 46.9558 105.363 46.1736C104.504 45.3914 103.622 44.6504 102.716 43.9506C97.2883 39.7397 91.0661 36.9227 84.2499 35.2054C80.6801 34.3056 77.1396 33.6881 73.6345 33.3529C72.6347 33.2588 71.635 33.1882 70.6411 33.1353C70.1412 33.1117 69.6471 33.0941 69.1473 33.0823C67.6593 33.047 66.1773 33.0647 64.6953 33.1294C64.2013 33.1529 63.7131 33.1823 63.2191 33.2176C60.2727 33.4293 57.3557 33.8527 54.4681 34.4997C51.7098 35.1172 48.9692 35.9346 46.264 36.9521C45.9464 37.0697 45.6347 37.1932 45.3171 37.3167C42.6706 38.3577 40.0535 39.5927 37.46 41.0218C35.284 42.2215 33.2609 43.6036 31.3672 45.1327C28.4678 47.4792 25.8919 50.1963 23.6394 53.2427C20.8459 57.0242 19.0404 61.1233 18.1876 65.3166C18.1053 65.7341 18.0289 66.1576 17.9642 66.5751C17.8348 67.4161 17.7407 68.263 17.6878 69.104C17.5819 70.7918 17.6231 72.4915 17.8171 74.1735C17.9171 75.0145 18.0524 75.8555 18.2229 76.6906C18.7463 79.1959 19.605 81.6601 20.8047 84.0361C21.6046 85.6181 22.5514 87.1648 23.6453 88.6586C23.9217 89.0291 24.204 89.3996 24.4922 89.7642C25.0744 90.4935 25.6978 91.211 26.3565 91.9167C27.2916 92.9165 28.3149 93.8281 29.497 94.969C29.8146 94.6808 30.138 94.3985 30.4556 94.1221C30.9437 93.6987 31.4377 93.2811 31.9317 92.8753C33.7255 91.4109 35.5663 90.0759 37.4717 88.8586C41.0357 86.5826 44.8231 84.7241 48.9634 83.1774C49.2927 82.7893 52.8861 82.0306 52.8861 82.0306L52.8978 82.0483ZM104.299 65.5283C105.428 68.8511 105.833 72.5444 108.592 75.4438C110.027 73.8853 110.074 72.0798 110.285 70.3331C110.485 68.6629 110.656 66.9868 110.821 65.4812C111.373 65.1519 111.638 64.8637 111.915 64.8578C112.414 64.8461 112.92 64.999 113.497 65.099C113.702 65.7753 114.085 66.3928 114.026 66.9574C113.744 69.5921 113.449 72.2386 112.926 74.8263C112.703 75.9202 112.044 77.014 111.326 77.8962C110.144 79.3488 108.221 79.6194 106.763 78.4314C105.639 77.5198 104.546 76.3436 103.963 75.0498C102.705 72.2621 101.787 69.3216 100.817 66.6633C101.84 65.3381 103.003 64.9598 104.304 65.5283H104.299ZM82.415 45.5561C84.4734 45.6678 85.4496 47.3734 85.0674 50.6256C84.4851 50.6256 84.0734 50.5962 83.6735 50.6374C83.3677 50.6668 83.0678 50.7844 82.6679 50.8902C82.3621 51.4725 82.0327 52.0959 81.7269 52.6663C80.3448 52.7428 79.1451 50.9961 79.1804 49.1318C79.2274 47.044 80.6565 45.462 82.415 45.5561ZM34.9017 85.8063C32.3493 89.7878 28.2678 89.8289 25.5919 85.9004C23.3042 82.5305 22.622 78.6666 22.5455 74.6734C22.5396 74.2852 22.8102 73.8853 23.016 73.3384C23.6923 73.2443 24.3804 73.1502 25.0156 73.062C25.3155 73.4501 25.6213 73.6736 25.686 73.9441C25.9213 74.9792 26.0213 76.0378 26.2741 77.067C26.727 78.9195 27.1328 80.7956 27.7797 82.5834C28.2031 83.7538 28.8618 84.93 30.338 85.2064C31.8553 84.7124 32.4434 83.4068 32.7786 82.0777C33.2903 80.0252 33.6373 77.9256 33.9254 75.8319C34.096 74.5969 34.2371 73.4854 35.7662 73.3325C36.9424 73.5442 37.3541 74.3499 37.3717 75.4026C37.4364 79.0783 36.9365 82.6481 34.9135 85.8063H34.9017ZM65.501 53.9367C66.6478 52.8428 67.9769 52.6722 69.2531 53.5956C70.694 54.6365 72.1878 55.6951 72.8759 57.6947C72.476 58.171 72.0407 58.6886 71.3879 59.459C70.0882 58.5004 68.9297 57.6535 67.7476 56.7831C66.0656 57.2654 66.4361 59.312 65.1716 60.1941C63.9131 60.6881 63.2485 60.053 62.8486 58.7533C63.1191 56.8772 64.0895 55.2658 65.4951 53.9308L65.501 53.9367ZM47.4049 52.5958C47.1343 50.8314 48.1224 48.9848 49.5809 48.432C51.1276 47.8439 52.8037 48.5731 53.7976 50.3257C54.7033 51.9136 54.9091 53.4956 53.4271 55.1717C52.7508 55.007 51.998 54.8188 51.1923 54.6247C50.6748 54.9129 50.1337 55.2129 49.6162 55.501C48.2694 54.9482 47.6048 53.9308 47.399 52.5958H47.4049Z" fill="#CE6626"/>
<path d="M52.5938 106.255C53.5289 106.344 54.4463 106.438 55.352 106.538C56.1224 106.62 56.8811 106.702 57.6339 106.779C59.3688 106.955 61.0743 107.108 62.7798 107.161C66.2849 107.267 69.8253 107.243 73.307 106.867C74.1479 106.779 74.9948 106.667 75.8358 106.532C77.7295 106.238 79.6115 105.844 81.4758 105.385C82.0933 105.232 82.7108 105.085 83.3224 104.914C84.0105 104.726 84.6927 104.52 85.3749 104.303C86.31 104.003 87.2451 103.679 88.192 103.338C89.1565 102.991 90.1327 102.633 91.1266 102.268C91.8147 102.015 92.5087 101.762 93.2203 101.515C93.2203 101.515 95.4081 100.38 96.1373 99.9155C96.5902 99.6038 97.0371 99.2921 97.49 98.9863C97.6605 98.8686 97.8311 98.7569 97.9958 98.6393C98.9308 97.9982 99.8601 97.3631 100.772 96.7103C100.883 96.6279 101.001 96.5456 101.113 96.4633C102.336 95.5811 103.518 94.6578 104.635 93.6521C105.106 93.2228 105.571 92.7817 106.018 92.323C106.465 91.8584 106.894 91.382 107.311 90.8762C107.517 90.6234 107.723 90.3646 107.923 90.0999C106.864 89.1002 105.741 88.2415 104.571 87.4887C103.789 86.9888 102.983 86.5419 102.16 86.1302C101.613 85.8538 101.06 85.595 100.495 85.3539C99.2073 84.7952 97.884 84.3012 96.5372 83.8483C95.3787 83.4543 94.2024 83.0838 93.0145 82.7192L89.527 82.0605C88.7389 81.937 87.9567 81.8311 87.1745 81.737C85.6102 81.5488 84.0517 81.4077 82.4991 81.3136C80.1878 81.1783 77.8824 81.1548 75.5888 81.2371C75.5359 81.2371 75.4771 81.2371 75.4241 81.243C73.9892 81.2959 72.5542 81.3959 71.1251 81.5312C70.2958 81.6076 69.4666 81.7017 68.6374 81.8076C66.3437 82.1017 64.056 82.4957 61.7683 82.9897C58.7219 83.6484 55.6755 84.4776 52.6291 85.4715L49.2945 86.6536C48.6064 86.9653 47.9242 87.277 47.2479 87.5946C45.8952 88.2298 44.5602 88.8825 43.2487 89.5765C41.9431 90.2646 40.661 90.9939 39.4201 91.7643C37.5558 92.9287 35.7621 94.2049 34.0742 95.6458C33.8331 95.8516 33.5684 96.0281 33.2979 96.1986C33.0274 96.3692 32.751 96.5338 32.4863 96.7044C33.492 97.7395 34.4036 98.5511 35.6209 99.345C35.9562 99.5626 36.309 99.7743 36.6972 99.9919C37.0853 100.21 37.5029 100.433 37.9616 100.656C38.1145 100.733 38.2733 100.809 38.4321 100.886C39.079 101.198 39.7965 101.521 40.6081 101.874C41.0139 102.05 41.4432 102.233 41.9019 102.421C42.196 102.544 42.5077 102.668 42.8194 102.797C43.484 103.068 44.1956 103.356 44.966 103.662C46.101 104.115 47.3655 104.603 48.7652 105.15L52.5761 106.249L52.5938 106.255Z" fill="#EDB591"/>
<path d="M87.9508 78.4836C87.6391 78.4189 87.3156 78.3601 86.9863 78.3013C83.3577 77.6838 78.8469 77.5779 74.242 77.8308C74.242 77.8308 74.2302 77.8308 74.2243 77.8308C73.8127 77.8543 73.401 77.8778 72.9893 77.9072C72.9776 77.9072 72.9717 77.9072 72.9599 77.9072C69.2078 78.1719 65.438 78.6659 62.0799 79.3246C62.0505 79.3246 62.027 79.3363 61.9976 79.3422C61.6565 79.4069 61.3212 79.4775 60.986 79.5481C60.9449 79.5598 60.9037 79.5657 60.8625 79.5716C60.5332 79.6422 60.2156 79.7127 59.898 79.7833C59.8569 79.7951 59.8216 79.8009 59.7804 79.8127C59.4628 79.8892 59.1452 79.9597 58.8335 80.0421C58.8041 80.048 58.7806 80.0538 58.7512 80.0597C58.4277 80.1421 58.116 80.2244 57.8043 80.3067C55.8577 80.836 54.1816 81.4182 52.8995 82.0358C52.6055 82.1769 52.3291 82.3181 52.0762 82.4651C52.2408 83.3472 52.429 84.3117 52.6466 85.4527C55.693 84.4588 58.7394 83.6295 61.7858 82.9709C64.0736 82.4768 66.3613 82.0828 68.655 81.7888C69.4842 81.6829 70.3134 81.5947 71.1427 81.5123C72.5718 81.3771 74.0067 81.283 75.4417 81.2242C75.4947 81.2242 75.5535 81.2242 75.6064 81.2183C77.9 81.136 80.1995 81.1595 82.5167 81.2947C84.0693 81.383 85.6278 81.5241 87.1921 81.7182C87.9743 81.8123 88.7565 81.924 89.5446 82.0416V78.8364C89.0447 78.6953 88.5095 78.5718 87.9567 78.4601L87.9508 78.4836Z" fill="black"/>
<path d="M26.3103 96.7341C27.3747 97.7339 28.4863 98.6749 29.6566 99.557C30.2388 99.9981 30.8387 100.422 31.4503 100.833C32.062 101.245 32.6912 101.633 33.3323 102.009C33.5146 102.115 33.6969 102.215 33.8792 102.321C34.3262 102.58 34.7731 102.839 35.226 103.086C39.6662 105.52 44.324 107.491 49.6346 108.661C49.6876 108.673 49.7464 108.69 49.7993 108.702C49.6111 107.749 49.5641 107.249 49.4112 106.785C49.223 106.191 48.9583 105.62 48.776 105.156C47.3763 104.615 46.1119 104.121 44.9768 103.668C44.2064 103.362 43.4948 103.074 42.8302 102.803C42.5127 102.674 42.2068 102.545 41.9128 102.427C41.4541 102.239 41.0247 102.056 40.6189 101.88C39.8074 101.527 39.084 101.204 38.4429 100.892C38.2841 100.816 38.1254 100.739 37.9725 100.663C37.5137 100.433 37.0962 100.216 36.708 99.9981C36.3199 99.7805 35.967 99.5629 35.6318 99.3512C34.4144 98.5572 33.4969 97.7515 32.4972 96.7106C32.7618 96.5342 33.0382 96.3754 33.3088 96.2048C33.5793 96.0343 33.8439 95.8578 34.0851 95.652C35.7729 94.2111 37.5667 92.9349 39.431 91.7705C40.6778 90.9942 41.9539 90.2708 43.2596 89.5827C44.5652 88.8946 45.9002 88.2359 47.2587 87.6008C47.935 87.2832 48.6172 86.9715 49.3053 86.6598C49.1936 85.5189 49.0995 84.5367 48.9701 83.1959C44.8357 84.7426 41.0483 86.601 37.4784 88.877C35.573 90.0944 33.7381 91.4294 31.9385 92.8938C31.4444 93.2996 30.9504 93.7112 30.4623 94.1406C30.1388 94.417 29.8213 94.6993 29.5037 94.9874C28.3275 93.8465 27.2983 92.929 26.3632 91.9352C25.7045 91.2353 25.0811 90.5178 24.4989 89.7827C24.2048 89.418 23.9225 89.0475 23.652 88.677C22.5581 87.1832 21.6113 85.6424 20.8114 84.0545C19.6117 81.6785 18.7531 79.2144 18.2296 76.709C18.0532 75.8739 17.9179 75.0329 17.8239 74.1919C17.6298 72.5099 17.5827 70.8162 17.6945 69.1224C17.7474 68.2755 17.8415 67.4345 17.9709 66.5935C18.0356 66.1701 18.112 65.7525 18.1944 65.335C19.0412 61.1418 20.8526 57.0426 23.6461 53.2611C25.8986 50.2088 28.4745 47.4977 31.3739 45.1511C33.2676 43.622 35.2907 42.24 37.4667 41.0402C40.0602 39.6052 42.6773 38.3761 45.3238 37.3351C45.6355 37.2116 45.9531 37.0881 46.2707 36.9705C48.9818 35.9531 51.7166 35.1297 54.4748 34.5181C57.3683 33.8712 60.2853 33.4477 63.2258 33.236C63.714 33.2007 64.208 33.1713 64.702 33.1478C66.1781 33.0772 67.6602 33.0596 69.154 33.1007C69.648 33.1125 70.1479 33.1302 70.6478 33.1537C71.6417 33.2007 72.6415 33.2713 73.6412 33.3713C77.1464 33.7065 80.6868 34.324 84.2566 35.2238C91.0728 36.9411 97.295 39.7581 102.723 43.969C103.629 44.6688 104.511 45.4099 105.37 46.1921C106.228 46.9742 107.063 47.7917 107.875 48.6562C108.722 49.556 109.51 50.4911 110.233 51.4497C110.369 51.6262 110.498 51.8026 110.627 51.9849C110.91 52.3731 111.18 52.7612 111.439 53.1553C116.514 60.8301 117.779 69.9164 115.009 78.3734C114.75 79.1555 114.462 79.9318 114.138 80.7023C113.486 82.2431 112.698 83.7546 111.768 85.2248C111.339 85.907 110.757 86.4951 110.263 87.1127C110.263 87.1127 110.263 87.1127 110.257 87.1127C109.804 86.8068 109.357 86.5187 108.922 86.2305C108.775 86.1364 108.634 86.0482 108.487 85.9541C108.193 85.7659 107.904 85.5836 107.622 85.4071C107.452 85.3013 107.287 85.2013 107.122 85.0954C106.869 84.9425 106.616 84.7837 106.369 84.6367C106.193 84.5309 106.023 84.4309 105.852 84.3309C105.617 84.1956 105.387 84.0604 105.158 83.931C104.987 83.831 104.811 83.731 104.64 83.6369C104.417 83.5134 104.193 83.3899 103.976 83.2723C103.811 83.1841 103.647 83.09 103.482 83.0077C103.253 82.89 103.035 82.7724 102.811 82.6607C102.664 82.5842 102.511 82.5078 102.37 82.4372C102.023 82.2666 101.682 82.102 101.353 81.9491C101.2 81.8785 101.053 81.8138 100.906 81.7491C100.718 81.6668 100.524 81.5786 100.335 81.4962C100.165 81.4256 100 81.3609 99.8356 81.2904C99.6768 81.2257 99.518 81.161 99.3592 81.1022C99.1887 81.0375 99.024 80.9787 98.8593 80.914C98.7123 80.8611 98.5712 80.8081 98.4241 80.7611C98.2595 80.7023 98.0948 80.6493 97.9301 80.5964C97.7949 80.5552 97.6596 80.5141 97.5302 80.4729C97.3655 80.4259 97.2009 80.3788 97.0421 80.3376C96.9186 80.3024 96.7951 80.2788 96.6775 80.2494C96.5128 80.2083 96.354 80.1671 96.1893 80.1377C96.0835 80.1142 95.9835 80.0965 95.8835 80.0789C95.466 80.0024 95.0543 79.9377 94.6661 79.8966C94.0957 79.8436 93.5487 79.8319 93.0312 79.8672V82.7489C94.2133 83.1135 95.3895 83.484 96.554 83.8781C97.9007 84.3309 99.224 84.8249 100.512 85.3836C101.077 85.6306 101.629 85.8894 102.176 86.1599C103 86.5716 103.805 87.0186 104.588 87.5184C105.764 88.2653 106.887 89.124 107.94 90.1296C107.74 90.3943 107.534 90.6531 107.328 90.906C106.911 91.4117 106.481 91.894 106.034 92.3527C105.587 92.8173 105.129 93.2584 104.652 93.6818C103.535 94.6934 102.347 95.6108 101.129 96.493C101.018 96.5753 100.9 96.6577 100.788 96.74C99.8768 97.3928 98.9476 98.028 98.0125 98.669C97.8419 98.7866 97.6714 98.8984 97.5067 99.016C97.0538 99.3218 96.6069 99.6335 96.154 99.9452C96.5187 100.945 96.8539 101.862 97.2832 103.045C99.2945 101.898 101.2 100.68 102.994 99.3865C104.188 98.522 105.334 97.628 106.422 96.6871C107.51 95.752 108.551 94.7757 109.534 93.7583C113.456 89.6945 116.467 84.9602 118.367 79.3496C118.602 78.6498 118.826 77.9323 119.026 77.203C120.084 76.6031 121.066 76.0268 121.972 75.4681C122.878 74.9094 123.713 74.3742 124.471 73.8508C125.618 73.0686 126.606 72.3158 127.459 71.5807C130.023 69.3694 131.358 67.2993 131.976 64.8998C131.782 64.5646 131.617 64.294 131.47 64.0588C131.329 63.8353 131.199 63.6412 131.07 63.4883C130.976 63.3707 130.888 63.2707 130.788 63.1825C130.311 62.7591 129.717 62.612 128.359 62.2709C127.906 62.1592 127.453 62.0475 127 61.9357C126.318 61.771 125.642 61.6064 124.96 61.4241C124.06 61.1829 123.16 60.9124 122.284 60.5831C122.066 60.5007 121.843 60.4125 121.625 60.3243C120.319 59.7774 119.055 59.0716 117.873 58.0895C114.703 50.0442 109.11 44.0219 102.176 39.3406C100.83 38.4349 99.4416 37.5704 98.0066 36.7588C98.0066 35.6943 98.0066 34.6534 98.0125 33.6242C98.0125 32.595 98.0183 31.5775 98.0183 30.5778C98.0183 28.5664 98.0183 26.5963 97.9772 24.6261C97.9654 23.8674 97.8243 23.1323 97.542 22.4501C97.2656 21.7679 96.848 21.1386 96.2834 20.5799C96.0541 20.3564 95.8306 20.1271 95.6071 19.8977C95.266 19.5566 94.9249 19.2096 94.5779 18.8744C94.2368 18.5392 93.8898 18.2098 93.5252 17.904C91.9432 16.5514 90.3318 15.2575 88.6792 14.0166C88.1322 13.6049 87.5794 13.1933 87.0207 12.7934C85.9092 11.9877 84.78 11.2055 83.6391 10.4527C83.0686 10.0763 82.4923 9.69991 81.9159 9.33528C80.7632 8.60014 79.5929 7.88853 78.4108 7.20045C75.4526 5.47729 72.4121 3.8894 69.2892 2.43677C68.0424 1.85454 66.778 1.29584 65.5018 0.754776C64.9196 0.50777 64.3491 0.325456 63.7845 0.207835C63.5022 0.149024 63.22 0.101973 62.9377 0.0725677C62.6554 0.0431623 62.3731 0.0255192 62.0967 0.0314003C61.2557 0.0314003 60.4088 0.166664 59.556 0.425432C59.2679 0.513648 58.9856 0.613629 58.6915 0.731251C54.7512 2.29562 51.0167 4.15993 47.4939 6.32417C45.7355 7.40629 44.0241 8.55898 42.3656 9.794C41.8128 10.2057 41.2659 10.6232 40.7248 11.0467C39.6427 11.8994 38.5841 12.7875 37.549 13.7049C35.4789 15.5457 33.5028 17.5159 31.615 19.6213C30.0624 21.3503 28.7803 23.1735 27.7629 25.0848C27.5629 25.4671 27.3689 25.8553 27.1865 26.2434C26.8278 27.0256 26.5102 27.8195 26.2397 28.6252C26.1044 29.031 25.9809 29.4368 25.8633 29.8485C25.0693 32.7361 24.8282 35.806 25.1634 39.0642C25.2752 40.1228 25.3575 41.1814 25.434 42.2341C25.5104 43.2868 25.581 44.3277 25.6575 45.3393C25.2105 45.8745 24.887 46.3038 24.5224 46.6919C23.3756 47.927 22.3111 49.2032 21.329 50.5323C20.8408 51.1968 20.3704 51.8732 19.9234 52.5613C19.4764 53.2494 19.053 53.9492 18.6531 54.6608C18.4531 55.0196 18.2591 55.3783 18.0709 55.7371C17.6945 56.4604 17.3357 57.2014 17.0064 57.9542C16.8417 58.3306 16.677 58.707 16.5241 59.0952C16.0595 60.242 15.6478 61.4241 15.295 62.6356C15.1774 63.0414 15.0656 63.4472 14.9598 63.8588C14.7539 64.6645 14.454 65.4761 14.0835 66.2524C13.9012 66.6406 13.6953 67.017 13.4777 67.3875C13.2601 67.758 13.0249 68.105 12.7779 68.4402C11.5781 70.0693 10.3137 71.6572 9.04339 73.2333C7.77307 74.8094 6.47923 76.3738 5.22656 77.9676C3.83863 79.726 2.47421 81.4962 1.19214 83.3311C0.927488 83.7075 0.715769 84.1015 0.60991 84.5015C0.574623 84.6367 0.551099 84.772 0.545218 84.9072C0.521693 85.3777 0.680483 85.8541 1.12745 86.3187C1.19214 86.3834 1.26271 86.4481 1.33916 86.5187C2.15664 86.5481 2.96234 86.6069 3.76805 86.6951C5.37359 86.8656 6.96736 87.1421 8.54938 87.4714C9.26687 87.6184 9.97848 87.7831 10.696 87.9478C10.8489 87.9831 10.9959 88.0183 11.1488 88.0536C11.8604 88.2242 12.572 88.4006 13.2778 88.577C14.4599 88.8711 15.6361 89.1652 16.8241 89.4474C18.0062 89.7297 19.2 89.9885 20.3939 90.2179C22.2347 92.5644 24.1813 94.7639 26.3103 96.7576V96.7341ZM128.182 65.7055C125.712 68.6049 123.495 70.9691 120.096 72.4629C119.937 69.3341 119.796 66.4524 119.631 63.2178C122.419 64.0294 125.101 64.8057 128.182 65.7055ZM72.2474 7.75327C74.888 9.12944 77.464 10.6526 79.9928 12.2347C82.4217 13.752 84.7506 15.4281 87.1207 17.0336C87.0619 17.2512 87.0031 17.4688 86.9384 17.6864C79.9634 15.9045 72.8532 15.9045 65.6783 16.2103C65.2842 12.1641 64.9196 8.3943 64.5256 4.354C67.4014 4.8833 69.7774 6.46531 72.2474 7.75327ZM31.3092 25.867C32.5442 24.138 33.7439 22.356 35.1848 20.8034C41.2776 14.2519 48.4467 9.15296 56.5332 5.34202C57.4977 4.88918 58.4974 4.51279 59.4972 4.15404C59.7736 4.05406 60.1206 4.1364 60.697 4.1364C61.8732 8.17083 62.6201 12.2464 61.4439 16.6455C50.6286 18.4804 40.2602 21.1504 30.8269 27.8078C31.0504 26.8609 31.0328 26.2552 31.3151 25.8611L31.3092 25.867ZM30.8328 32.5362C33.6204 29.9661 36.761 27.996 40.1485 26.3963C47.7527 22.7971 55.8274 20.921 64.1551 19.9918C70.7713 19.2508 77.3699 19.3272 83.9096 20.6328C87.4853 21.3445 90.9493 22.3913 94.1368 24.7908C95.0778 28.0313 94.9719 31.207 94.7955 34.3652C93.684 35.0239 92.8548 34.3181 92.0314 34.0006C84.0684 30.9247 75.8114 29.4486 67.2897 29.6133C53.9514 29.8779 41.6011 33.3536 30.674 41.2696C30.1683 41.6342 29.6213 41.94 28.8274 42.4399C28.2099 38.6878 27.7629 35.365 30.8328 32.5303V32.5362ZM5.5265 82.9783C8.10241 79.3437 11.3252 76.5855 13.6659 72.9157C14.8892 77.3442 16.0125 81.408 17.1828 85.6424C13.3189 85.3013 9.59621 84.2956 5.5265 82.9783Z" fill="black"/>
<path d="M94.3436 104.161C93.9613 103.261 93.632 102.491 93.2203 101.526C92.5087 101.773 91.8147 102.026 91.1266 102.279C90.1327 102.644 89.1565 103.003 88.192 103.35C87.2451 103.691 86.31 104.014 85.3749 104.314C84.6927 104.532 84.0105 104.737 83.3224 104.926C82.7108 105.09 82.0933 105.243 81.4758 105.396C79.6115 105.855 77.7295 106.249 75.8358 106.543C74.9948 106.672 74.1538 106.784 73.3069 106.878C69.8253 107.255 66.2849 107.278 62.7798 107.172C61.0743 107.119 59.3688 106.972 57.6338 106.79C56.8811 106.713 56.1165 106.631 55.352 106.549C54.4463 106.449 53.5288 106.355 52.5938 106.267C52.8172 107.119 52.9349 107.631 53.0878 108.131C53.2348 108.619 53.423 109.095 53.5935 109.589C58.0338 110.466 62.4387 110.807 66.826 110.742C67.7023 110.73 68.5785 110.701 69.4548 110.654C70.4193 110.607 71.3838 110.53 72.3483 110.448C73.1364 110.377 73.9186 110.301 74.7066 110.207C76.0828 110.042 77.4472 109.83 78.8057 109.578C80.6406 109.242 82.4579 108.831 84.2458 108.331C85.0221 108.113 85.7984 107.878 86.5688 107.631C87.8038 107.231 89.0271 106.772 90.2386 106.29C91.2913 105.867 92.3381 105.426 93.3732 104.937C93.7202 104.773 93.9907 104.449 94.3377 104.173L94.3436 104.161Z" fill="black"/>
<path d="M98.859 80.8892C98.712 80.8363 98.5709 80.7834 98.4238 80.7363C98.565 80.7834 98.712 80.8363 98.859 80.8892Z" fill="black"/>
<path d="M5.23384 77.9374C6.48651 76.3495 7.77447 74.7793 9.05067 73.2031C7.77447 74.7793 6.48651 76.3436 5.23384 77.9374Z" fill="black"/>
<path d="M107.88 48.637C108.727 49.5368 109.515 50.4719 110.239 51.4305C109.515 50.4719 108.733 49.5427 107.88 48.637Z" fill="black"/>
<path d="M97.9234 80.5717C97.7881 80.5306 97.6528 80.4894 97.5234 80.4482C97.6587 80.4894 97.7881 80.5247 97.9234 80.5717Z" fill="black"/>
<path d="M87.9747 78.4844C87.9747 78.4844 87.9629 78.4844 87.9512 78.4844C88.504 78.5961 89.0392 78.7196 89.5391 78.8608V82.066L93.0266 82.7246V79.8429C93.5441 79.8076 94.091 79.8194 94.6615 79.8723C94.6615 79.8723 89.6626 78.6843 87.9747 78.4844Z" fill="black"/>
<path d="M26.3104 96.733C24.1815 94.7394 22.2289 92.5339 20.394 90.1933C19.1943 89.9639 18.0063 89.7051 16.8242 89.4229C18.0063 89.7051 19.2002 89.9698 20.394 90.1933C22.2348 92.5398 24.1815 94.7394 26.3104 96.733Z" fill="black"/>
<path d="M97.0345 80.3138C96.911 80.2785 96.7875 80.255 96.6699 80.2256C96.7934 80.255 96.911 80.2844 97.0345 80.3138Z" fill="black"/>
<path d="M19.9355 52.5368C20.3825 51.8487 20.8471 51.1724 21.3411 50.5078C20.853 51.1724 20.3825 51.8487 19.9355 52.5368Z" fill="black"/>
<path d="M25.4409 42.209C25.5173 43.2617 25.5879 44.3027 25.6643 45.3142C25.2174 45.8494 24.8939 46.2787 24.5293 46.6668C24.888 46.2787 25.2115 45.8494 25.6643 45.3142C25.5879 44.2968 25.5173 43.2558 25.4409 42.209Z" fill="black"/>
<path d="M17.0117 57.9301C17.3469 57.1773 17.6998 56.4421 18.0762 55.7129C17.6998 56.4363 17.3411 57.1773 17.0117 57.9301Z" fill="black"/>
<path d="M100.901 81.7187C100.712 81.6364 100.518 81.5482 100.33 81.4658C100.518 81.5423 100.706 81.6305 100.901 81.7187Z" fill="black"/>
<path d="M10.6954 87.9178C9.98381 87.7531 9.26632 87.5884 8.54883 87.4414C9.26632 87.5884 9.97793 87.7531 10.6954 87.9178Z" fill="black"/>
<path d="M13.2793 88.5469C12.5677 88.3704 11.862 88.194 11.1504 88.0234C11.862 88.194 12.5736 88.3704 13.2793 88.5469Z" fill="black"/>
<path d="M107.315 90.8818C106.898 91.3876 106.468 91.8699 106.021 92.3286C106.468 91.864 106.898 91.3876 107.315 90.8818Z" fill="black"/>
<path d="M75.6041 81.2432C75.5512 81.2432 75.4924 81.2432 75.4395 81.2491C75.4924 81.2491 75.5512 81.249 75.6041 81.2432Z" fill="black"/>
<path d="M61.9902 79.3487C61.9902 79.3487 62.0432 79.3369 62.0726 79.3311C62.0432 79.3311 62.0196 79.3428 61.9902 79.3487Z" fill="black"/>
<path d="M60.8574 79.5851C60.8986 79.5733 60.9398 79.5674 60.9809 79.5615C60.9398 79.5674 60.8986 79.5792 60.8574 79.5851Z" fill="black"/>
<path d="M107.928 90.1053C106.87 89.1056 105.747 88.2469 104.576 87.4941C105.752 88.241 106.876 89.0997 107.928 90.1053Z" fill="black"/>
<path d="M71.14 81.5361C70.3108 81.6126 69.4816 81.7067 68.6523 81.8125C69.4816 81.7067 70.3108 81.6185 71.14 81.5361Z" fill="black"/>
<path d="M58.748 80.0723C58.748 80.0723 58.801 80.0606 58.8304 80.0547C58.801 80.0606 58.7775 80.0664 58.748 80.0723Z" fill="black"/>
<path d="M97.9941 98.6445C97.8235 98.7622 97.653 98.8739 97.4883 98.9915C97.6588 98.8739 97.8294 98.7622 97.9941 98.6445Z" fill="black"/>
<path d="M69.1532 33.0814C67.6652 33.0462 66.1832 33.0638 64.7012 33.1285C66.1773 33.0579 67.6594 33.0403 69.1532 33.0814Z" fill="black"/>
<path d="M57.6373 106.778C56.8845 106.702 56.12 106.619 55.3555 106.537C56.1259 106.619 56.8845 106.702 57.6373 106.778Z" fill="black"/>
<path d="M122.271 60.5645C123.154 60.8938 124.048 61.1643 124.947 61.4054C124.048 61.1643 123.148 60.8938 122.271 60.5645Z" fill="black"/>
<path d="M32.502 96.704C32.7666 96.5276 33.043 96.3688 33.3135 96.1982C33.043 96.3688 32.7666 96.5335 32.502 96.704Z" fill="black"/>
<path d="M110.251 87.0892C109.798 86.7834 109.351 86.4952 108.916 86.207C109.357 86.4893 109.798 86.7834 110.251 87.0892Z" fill="black"/>
<path d="M37.4853 88.8711C35.5798 90.0885 33.7449 91.4235 31.9453 92.8879C33.739 91.4235 35.5798 90.0885 37.4853 88.8711Z" fill="black"/>
<path d="M52.5922 106.254L48.7812 105.154C48.9636 105.619 49.2282 106.189 49.4164 106.783C49.5634 107.254 49.6164 107.748 49.8046 108.701C49.7457 108.689 49.6928 108.671 49.6399 108.659L53.5979 109.577C53.4273 109.083 53.2391 108.606 53.0921 108.118C52.9392 107.618 52.8216 107.107 52.5981 106.254H52.5922Z" fill="black"/>
<path d="M42.8374 102.802C42.5198 102.673 42.214 102.543 41.9199 102.426C42.214 102.549 42.5257 102.673 42.8374 102.802Z" fill="black"/>
<path d="M29.5078 94.9807C29.8254 94.6925 30.1488 94.4102 30.4664 94.1338C30.143 94.4102 29.8254 94.6925 29.5078 94.9807Z" fill="black"/>
<path d="M74.7099 110.196C76.0861 110.031 77.4505 109.819 78.809 109.566C77.4505 109.813 76.0861 110.031 74.7099 110.196Z" fill="#EDB591"/>
<path d="M108.482 85.9297C108.188 85.7416 107.899 85.5592 107.617 85.3828C107.899 85.5592 108.194 85.7474 108.482 85.9297Z" fill="black"/>
<path d="M26.3682 91.9279C25.7095 91.228 25.0861 90.5105 24.5039 89.7754C25.0861 90.5046 25.7095 91.2221 26.3682 91.9279Z" fill="black"/>
<path d="M46.2715 36.9583C48.9827 35.9409 51.7174 35.1175 54.4756 34.5059C51.7174 35.1234 48.9768 35.9409 46.2715 36.9583Z" fill="black"/>
<path d="M54.4746 34.5047C57.3681 33.8578 60.2851 33.4344 63.2257 33.2227C60.2792 33.4344 57.3622 33.8578 54.4746 34.5047Z" fill="black"/>
<path d="M70.6426 33.1357C71.6365 33.1828 72.6363 33.2534 73.636 33.3533C72.6363 33.2592 71.6365 33.1887 70.6426 33.1357Z" fill="black"/>
<path d="M52.6458 85.4696C52.4282 84.3287 52.2459 83.3583 52.0754 82.4821C52.3224 82.335 52.6047 82.1939 52.8987 82.0527C52.8987 82.0527 49.3054 82.8055 48.976 83.1937C44.8416 84.7404 41.0542 86.5988 37.4844 88.8748C41.0483 86.5988 44.8357 84.7404 48.976 83.1937C49.1054 84.5287 49.1995 85.5167 49.3112 86.6576L52.6458 85.4755V85.4696Z" fill="black"/>
<path d="M23.6511 88.6704C22.5572 87.1766 21.6104 85.6357 20.8105 84.0479C21.6104 85.6299 22.5572 87.1766 23.6511 88.6704Z" fill="black"/>
<path d="M59.5504 0.394531C59.2622 0.482748 58.9799 0.582724 58.6859 0.700346C58.974 0.582724 59.2622 0.482748 59.5504 0.394531Z" fill="black"/>
<path d="M93.22 101.526C93.6317 102.491 93.961 103.267 94.3433 104.161C94.0022 104.438 93.7257 104.761 93.3788 104.926C93.4317 104.902 93.4846 104.867 93.5317 104.832L97.2603 103.02C96.831 101.838 96.4957 100.921 96.1311 99.9209C95.4019 100.386 93.2141 101.521 93.2141 101.521L93.22 101.526Z" fill="black"/>
<path d="M18.2281 76.7017C18.0516 75.8666 17.9164 75.0256 17.8223 74.1846C17.9222 75.0256 18.0575 75.8666 18.2281 76.7017Z" fill="black"/>
<path d="M131.057 63.4639C131.186 63.6227 131.31 63.8109 131.457 64.0343C131.315 63.8109 131.186 63.6168 131.057 63.4639Z" fill="black"/>
<path d="M124.953 61.4062C125.629 61.5886 126.312 61.7532 126.994 61.9179C126.312 61.7532 125.635 61.5886 124.953 61.4062Z" fill="black"/>
<path d="M95.6015 19.8739C95.2604 19.5328 94.9192 19.1858 94.5723 18.8506C94.9192 19.1858 95.2604 19.5269 95.6015 19.8739Z" fill="black"/>
<path d="M127.447 71.5628C130.011 69.3515 131.346 67.2813 131.964 64.8818C131.346 67.2813 130.011 69.3573 127.447 71.5628Z" fill="black"/>
<path d="M62.0957 0.00112683C62.378 0.00112683 62.6544 0.0128888 62.9367 0.0422943C62.6544 0.0128888 62.3721 -0.00475425 62.0957 0.00112683Z" fill="black"/>
<path d="M45.3249 37.3232C42.6784 38.3642 40.0614 39.5992 37.4678 41.0283C40.0614 39.5933 42.6784 38.3642 45.3249 37.3232Z" fill="black"/>
<path d="M124.46 73.832C123.696 74.3554 122.867 74.8906 121.961 75.4493C122.867 74.8906 123.702 74.3554 124.46 73.832Z" fill="black"/>
<path d="M102.369 82.4071C102.022 82.2365 101.681 82.0719 101.352 81.9189C101.687 82.0719 102.022 82.2365 102.369 82.4071Z" fill="black"/>
<path d="M118.349 79.3311C116.449 84.9416 113.432 89.6759 109.516 93.7397C113.438 89.6759 116.449 84.9416 118.349 79.3311Z" fill="black"/>
<path d="M107.116 85.072C106.863 84.9191 106.61 84.7603 106.363 84.6133C106.61 84.7603 106.863 84.9132 107.116 85.072Z" fill="black"/>
<path d="M103.483 82.9779C103.259 82.8602 103.036 82.7426 102.812 82.6309C103.036 82.7426 103.254 82.8543 103.483 82.9779Z" fill="black"/>
<path d="M102.17 39.3162C100.823 38.4105 99.435 37.546 98 36.7344C99.435 37.546 100.829 38.4105 102.17 39.3162Z" fill="black"/>
<path d="M109.515 93.7393C108.533 94.7567 107.498 95.733 106.404 96.668C107.492 95.733 108.533 94.7567 109.515 93.7393Z" fill="black"/>
<path d="M57.2141 111.33C56.6318 111.33 56.0614 111.042 55.7261 110.512C52.5562 105.525 52.2387 99.4618 51.9328 93.5925C51.6682 88.4877 51.4153 83.6652 49.4216 79.6602C44.5932 69.9682 49.1217 54.8832 49.3158 54.248C49.598 53.3188 50.5861 52.7895 51.5212 53.0777C52.4504 53.36 52.9797 54.348 52.6915 55.2772C52.6503 55.4183 48.3865 69.6623 52.5856 78.0899C54.9087 82.7536 55.191 88.1701 55.4674 93.4102C55.7614 99.0678 56.0437 104.414 58.7137 108.619C59.2372 109.442 58.996 110.53 58.1727 111.053C57.8786 111.242 57.5493 111.33 57.2258 111.33H57.2141Z" fill="#96B6F6"/>
<path d="M97.2659 104.79C96.6602 104.79 96.0662 104.478 95.7427 103.913C95.4369 103.39 88.3149 90.9515 88.4796 74.6256C88.556 67.1978 86.8035 61.7225 85.3156 58.435C83.7041 54.871 82.0574 53.0361 82.0398 53.0185C81.387 52.301 81.434 51.1836 82.1515 50.5249C82.869 49.8662 83.9805 49.9133 84.6392 50.6249C84.945 50.9601 92.167 58.9643 92.0082 74.6609C91.8494 89.9753 98.7244 102.02 98.7891 102.137C99.2773 102.978 98.9891 104.06 98.1481 104.549C97.8717 104.713 97.5659 104.79 97.2659 104.79Z" fill="#96B6F6"/>
</svg>
