<svg width="226" height="146" viewBox="0 0 226 146" fill="none" xmlns="http://www.w3.org/2000/svg">
<path d="M174.012 73.8923C183.492 70.7823 192.462 67.9423 201.362 64.8823C207.902 62.6323 214.732 64.4523 219.202 70.0223C222.482 74.1123 224.152 78.9123 224.722 84.0323C226.442 99.4223 223.092 113.702 214.222 126.402C211.582 130.192 207.982 133.502 204.292 136.322C200.102 139.522 195.202 139.932 189.802 138.912C185.262 138.062 182.652 136.252 180.062 132.322C175.612 125.592 168.442 121.572 161.342 117.052C158.312 123.072 153.372 125.702 146.882 125.912C145.412 125.962 143.912 127.092 142.532 127.922C140.672 129.042 139.042 130.602 137.092 131.512C133.972 132.972 132.662 135.282 131.982 138.582C130.712 144.792 129.102 145.862 122.922 144.842C119.592 144.292 116.422 142.852 113.092 142.222C111.212 141.862 109.132 142.092 107.212 142.452C97.3716 144.342 87.4816 145.522 77.4516 145.282C62.7916 144.922 48.5716 142.422 35.0916 136.452C25.6816 132.282 17.2816 126.672 10.6616 118.652C0.541631 106.402 -2.41837 92.5023 1.97163 77.3123C3.77163 71.0823 6.60163 65.1323 9.13163 59.1223C9.98163 57.1123 10.8116 55.4023 10.3616 52.9723C7.07163 35.2623 20.7616 21.4123 37.6816 20.0523C41.3316 19.7623 44.0716 18.4923 47.0616 16.5823C54.9916 11.5023 63.2116 6.87233 71.3316 2.09233C73.4316 0.85233 75.6116 0.722333 78.1116 1.00233C89.0216 2.23233 99.5016 5.01232 109.662 9.05232C112.502 10.1823 115.102 10.2823 118.092 9.67235C127.712 7.69235 136.512 9.55234 143.942 16.2923C148.102 20.0723 150.912 24.7923 151.592 30.3623C152.002 33.7123 153.482 35.9723 155.742 38.2523C158.662 41.1923 161.272 44.4523 163.902 47.6823C169.822 54.9523 171.932 63.7823 174.002 73.8923H174.012ZM13.9316 62.6023C-3.10837 92.7423 8.24163 117.262 33.1916 128.752C60.2216 113.942 89.5116 109.362 119.732 109.532C120.572 106.402 121.262 103.842 122.062 100.902C119.152 100.462 116.832 100.172 114.542 99.7223C113.532 99.5223 112.222 99.2724 111.662 98.5624C108.132 94.1624 105.672 89.2423 107.552 83.4923C108.602 80.2723 110.452 77.3023 112.092 74.3023C114.092 70.6323 116.852 69.5523 121.152 70.8423C132.162 74.1423 143.522 75.5123 155.032 75.3323C159.302 75.2623 163.572 74.8523 168.022 74.5823C166.982 61.1123 161.162 51.0623 151.652 42.2823C146.082 56.5923 136.582 64.9723 121.752 65.7623C106.972 66.5423 97.4516 59.0623 92.7316 45.0523C86.4016 45.9423 80.3816 46.7923 74.2916 47.6523C73.4216 62.0523 66.2916 71.5023 53.0816 75.4023C37.6116 79.9723 24.4716 75.5223 13.9516 62.6223L13.9316 62.6023ZM188.942 75.3623C186.652 75.9623 185.622 76.2223 184.592 76.5023C174.232 79.2823 163.742 81.0523 152.952 80.7623C143.312 80.5023 133.752 79.7023 124.462 76.8923C123.072 76.4723 121.642 75.9123 120.242 75.9323C118.952 75.9523 117.262 76.2823 116.472 77.1423C113.572 80.3323 111.942 84.1523 112.452 88.5923C112.872 92.2523 114.522 93.7423 118.252 94.4623C121.992 95.1823 125.752 95.8524 129.392 96.9324C145.512 101.722 160.502 108.872 174.022 118.952C174.912 119.612 175.982 120.022 177.392 120.772C175.632 104.172 179.592 89.5823 188.932 75.3623H188.942ZM40.9116 71.4923C49.2216 71.4923 55.2316 69.6723 60.2816 65.4323C66.7616 60.0023 69.6216 53.0923 67.8716 44.6323C65.9316 35.3023 55.5516 26.2023 46.2416 25.7823C44.9916 25.7223 43.4616 26.5023 42.4516 27.3623C33.5116 34.8623 25.8216 43.4923 19.1616 53.0823C17.4416 55.5723 17.4316 57.5423 19.2016 59.9223C25.0616 67.8023 33.0316 71.2923 40.9116 71.4823V71.4923ZM118.382 115.272C90.3316 114.902 64.4516 119.422 40.1416 131.902C64.1316 141.962 88.5616 141.322 113.572 135.372C115.112 128.922 116.612 122.642 118.382 115.272ZM118.022 60.3323C131.952 60.2423 142.432 52.3523 145.712 41.4823C146.632 38.4323 146.232 36.2823 143.442 34.5423C135.602 29.6523 127.962 24.4123 119.962 19.7923C113.542 16.0723 112.112 16.4823 106.662 21.5423C104.822 23.2523 103.082 25.2223 101.792 27.3623C97.4516 34.5523 96.6216 42.1223 100.832 49.6123C105.042 57.1123 111.952 60.1923 118.012 60.3423L118.022 60.3323ZM182.822 109.642C182.042 116.382 182.912 122.212 185.702 127.642C189.102 134.262 194.892 135.922 201.112 131.732C204.202 129.652 207.092 126.892 209.242 123.852C217.422 112.312 220.762 99.3023 219.202 85.2523C218.812 81.7523 217.512 78.1623 215.832 75.0323C213.042 69.8423 208.122 68.4023 202.812 71.0223C195.112 74.8223 191.022 81.6723 187.322 89.6623C192.522 90.1823 196.822 90.7923 201.152 91.0023C206.202 91.2523 208.462 92.8623 209.362 97.6923C210.312 102.752 209.122 107.422 206.342 111.692C203.752 115.672 201.732 116.492 197.172 115.162C194.582 114.402 192.102 113.252 189.572 112.272C187.442 111.442 185.312 110.612 182.812 109.632L182.822 109.642ZM92.4216 39.4623C93.1916 28.5923 98.0916 20.4823 106.972 14.0323C96.7416 10.0623 87.0616 7.47234 76.9516 6.63234C75.9116 6.54234 74.7216 6.71232 73.7716 7.14232C65.8616 10.7323 58.3616 15.0023 50.6716 20.8723C61.8316 24.6023 69.5516 31.2123 73.2016 42.0423C79.7516 41.1623 85.8216 40.3423 92.4216 39.4623ZM141.552 107.012C138.472 108.382 136.582 109.362 134.602 110.072C132.442 110.842 130.832 112.032 131.832 114.432C133.042 117.342 135.042 119.942 138.422 120.312C141.822 120.692 145.292 120.612 148.722 120.402C150.272 120.302 151.942 119.662 153.252 118.802C156.302 116.822 156.272 114.322 153.032 112.542C148.922 110.292 144.592 108.442 141.552 107.002V107.012ZM123.902 115.942C122.282 122.232 120.372 128.342 119.212 134.592C118.402 138.942 121.212 140.442 125.812 138.802C126.962 134.362 128.122 130.052 129.172 125.722C130.352 120.902 129.382 119.062 123.912 115.942H123.902ZM34.0716 26.6023C22.6416 29.3723 15.2216 38.0023 16.1516 46.8923C22.0316 40.2323 27.8316 33.6623 34.0716 26.6023ZM194.542 95.4823H185.112C184.452 98.4523 183.882 101.052 183.232 103.962C186.262 105.172 188.892 106.222 191.652 107.332C192.602 103.432 193.452 99.9423 194.532 95.4723L194.542 95.4823ZM145.232 28.3023C140.692 18.5223 132.002 13.3923 124.692 15.4523C131.242 19.5423 137.752 23.6223 145.232 28.3023ZM202.462 96.9723C198.692 97.7923 198.372 101.052 197.822 103.932C197.372 106.282 196.762 108.952 199.772 110.352C204.382 105.932 205.222 101.732 202.462 96.9723ZM125.372 109.732C128.472 107.762 130.952 106.172 134.062 104.202C131.482 103.412 129.522 102.822 127.322 102.152C126.742 103.992 126.262 105.332 125.892 106.702C125.662 107.542 125.592 108.432 125.372 109.742V109.732Z" fill="black"/>
<path d="M13.9313 62.6027C24.4413 75.5127 37.5913 79.9627 53.0613 75.3827C66.2713 71.4827 73.4013 62.0327 74.2713 47.6327C80.3613 46.7727 86.3813 45.9227 92.7113 45.0327C97.4313 59.0427 106.961 66.5227 121.731 65.7427C136.561 64.9627 146.061 56.5727 151.631 42.2627C161.151 51.0327 166.971 61.0827 168.001 74.5627C163.551 74.8327 159.281 75.2427 155.011 75.3127C143.511 75.4927 132.151 74.1227 121.131 70.8227C116.821 69.5327 114.071 70.6127 112.071 74.2827C110.431 77.2827 108.581 80.2627 107.531 83.4727C105.651 89.2327 108.111 94.1427 111.641 98.5427C112.211 99.2527 113.511 99.5027 114.521 99.7027C116.811 100.153 119.131 100.443 122.041 100.883C121.251 103.823 120.561 106.383 119.711 109.513C89.4913 109.343 60.2013 113.923 33.1713 128.733C8.23128 117.253 -3.12873 92.7227 13.9113 62.5827L13.9313 62.6027ZM85.4213 59.1327C77.6313 58.2827 71.5213 62.4527 69.6813 72.2727C67.5613 83.5927 72.3313 92.5727 80.3213 99.8927C86.1013 105.183 93.2313 103.683 97.3813 96.9427C98.4113 95.2727 99.1113 93.3527 99.6813 91.4627C102.261 82.9127 101.391 74.6927 97.5113 66.6227C94.2113 59.7627 93.1213 58.9027 85.4313 59.1427L85.4213 59.1327ZM22.7313 99.9227C24.6613 99.4227 27.2413 99.0927 29.5113 98.0827C33.3013 96.3927 36.8513 94.1427 40.6013 92.3427C42.9813 91.1927 45.6013 89.5627 48.1413 91.8327C49.7613 93.2827 48.9813 96.6727 46.6313 99.7627C46.1913 100.343 45.7513 100.943 45.2013 101.393C42.1013 103.873 39.0813 106.483 35.8013 108.713C33.1213 110.543 30.0413 111.773 27.3213 113.563C26.5113 114.103 25.7213 115.853 26.0313 116.603C26.3613 117.433 27.9113 117.993 29.0213 118.233C29.8013 118.393 30.8213 117.963 31.5913 117.543C37.8013 114.163 44.1713 110.953 48.9213 105.523C50.6913 103.503 52.4313 101.283 53.4813 98.8527C55.1413 95.0027 55.1813 90.8627 52.0613 87.6627C49.0513 84.5827 45.1913 84.8927 41.3813 86.2627C40.5313 86.5727 39.6513 86.8427 38.8713 87.2827C32.7313 90.7227 26.8913 94.8727 19.4613 95.2327C18.8613 95.2627 17.7913 96.4927 17.8613 97.0327C17.9913 97.9027 18.7413 98.8927 19.5113 99.4127C20.1813 99.8627 21.2513 99.7227 22.7413 99.9327L22.7313 99.9227Z" fill="#CE6626"/>
<path d="M188.942 75.3623C179.602 89.5823 175.642 104.172 177.402 120.772C176.002 120.022 174.922 119.622 174.032 118.952C160.502 108.872 145.522 101.722 129.402 96.9323C125.762 95.8523 121.992 95.1823 118.262 94.4623C114.522 93.7423 112.882 92.2523 112.462 88.5923C111.952 84.1523 113.582 80.3323 116.482 77.1423C117.262 76.2823 118.962 75.9523 120.252 75.9323C121.652 75.9123 123.092 76.4723 124.472 76.8923C133.762 79.7023 143.312 80.5023 152.962 80.7623C163.752 81.0523 174.242 79.2823 184.602 76.5023C185.632 76.2223 186.662 75.9623 188.952 75.3623H188.942Z" fill="#F92D3D"/>
<path d="M40.9118 71.4923C33.0418 71.2923 25.0618 67.8123 19.2018 59.9323C17.4318 57.5523 17.4418 55.5723 19.1618 53.0923C25.8118 43.4923 33.5118 34.8623 42.4518 27.3723C43.4718 26.5223 44.9918 25.7423 46.2418 25.7923C55.5518 26.2123 65.9318 35.3123 67.8718 44.6423C69.6318 53.1023 66.7618 60.0123 60.2818 65.4423C55.2218 69.6823 49.2218 71.5023 40.9118 71.5023V71.4923ZM53.7918 49.8623C53.8918 44.2223 50.9318 40.0423 46.7718 39.9523C43.4418 39.8823 39.8318 43.7223 39.6418 47.5423C39.4218 52.0423 43.6118 56.8323 47.6918 56.7523C51.1718 56.6823 53.7118 53.8023 53.7818 49.8623H53.7918Z" fill="#CE6626"/>
<path d="M118.382 115.272C116.622 122.642 115.112 128.922 113.572 135.372C88.5516 141.322 64.1316 141.962 40.1416 131.902C64.4516 119.422 90.3316 114.902 118.382 115.272Z" fill="#ECB591"/>
<path d="M118.021 60.3322C111.961 60.1922 105.061 57.1022 100.841 49.6022C96.6312 42.1122 97.4612 34.5422 101.801 27.3522C103.091 25.2122 104.831 23.2422 106.671 21.5322C112.121 16.4622 113.551 16.0622 119.971 19.7822C127.961 24.4122 135.611 29.6422 143.451 34.5322C146.241 36.2722 146.641 38.4222 145.721 41.4722C142.441 52.3422 131.961 60.2322 118.031 60.3222L118.021 60.3322ZM121.781 38.9222C121.831 34.6622 119.001 31.2722 115.211 31.0622C111.691 30.8622 108.351 34.0922 108.211 37.8222C108.051 42.1022 111.671 46.3222 115.531 46.3322C118.991 46.3322 121.741 43.0822 121.781 38.9222Z" fill="#CE6626"/>
<path d="M182.822 109.642C185.322 110.622 187.452 111.452 189.582 112.282C192.112 113.262 194.582 114.422 197.182 115.172C201.752 116.502 203.762 115.682 206.352 111.702C209.132 107.432 210.322 102.762 209.372 97.7018C208.472 92.8618 206.202 91.2518 201.162 91.0118C196.832 90.8018 192.532 90.1918 187.332 89.6718C191.032 81.6718 195.112 74.8318 202.822 71.0318C208.122 68.4218 213.052 69.8618 215.842 75.0418C217.522 78.1618 218.832 81.7618 219.212 85.2618C220.772 99.3218 217.432 112.322 209.252 123.862C207.102 126.902 204.212 129.662 201.122 131.742C194.892 135.932 189.102 134.272 185.712 127.652C182.922 122.222 182.052 116.392 182.832 109.652L182.822 109.642Z" fill="#F92D3D"/>
<path d="M92.4219 39.4618C85.8119 40.3518 79.7419 41.1618 73.2019 42.0418C69.5519 31.2018 61.8319 24.6018 50.6719 20.8718C58.3619 15.0118 65.8619 10.7417 73.7719 7.14174C74.7219 6.71174 75.9019 6.54177 76.9519 6.63177C87.0619 7.47177 96.7419 10.0518 106.972 14.0318C98.0919 20.4818 93.1919 28.5818 92.4219 39.4618Z" fill="#CE6626"/>
<path d="M141.552 107.013C144.582 108.463 148.922 110.303 153.032 112.553C156.272 114.323 156.302 116.823 153.252 118.813C151.932 119.663 150.262 120.313 148.722 120.413C145.302 120.623 141.822 120.693 138.422 120.323C135.052 119.943 133.042 117.353 131.832 114.443C130.832 112.053 132.452 110.853 134.602 110.083C136.582 109.373 138.472 108.393 141.552 107.023V107.013Z" fill="#CE6626"/>
<path d="M123.902 115.942C129.372 119.062 130.342 120.902 129.162 125.722C128.102 130.052 126.942 134.362 125.802 138.802C121.212 140.442 118.392 138.932 119.202 134.592C120.372 128.342 122.272 122.222 123.892 115.942H123.902Z" fill="#F92D3D"/>
<path d="M194.542 95.4824C193.452 99.9524 192.612 103.432 191.662 107.342C188.892 106.232 186.262 105.182 183.242 103.972C183.882 101.062 184.462 98.4624 185.122 95.4924H194.552L194.542 95.4824Z" fill="#F92D3D"/>
<path d="M202.462 96.9717C205.222 101.722 204.382 105.932 199.772 110.352C196.762 108.952 197.372 106.282 197.822 103.932C198.372 101.052 198.692 97.8017 202.462 96.9717Z" fill="#F92D3D"/>
<path d="M125.372 109.733C125.592 108.423 125.662 107.533 125.892 106.693C126.262 105.323 126.732 103.983 127.322 102.143C129.522 102.813 131.482 103.413 134.062 104.193C130.952 106.173 128.472 107.753 125.372 109.723V109.733Z" fill="#F92D3D"/>
<path d="M85.4215 59.1322C93.1215 58.8922 94.2115 59.7522 97.5015 66.6122C101.381 74.6822 102.251 82.9022 99.6715 91.4522C99.1015 93.3422 98.4015 95.2622 97.3715 96.9322C93.2215 103.672 86.0915 105.172 80.3115 99.8822C72.3215 92.5722 67.5515 83.5822 69.6715 72.2622C71.5115 62.4422 77.6215 58.2722 85.4115 59.1222L85.4215 59.1322ZM85.5915 64.3022C79.4215 64.2122 77.1815 65.7822 75.4115 71.0622C72.7815 78.9522 77.8015 92.2622 84.8815 96.4222C87.2815 97.8322 89.6015 97.7622 91.2115 95.6522C92.7015 93.7022 93.8815 91.3422 94.5615 88.9822C96.5015 82.2922 95.5515 75.8522 92.7515 69.4522C91.1615 65.8222 89.1915 63.6822 85.5815 64.2922L85.5915 64.3022Z" fill="black"/>
<path d="M22.7319 99.9226C21.2419 99.7126 20.1719 99.8526 19.5019 99.4026C18.7319 98.8926 17.9819 97.9026 17.8519 97.0226C17.7719 96.4826 18.8519 95.2526 19.4519 95.2226C26.8819 94.8626 32.7219 90.7126 38.8619 87.2726C39.6419 86.8326 40.5219 86.5626 41.3719 86.2526C45.1719 84.8926 49.0419 84.5826 52.0519 87.6526C55.1719 90.8526 55.1319 94.9926 53.4719 98.8426C52.4219 101.273 50.6819 103.493 48.9119 105.513C44.1619 110.943 37.7919 114.153 31.5819 117.533C30.8119 117.953 29.7919 118.393 29.0119 118.223C27.9019 117.993 26.3519 117.433 26.0219 116.593C25.7219 115.833 26.5019 114.083 27.3119 113.553C30.0219 111.763 33.1119 110.533 35.7919 108.703C39.0619 106.473 42.0919 103.863 45.1919 101.383C45.7519 100.933 46.1919 100.333 46.6219 99.7526C48.9719 96.6626 49.7619 93.2726 48.1319 91.8226C45.5919 89.5526 42.9719 91.1926 40.5919 92.3326C36.8419 94.1326 33.3019 96.3826 29.5019 98.0726C27.2319 99.0826 24.6519 99.4126 22.7219 99.9126L22.7319 99.9226Z" fill="black"/>
<path d="M53.7919 49.8624C53.7219 53.8024 51.1819 56.6824 47.7019 56.7524C43.6119 56.8324 39.4319 52.0524 39.6519 47.5424C39.8419 43.7224 43.4519 39.8724 46.7819 39.9524C50.9419 40.0424 53.9019 44.2224 53.8019 49.8624H53.7919Z" fill="black"/>
<path d="M121.782 38.9225C121.732 43.0925 118.992 46.3425 115.532 46.3325C111.682 46.3225 108.052 42.1025 108.212 37.8225C108.352 34.0925 111.692 30.8625 115.212 31.0625C119.002 31.2725 121.832 34.6625 121.782 38.9225Z" fill="black"/>
<path d="M85.5915 64.3025C89.1915 63.6925 91.1715 65.8325 92.7615 69.4625C95.5615 75.8525 96.5115 82.3025 94.5715 88.9925C93.8815 91.3525 92.7115 93.7125 91.2215 95.6625C89.6115 97.7625 87.2915 97.8425 84.8915 96.4325C77.8115 92.2725 72.7915 78.9625 75.4215 71.0725C77.1815 65.7925 79.4215 64.2125 85.6015 64.3125L85.5915 64.3025Z" fill="#FFB0D0"/>
</svg>
