<svg width="129" height="137" viewBox="0 0 129 137" fill="none" xmlns="http://www.w3.org/2000/svg">
<ellipse cx="65.5" cy="130.5" rx="29.5" ry="6.5" fill="#E66932"/>
<path d="M110.987 34.3203C114.406 32.2529 118.174 31.0649 122.314 31.3852C125.366 31.624 127.159 33.0915 127.969 36.0325C128.662 38.5541 127.957 40.668 126 42.2812C125.04 43.0732 123.869 43.6439 122.722 44.168C121.19 44.8727 119.624 45.5307 118.016 46.049C114.761 47.1031 113.451 48.9841 113.194 52.6705C112.28 65.5872 105.333 74.9224 94.489 81.5147C92.5032 82.7202 91.1521 84.1878 89.9757 86.1503C87.5298 90.2152 84.9092 94.1869 82.1314 98.0304C81.1181 99.4339 79.5573 100.546 78.0607 101.49C75.4983 103.109 74.0482 102.637 72.866 99.7659C72.109 97.9314 71.5848 95.9572 71.2587 93.9947C70.3619 88.5263 69.9717 88.1187 64.4859 88.1769C63.6531 88.1886 62.8145 88.2585 61.7779 88.3167C62.2904 90.7975 62.8611 93.1212 63.2222 95.4797C63.4085 96.7027 63.3911 98.0246 63.1465 99.2359C62.6631 101.647 60.9102 102.8 58.4818 102.398C55.8611 101.967 53.7588 100.639 52.233 98.4323C50.2472 95.5612 48.2031 92.7368 46.2813 89.8308C44.9419 87.81 43.3753 86.4648 40.8071 86.0688C33.5975 84.9565 27.0169 82.2543 21.0885 77.9216C14.368 73.0123 10.7632 66.3326 10.7982 58.1796C10.8156 53.7595 9.23162 51.6222 5.30652 50.4866C4.22915 50.1721 3.19255 49.485 2.31318 48.757C-1.12856 45.9093 -0.66849 41.495 3.28573 39.3752C5.70835 38.0765 8.27655 37.6805 10.9496 38.5774C11.8289 38.8744 12.6967 39.218 13.611 39.5557C15.0203 36.8128 16.4238 34.2155 17.6758 31.5483C17.9903 30.8728 18.0718 29.8886 17.8331 29.1839C13.9371 17.5717 23.5926 8.0035 34.2148 7.94527C34.7448 7.94527 35.298 7.84044 35.7989 7.97438C38.7165 8.73727 40.9702 7.39203 43.4511 6.07589C57.55 -1.38995 58.8079 -1.2036 73.2853 2.49438C74.0016 2.67491 74.7121 2.89621 75.3935 3.18739C77.851 4.24729 80.3086 4.48605 83.0515 4.29387C92.148 3.64163 100.243 9.63993 101.041 18.451C101.105 19.1382 101.39 19.9244 101.838 20.4369C105.321 24.4668 108.116 28.9218 110.341 33.7554C110.417 33.9243 110.655 34.0233 111.005 34.3029L110.987 34.3203ZM95.8576 14.4386C95.9158 14.4386 95.9799 14.4386 96.0381 14.4386C95.9566 14.4619 95.875 14.491 95.7935 14.5143C94.8617 11.1482 91.0473 8.37039 87.3551 8.46939C90.2436 10.5018 93.0448 12.4702 95.8576 14.4386ZM109.805 51.7911C109.636 51.6979 109.467 51.6048 109.298 51.5116C108.186 52.851 107.074 54.1904 105.956 55.524C105.21 56.4092 104.296 57.0207 103.242 56.1588C102.333 55.4192 102.625 54.435 103.219 53.6022C105.816 49.9508 108.809 46.6838 112.915 44.7213C115.867 43.312 118.948 42.1764 121.936 40.8428C124.405 39.7421 125.133 38.589 124.655 36.8419C124.189 35.1414 123.234 34.5649 120.619 34.728C115.821 35.025 111.552 36.8361 107.977 39.9634C105.845 41.8211 104.069 44.0923 102.223 46.2587C101.46 47.1555 100.65 47.9417 99.5963 47.1381C98.3501 46.1888 99.0664 45.0649 99.8351 44.1156C100.231 43.6264 100.68 43.1664 101.134 42.7238C102.875 41.0291 104.68 39.3927 106.352 37.6281C106.853 37.104 107.423 36.0791 107.225 35.5549C105.711 31.5134 103.516 27.8561 100.505 24.2863C100.056 25.0958 99.8118 25.5325 99.5731 25.9693C99.3226 26.4352 99.1013 26.9185 98.816 27.3611C94.7394 33.7321 88.747 36.6905 81.3627 36.2712C74.0075 35.8519 68.4983 32.3578 66.0757 25.02C65.6797 23.8262 65.1498 23.2147 63.8628 23.337C61.1373 23.5991 58.406 23.8204 55.6806 24.0824C53.6482 24.2746 52.6349 25.2879 52.2505 27.431C51.4818 31.7113 48.902 34.8969 45.3146 37.2612C38.3787 41.8328 28.9445 41.2155 22.5502 35.8286C21.8572 35.2463 21.1583 34.6756 20.2382 33.9127C19.2715 35.8869 18.4853 37.599 17.6059 39.2646C16.8664 40.668 16.878 41.6639 18.3397 42.7296C20.1217 44.0341 21.6708 45.6589 23.2665 47.1963C24.0643 47.965 24.6758 48.9026 23.6974 49.945C22.8297 50.871 21.9445 50.3934 21.1758 49.747C19.9645 48.7221 18.7066 47.7321 17.6525 46.5673C15.5153 44.2088 12.7025 42.9392 9.84892 41.8968C8.59684 41.4368 6.91383 41.7338 5.56276 42.1414C4.72416 42.3977 3.64097 43.4634 3.57691 44.2379C3.51285 45.0183 4.39804 46.1655 5.1784 46.6722C6.76242 47.6971 8.52696 48.4717 10.2682 49.2287C14.3273 50.9991 16.9304 54.2952 19.3472 57.7894C19.6966 58.2902 19.883 58.9425 20.0169 59.5481C20.2324 60.5149 20.2557 61.5631 19.091 61.9183C17.8797 62.291 17.4778 61.3942 17.1109 60.4217C16.5693 58.9658 15.8822 57.5798 13.9604 56.5548C14.1467 63.6247 16.284 69.3318 21.3272 73.8101C21.9504 74.3634 22.7132 74.7535 23.4179 75.2078C24.3613 75.8134 25.4562 76.2618 26.2249 77.0364C27.442 78.2652 28.368 78.2186 29.7365 77.1994C34.5235 73.6238 39.8521 71.0963 45.6349 69.5472C46.0134 69.4482 46.3629 69.2502 46.6831 69.1163C46.654 68.7552 46.7006 68.5165 46.6133 68.3651C42.4086 60.9749 40.8945 52.9908 41.3196 44.564C41.4594 41.7862 41.5817 41.495 44.3479 41.2679C47.4053 41.0175 50.4685 40.901 53.5259 40.7088C61.6498 40.208 69.7737 39.6606 77.9035 39.2121C81.1239 39.0374 82.638 40.2662 83.2495 43.3236C84.6239 50.178 84.4958 56.9799 82.4983 63.712C82.2711 64.4749 82.143 65.2727 81.9392 66.1929C82.9409 66.2802 83.6688 66.3326 84.3968 66.4025C89.638 66.9266 94.5007 68.6853 98.9615 71.3817C100.423 72.2669 101.093 72.0863 102.077 70.9333C106.235 66.0647 108.827 60.4857 109.793 54.1671C109.91 53.3868 109.811 52.5773 109.811 51.7795L109.805 51.7911ZM80.8094 52.3618C80.7104 50.6788 80.7046 48.9841 80.5008 47.3128C79.9242 42.5782 79.8951 42.5782 75.2654 42.8344C74.9509 42.8519 74.6306 42.8577 74.3161 42.8752C65.5691 43.376 56.8279 43.8594 48.0866 44.3893C44.7148 44.5931 44.5575 44.7679 44.6158 48.1455C44.7381 55.262 46.5317 61.895 50.3928 67.9341C52.0758 70.5605 54.248 72.6862 56.8628 74.3459C62.4534 77.8866 68.708 77.3159 73.3494 72.6163C75.0266 70.9216 76.4301 68.8542 77.5599 66.7403C79.9359 62.2794 80.8094 57.4109 80.8094 52.3676V52.3618ZM31.6117 80.1054C33.417 80.6936 34.7623 81.1944 36.1366 81.5671C47.3762 84.5838 58.837 85.172 70.4027 84.7294C72.2953 84.6595 74.2288 84.9099 76.0807 84.6187C81.4325 83.7743 86.5748 82.1611 91.3094 79.4823C93.5747 78.2011 95.6829 76.6462 98.4724 74.8176C97.5464 74.2585 97.1155 73.9441 96.6438 73.7228C92.8293 71.9174 89.0149 70.1413 84.7403 69.5997C81.8577 69.2328 79.8835 69.7045 77.9268 72.4532C71.4742 81.5089 60.6481 82.4465 52.2563 75.1146C51.7788 74.6953 51.2547 74.2993 50.8936 73.7985C49.8687 72.3659 48.6166 72.296 47.0035 72.6978C42.4378 73.8276 38.239 75.7494 34.2498 78.172C33.4636 78.6495 32.7648 79.261 31.6117 80.1112V80.1054ZM82.5216 33.0508C88.9566 32.8935 94.821 29.1082 96.8476 23.7156C97.4358 22.1548 97.6629 20.8038 96.1721 19.4352C91.5423 15.184 86.4525 11.6316 80.7279 9.0401C79.8718 8.64992 78.5848 8.58004 77.7229 8.92946C73.4135 10.6649 68.7313 14.9685 68.871 21.2813C68.9875 26.5633 72.8078 31.0358 78.4567 32.4801C79.7728 32.8178 81.1647 32.8702 82.5216 33.0566V33.0508ZM35.4786 36.9176C36.3463 36.8012 37.6216 36.7255 38.8504 36.4401C44.3654 35.1531 48.5001 30.7912 49.1524 25.6723C49.793 20.6174 47.0384 15.6906 42.2456 13.1632C40.9178 12.4644 39.8055 12.2489 38.4719 13.2797C32.6483 17.7697 27.5876 22.9643 23.3306 28.9743C22.3755 30.3195 22.6492 31.1931 23.6683 32.2355C26.8072 35.4559 30.6624 36.8536 35.4786 36.9235V36.9176ZM74.3103 6.41948C68.6672 4.68988 63.3386 2.73315 57.7713 3.71734C52.7688 4.60252 48.174 6.90867 43.684 9.9777C47.9061 12.5808 50.8237 15.6848 52.0816 20.0525C52.5009 21.5142 53.3512 21.4094 54.4809 21.2464C57.3869 20.8271 60.2987 20.3204 63.2222 20.1748C64.9401 20.0875 65.54 19.4177 65.8719 17.8687C66.8153 13.4311 69.3486 10.0418 73.0815 7.5085C73.4076 7.2872 73.6755 6.98437 74.3103 6.41948ZM86.5224 85.6437C83.4009 86.4007 81.0598 86.9889 78.7188 87.5305C77.0881 87.909 75.4517 88.2293 73.8153 88.5788C74.0133 90.3142 74.1763 92.0554 74.4209 93.785C74.6713 95.5146 74.9276 97.2676 76.2204 98.8283C81.1297 95.6369 83.1971 90.5704 86.5224 85.6437ZM48.9544 87.4897C49.0417 87.9614 49.0068 88.3283 49.1698 88.5555C51.243 91.4556 53.2755 94.3849 55.4768 97.186C56.0766 97.9489 57.1249 98.4672 58.0741 98.8225C59.4485 99.3408 60.2347 98.8341 59.9901 97.3782C59.5416 94.7168 58.8253 92.0904 58.0217 89.5105C57.8295 88.9049 56.8803 88.2293 56.2047 88.1303C53.8345 87.7926 51.4352 87.6877 48.9544 87.4897ZM34.5876 11.4336C25.6425 11.387 19.0677 18.3753 20.8206 25.9111C25.3513 21.1474 29.8763 16.3895 34.5876 11.4336Z" fill="black"/>
<path d="M109.806 51.7908C109.806 52.5886 109.91 53.3981 109.788 54.1785C108.821 60.4971 106.23 66.0761 102.072 70.9446C101.088 72.0977 100.412 72.2724 98.9563 71.393C94.4954 68.6967 89.6385 66.9322 84.3915 66.4139C83.6635 66.344 82.9356 66.2857 81.9339 66.2042C82.1377 65.2841 82.2717 64.4863 82.493 63.7234C84.4905 56.9913 84.6186 50.1893 83.2442 43.335C82.6328 40.2718 81.1186 39.043 77.8982 39.2235C69.7684 39.6719 61.6504 40.2193 53.5206 40.7202C50.4632 40.9065 47.3942 41.0288 44.3426 41.2792C41.5822 41.5064 41.4541 41.7975 41.3144 44.5754C40.8892 53.0021 42.4034 60.9863 46.608 68.3764C46.6954 68.5337 46.6488 68.7666 46.6779 69.1277C46.3576 69.2616 46.0082 69.4538 45.6296 69.5586C39.8468 71.1077 34.5182 73.6351 29.7312 77.2108C28.3627 78.2299 27.4367 78.2824 26.2196 77.0478C25.4509 76.2732 24.3561 75.8248 23.4126 75.2191C22.708 74.7649 21.9393 74.3747 21.322 73.8215C16.2787 69.349 14.1415 63.636 13.9551 56.5662C15.8711 57.5911 16.5641 58.9771 17.1057 60.433C17.4667 61.4114 17.8744 62.3024 19.0857 61.9297C20.2504 61.5745 20.2271 60.5262 20.0117 59.5595C19.8777 58.948 19.6914 58.3016 19.3419 57.8008C16.931 54.3066 14.3278 51.0163 10.263 49.2401C8.52171 48.483 6.75715 47.7143 5.17313 46.6835C4.39277 46.1769 3.50758 45.0296 3.57164 44.2493C3.6357 43.4747 4.71307 42.409 5.55749 42.1528C6.90856 41.7451 8.59159 41.4481 9.84367 41.9082C12.6914 42.9506 15.5042 44.2143 17.6473 46.5787C18.7072 47.7434 19.9651 48.7334 21.1705 49.7584C21.9334 50.4048 22.8245 50.8765 23.6922 49.9564C24.6764 48.9081 24.059 47.9705 23.2612 47.2076C21.6655 45.6702 20.1165 44.0454 18.3345 42.741C16.8786 41.6752 16.8611 40.6736 17.6007 39.2759C18.48 37.6104 19.2662 35.8982 20.233 33.924C21.1531 34.6869 21.8519 35.2576 22.5449 35.84C28.9392 41.2268 38.3676 41.8441 45.3093 37.2726C48.8909 34.914 51.4765 31.7227 52.2453 27.4424C52.6296 25.2993 53.6429 24.286 55.6753 24.0938C58.4008 23.8317 61.1321 23.6163 63.8575 23.3484C65.1445 23.2261 65.6803 23.8376 66.0705 25.0314C68.4931 32.3691 74.0022 35.8633 81.3574 36.2826C88.7417 36.7019 94.7342 33.7435 98.8107 27.3725C99.0961 26.9299 99.3115 26.4465 99.5678 25.9807C99.8065 25.5381 100.051 25.1013 100.5 24.2976C103.51 27.8675 105.706 31.5189 107.22 35.5663C107.418 36.0904 106.841 37.1154 106.346 37.6395C104.675 39.404 102.876 41.0405 101.129 42.7351C100.674 43.1777 100.232 43.632 99.8298 44.127C99.0611 45.0762 98.3448 46.1943 99.5911 47.1494C100.645 47.9531 101.455 47.1669 102.218 46.2701C104.058 44.1037 105.84 41.8325 107.971 39.9747C111.553 36.8475 115.821 35.0422 120.614 34.7393C123.229 34.5763 124.184 35.1528 124.65 36.8533C125.128 38.6004 124.4 39.7534 121.93 40.8541C118.943 42.1877 115.862 43.3233 112.91 44.7326C108.804 46.6952 105.811 49.9622 103.213 53.6136C102.619 54.4464 102.328 55.4306 103.237 56.1702C104.297 57.0321 105.205 56.4206 105.95 55.5354C107.069 54.2018 108.181 52.8624 109.293 51.5229C109.462 51.6161 109.631 51.7093 109.8 51.8025L109.806 51.7908Z" fill="#CE6626"/>
<path d="M80.8094 52.3618C80.8094 57.4051 79.9359 62.2794 77.5598 66.7344C76.4359 68.8484 75.0266 70.9158 73.3494 72.6104C68.708 77.3101 62.4534 77.875 56.8628 74.3401C54.248 72.6803 52.0758 70.5605 50.3928 67.9283C46.5259 61.895 44.7322 55.2561 44.6158 48.1397C44.5575 44.762 44.7148 44.5873 48.0866 44.3835C56.8278 43.8535 65.5749 43.3702 74.3161 42.8694C74.6306 42.8519 74.9509 42.8461 75.2653 42.8286C79.8951 42.5782 79.9242 42.5724 80.5007 47.3069C80.7046 48.9783 80.7104 50.673 80.8094 52.356V52.3618Z" fill="#FFB0D0"/>
<path d="M31.6133 80.1054C32.7605 79.2551 33.4652 78.6437 34.2514 78.1661C38.2405 75.7435 42.4393 73.8217 47.005 72.6919C48.624 72.2901 49.8702 72.36 50.8952 73.7926C51.2563 74.2993 51.7804 74.6953 52.2579 75.1087C60.6497 82.4406 71.4816 81.503 77.9283 72.4474C79.885 69.6986 81.8592 69.2269 84.7419 69.5938C89.0164 70.1354 92.8251 71.9174 96.6453 73.7169C97.1171 73.9382 97.548 74.2527 98.474 74.8117C95.6845 76.6403 93.5763 78.1952 91.3109 79.4764C86.5763 82.1553 81.4341 83.7684 76.0822 84.6128C74.2303 84.904 72.2969 84.6536 70.4042 84.7235C58.8444 85.1661 47.3777 84.5721 36.1382 81.5613C34.758 81.1886 33.4186 80.6877 31.6133 80.0996V80.1054Z" fill="#EDB591"/>
<path d="M82.5225 33.0506C81.1656 32.8643 79.7737 32.8118 78.4576 32.4741C72.8087 31.0298 68.9826 26.5573 68.8719 21.2753C68.738 14.9684 73.4202 10.6589 77.7238 8.92347C78.5857 8.57405 79.8727 8.64976 80.7288 9.03411C86.4476 11.6314 91.5374 15.178 96.173 19.4292C97.6638 20.7978 97.4367 22.1489 96.8485 23.7096C94.8219 29.1022 88.9575 32.8817 82.5225 33.0448V33.0506ZM78.5799 21.3044C80.6123 19.4933 82.2196 18.148 83.7105 16.6747C84.0657 16.3253 84.3103 15.3003 84.089 15.0615C83.6814 14.6189 82.9068 14.4268 82.2546 14.3278C81.9168 14.2754 81.4626 14.5898 81.1539 14.8577C79.1739 16.5815 77.1473 18.2587 75.2896 20.1106C74.0375 21.3627 74.2413 22.5449 75.7729 23.4825C77.3802 24.4666 79.0924 25.2878 80.787 26.1205C81.7246 26.5806 82.6913 27.0989 83.6988 27.2503C84.2521 27.3377 85.2304 26.8543 85.4343 26.3826C85.6264 25.9225 85.2304 25.0024 84.8053 24.5423C84.3336 24.0357 83.5416 23.8319 82.8893 23.4941C81.6023 22.836 80.3095 22.178 78.5741 21.2928L78.5799 21.3044Z" fill="#CE6626"/>
<path d="M35.4787 36.9176C30.6626 36.8477 26.8015 35.45 23.6684 32.2296C22.6493 31.1871 22.3814 30.3136 23.3307 28.9684C27.5877 22.9642 32.6426 17.7696 38.472 13.2738C39.8056 12.243 40.9179 12.4585 42.2457 13.1573C47.0443 15.6789 49.7931 20.6057 49.1525 25.6664C48.5002 30.7911 44.3655 35.153 38.8505 36.4342C37.6218 36.7196 36.3406 36.7953 35.4787 36.9117V36.9176ZM40.6617 24.4493C38.9495 25.9284 37.5228 27.0175 36.2998 28.2986C35.9213 28.6947 35.7931 29.9875 36.0727 30.2088C36.6084 30.6281 37.546 30.762 38.2623 30.6514C38.8039 30.5699 39.2349 29.8885 39.7532 29.5274C41.2149 28.5025 42.6592 27.4484 44.1733 26.505C45.9262 25.416 46.13 24.3852 44.3364 23.2088C42.234 21.8345 39.9337 20.7338 37.6334 19.7205C37.0918 19.4817 35.8572 19.802 35.5253 20.2737C34.8322 21.2754 35.665 22.0441 36.556 22.5042C37.7557 23.1331 39.0078 23.6689 40.6675 24.4434L40.6617 24.4493Z" fill="#CE6626"/>
<path d="M74.3099 6.41912C73.6751 6.98401 73.4072 7.28684 73.0811 7.50813C69.354 10.0414 66.8149 13.4249 65.8715 17.8683C65.5395 19.4232 64.9397 20.0871 63.2218 20.1744C60.2983 20.3259 57.3865 20.8267 54.4805 21.246C53.3508 21.409 52.5005 21.5197 52.0812 20.0522C50.8233 15.6845 47.8999 12.5805 43.6836 9.97734C48.1736 6.9083 52.7684 4.60216 57.7709 3.71697C63.344 2.73278 68.6668 4.68369 74.3099 6.41912Z" fill="#CE6626"/>
<path d="M86.5235 85.6436C83.1924 90.5761 81.125 95.6368 76.2216 98.8282C74.9345 97.2674 74.6725 95.5204 74.4221 93.7849C74.1775 92.0553 74.0144 90.3141 73.8164 88.5786C75.4528 88.2292 77.0893 87.9089 78.7199 87.5304C81.0668 86.983 83.402 86.4006 86.5235 85.6436Z" fill="#EDB591"/>
<path d="M48.9551 87.4893C51.4359 87.6873 53.8411 87.7921 56.2054 88.1299C56.8868 88.2289 57.836 88.8986 58.0224 89.51C58.8261 92.0899 59.5424 94.7163 59.9908 97.3777C60.2354 98.8336 59.4492 99.3403 58.0748 98.822C57.1256 98.4667 56.0773 97.9484 55.4775 97.1855C53.2762 94.3844 51.2437 91.4551 49.1705 88.555C49.0075 88.3279 49.0424 87.9668 48.9551 87.4893Z" fill="#EDB591"/>
<path d="M95.7929 14.5142C95.8744 14.4909 95.956 14.4618 96.0375 14.4385C95.9793 14.4385 95.9152 14.4385 95.8512 14.4385L95.7871 14.5142H95.7929Z" fill="white"/>
<path d="M78.5791 21.3046C80.3146 22.1898 81.6074 22.8479 82.8944 23.5059C83.5467 23.8379 84.3387 24.0475 84.8104 24.5542C85.2355 25.0084 85.6315 25.9285 85.4393 26.3944C85.2413 26.8661 84.2571 27.3437 83.7039 27.2621C82.6964 27.1107 81.7297 26.5924 80.7921 26.1324C79.0974 25.2996 77.3853 24.4785 75.778 23.4943C74.2464 22.5567 74.0426 21.3745 75.2946 20.1224C77.1465 18.2705 79.179 16.5933 81.159 14.8695C81.4618 14.6075 81.9219 14.293 82.2596 14.3396C82.9119 14.4386 83.6806 14.6308 84.0941 15.0734C84.3154 15.3121 84.0708 16.3371 83.7155 16.6865C82.2247 18.154 80.6174 19.5051 78.585 21.3163L78.5791 21.3046Z" fill="black"/>
<path d="M40.6619 24.4489C39.0022 23.6744 37.756 23.1386 36.5505 22.5097C35.6653 22.0438 34.8267 21.2751 35.5197 20.2792C35.8458 19.8075 37.0804 19.4814 37.6279 19.726C39.9282 20.7451 42.2285 21.8399 44.3308 23.2143C46.1245 24.3907 45.9207 25.4215 44.1678 26.5105C42.6536 27.4539 41.2094 28.508 39.7476 29.5329C39.2293 29.894 38.7984 30.5753 38.2568 30.6569C37.5405 30.7675 36.6029 30.6336 36.0671 30.2143C35.7876 29.993 35.9157 28.7001 36.2942 28.3041C37.5172 27.0229 38.9382 25.9339 40.6561 24.4547L40.6619 24.4489Z" fill="black"/>
</svg>
