<svg width="215" height="203" viewBox="0 0 215 203" fill="none" xmlns="http://www.w3.org/2000/svg">
<path d="M159.672 43.7307C161.973 42.5933 164.739 42.7743 166.678 44.6355C167.453 45.411 168.074 46.6518 168.358 47.7117C168.927 49.5987 168.436 51.6151 167.427 53.2695C166.962 54.0191 166.212 54.6654 165.411 55.0273C164.377 55.4926 163.11 55.6994 161.973 55.596C157.863 55.3634 155.562 51.6151 156.596 47.7375C157.139 45.6953 158.251 44.4287 159.672 43.7307ZM160.448 47.1947C159.44 48.177 159.285 50.2191 160.138 51.4341C160.474 51.9511 161.508 52.3389 162.464 52.3906C164.687 52.5198 165.876 49.3661 164.687 47.4532C163.834 46.0572 161.533 46.1865 160.448 47.1947Z" fill="#492B21" fill-opacity="0.7"/>
<path d="M155.537 44.0145C155.795 44.6608 155.562 45.6431 154.968 45.8758C154.373 46.1343 152.719 46.2377 151.866 46.2635C151.943 48.3315 152.021 50.7098 151.969 52.2091C151.969 53.269 152.021 55.0785 151.323 55.337C150.263 55.7764 149.281 55.5179 148.919 54.9751C148.35 54.0962 148.428 52.4417 148.454 51.537C148.479 50.0894 148.505 48.1506 148.505 46.2894H148.118C147.29 46.2894 145.377 46.2635 144.886 45.669C144.111 44.7642 144.679 43.4717 145.558 43.239C146.179 43.0839 147.471 43.0839 148.479 43.1098C148.454 42.7737 148.454 42.4377 148.428 42.1275C148.376 41.2744 148.35 39.4132 149.126 38.8186C150.16 37.9914 151.349 38.7411 151.607 39.6975C151.84 40.4989 151.814 42.1016 151.814 43.1098H152.073C153.081 43.1356 155.02 42.7737 155.537 44.0145Z" fill="#492B21" fill-opacity="0.7"/>
<path d="M133.878 51.872C134.679 51.6393 135.739 51.7169 135.739 52.8801C135.739 53.7332 134.809 54.3795 134.136 54.6638C133.154 55.1033 131.784 55.3618 130.414 55.3101C128.553 55.2325 126.692 54.6121 125.735 53.0869C124.856 51.5876 124.727 49.5455 125.063 47.9169C125.451 45.9264 126.407 44.7114 127.674 43.9618C129.199 43.0829 131.319 43.057 133.051 43.8325C134.214 44.3495 135.196 45.2285 135.688 46.4693C135.946 47.0897 136.075 48.3822 135.817 49.1318C135.377 50.3727 134.654 50.3985 132.766 50.4761C131.112 50.5536 129.949 50.4761 127.958 50.4244C127.751 51.8203 129.277 52.3631 130.543 52.4665C131.707 52.5441 132.741 52.208 133.878 51.872ZM132.766 46.857C132.456 46.4951 132.12 46.2108 131.732 46.0298C131.19 45.7972 130.543 45.8489 130 46.004C129.458 46.1332 129.096 46.3659 128.734 46.7795C128.63 46.8829 127.907 47.9944 128.191 47.9944H133.258C133.232 47.5033 133.102 47.2189 132.766 46.857Z" fill="#492B21" fill-opacity="0.7"/>
<path d="M122.814 49.3909C122.865 50.5025 122.865 51.4331 122.814 52.5188C122.788 53.3719 122.917 54.6644 122.193 55.1297C121.34 55.6726 119.996 55.5175 119.918 54.1733C119.867 53.3719 119.841 52.5447 119.841 51.795C119.841 51.0195 119.815 50.425 119.841 49.1324C119.841 48.4862 119.789 47.4522 119.376 47.1161C118.781 46.5733 117.721 46.8835 117.54 47.995C117.54 48.4345 117.514 48.9256 117.54 49.3392C117.566 50.4508 117.566 51.3814 117.54 52.4671C117.489 53.346 117.721 54.6644 116.972 55.1297C116.118 55.6726 115.007 55.3365 114.904 53.9923C114.826 53.1909 114.826 52.5705 114.826 51.8209C114.826 51.0195 114.904 50.1665 114.826 49.3651C114.8 48.8739 114.826 47.9692 114.619 47.5297C114.361 47.0386 113.456 46.9093 112.991 47.142C112.034 47.6073 112.112 48.7447 112.112 49.6494C112.112 51.8726 112.215 53.5528 111.853 54.5352C111.491 55.595 109.449 55.6467 109.113 54.4835C108.88 53.7338 108.829 51.4073 108.855 49.9855V46.2631C108.829 45.4617 108.751 44.4535 109.036 43.7039C109.268 43.0576 109.863 42.9284 110.406 42.9542C111.672 42.9801 111.698 44.3501 111.75 45.3841C112.138 44.5311 112.603 43.9365 113.585 43.7556C114.826 43.5229 115.886 43.859 116.636 44.7379C116.997 44.376 117.463 44.0916 117.954 43.8848C119.608 43.2644 121.521 44.0141 122.271 45.6427C122.788 46.7284 122.762 48.2018 122.814 49.3909Z" fill="#492B21" fill-opacity="0.7"/>
<path d="M97.7983 43.7307C100.099 42.5933 102.865 42.7743 104.804 44.6355C105.579 45.411 106.2 46.6518 106.484 47.7117C107.053 49.5987 106.562 51.6151 105.553 53.2695C105.088 54.0191 104.338 54.6654 103.537 55.0273C102.503 55.4926 101.236 55.6994 100.099 55.596C95.9887 55.3634 93.6881 51.6151 94.7221 47.7375C95.2649 45.6953 96.3765 44.4287 97.7983 43.7307ZM98.5738 47.1947C97.5656 48.177 97.4105 50.2191 98.2636 51.4341C98.5996 51.9511 99.6336 52.3389 100.59 52.3906C102.813 52.5198 104.002 49.3661 102.813 47.4532C101.96 46.0572 99.6595 46.1865 98.5738 47.1947Z" fill="#492B21" fill-opacity="0.7"/>
<path d="M92.1395 45.4627C92.398 45.928 92.4239 46.5225 92.1654 47.0137C91.8552 47.6341 91.2606 47.8409 90.5627 47.6858C89.9164 47.5307 89.7096 46.9361 88.7015 46.781C88.1844 46.7035 87.5123 46.781 87.047 46.9878C85.5477 47.7633 85.1858 50.2967 86.2974 51.5633C86.711 52.0545 87.4606 52.3905 88.081 52.4422C88.6756 52.5198 89.2702 52.4164 89.813 52.2354C90.2266 52.0545 90.7953 51.6667 91.2606 51.615C92.4756 51.5892 92.6824 53.1143 92.0878 53.864C91.6742 54.381 90.7953 54.898 90.1232 55.1048C89.296 55.3633 88.1844 55.3892 87.3055 55.2858C86.8919 55.2341 86.4266 55.1048 86.013 54.9756C82.9627 53.8899 81.9545 50.7103 82.7559 47.8926C83.5055 45.1783 85.0566 44.3511 87.3831 43.8341C88.5981 43.6014 90.0457 43.8599 91.1055 44.5062C91.4933 44.713 91.881 45.0749 92.1395 45.4627Z" fill="#492B21" fill-opacity="0.7"/>
<path d="M80.4078 53.3478C80.382 53.5288 80.3561 53.6839 80.3561 53.839L80.201 54.3819C80.1752 54.4336 80.1493 54.4853 80.1235 54.5111L80.0459 54.6662C79.9425 54.873 79.7616 55.0281 79.5806 55.1315C79.167 55.3383 78.7275 55.39 78.2622 55.2866C77.9779 55.2608 77.7194 55.1574 77.5643 55.0281C77.4092 54.9247 77.2799 54.7955 77.2024 54.5887C77.1248 54.4077 77.0731 54.2268 77.0473 54.0717C76.9956 53.8907 76.9697 53.7356 76.9697 53.6064V39.1302C76.9697 38.8975 76.9956 38.7166 77.0214 38.5356C77.0473 38.303 77.099 38.1479 77.1765 37.9411C77.2282 37.786 77.3316 37.6309 77.4609 37.5275C77.6418 37.3982 77.8486 37.2948 78.0554 37.269C78.2881 37.1914 78.4949 37.1914 78.7534 37.1914C79.0119 37.1914 79.2963 37.269 79.5806 37.3982C79.8133 37.5275 79.9942 37.7343 80.0976 37.9669C80.2527 38.2771 80.3561 38.6132 80.3561 38.9234C80.382 39.2594 80.4078 40.1383 80.4078 40.4744V40.5778C80.4595 41.6894 80.4595 42.6458 80.4337 43.8349C80.4337 44.9982 80.4078 46.0839 80.4078 47.1438V52.5723C80.4078 52.7016 80.4337 52.8308 80.4337 52.9601C80.4337 53.1152 80.4337 53.2186 80.4078 53.3478Z" fill="#492B21" fill-opacity="0.7"/>
<path d="M72.2559 51.872C73.0573 51.6393 74.1171 51.7169 74.1171 52.8801C74.1171 53.7332 73.1865 54.3795 72.5144 54.6638C71.5321 55.1033 70.1621 55.3618 68.792 55.3101C66.9308 55.2325 65.0695 54.6121 64.1131 53.0869C63.2342 51.5876 63.1049 49.5455 63.441 47.9169C63.8287 45.9264 64.7852 44.7114 66.0519 43.9618C67.577 43.0829 69.6967 43.057 71.4287 43.8325C72.592 44.3495 73.5743 45.2285 74.0654 46.4693C74.324 47.0897 74.4532 48.3822 74.1947 49.1318C73.7552 50.3727 73.0314 50.3985 71.1444 50.4761C69.4899 50.5536 68.3267 50.4761 66.3362 50.4244C66.1294 51.8203 67.6546 52.3631 68.9212 52.4665C70.0845 52.5441 71.1185 52.208 72.2559 51.872ZM71.1444 46.857C70.8342 46.4951 70.4981 46.2108 70.1104 46.0298C69.5675 45.7972 68.9212 45.8489 68.3784 46.004C67.8355 46.1332 67.4736 46.3659 67.1117 46.7795C67.0083 46.8829 66.2845 47.9944 66.5689 47.9944H71.6355C71.6097 47.5033 71.4804 47.2189 71.1444 46.857Z" fill="#492B21" fill-opacity="0.7"/>
<path d="M62.2803 38.1467C62.3578 38.4828 62.3578 38.8188 62.2803 39.1807C62.2286 39.5168 62.151 39.8528 62.0993 40.1889L62.0735 40.2923C61.6082 42.412 60.9361 44.9195 60.4449 47.0134C60.0313 48.7195 59.566 50.9943 59.1007 52.7004C58.9456 53.2691 58.7646 53.8637 58.4803 54.4583C57.9891 55.4923 57.1619 56.1385 56.0762 55.363C55.249 54.7943 54.9646 53.5794 54.551 52.7263C54.2925 52.2093 53.3619 49.0038 52.9742 48.1249C52.3538 49.6501 51.6817 52.2351 51.449 52.9072C50.932 54.3032 50.2082 56.5521 48.3987 55.3889C48.0626 55.1821 47.8041 54.846 47.6749 54.51C47.5198 54.0188 47.313 53.5794 47.2096 53.114L46.6925 51.1753L45.6327 47.0134C45.3742 45.9535 45.1157 44.8419 44.7796 43.627C44.4694 42.4379 44.3143 41.4814 43.9007 39.1807C43.849 38.8188 43.8232 38.4828 43.8749 38.1467C43.9007 37.8882 44.03 37.6556 44.2368 37.4746C44.4177 37.2937 44.6762 37.1903 44.9347 37.1386C45.1674 37.061 45.4 37.0352 45.581 37.0352C45.7878 37.0352 46.0204 37.1127 46.2272 37.242C46.3565 37.3195 46.4857 37.4229 46.5891 37.578L46.8993 38.1209C46.9769 38.3535 47.0286 38.5345 47.1061 38.7413C47.1579 38.9739 47.2096 39.1549 47.2354 39.3358C47.5456 41.1195 48.0368 42.8515 48.4245 44.3766C48.7347 45.5916 49.2259 48.3576 49.6136 49.4175C50.0531 47.8923 50.5184 46.3154 51.0612 44.7385C51.63 43.0841 52.1728 41.9209 53.4912 42.412C54.0599 42.6447 54.5252 43.5753 54.8612 44.4025C55.4558 45.9277 56.0762 47.8923 56.5932 48.9263C56.8259 48.1508 57.1619 46.4447 57.4204 45.359C57.8599 43.4977 58.3769 41.5848 58.8163 39.7753L58.9456 39.3358C58.9973 39.1549 59.0231 38.9739 59.0748 38.7413C59.1265 38.5345 59.2041 38.3535 59.2816 38.1209C59.3592 37.9399 59.4367 37.759 59.566 37.578C59.6694 37.4229 59.8245 37.3195 59.9538 37.242C60.1864 37.1127 60.3932 37.0352 60.5742 37.0352C60.781 37.0352 60.9878 37.061 61.2204 37.1386C61.5048 37.1903 61.7374 37.2937 61.9701 37.4746C62.151 37.6556 62.2544 37.8882 62.2803 38.1467Z" fill="#492B21" fill-opacity="0.7"/>
<path d="M141.887 77.5225C141.935 78.5486 141.935 79.4076 141.887 80.4098C141.863 81.1973 141.983 82.3903 141.314 82.8199C140.527 83.321 139.286 83.1778 139.215 81.937C139.167 81.1973 139.143 80.4337 139.143 79.7417C139.143 79.0258 139.119 78.477 139.143 77.2839C139.143 76.6874 139.095 75.7329 138.713 75.4227C138.165 74.9216 137.186 75.2079 137.019 76.234C137.019 76.6396 136.995 77.093 137.019 77.4748C137.043 78.5009 137.043 79.3599 137.019 80.3621C136.972 81.1734 137.186 82.3903 136.494 82.8199C135.707 83.321 134.681 83.0108 134.585 81.7699C134.514 81.0302 134.514 80.4575 134.514 79.7655C134.514 79.0258 134.585 78.2384 134.514 77.4987C134.49 77.0453 134.514 76.2101 134.323 75.8045C134.084 75.3511 133.249 75.2318 132.82 75.4466C131.937 75.8761 132.008 76.926 132.008 77.7612C132.008 79.8133 132.104 81.3643 131.77 82.271C131.436 83.2494 129.551 83.2971 129.24 82.2233C129.026 81.5313 128.978 79.3838 129.002 78.0714V74.6353C128.978 73.8955 128.906 72.9649 129.169 72.2729C129.384 71.6764 129.932 71.5571 130.433 71.5809C131.603 71.6048 131.627 72.8695 131.674 73.8239C132.032 73.0365 132.462 72.4877 133.368 72.3207C134.514 72.1059 135.492 72.4161 136.184 73.2274C136.518 72.8933 136.948 72.6309 137.401 72.44C138.928 71.8673 140.694 72.5593 141.386 74.0626C141.863 75.0648 141.839 76.4249 141.887 77.5225Z" fill="#F26647"/>
<path d="M118.021 73.0383C119.954 72.06 122.292 72.2031 123.915 73.778C124.75 74.6132 125.156 75.5915 125.347 76.7846C125.585 78.4072 126.611 79.5764 126.969 81.1275C127.136 81.8672 126.874 82.6785 126.062 82.8216C125.084 83.0125 124.392 81.9626 123.963 81.2706C123.223 82.2251 122.412 82.7262 121.218 82.8932C120.192 83.0125 119.333 82.9648 118.283 82.6785C115.563 81.9626 114.776 78.9799 115.468 76.379C115.921 74.6609 116.852 73.611 118.021 73.0383ZM118.617 75.8301C117.711 76.6892 117.615 78.4311 118.331 79.4571C118.641 79.9105 119.5 80.2446 120.336 80.2923C122.244 80.4116 123.271 77.6914 122.244 76.0449C121.505 74.8279 119.524 74.9472 118.617 75.8301Z" fill="#F26647"/>
<path d="M103.928 68.003C104 66.8576 104.668 65.9986 105.861 66.3326C107.006 66.6428 106.839 67.7166 106.863 68.6711V71.964C106.839 72.4413 106.863 72.9662 106.863 72.9662C106.863 72.9662 107.961 72.9662 108.414 72.9424C111.922 72.9185 113.354 75.0899 113.306 78.0726C113.258 81.6042 111.039 83.1552 107.627 83.1552C103.69 83.1552 103.928 83.537 103.928 78.359C103.928 75.9012 103.952 73.4673 103.928 71.0334C103.928 70.3653 103.857 69.7687 103.928 68.003ZM108.39 80.4827C109.297 80.435 109.846 80.2202 110.204 79.7668C110.92 78.7885 110.968 76.9989 109.965 76.1637C109.059 75.4001 108.295 75.5433 106.911 75.591V78.4544L106.863 80.435C106.863 80.435 107.698 80.5304 108.39 80.4827Z" fill="#F26647"/>
<path d="M101.672 81.1754C101.648 81.3424 101.624 81.4856 101.624 81.6287L101.481 82.1298C101.457 82.1776 101.433 82.2253 101.409 82.2491L101.338 82.3923C101.242 82.5832 101.075 82.7264 100.908 82.8218C100.526 83.0127 100.121 83.0604 99.6911 82.965C99.4287 82.9411 99.19 82.8457 99.0469 82.7264C98.9037 82.6309 98.7844 82.5116 98.7128 82.3207C98.6412 82.1537 98.5935 81.9867 98.5696 81.8435C98.5219 81.6765 98.498 81.5333 98.498 81.414V68.0514C98.498 67.8366 98.5219 67.6696 98.5458 67.5025C98.5696 67.2878 98.6174 67.1446 98.6889 66.9537C98.7367 66.8105 98.8321 66.6674 98.9514 66.5719C99.1185 66.4526 99.3093 66.3572 99.5002 66.3333C99.715 66.2617 99.9059 66.2617 100.145 66.2617C100.383 66.2617 100.646 66.3333 100.908 66.4526C101.123 66.5719 101.29 66.7628 101.385 66.9776C101.528 67.2639 101.624 67.5741 101.624 67.8605C101.648 68.1707 101.672 68.982 101.672 69.2922V69.3876C101.719 70.4137 101.719 71.2966 101.696 72.3942C101.696 73.468 101.672 74.4702 101.672 75.4485V80.4595C101.672 80.5788 101.696 80.6981 101.696 80.8174C101.696 80.9606 101.696 81.056 101.672 81.1754Z" fill="#F26647"/>
<path d="M87.5649 73.0383C89.4977 72.06 91.8361 72.2031 93.4587 73.778C94.2939 74.6132 94.6996 75.5915 94.8905 76.7846C95.1291 78.4072 96.1551 79.5764 96.5131 81.1275C96.6801 81.8672 96.4176 82.6785 95.6063 82.8216C94.628 83.0125 93.936 81.9626 93.5065 81.2706C92.7668 82.2251 91.9555 82.7262 90.7624 82.8932C89.7363 83.0125 88.8773 82.9648 87.8274 82.6785C85.1071 81.9626 84.3197 78.9799 85.0117 76.379C85.465 74.6609 86.3956 73.611 87.5649 73.0383ZM88.1614 75.8301C87.2547 76.6892 87.1592 78.4311 87.8751 79.4571C88.1853 79.9105 89.0443 80.2446 89.8795 80.2923C91.7884 80.4116 92.8145 77.6914 91.7884 76.0449C91.0487 74.8279 89.0682 74.9472 88.1614 75.8301Z" fill="#F26647"/>
<path d="M80.8918 74.2782C81.8224 74.8747 82.4667 75.6622 82.8485 76.8314C83.7075 79.4323 82.9916 82.2957 79.5555 83.0116C78.6249 83.2264 77.2409 83.3695 76.2626 83.3695C75.0218 83.3934 73.6617 83.4411 72.4208 83.1786C71.872 83.0116 71.6811 82.5821 71.5857 82.081C71.5141 81.914 71.4902 81.7708 71.4902 81.6515V68.098C71.4902 66.3083 73.089 66.2367 74.7116 66.2606C75.3558 66.2606 76.0001 66.2367 76.6682 66.2606C77.7182 66.2845 78.9113 66.4038 79.9135 66.7856C80.1759 66.881 80.4384 67.0003 80.677 67.1196C80.9157 67.2389 81.1543 67.406 81.3213 67.5969C83.3496 69.4342 83.3257 72.7987 80.8918 74.2782ZM76.716 80.6016C77.6943 80.5538 78.8874 80.4345 79.2692 79.9812C80.1282 78.979 79.9135 77.0223 78.8158 76.2348C78.0761 75.6622 77.0739 75.5429 76.1433 75.5429C75.2365 75.5667 74.64 75.4713 74.6639 76.3542C74.7116 77.1655 74.6161 78.0245 74.6161 78.7881C74.6161 79.2176 74.5207 79.838 74.8547 80.172C75.2127 80.5061 75.9285 80.6254 76.716 80.6016ZM77.1932 69.1479C75.2127 69.1002 74.6877 68.8854 74.7354 70.3648C74.7354 70.9614 74.7116 71.5579 74.7116 72.1306C74.6877 73.4192 76.6444 73.1567 77.6704 72.9896C78.8158 72.7987 79.4362 72.2499 79.5317 71.1046C79.651 69.6728 78.6726 69.1956 77.1932 69.1479Z" fill="#F26647"/>
<path d="M141.887 99.1104C141.935 100.136 141.935 100.996 141.887 101.998C141.863 102.785 141.983 103.978 141.314 104.408C140.527 104.909 139.286 104.766 139.215 103.525C139.167 102.785 139.143 102.022 139.143 101.33C139.143 100.614 139.119 100.065 139.143 98.8718C139.143 98.2753 139.095 97.3208 138.713 97.0106C138.165 96.5095 137.186 96.7958 137.019 97.8219C137.019 98.2275 136.995 98.6809 137.019 99.0627C137.043 100.089 137.043 100.948 137.019 101.95C136.972 102.761 137.186 103.978 136.494 104.408C135.707 104.909 134.681 104.599 134.585 103.358C134.514 102.618 134.514 102.045 134.514 101.353C134.514 100.614 134.585 99.8263 134.514 99.0866C134.49 98.6332 134.514 97.798 134.323 97.3924C134.084 96.939 133.249 96.8197 132.82 97.0344C131.937 97.464 132.008 98.5139 132.008 99.349C132.008 101.401 132.104 102.952 131.77 103.859C131.436 104.837 129.551 104.885 129.24 103.811C129.026 103.119 128.978 100.972 129.002 99.6592V96.2231C128.978 95.4834 128.906 94.5528 129.169 93.8608C129.384 93.2643 129.932 93.145 130.433 93.1688C131.603 93.1927 131.627 94.4574 131.674 95.4118C132.032 94.6244 132.462 94.0756 133.368 93.9085C134.514 93.6938 135.492 94.004 136.184 94.8153C136.518 94.4812 136.948 94.2187 137.401 94.0279C138.928 93.4552 140.694 94.1472 141.386 95.6505C141.863 96.6527 141.839 98.0128 141.887 99.1104Z" fill="#F26647"/>
<path d="M118.021 94.6262C119.954 93.6479 122.292 93.791 123.915 95.3659C124.75 96.2011 125.156 97.1794 125.347 98.3725C125.585 99.9951 126.611 101.164 126.969 102.715C127.136 103.455 126.874 104.266 126.062 104.41C125.084 104.6 124.392 103.551 123.963 102.859C123.223 103.813 122.412 104.314 121.218 104.481C120.192 104.6 119.333 104.553 118.283 104.266C115.563 103.551 114.776 100.568 115.468 97.9668C115.921 96.2488 116.852 95.1989 118.021 94.6262ZM118.617 97.418C117.711 98.277 117.615 100.019 118.331 101.045C118.641 101.498 119.5 101.832 120.336 101.88C122.244 101.999 123.271 99.2792 122.244 97.6328C121.505 96.4158 119.524 96.5351 118.617 97.418Z" fill="#F26647"/>
<path d="M103.928 89.5908C104 88.4455 104.668 87.5865 105.861 87.9205C107.006 88.2307 106.839 89.3045 106.863 90.259V93.5519C106.839 94.0291 106.863 94.5541 106.863 94.5541C106.863 94.5541 107.961 94.5541 108.414 94.5302C111.922 94.5064 113.354 96.6778 113.306 99.6605C113.258 103.192 111.039 104.743 107.627 104.743C103.69 104.743 103.928 105.125 103.928 99.9469C103.928 97.4891 103.952 95.0552 103.928 92.6213C103.928 91.9532 103.857 91.3566 103.928 89.5908ZM108.39 102.071C109.297 102.023 109.846 101.808 110.204 101.355C110.92 100.376 110.968 98.5868 109.965 97.7516C109.059 96.988 108.295 97.1312 106.911 97.1789V100.042L106.863 102.023C106.863 102.023 107.698 102.118 108.39 102.071Z" fill="#F26647"/>
<path d="M101.672 102.763C101.648 102.93 101.624 103.073 101.624 103.217L101.481 103.718C101.457 103.765 101.433 103.813 101.409 103.837L101.338 103.98C101.242 104.171 101.075 104.314 100.908 104.41C100.526 104.601 100.121 104.648 99.6911 104.553C99.4287 104.529 99.19 104.434 99.0469 104.314C98.9037 104.219 98.7844 104.1 98.7128 103.909C98.6412 103.742 98.5935 103.575 98.5696 103.431C98.5219 103.264 98.498 103.121 98.498 103.002V89.6392C98.498 89.4245 98.5219 89.2575 98.5458 89.0904C98.5696 88.8757 98.6174 88.7325 98.6889 88.5416C98.7367 88.3984 98.8321 88.2553 98.9514 88.1598C99.1185 88.0405 99.3093 87.9451 99.5002 87.9212C99.715 87.8496 99.9059 87.8496 100.145 87.8496C100.383 87.8496 100.646 87.9212 100.908 88.0405C101.123 88.1598 101.29 88.3507 101.385 88.5655C101.528 88.8518 101.624 89.162 101.624 89.4484C101.648 89.7586 101.672 90.5699 101.672 90.8801V90.9755C101.719 92.0016 101.719 92.8845 101.696 93.9821C101.696 95.0559 101.672 96.0581 101.672 97.0364V102.047C101.672 102.167 101.696 102.286 101.696 102.405C101.696 102.548 101.696 102.644 101.672 102.763Z" fill="#F26647"/>
<path d="M87.5649 94.6262C89.4977 93.6479 91.8361 93.791 93.4587 95.3659C94.2939 96.2011 94.6996 97.1794 94.8905 98.3725C95.1291 99.9951 96.1551 101.164 96.5131 102.715C96.6801 103.455 96.4176 104.266 95.6063 104.41C94.628 104.6 93.936 103.551 93.5065 102.859C92.7668 103.813 91.9555 104.314 90.7624 104.481C89.7363 104.6 88.8773 104.553 87.8274 104.266C85.1071 103.551 84.3197 100.568 85.0117 97.9668C85.465 96.2488 86.3956 95.1989 87.5649 94.6262ZM88.1614 97.418C87.2547 98.277 87.1592 100.019 87.8751 101.045C88.1853 101.498 89.0443 101.832 89.8795 101.88C91.7884 101.999 92.8145 99.2792 91.7884 97.6328C91.0487 96.4158 89.0682 96.5351 88.1614 97.418Z" fill="#F26647"/>
<path d="M80.8918 95.8661C81.8224 96.4626 82.4667 97.2501 82.8485 98.4193C83.7075 101.02 82.9916 103.884 79.5555 104.599C78.6249 104.814 77.2409 104.957 76.2626 104.957C75.0218 104.981 73.6617 105.029 72.4208 104.767C71.872 104.599 71.6811 104.17 71.5857 103.669C71.5141 103.502 71.4902 103.359 71.4902 103.239V89.6859C71.4902 87.8962 73.089 87.8246 74.7116 87.8485C75.3558 87.8485 76.0001 87.8246 76.6682 87.8485C77.7182 87.8724 78.9113 87.9917 79.9135 88.3735C80.1759 88.4689 80.4384 88.5882 80.677 88.7075C80.9157 88.8268 81.1543 88.9939 81.3213 89.1848C83.3496 91.0221 83.3257 94.3866 80.8918 95.8661ZM76.716 102.189C77.6943 102.142 78.8874 102.022 79.2692 101.569C80.1282 100.567 79.9135 98.6102 78.8158 97.8227C78.0761 97.2501 77.0739 97.1307 76.1433 97.1307C75.2365 97.1546 74.64 97.0592 74.6639 97.942C74.7116 98.7533 74.6161 99.6124 74.6161 100.376C74.6161 100.805 74.5207 101.426 74.8547 101.76C75.2127 102.094 75.9285 102.213 76.716 102.189ZM77.1932 90.7358C75.2127 90.6881 74.6877 90.4733 74.7354 91.9527C74.7354 92.5493 74.7116 93.1458 74.7116 93.7185C74.6877 95.007 76.6444 94.7446 77.6704 94.5775C78.8158 94.3866 79.4362 93.8378 79.5317 92.6924C79.651 91.2607 78.6726 90.7835 77.1932 90.7358Z" fill="#F26647"/>
<path d="M92.5449 4.97121C92.5449 2.22569 94.7706 0 97.5161 0H116.407C119.152 0 121.378 2.22569 121.378 4.97121V23.8618C121.378 26.6073 119.152 28.833 116.407 28.833H97.5161C94.7706 28.833 92.5449 26.6073 92.5449 23.8618V4.97121Z" fill="#FFC49D"/>
<mask id="mask0_4474_1622" style="mask-type:alpha" maskUnits="userSpaceOnUse" x="92" y="0" width="30" height="29">
<path d="M92.5449 4.97121C92.5449 2.22569 94.7706 0 97.5161 0H116.407C119.152 0 121.378 2.22569 121.378 4.97121V23.8618C121.378 26.6073 119.152 28.833 116.407 28.833H97.5161C94.7706 28.833 92.5449 26.6073 92.5449 23.8618V4.97121Z" fill="#FFC49D"/>
</mask>
<g mask="url(#mask0_4474_1622)">
<path d="M121.379 0H92.5459V28.833H121.379V0Z" fill="#E37600"/>
<path d="M99.9449 26.0785H99.4483C99.381 26.0785 99.3136 26.0468 99.2674 25.9887L98.0056 24.3584V25.8884C98.0056 25.994 97.923 26.0785 97.8246 26.0785H97.4885C97.3902 26.0785 97.3076 25.994 97.3076 25.8884V22.5749C97.3076 22.4693 97.3902 22.3848 97.4885 22.3848H97.8246C97.923 22.3848 98.0056 22.4693 98.0056 22.5749V24.1418L99.1849 22.4798C99.2265 22.4217 99.2984 22.3848 99.3711 22.3848H99.826C99.9191 22.3848 99.9706 22.4957 99.9138 22.5749L98.7088 24.2052L100.038 25.8884C100.095 25.9623 100.043 26.0785 99.9449 26.0785Z" fill="white"/>
<path d="M103.803 24.2325C103.803 25.3141 103.032 26.1474 101.962 26.1474C100.892 26.1474 100.121 25.3141 100.121 24.2325C100.121 23.1509 100.892 22.3223 101.962 22.3223C103.032 22.3223 103.803 23.1503 103.803 24.2325ZM103.1 24.2325C103.1 23.6204 102.712 23.003 101.962 23.003C101.212 23.003 100.824 23.6204 100.824 24.2325C100.824 24.8446 101.212 25.4673 101.962 25.4673C102.712 25.4673 103.1 24.8499 103.1 24.2325Z" fill="white"/>
<path d="M106.953 26.0785H106.492C106.41 26.0785 106.332 26.031 106.29 25.957L105.618 24.7487H105.008V25.8884C105.008 25.994 104.925 26.0785 104.822 26.0785H104.491C104.388 26.0785 104.305 25.994 104.305 25.8884V22.5749C104.305 22.4693 104.387 22.3848 104.491 22.3848H105.561C106.373 22.3848 106.906 22.8859 106.906 23.5878C106.906 24.0573 106.663 24.4112 106.27 24.6008L107.051 25.8983C107.098 25.9775 107.046 26.0779 106.953 26.0779V26.0785ZM105.008 24.1313H105.561C105.918 24.1313 106.192 23.9622 106.192 23.5878C106.192 23.255 105.949 23.0497 105.561 23.0497H105.008V24.1313Z" fill="white"/>
<path d="M109.487 25.4149C109.59 25.4149 109.674 25.4994 109.674 25.6051V25.8903C109.674 25.996 109.591 26.0805 109.487 26.0805H107.718C107.615 26.0805 107.532 25.996 107.532 25.8903V22.5769C107.532 22.4712 107.615 22.3867 107.718 22.3867H109.441C109.539 22.3867 109.621 22.4712 109.621 22.5769V22.8615C109.621 22.9671 109.539 23.0516 109.441 23.0516H108.235V23.8803H109.322C109.42 23.8803 109.503 23.9649 109.503 24.0705V24.3604C109.503 24.4607 109.42 24.5453 109.322 24.5453H108.235V25.4155H109.487L109.487 25.4149Z" fill="white"/>
<path d="M112.611 25.92L112.42 25.3449H110.93L110.739 25.92C110.708 26.0151 110.62 26.0785 110.521 26.0785H110.138C110.04 26.0785 109.973 25.9834 110.004 25.8884L111.188 22.538C111.219 22.4482 111.307 22.3848 111.405 22.3848H111.943C112.041 22.3848 112.124 22.4482 112.16 22.538L113.34 25.8884C113.371 25.9834 113.303 26.0785 113.21 26.0785H112.827C112.729 26.0785 112.641 26.0151 112.61 25.92H112.611ZM112.208 24.7064L111.675 23.1078L111.142 24.7064H112.208Z" fill="white"/>
<path d="M116.199 22.3848H116.53C116.634 22.3848 116.716 22.4693 116.716 22.5749V25.8884C116.716 25.994 116.634 26.0785 116.53 26.0785H116.23C116.137 26.0785 116.05 26.031 115.997 25.9517L114.477 23.6354V25.8884C114.477 25.994 114.394 26.0785 114.29 26.0785H113.96C113.857 26.0785 113.773 25.994 113.773 25.8884V22.5749C113.773 22.4693 113.856 22.3848 113.96 22.3848H114.265C114.353 22.3848 114.44 22.4323 114.493 22.5115L116.013 24.8279V22.5749C116.013 22.4693 116.096 22.3848 116.199 22.3848Z" fill="white"/>
<path d="M100.685 12.6624C97.9164 12.6624 95.6641 10.4721 95.6641 7.78074C95.6641 5.08933 97.917 2.89844 100.685 2.89844C103.453 2.89844 105.706 5.08867 105.706 7.78008C105.706 10.4715 103.454 12.6617 100.685 12.6617V12.6624ZM100.685 3.68024C98.3337 3.68024 96.4208 5.51919 96.4208 7.78008C96.4208 10.041 98.3337 11.8799 100.685 11.8799C103.036 11.8799 104.949 10.0403 104.949 7.78008C104.949 5.51985 103.036 3.68024 100.685 3.68024Z" fill="#4F0000"/>
<path d="M101.826 8.93939C102.334 8.93939 102.746 8.52492 102.746 8.01364C102.746 7.50236 102.334 7.08789 101.826 7.08789C101.318 7.08789 100.906 7.50236 100.906 8.01364C100.906 8.52492 101.318 8.93939 101.826 8.93939Z" fill="black"/>
<path d="M112.211 8.92962C112.719 8.92962 113.131 8.51515 113.131 8.00387C113.131 7.4926 112.719 7.07812 112.211 7.07812C111.703 7.07812 111.291 7.4926 111.291 8.00387C111.291 8.51515 111.703 8.92962 112.211 8.92962Z" fill="black"/>
<path d="M113.327 12.6344C110.558 12.6344 108.306 10.4441 108.306 7.75274C108.306 5.06133 110.558 2.87109 113.327 2.87109C116.095 2.87109 118.348 5.06133 118.348 7.75274C118.348 10.4441 116.095 12.6344 113.327 12.6344ZM113.327 3.65224C110.975 3.65224 109.062 5.49119 109.062 7.75208C109.062 10.013 110.975 11.8519 113.327 11.8519C115.678 11.8519 117.591 10.0123 117.591 7.75208C117.591 5.49185 115.678 3.65224 113.327 3.65224Z" fill="#4F0000"/>
<path d="M109.024 7.66602H104.956V8.44782H109.024V7.66602Z" fill="#4F0000"/>
<path d="M92.5459 16.426C92.5459 16.426 96.8534 13.9199 106.962 13.9199C117.071 13.9199 121.379 16.426 121.379 16.426V20.3825H92.5459V16.426Z" fill="#FFBE91"/>
<path d="M106.987 14.2344C105.956 14.2344 105.309 14.6854 104.939 15.0802C105.284 16.4556 105.917 17.7782 107.084 17.7782C108.181 17.7782 108.806 16.5527 109.163 15.2083C108.865 14.7904 108.234 14.2344 106.987 14.2344Z" fill="#E65D52"/>
<path d="M104.533 11.7656V12.0423C104.533 12.0423 104.567 13.592 104.94 15.081C105.309 14.6862 105.956 14.2352 106.988 14.2352C108.234 14.2352 108.865 14.7911 109.164 15.2091C109.598 13.5755 109.635 11.7663 109.635 11.7663H104.534L104.533 11.7656Z" fill="#9C0000"/>
<path d="M121.45 20.1973H92.5225V28.7839H121.45V20.1973Z" fill="#E94A08"/>
<path d="M99.7977 25.9301H99.3058C99.2391 25.9301 99.1724 25.8984 99.1262 25.8403L97.8756 24.2081V25.74C97.8756 25.8456 97.7937 25.9301 97.696 25.9301H97.3632C97.2661 25.9301 97.1836 25.8456 97.1836 25.74V22.4226C97.1836 22.3169 97.2655 22.2324 97.3632 22.2324H97.696C97.7931 22.2324 97.8756 22.3169 97.8756 22.4226V23.9915L99.0437 22.3275C99.0846 22.2694 99.1566 22.2324 99.2279 22.2324H99.6789C99.7713 22.2324 99.8222 22.3434 99.7661 22.4226L98.5722 24.0549L99.8889 25.74C99.945 25.8139 99.8942 25.9301 99.7964 25.9301H99.7977Z" fill="white"/>
<path d="M103.651 24.0822C103.651 25.1651 102.887 25.9997 101.826 25.9997C100.765 25.9997 100.002 25.1651 100.002 24.0822C100.002 22.9993 100.765 22.1699 101.826 22.1699C102.887 22.1699 103.651 22.9993 103.651 24.0822ZM102.954 24.0822C102.954 23.4694 102.57 22.8514 101.827 22.8514C101.084 22.8514 100.7 23.4694 100.7 24.0822C100.7 24.6949 101.084 25.3183 101.827 25.3183C102.57 25.3183 102.954 24.7002 102.954 24.0822Z" fill="white"/>
<path d="M106.802 25.9301H106.346C106.264 25.9301 106.186 25.8826 106.145 25.8086L105.479 24.599H104.874V25.74C104.874 25.8456 104.792 25.9301 104.69 25.9301H104.362C104.26 25.9301 104.178 25.8456 104.178 25.74V22.4226C104.178 22.3169 104.26 22.2324 104.362 22.2324H105.422C106.227 22.2324 106.755 22.7343 106.755 23.4368C106.755 23.907 106.514 24.2609 106.125 24.4511L106.899 25.7505C106.945 25.8298 106.894 25.9301 106.802 25.9301ZM104.875 23.9809H105.423C105.776 23.9809 106.048 23.8119 106.048 23.4368C106.048 23.104 105.807 22.898 105.423 22.898H104.875V23.9809Z" fill="white"/>
<path d="M109.343 25.2645C109.445 25.2645 109.527 25.3491 109.527 25.4547V25.74C109.527 25.8456 109.445 25.9301 109.343 25.9301H107.59C107.488 25.9301 107.406 25.8456 107.406 25.74V22.4226C107.406 22.3169 107.488 22.2324 107.59 22.2324H109.297C109.394 22.2324 109.476 22.3169 109.476 22.4226V22.7078C109.476 22.8135 109.394 22.898 109.297 22.898H108.103V23.7274H109.179C109.276 23.7274 109.359 23.8119 109.359 23.9175V24.2081C109.359 24.3084 109.277 24.3929 109.179 24.3929H108.103V25.2645H109.343Z" fill="white"/>
<path d="M112.469 25.7717L112.279 25.1959H110.803L110.614 25.7717C110.584 25.8667 110.496 25.9301 110.399 25.9301H110.02C109.923 25.9301 109.856 25.8351 109.886 25.74L111.06 22.3856C111.091 22.2958 111.178 22.2324 111.275 22.2324H111.808C111.905 22.2324 111.987 22.2958 112.023 22.3856L113.191 25.74C113.222 25.8351 113.155 25.9301 113.063 25.9301H112.684C112.587 25.9301 112.5 25.8667 112.469 25.7717ZM112.069 24.5567L111.542 22.9561L111.014 24.5567H112.07H112.069Z" fill="white"/>
<path d="M116.056 22.2324H116.384C116.487 22.2324 116.569 22.3169 116.569 22.4226V25.74C116.569 25.8456 116.487 25.9301 116.384 25.9301H116.087C115.995 25.9301 115.908 25.8826 115.857 25.8034L114.35 23.4844V25.74C114.35 25.8456 114.268 25.9301 114.166 25.9301H113.838C113.735 25.9301 113.653 25.8456 113.653 25.74V22.4226C113.653 22.3169 113.735 22.2324 113.838 22.2324H114.14C114.227 22.2324 114.314 22.28 114.366 22.3592L115.873 24.6782V22.4226C115.873 22.3169 115.954 22.2324 116.057 22.2324H116.056Z" fill="white"/>
</g>
<path d="M11.7964 174.533C11.968 173.969 12.174 173.417 12.38 172.866L16.4747 161.908C16.7451 161.184 17.0284 160.426 17.2427 159.642C17.2984 159.388 17.4571 158.858 17.2545 158.665C17.0648 158.437 16.7289 158.39 16.4661 158.252C16.1688 158.102 15.8329 158.055 15.5356 157.905L13.916 157.3C13.145 157.051 12.3438 156.673 11.5728 156.424C11.2153 156.33 10.918 156.179 10.5734 156.051C10.0565 155.857 9.4707 155.639 9.13861 155.161C8.65126 154.468 8.76224 153.646 9.03264 152.922C9.16557 152.461 9.43634 152.052 9.79761 151.716C9.99113 151.513 10.2062 151.358 10.4645 151.297C10.7958 151.146 11.3771 151.167 11.713 151.214C12.768 151.333 13.8579 151.78 14.8572 152.153L20.8532 154.394C21.4133 154.682 22.1112 155.021 22.5853 155.434C22.8784 155.7 23.2018 156.096 23.2927 156.483C23.4615 157.293 23.2298 157.913 23.0154 158.697C22.6424 160.01 22.1315 161.273 21.6551 162.548L17.4317 173.85C17.393 173.954 16.3932 176.84 15.7835 178.261C15.3669 179.166 14.7353 180.226 13.3618 180.223C12.8839 180.241 12.4446 180.155 12.1 180.027C11.5142 179.808 10.9151 179.309 10.867 178.702C10.78 177.884 10.8951 176.945 11.2299 176.049L11.7964 174.533ZM30.5449 168.815C31.1867 169.094 31.8975 169.399 32.5049 169.665C32.7461 169.755 32.9961 169.927 33.2589 170.064C34.0904 170.571 34.5263 171.402 34.1658 172.367C33.9211 173.022 33.5261 173.974 32.7729 174.203C32.42 174.306 32.0799 174.376 31.7096 174.316C30.9473 174.149 29.7453 173.582 29.0088 173.346C28.9399 173.32 28.8581 173.329 28.8066 173.467C28.3472 174.591 27.622 176.637 27.1842 177.809C26.7809 178.993 26.3302 180.199 25.8708 181.324L25.6906 181.806C25.2399 183.012 24.5832 184.77 23.4471 185.288C23.0556 185.495 22.6121 185.525 22.1641 185.358C22.1641 185.358 22.1426 185.311 22.1081 185.298C19.894 184.392 20.6571 181.614 21.1979 180.167L28.8463 159.697C28.8721 159.628 29.4814 157.893 30.5228 157.418C30.9489 157.224 31.7369 157.322 32.2538 157.515C32.7707 157.708 33.1414 158.082 33.3357 158.508C33.7113 159.395 33.4754 160.131 33.261 160.915C33.244 161.066 33.1925 161.204 33.141 161.341C32.9611 162.138 32.6392 163 32.3646 163.84C32.0942 164.563 32.2188 164.335 30.841 168.022C30.7509 168.263 30.6479 168.539 30.5449 168.815Z" fill="#E5E4E9"/>
<path d="M53.7024 162.213L55.8647 170.871C55.9745 171.311 56.0323 171.739 56.1595 172.15C56.2116 172.358 56.2752 172.613 56.4719 172.712C56.6976 172.827 56.9928 172.729 57.2243 172.671C57.5715 172.585 57.9477 172.515 58.295 172.428C59.0821 172.232 60.6274 171.821 61.4145 171.723C61.9643 171.66 62.5836 171.579 63.1218 171.764C63.3938 171.868 63.5789 172.117 63.6714 172.389C63.7293 172.522 63.764 172.661 63.8044 172.823C63.868 173.176 63.8332 173.529 63.6653 173.842C63.4974 174.154 63.2311 174.368 62.9243 174.519C62.5018 174.698 62.1256 174.866 61.6857 174.976C61.4079 175.045 60.1057 175.346 59.851 175.409L57.7212 175.941C57.1192 176.092 56.5173 176.143 55.9096 176.271C55.4408 176.363 54.8737 176.357 54.4455 176.12C54.0404 175.877 53.7743 175.5 53.5718 175.084C53.138 174.134 52.9647 173.046 52.7103 172.028L51.2938 166.356C51.1608 165.823 51.0452 165.262 50.8833 164.712C50.8602 164.619 50.334 162.709 50.126 161.679C50.0162 161.043 49.9874 160.238 50.6936 159.718C51.012 159.515 51.3592 159.33 51.7528 159.33C52.1463 159.33 52.5514 159.475 52.8117 159.828C53.1068 160.222 53.2977 160.69 53.4249 161.2C53.5116 161.547 53.5925 161.871 53.7024 162.213ZM66.8801 162.586L66.9264 162.575C67.0653 162.54 67.2158 162.552 67.3778 162.511C67.5456 162.494 67.7366 162.471 67.9276 162.448C68.2922 162.43 68.6973 162.477 68.9461 162.784C69.1081 162.94 69.2065 163.137 69.2585 163.345C69.3163 163.577 69.3683 163.785 69.3567 164.034C69.3682 164.277 69.3797 164.618 69.2118 164.832C69.0613 165.018 68.8818 165.185 68.6619 165.289C68.1931 165.48 67.3423 165.619 66.8619 165.764C66.8156 165.775 66.7982 165.804 66.7982 165.804C66.7982 165.804 66.7751 165.81 66.7982 165.902C66.9659 166.672 67.3359 168.055 67.5325 168.843C67.7522 169.624 67.9546 170.434 68.1222 171.204L68.2031 171.528C68.4055 172.338 68.7003 173.519 68.2835 174.213C68.1503 174.468 67.9246 174.647 67.6236 174.723C67.6236 174.723 67.5947 174.705 67.5715 174.711C66.0552 175.04 65.4421 173.275 65.1993 172.303L61.7651 158.551C61.7535 158.505 61.4413 157.353 61.8234 156.717C61.9797 156.456 62.437 156.219 62.7843 156.132C63.1315 156.046 63.4672 156.109 63.7276 156.266C64.2541 156.602 64.3987 157.082 64.5722 157.58C64.6185 157.667 64.6416 157.759 64.6647 157.852C64.8614 158.344 65.0059 158.922 65.1678 159.472C65.2545 159.82 65.3528 160.115 65.4396 160.462C65.4627 160.653 65.5263 160.809 65.5668 160.971L65.8847 162.245C65.9252 162.407 65.9715 162.592 66.0582 162.742C66.064 162.766 66.527 162.65 66.5502 162.644C66.6717 162.638 66.7701 162.638 66.8801 162.586Z" fill="#E5E4E9"/>
<path d="M95.0841 162.368C96.4087 162.073 97.6996 162.106 98.1948 163.529C98.6899 164.952 97.3921 166.168 96.1845 166.508C95.241 166.754 90.682 167.734 88.4742 168.226L88.2025 168.286C87.1759 168.479 85.9871 168.744 84.9 168.665C84.1413 168.62 83.2843 168.134 82.7706 167.428C82.1097 166.542 81.7425 164.413 81.7198 164.311L78.5043 149.875C78.4174 149.645 77.6425 147.287 78.0721 146.014C78.4377 144.935 81.0115 144.326 81.2493 144.273L89.1974 142.502C89.3332 142.472 92.1637 141.735 92.923 143.063C93.2063 143.535 93.4447 144.765 93.3242 145.184C93.2224 145.528 92.9621 145.799 92.6112 145.985C92.2263 146.177 91.5961 146.389 90.7129 146.586C90.1355 146.714 89.6864 146.779 85.5086 147.709C84.8972 147.845 84.1235 148.053 83.8481 148.257C83.2633 148.673 83.6301 150.16 83.8116 150.654L83.8191 150.688L86.5727 162.41C86.7695 163.293 87.2529 163.863 88.3058 163.628C88.5511 163.609 92.095 163.034 95.0841 162.368ZM101.675 149.385L104.412 149.025C105.265 149.013 106.099 149.397 106.318 150.382C106.394 150.722 106.462 151.028 106.436 151.39C106.466 152.168 106.203 152.904 105.353 153.093L102.576 153.747C103.03 156.106 103.9 159.691 104.528 162.511C104.793 163.699 105.318 166.22 103.345 166.803C101.167 167.43 100.513 165.294 100.195 163.868L95.55 143.013C95.5348 142.945 95.1226 141.254 95.7034 140.34C95.941 139.966 96.6165 139.638 97.126 139.524C97.6354 139.411 98.1224 139.516 98.4962 139.754C99.2513 140.263 99.4442 140.969 99.6785 141.701C100.435 144.135 101.1 146.803 101.675 149.385Z" fill="#E5E4E9"/>
<path d="M145.07 164.772L145.131 164.791C145.313 164.849 145.476 164.967 145.688 165.034C145.891 165.131 146.124 165.238 146.357 165.345C146.784 165.579 147.212 165.914 147.281 166.436C147.356 166.727 147.331 167.019 147.245 167.292C147.149 167.596 147.063 167.869 146.877 168.143C146.72 168.428 146.496 168.824 146.155 168.95C145.855 169.056 145.534 169.122 145.212 169.087C144.546 168.977 143.482 168.542 142.835 168.372C142.775 168.352 142.735 168.373 142.735 168.373C142.735 168.373 142.704 168.364 142.666 168.485C142.32 169.477 141.882 170.973 141.557 172.005C141.263 173.046 140.928 174.109 140.582 175.1L140.449 175.525C140.114 176.587 139.626 178.135 138.669 178.634C138.34 178.831 137.958 178.877 137.564 178.753C137.564 178.753 137.543 178.713 137.513 178.703C135.559 178.021 136.093 175.587 136.494 174.313L142.172 156.287C142.191 156.227 142.639 154.7 143.517 154.243C143.876 154.056 144.561 154.105 145.016 154.248C145.471 154.391 145.808 154.698 145.995 155.057C146.36 155.805 146.19 156.452 146.04 157.139C146.032 157.27 145.994 157.391 145.956 157.513C145.836 158.209 145.597 158.968 145.398 159.705C145.274 160.1 145.132 160.656 144.176 163.69C144.11 163.903 144.033 164.146 144.027 164.377C144.017 164.407 144.624 164.599 144.655 164.608C144.797 164.686 144.909 164.755 145.07 164.772ZM127.209 164.183C126.363 164.117 126.357 164.982 126.176 165.559C126.013 166.075 125.64 167.258 125.529 167.824C125.443 168.097 125.201 168.654 125.325 168.894C125.306 168.954 125.408 169.053 125.469 169.072C126.38 169.359 128.242 170.012 129.171 170.238C130.598 170.688 132.275 171.082 133.632 171.644C134.159 171.876 134.377 172.245 134.463 172.606C134.61 172.986 134.623 173.157 134.48 173.612C134.388 174.116 134.053 174.545 133.785 174.76C133.526 174.946 133.165 175.032 132.804 175.119C131.891 175.265 131.14 174.895 130.272 174.688C129.543 174.458 128.492 174.194 127.753 173.895C127.165 173.643 125.689 173.245 125.143 173.072C124.616 172.84 124.051 172.728 123.504 172.556C122.553 172.19 121.54 171.804 120.932 170.979C120.656 170.692 120.579 170.301 120.563 169.928C120.483 169.336 120.581 168.6 120.823 168.042C121.486 166.15 121.795 164.746 122.426 162.743C122.665 161.985 122.955 160.641 123.519 160.119C124.6 159.125 125.705 159.64 126.798 159.984L129.893 160.959C130.378 161.112 131.41 161.437 131.964 161.478C132.175 161.444 132.335 161.361 132.453 161.198C132.979 160.163 133.39 158.858 133.673 157.747C133.807 157.322 134.155 156.431 134.027 155.99C133.962 155.77 133.707 155.522 133.191 155.36L127.518 153.673C126.972 153.501 126.2 153.091 125.97 152.552C125.915 152.301 125.851 152.081 125.826 151.739C125.885 150.49 126.757 149.63 127.965 149.711C128.994 149.835 129.927 150.262 130.917 150.507L135.499 151.951C136.288 152.199 137.218 152.425 137.93 152.917C138.307 153.202 138.576 153.62 138.717 154.232C138.72 154.433 138.733 154.604 138.708 154.896C138.711 155.097 138.714 155.298 138.657 155.48C138.498 156.198 138.134 157.351 137.934 157.988C137.513 159.323 137.153 160.677 136.723 162.043C136.283 163.439 135.971 164.642 135.311 165.468C135.004 165.805 134.605 166.013 134.203 166.019C133.43 166.143 132.558 165.735 131.891 165.524C130.98 165.238 129.059 164.666 128.33 164.436C127.663 164.226 127.925 164.242 127.209 164.183Z" fill="#E5E4E9"/>
<path d="M169.02 139.58C169.081 139.506 171.414 138.544 171.453 138.526C174.764 137.028 176.681 139.398 177.386 140.956L186.322 160.704C186.375 160.821 187.355 163.193 187.207 164.527C187.01 166.165 184.184 167.49 184.029 167.561L176.979 170.751C176.005 171.192 172.702 172.499 170.985 170.882C169.508 169.486 168.683 167.56 167.894 165.711L161.549 151.689C161.369 151.396 159.287 147.833 159.404 145.809C159.504 143.23 162.477 142.541 164.385 141.678C166.021 140.937 167.48 140.324 169.02 139.58ZM190.866 143.162L190.944 143.127C191.178 143.021 191.447 142.993 191.72 142.87C192.01 142.785 192.339 142.683 192.668 142.581C193.306 142.434 194.034 142.385 194.571 142.846C194.907 143.07 195.144 143.385 195.302 143.736C195.479 144.125 195.637 144.476 195.697 144.918C195.795 145.343 195.925 145.941 195.698 146.372C195.492 146.747 195.23 147.1 194.875 147.354C194.11 147.841 192.655 148.359 191.855 148.768C191.777 148.803 191.756 148.86 191.756 148.86C191.756 148.86 191.717 148.878 191.787 149.033C192.33 150.336 193.409 152.617 194.008 153.941C194.646 155.248 195.263 156.611 195.806 157.914L196.053 158.459C196.669 159.823 197.568 161.809 197.057 163.167C196.904 163.658 196.563 164.047 196.057 164.276C196.057 164.276 196 164.255 195.961 164.272C193.394 165.34 191.747 162.426 191.007 160.79L180.537 137.653C180.502 137.575 179.582 135.646 180.051 134.401C180.243 133.892 180.972 133.327 181.557 133.062C182.141 132.798 182.753 132.803 183.262 132.995C184.298 133.417 184.707 134.218 185.173 135.039C185.282 135.177 185.353 135.333 185.423 135.489C185.928 136.293 186.369 137.267 186.831 138.184C187.095 138.768 187.363 139.257 187.627 139.841C187.73 140.17 187.892 140.426 188.015 140.698L189.002 142.879C189.126 143.152 189.267 143.464 189.468 143.701C189.486 143.74 190.265 143.387 190.304 143.37C190.516 143.321 190.689 143.289 190.866 143.162ZM167.239 150.991L173.637 165.13C173.87 165.541 174.354 165.885 174.992 165.738L178.631 164.137C179.237 163.816 179.882 163.478 180.247 162.937C180.651 162.379 180.207 161.5 179.833 160.778L179.639 160.35C179.061 158.969 178.793 158.48 178.194 157.156L173.946 147.769C173.946 147.769 173.132 146.073 172.627 145.268C172.052 144.309 171.238 144.583 170.926 144.724L170.887 144.742L167.541 146.162C166.295 146.726 165.947 147.306 166.048 148.152C166.16 148.711 166.94 150.329 167.239 150.991Z" fill="#E5E4E9"/>
<path fill-rule="evenodd" clip-rule="evenodd" d="M5.89494 126.689C6.21239 125.782 7.20498 125.304 8.11197 125.622L27.9968 132.581C28.9038 132.899 29.3817 133.891 29.0643 134.798C28.7468 135.705 27.7542 136.183 26.8473 135.866L6.9624 128.906C6.05541 128.589 5.5775 127.596 5.89494 126.689Z" fill="#E5E4E9"/>
<path fill-rule="evenodd" clip-rule="evenodd" d="M19.547 108.385C20.364 107.879 21.4364 108.131 21.9422 108.948L34.8673 129.827C35.3731 130.644 35.1208 131.717 34.3038 132.222C33.4867 132.728 32.4143 132.476 31.9085 131.659L18.9834 110.78C18.4776 109.963 18.7299 108.89 19.547 108.385Z" fill="#E5E4E9"/>
<path fill-rule="evenodd" clip-rule="evenodd" d="M214.145 193.871C213.673 194.708 212.612 195.004 211.775 194.532L190.387 182.467C189.55 181.995 189.254 180.934 189.726 180.097C190.198 179.26 191.259 178.964 192.096 179.437L213.484 191.501C214.321 191.973 214.617 193.034 214.145 193.871Z" fill="#E5E4E9"/>
<path fill-rule="evenodd" clip-rule="evenodd" d="M41.3421 111.604C42.303 111.604 43.082 112.383 43.082 113.343L43.082 130.246C43.082 131.206 42.303 131.985 41.3421 131.985C40.3812 131.985 39.6022 131.206 39.6022 130.246L39.6022 113.343C39.6022 112.383 40.3812 111.604 41.3421 111.604Z" fill="#E5E4E9"/>
<path fill-rule="evenodd" clip-rule="evenodd" d="M193.497 201.556C192.655 202.019 191.597 201.712 191.134 200.87L182.988 186.061C182.525 185.219 182.832 184.161 183.674 183.698C184.516 183.234 185.574 183.541 186.037 184.383L194.183 199.193C194.646 200.035 194.339 201.093 193.497 201.556Z" fill="#E5E4E9"/>
</svg>
