<svg width="108" height="102" viewBox="0 0 108 102" fill="none" xmlns="http://www.w3.org/2000/svg">
<path d="M80.2071 21.9676C81.3628 21.3962 82.7523 21.4871 83.7262 22.4221C84.1157 22.8116 84.4274 23.4349 84.5702 23.9673C84.8559 24.9153 84.6091 25.9281 84.1027 26.7592C83.869 27.1357 83.4924 27.4604 83.0899 27.6422C82.5705 27.8759 81.9342 27.9798 81.3628 27.9278C79.2982 27.811 78.1425 25.9281 78.6619 23.9803C78.9346 22.9545 79.493 22.3182 80.2071 21.9676ZM80.5967 23.7076C80.0903 24.2011 80.0124 25.2269 80.4409 25.8372C80.6097 26.0969 81.1291 26.2917 81.6096 26.3177C82.7263 26.3826 83.3236 24.7984 82.7263 23.8375C82.2978 23.1363 81.1421 23.2012 80.5967 23.7076Z" fill="#492B21" fill-opacity="0.7"/>
<path d="M78.1303 22.1091C78.2602 22.4337 78.1433 22.9271 77.8447 23.044C77.546 23.1738 76.7149 23.2258 76.2864 23.2388C76.3254 24.2776 76.3643 25.4722 76.3384 26.2254C76.3384 26.7578 76.3643 27.6668 76.0137 27.7966C75.4813 28.0174 74.9879 27.8875 74.8061 27.6148C74.5204 27.1733 74.5594 26.3423 74.5724 25.8878C74.5854 25.1606 74.5983 24.1867 74.5983 23.2518H74.4036C73.988 23.2518 73.0271 23.2388 72.7804 22.9401C72.3909 22.4856 72.6765 21.8364 73.118 21.7195C73.4297 21.6416 74.0789 21.6416 74.5854 21.6546C74.5724 21.4858 74.5724 21.317 74.5594 21.1611C74.5334 20.7326 74.5204 19.7977 74.91 19.499C75.4294 19.0835 76.0267 19.4601 76.1566 19.9405C76.2734 20.3431 76.2605 21.1481 76.2605 21.6546H76.3903C76.8967 21.6676 77.8706 21.4858 78.1303 22.1091Z" fill="#492B21" fill-opacity="0.7"/>
<path d="M67.2499 26.0566C67.6525 25.9397 68.1849 25.9787 68.1849 26.563C68.1849 26.9915 67.7174 27.3161 67.3798 27.459C66.8863 27.6797 66.1981 27.8096 65.5099 27.7836C64.575 27.7447 63.64 27.433 63.1596 26.6669C62.7181 25.9137 62.6531 24.8879 62.822 24.0698C63.0167 23.07 63.4972 22.4597 64.1335 22.0831C64.8996 21.6416 65.9644 21.6286 66.8344 22.0182C67.4187 22.2779 67.9122 22.7194 68.1589 23.3427C68.2888 23.6543 68.3537 24.3036 68.2238 24.6801C68.0031 25.3034 67.6395 25.3164 66.6916 25.3554C65.8605 25.3943 65.2762 25.3554 64.2763 25.3294C64.1724 26.0306 64.9386 26.3033 65.5748 26.3552C66.1592 26.3942 66.6786 26.2254 67.2499 26.0566ZM66.6916 23.5374C66.5357 23.3556 66.3669 23.2128 66.1722 23.1219C65.8995 23.005 65.5748 23.031 65.3021 23.1089C65.0295 23.1738 64.8477 23.2907 64.6659 23.4985C64.6139 23.5504 64.2503 24.1088 64.3932 24.1088H66.9383C66.9253 23.8621 66.8604 23.7192 66.6916 23.5374Z" fill="#492B21" fill-opacity="0.7"/>
<path d="M61.6928 24.811C61.7188 25.3694 61.7188 25.8369 61.6928 26.3823C61.6798 26.8108 61.7448 27.46 61.3812 27.6938C60.9527 27.9665 60.2774 27.8886 60.2385 27.2133C60.2125 26.8108 60.1995 26.3952 60.1995 26.0187C60.1995 25.6291 60.1865 25.3305 60.1995 24.6812C60.1995 24.3566 60.1735 23.8371 59.9658 23.6683C59.6671 23.3956 59.1347 23.5515 59.0438 24.1098C59.0438 24.3306 59.0308 24.5773 59.0438 24.7851C59.0568 25.3434 59.0568 25.8109 59.0438 26.3563C59.0179 26.7978 59.1347 27.46 58.7581 27.6938C58.3296 27.9665 57.7713 27.7977 57.7193 27.1224C57.6804 26.7199 57.6804 26.4082 57.6804 26.0317C57.6804 25.6291 57.7193 25.2006 57.6804 24.7981C57.6674 24.5513 57.6804 24.0968 57.5765 23.8761C57.4466 23.6294 56.9921 23.5645 56.7584 23.6813C56.278 23.9151 56.3169 24.4864 56.3169 24.9409C56.3169 26.0576 56.3689 26.9017 56.1871 27.3951C56.0053 27.9275 54.9794 27.9535 54.8106 27.3691C54.6938 26.9926 54.6678 25.8239 54.6808 25.1097V23.2398C54.6678 22.8373 54.6288 22.3308 54.7717 21.9543C54.8885 21.6296 55.1872 21.5647 55.4599 21.5777C56.0962 21.5907 56.1091 22.2789 56.1351 22.7983C56.3299 22.3698 56.5636 22.0711 57.0571 21.9802C57.6804 21.8634 58.2128 22.0322 58.5893 22.4737C58.7711 22.2919 59.0049 22.1491 59.2516 22.0452C60.0826 21.7335 61.0436 22.1101 61.4201 22.9282C61.6798 23.4736 61.6668 24.2137 61.6928 24.811Z" fill="#492B21" fill-opacity="0.7"/>
<path d="M49.1261 21.9676C50.2818 21.3962 51.6712 21.4871 52.6451 22.4221C53.0347 22.8116 53.3463 23.4349 53.4891 23.9673C53.7748 24.9153 53.5281 25.9281 53.0217 26.7592C52.7879 27.1357 52.4114 27.4604 52.0088 27.6422C51.4894 27.8759 50.8531 27.9798 50.2818 27.9278C48.2171 27.811 47.0614 25.9281 47.5808 23.9803C47.8535 22.9545 48.4119 22.3182 49.1261 21.9676ZM49.5156 23.7076C49.0092 24.2011 48.9313 25.2269 49.3598 25.8372C49.5286 26.0969 50.048 26.2917 50.5285 26.3177C51.6452 26.3826 52.2426 24.7984 51.6452 23.8375C51.2167 23.1363 50.061 23.2012 49.5156 23.7076Z" fill="#492B21" fill-opacity="0.7"/>
<path d="M46.2836 22.8369C46.4135 23.0706 46.4265 23.3693 46.2966 23.616C46.1408 23.9276 45.8421 24.0315 45.4915 23.9536C45.1669 23.8757 45.063 23.577 44.5566 23.4991C44.2969 23.4602 43.9592 23.4991 43.7255 23.603C42.9724 23.9926 42.7906 25.2651 43.3489 25.9014C43.5567 26.1481 43.9333 26.3169 44.2449 26.3429C44.5436 26.3819 44.8422 26.3299 45.1149 26.239C45.3227 26.1481 45.6084 25.9533 45.8421 25.9274C46.4524 25.9144 46.5563 26.6805 46.2576 27.0571C46.0499 27.3168 45.6084 27.5765 45.2708 27.6804C44.8552 27.8102 44.2969 27.8232 43.8554 27.7713C43.6476 27.7453 43.4139 27.6804 43.2061 27.6155C41.6738 27.0701 41.1674 25.4729 41.57 24.0575C41.9465 22.694 42.7256 22.2785 43.8943 22.0188C44.5046 21.9019 45.2318 22.0318 45.7642 22.3564C45.959 22.4603 46.1538 22.6421 46.2836 22.8369Z" fill="#492B21" fill-opacity="0.7"/>
<path d="M40.3911 26.7974C40.3781 26.8883 40.3651 26.9663 40.3651 27.0442L40.2872 27.3169C40.2742 27.3428 40.2613 27.3688 40.2483 27.3818L40.2093 27.4597C40.1574 27.5636 40.0665 27.6415 39.9756 27.6934C39.7678 27.7973 39.5471 27.8233 39.3133 27.7713C39.1705 27.7584 39.0406 27.7064 38.9627 27.6415C38.8848 27.5896 38.8199 27.5246 38.7809 27.4207C38.742 27.3298 38.716 27.2389 38.703 27.161C38.677 27.0701 38.6641 26.9922 38.6641 26.9273V19.6555C38.6641 19.5387 38.677 19.4478 38.69 19.3569C38.703 19.24 38.729 19.1621 38.7679 19.0582C38.7939 18.9803 38.8459 18.9024 38.9108 18.8504C39.0017 18.7855 39.1056 18.7336 39.2094 18.7206C39.3263 18.6816 39.4302 18.6816 39.56 18.6816C39.6899 18.6816 39.8327 18.7206 39.9756 18.7855C40.0924 18.8504 40.1833 18.9543 40.2353 19.0712C40.3132 19.227 40.3651 19.3958 40.3651 19.5517C40.3781 19.7205 40.3911 20.162 40.3911 20.3308V20.3827C40.4171 20.9411 40.4171 21.4215 40.4041 22.0189C40.4041 22.6032 40.3911 23.1486 40.3911 23.681V26.4079C40.3911 26.4728 40.4041 26.5377 40.4041 26.6027C40.4041 26.6806 40.4041 26.7325 40.3911 26.7974Z" fill="#492B21" fill-opacity="0.7"/>
<path d="M36.2958 26.0566C36.6984 25.9397 37.2308 25.9787 37.2308 26.563C37.2308 26.9915 36.7633 27.3161 36.4257 27.459C35.9322 27.6797 35.244 27.8096 34.5558 27.7836C33.6209 27.7447 32.6859 27.433 32.2055 26.6669C31.764 25.9137 31.699 24.8879 31.8679 24.0698C32.0626 23.07 32.5431 22.4597 33.1794 22.0831C33.9455 21.6416 35.0103 21.6286 35.8803 22.0182C36.4646 22.2779 36.9581 22.7194 37.2048 23.3427C37.3347 23.6543 37.3996 24.3036 37.2697 24.6801C37.049 25.3034 36.6854 25.3164 35.7375 25.3554C34.9064 25.3943 34.3221 25.3554 33.3222 25.3294C33.2183 26.0306 33.9845 26.3033 34.6207 26.3552C35.2051 26.3942 35.7245 26.2254 36.2958 26.0566ZM35.7375 23.5374C35.5816 23.3556 35.4128 23.2128 35.2181 23.1219C34.9454 23.005 34.6207 23.031 34.348 23.1089C34.0754 23.1738 33.8936 23.2907 33.7118 23.4985C33.6598 23.5504 33.2962 24.1088 33.4391 24.1088H35.9842C35.9712 23.8621 35.9063 23.7192 35.7375 23.5374Z" fill="#492B21" fill-opacity="0.7"/>
<path d="M31.2851 19.1619C31.324 19.3307 31.324 19.4995 31.2851 19.6813C31.2591 19.8501 31.2201 20.0189 31.1942 20.1877L31.1812 20.2397C30.9474 21.3045 30.6098 22.564 30.3631 23.6158C30.1553 24.4729 29.9216 25.6156 29.6879 26.4726C29.61 26.7583 29.5191 27.0569 29.3762 27.3556C29.1295 27.875 28.714 28.1996 28.1686 27.8101C27.7531 27.5244 27.6102 26.9141 27.4025 26.4856C27.2726 26.2259 26.8051 24.6157 26.6104 24.1742C26.2987 24.9403 25.9611 26.2389 25.8442 26.5765C25.5845 27.2777 25.2209 28.4074 24.312 27.8231C24.1432 27.7192 24.0133 27.5504 23.9484 27.3816C23.8705 27.1349 23.7666 26.9141 23.7146 26.6804L23.4549 25.7065L22.9225 23.6158C22.7927 23.0834 22.6628 22.5251 22.494 21.9148C22.3382 21.3174 22.2603 20.837 22.0525 19.6813C22.0266 19.4995 22.0136 19.3307 22.0395 19.1619C22.0525 19.032 22.1175 18.9152 22.2213 18.8243C22.3122 18.7334 22.4421 18.6814 22.5719 18.6555C22.6888 18.6165 22.8057 18.6035 22.8966 18.6035C23.0005 18.6035 23.1173 18.6425 23.2212 18.7074C23.2861 18.7464 23.3511 18.7983 23.403 18.8762L23.5588 19.1489C23.5978 19.2658 23.6237 19.3567 23.6627 19.4605C23.6887 19.5774 23.7146 19.6683 23.7276 19.7592C23.8835 20.6552 24.1302 21.5252 24.325 22.2913C24.4808 22.9016 24.7275 24.2911 24.9223 24.8235C25.143 24.0573 25.3768 23.2652 25.6495 22.4731C25.9351 21.6421 26.2078 21.0577 26.8701 21.3045C27.1557 21.4213 27.3895 21.8888 27.5583 22.3043C27.8569 23.0705 28.1686 24.0573 28.4283 24.5767C28.5452 24.1872 28.714 23.3302 28.8438 22.7848C29.0646 21.8498 29.3243 20.8889 29.545 19.98L29.61 19.7592C29.6359 19.6683 29.6489 19.5774 29.6749 19.4605C29.7009 19.3567 29.7398 19.2658 29.7788 19.1489C29.8177 19.058 29.8567 18.9671 29.9216 18.8762C29.9735 18.7983 30.0515 18.7464 30.1164 18.7074C30.2333 18.6425 30.3371 18.6035 30.428 18.6035C30.5319 18.6035 30.6358 18.6165 30.7527 18.6555C30.8955 18.6814 31.0124 18.7334 31.1292 18.8243C31.2201 18.9152 31.2721 19.032 31.2851 19.1619Z" fill="#492B21" fill-opacity="0.7"/>
<path d="M71.2734 38.9411C71.2974 39.4565 71.2974 39.888 71.2734 40.3915C71.2614 40.787 71.3213 41.3863 70.9857 41.6021C70.5902 41.8538 69.9669 41.7819 69.9309 41.1586C69.9069 40.787 69.8949 40.4035 69.8949 40.0558C69.8949 39.6963 69.883 39.4206 69.8949 38.8212C69.8949 38.5216 69.871 38.0421 69.6792 37.8863C69.4035 37.6346 68.9121 37.7784 68.8282 38.2938C68.8282 38.4976 68.8162 38.7254 68.8282 38.9171C68.8401 39.4326 68.8401 39.8641 68.8282 40.3675C68.8042 40.775 68.9121 41.3863 68.5645 41.6021C68.1689 41.8538 67.6535 41.698 67.6055 41.0747C67.5696 40.7031 67.5696 40.4154 67.5696 40.0678C67.5696 39.6963 67.6055 39.3007 67.5696 38.9291C67.5576 38.7014 67.5696 38.2819 67.4737 38.0781C67.3538 37.8503 66.9343 37.7904 66.7186 37.8983C66.2751 38.114 66.311 38.6415 66.311 39.061C66.311 40.0918 66.359 40.8709 66.1912 41.3264C66.0233 41.8179 65.0764 41.8418 64.9206 41.3024C64.8127 40.9548 64.7887 39.8761 64.8007 39.2168V37.4908C64.7887 37.1192 64.7528 36.6517 64.8846 36.3041C64.9925 36.0044 65.2682 35.9445 65.5199 35.9565C66.1072 35.9685 66.1192 36.6038 66.1432 37.0832C66.323 36.6877 66.5388 36.412 66.9942 36.3281C67.5696 36.2202 68.061 36.376 68.4086 36.7836C68.5764 36.6157 68.7922 36.4839 69.0199 36.388C69.7871 36.1003 70.6741 36.4479 71.0217 37.2031C71.2614 37.7065 71.2494 38.3897 71.2734 38.9411Z" fill="#F26647"/>
<path d="M59.2845 36.6886C60.2554 36.1971 61.4301 36.269 62.2452 37.0601C62.6647 37.4797 62.8685 37.9711 62.9644 38.5704C63.0842 39.3855 63.5996 39.9728 63.7794 40.7519C63.8633 41.1235 63.7315 41.5311 63.324 41.603C62.8325 41.6989 62.4849 41.1715 62.2692 40.8239C61.8976 41.3033 61.49 41.555 60.8907 41.6389C60.3753 41.6989 59.9438 41.6749 59.4164 41.5311C58.0499 41.1715 57.6544 39.6732 58.002 38.3667C58.2297 37.5036 58.6972 36.9762 59.2845 36.6886ZM59.5842 38.091C59.1287 38.5225 59.0808 39.3975 59.4404 39.9129C59.5962 40.1406 60.0277 40.3085 60.4472 40.3324C61.4061 40.3924 61.9215 39.0259 61.4061 38.1988C61.0345 37.5875 60.0397 37.6475 59.5842 38.091Z" fill="#F26647"/>
<path d="M52.2054 34.1589C52.2414 33.5835 52.577 33.152 53.1763 33.3198C53.7517 33.4756 53.6678 34.015 53.6798 34.4945V36.1486C53.6678 36.3883 53.6798 36.652 53.6798 36.652C53.6798 36.652 54.2311 36.652 54.4589 36.64C56.2209 36.6281 56.9401 37.7188 56.9161 39.2171C56.8921 40.9911 55.7774 41.7702 54.0633 41.7702C52.0856 41.7702 52.2054 41.962 52.2054 39.361C52.2054 38.1264 52.2174 36.9037 52.2054 35.6811C52.2054 35.3455 52.1695 35.0459 52.2054 34.1589ZM54.4469 40.4278C54.9024 40.4038 55.1781 40.2959 55.3579 40.0682C55.7175 39.5767 55.7414 38.6777 55.238 38.2582C54.7825 37.8746 54.3989 37.9466 53.7037 37.9705V39.4089L53.6798 40.4038C53.6798 40.4038 54.0993 40.4517 54.4469 40.4278Z" fill="#F26647"/>
<path d="M51.0727 40.7767C51.0607 40.8606 51.0487 40.9325 51.0487 41.0044L50.9768 41.2561C50.9648 41.2801 50.9528 41.3041 50.9409 41.3161L50.9049 41.388C50.857 41.4839 50.773 41.5558 50.6891 41.6037C50.4974 41.6996 50.2936 41.7236 50.0778 41.6757C49.946 41.6637 49.8261 41.6157 49.7542 41.5558C49.6823 41.5078 49.6224 41.4479 49.5864 41.352C49.5504 41.2681 49.5265 41.1842 49.5145 41.1123C49.4905 41.0284 49.4785 40.9565 49.4785 40.8965V34.1841C49.4785 34.0763 49.4905 33.9924 49.5025 33.9085C49.5145 33.8006 49.5384 33.7287 49.5744 33.6328C49.5984 33.5608 49.6463 33.4889 49.7063 33.441C49.7902 33.381 49.8861 33.3331 49.9819 33.3211C50.0898 33.2852 50.1857 33.2852 50.3056 33.2852C50.4254 33.2852 50.5573 33.3211 50.6891 33.381C50.797 33.441 50.8809 33.5369 50.9289 33.6447C51.0008 33.7886 51.0487 33.9444 51.0487 34.0882C51.0607 34.2441 51.0727 34.6516 51.0727 34.8074V34.8554C51.0967 35.3708 51.0967 35.8143 51.0847 36.3657C51.0847 36.9051 51.0727 37.4085 51.0727 37.8999V40.4171C51.0727 40.477 51.0847 40.5369 51.0847 40.5969C51.0847 40.6688 51.0847 40.7167 51.0727 40.7767Z" fill="#F26647"/>
<path d="M43.9857 36.6886C44.9566 36.1971 46.1313 36.269 46.9463 37.0601C47.3659 37.4797 47.5696 37.9711 47.6655 38.5704C47.7854 39.3855 48.3008 39.9728 48.4806 40.7519C48.5645 41.1235 48.4327 41.5311 48.0251 41.603C47.5337 41.6989 47.1861 41.1715 46.9703 40.8239C46.5987 41.3033 46.1912 41.555 45.5919 41.6389C45.0765 41.6989 44.645 41.6749 44.1176 41.5311C42.7511 41.1715 42.3556 39.6732 42.7032 38.3667C42.9309 37.5036 43.3984 36.9762 43.9857 36.6886ZM44.2854 38.091C43.8299 38.5225 43.7819 39.3975 44.1415 39.9129C44.2974 40.1406 44.7289 40.3085 45.1484 40.3324C46.1073 40.3924 46.6227 39.0259 46.1073 38.1988C45.7357 37.5875 44.7408 37.6475 44.2854 38.091Z" fill="#F26647"/>
<path d="M40.6338 37.3121C41.1012 37.6117 41.4249 38.0073 41.6167 38.5946C42.0482 39.9011 41.6886 41.3395 39.9625 41.6991C39.4951 41.807 38.7999 41.8789 38.3084 41.8789C37.6851 41.8909 37.0019 41.9148 36.3786 41.783C36.1029 41.6991 36.007 41.4833 35.9591 41.2316C35.9231 41.1477 35.9111 41.0758 35.9111 41.0159V34.2076C35.9111 33.3086 36.7142 33.2726 37.5293 33.2846C37.8529 33.2846 38.1766 33.2726 38.5122 33.2846C39.0396 33.2966 39.6389 33.3565 40.1423 33.5483C40.2742 33.5963 40.406 33.6562 40.5259 33.7161C40.6458 33.7761 40.7656 33.86 40.8495 33.9559C41.8684 34.8788 41.8564 36.5689 40.6338 37.3121ZM38.5362 40.4885C39.0276 40.4645 39.6269 40.4046 39.8187 40.1768C40.2502 39.6734 40.1423 38.6905 39.591 38.2949C39.2194 38.0073 38.716 37.9473 38.2485 37.9473C37.793 37.9593 37.4933 37.9114 37.5053 38.3549C37.5293 38.7624 37.4814 39.1939 37.4814 39.5775C37.4814 39.7933 37.4334 40.1049 37.6012 40.2727C37.781 40.4405 38.1406 40.5005 38.5362 40.4885ZM38.7759 34.735C37.781 34.711 37.5173 34.6031 37.5413 35.3463C37.5413 35.6459 37.5293 35.9456 37.5293 36.2333C37.5173 36.8806 38.5002 36.7487 39.0156 36.6648C39.591 36.5689 39.9026 36.2932 39.9506 35.7179C40.0105 34.9987 39.519 34.759 38.7759 34.735Z" fill="#F26647"/>
<path d="M71.2734 49.7849C71.2974 50.3003 71.2974 50.7318 71.2734 51.2352C71.2614 51.6308 71.3213 52.2301 70.9857 52.4458C70.5902 52.6976 69.9669 52.6256 69.9309 52.0024C69.9069 51.6308 69.8949 51.2472 69.8949 50.8996C69.8949 50.54 69.883 50.2643 69.8949 49.665C69.8949 49.3653 69.871 48.8859 69.6792 48.7301C69.4035 48.4783 68.9121 48.6222 68.8282 49.1376C68.8282 49.3414 68.8162 49.5691 68.8282 49.7609C68.8401 50.2763 68.8401 50.7078 68.8282 51.2112C68.8042 51.6188 68.9121 52.2301 68.5645 52.4458C68.1689 52.6976 67.6535 52.5417 67.6055 51.9184C67.5696 51.5469 67.5696 51.2592 67.5696 50.9116C67.5696 50.54 67.6055 50.1445 67.5696 49.7729C67.5576 49.5451 67.5696 49.1256 67.4737 48.9218C67.3538 48.6941 66.9343 48.6342 66.7186 48.742C66.2751 48.9578 66.311 49.4852 66.311 49.9047C66.311 50.9356 66.359 51.7147 66.1912 52.1702C66.0233 52.6616 65.0764 52.6856 64.9206 52.1462C64.8127 51.7986 64.7887 50.7198 64.8007 50.0605V48.3345C64.7887 47.9629 64.7528 47.4955 64.8846 47.1478C64.9925 46.8482 65.2682 46.7883 65.5199 46.8002C66.1072 46.8122 66.1192 47.4475 66.1432 47.927C66.323 47.5314 66.5388 47.2557 66.9942 47.1718C67.5696 47.0639 68.061 47.2198 68.4086 47.6273C68.5764 47.4595 68.7922 47.3276 69.0199 47.2318C69.7871 46.9441 70.6741 47.2917 71.0217 48.0468C71.2614 48.5503 71.2494 49.2335 71.2734 49.7849Z" fill="#F26647"/>
<path d="M59.2845 47.5323C60.2554 47.0409 61.4301 47.1128 62.2452 47.9039C62.6647 48.3234 62.8685 48.8148 62.9644 49.4142C63.0842 50.2292 63.5996 50.8166 63.7794 51.5957C63.8633 51.9673 63.7315 52.3748 63.324 52.4467C62.8325 52.5426 62.4849 52.0152 62.2692 51.6676C61.8976 52.1471 61.49 52.3988 60.8907 52.4827C60.3753 52.5426 59.9438 52.5187 59.4164 52.3748C58.0499 52.0152 57.6544 50.5169 58.002 49.2104C58.2297 48.3474 58.6972 47.82 59.2845 47.5323ZM59.5842 48.9347C59.1287 49.3662 59.0808 50.2412 59.4404 50.7566C59.5962 50.9844 60.0277 51.1522 60.4472 51.1762C61.4061 51.2361 61.9215 49.8697 61.4061 49.0426C61.0345 48.4313 60.0397 48.4912 59.5842 48.9347Z" fill="#F26647"/>
<path d="M52.2054 45.0046C52.2414 44.4292 52.577 43.9977 53.1763 44.1655C53.7517 44.3213 53.6678 44.8607 53.6798 45.3402V46.9943C53.6678 47.234 53.6798 47.4977 53.6798 47.4977C53.6798 47.4977 54.2311 47.4977 54.4589 47.4857C56.2209 47.4738 56.9401 48.5645 56.9161 50.0628C56.8921 51.8368 55.7774 52.6159 54.0633 52.6159C52.0856 52.6159 52.2054 52.8077 52.2054 50.2067C52.2054 48.9721 52.2174 47.7494 52.2054 46.5268C52.2054 46.1912 52.1695 45.8916 52.2054 45.0046ZM54.4469 51.2735C54.9024 51.2495 55.1781 51.1416 55.3579 50.9139C55.7175 50.4224 55.7414 49.5234 55.238 49.1039C54.7825 48.7203 54.3989 48.7923 53.7037 48.8162V50.2546L53.6798 51.2495C53.6798 51.2495 54.0993 51.2974 54.4469 51.2735Z" fill="#F26647"/>
<path d="M51.0717 51.6204C51.0597 51.7043 51.0478 51.7762 51.0478 51.8482L50.9758 52.0999C50.9639 52.1238 50.9519 52.1478 50.9399 52.1598L50.9039 52.2317C50.856 52.3276 50.7721 52.3995 50.6882 52.4475C50.4964 52.5434 50.2926 52.5673 50.0769 52.5194C49.945 52.5074 49.8251 52.4595 49.7532 52.3995C49.6813 52.3516 49.6214 52.2917 49.5854 52.1958C49.5495 52.1119 49.5255 52.028 49.5135 51.956C49.4895 51.8721 49.4775 51.8002 49.4775 51.7403V45.0279C49.4775 44.92 49.4895 44.8361 49.5015 44.7522C49.5135 44.6443 49.5375 44.5724 49.5734 44.4765C49.5974 44.4046 49.6453 44.3327 49.7053 44.2847C49.7892 44.2248 49.8851 44.1769 49.981 44.1649C50.0888 44.1289 50.1847 44.1289 50.3046 44.1289C50.4245 44.1289 50.5563 44.1649 50.6882 44.2248C50.796 44.2847 50.8799 44.3806 50.9279 44.4885C50.9998 44.6323 51.0478 44.7882 51.0478 44.932C51.0597 45.0878 51.0717 45.4954 51.0717 45.6512V45.6991C51.0957 46.2145 51.0957 46.658 51.0837 47.2094C51.0837 47.7488 51.0717 48.2522 51.0717 48.7437V51.2608C51.0717 51.3208 51.0837 51.3807 51.0837 51.4406C51.0837 51.5125 51.0837 51.5605 51.0717 51.6204Z" fill="#F26647"/>
<path d="M43.9857 47.5323C44.9566 47.0409 46.1313 47.1128 46.9463 47.9039C47.3659 48.3234 47.5696 48.8148 47.6655 49.4142C47.7854 50.2292 48.3008 50.8166 48.4806 51.5957C48.5645 51.9673 48.4327 52.3748 48.0251 52.4467C47.5337 52.5426 47.1861 52.0152 46.9703 51.6676C46.5987 52.1471 46.1912 52.3988 45.5919 52.4827C45.0765 52.5426 44.645 52.5187 44.1176 52.3748C42.7511 52.0152 42.3556 50.5169 42.7032 49.2104C42.9309 48.3474 43.3984 47.82 43.9857 47.5323ZM44.2854 48.9347C43.8299 49.3662 43.7819 50.2412 44.1415 50.7566C44.2974 50.9844 44.7289 51.1522 45.1484 51.1762C46.1073 51.2361 46.6227 49.8697 46.1073 49.0426C45.7357 48.4313 44.7408 48.4912 44.2854 48.9347Z" fill="#F26647"/>
<path d="M40.6338 48.1558C41.1012 48.4555 41.4249 48.851 41.6167 49.4384C42.0482 50.7449 41.6886 52.1833 39.9625 52.5428C39.4951 52.6507 38.7999 52.7226 38.3084 52.7226C37.6851 52.7346 37.0019 52.7586 36.3786 52.6267C36.1029 52.5428 36.007 52.3271 35.9591 52.0754C35.9231 51.9915 35.9111 51.9195 35.9111 51.8596V45.0513C35.9111 44.1523 36.7142 44.1164 37.5293 44.1284C37.8529 44.1284 38.1766 44.1164 38.5122 44.1284C39.0396 44.1404 39.6389 44.2003 40.1423 44.3921C40.2742 44.44 40.406 44.5 40.5259 44.5599C40.6458 44.6198 40.7656 44.7037 40.8495 44.7996C41.8684 45.7226 41.8564 47.4127 40.6338 48.1558ZM38.5362 51.3322C39.0276 51.3082 39.6269 51.2483 39.8187 51.0206C40.2502 50.5171 40.1423 49.5343 39.591 49.1387C39.2194 48.851 38.716 48.7911 38.2485 48.7911C37.793 48.8031 37.4933 48.7551 37.5053 49.1986C37.5293 49.6062 37.4814 50.0377 37.4814 50.4212C37.4814 50.637 37.4334 50.9486 37.6012 51.1165C37.781 51.2843 38.1406 51.3442 38.5362 51.3322ZM38.7759 45.5787C37.781 45.5548 37.5173 45.4469 37.5413 46.19C37.5413 46.4897 37.5293 46.7894 37.5293 47.077C37.5173 47.7243 38.5002 47.5925 39.0156 47.5085C39.591 47.4127 39.9026 47.137 39.9506 46.5616C40.0105 45.8424 39.519 45.6027 38.7759 45.5787Z" fill="#F26647"/>
<path d="M46.4883 2.49717C46.4883 1.11802 47.6063 0 48.9854 0H58.4747C59.8538 0 60.9719 1.11802 60.9719 2.49717V11.9864C60.9719 13.3656 59.8538 14.4836 58.4747 14.4836H48.9854C47.6063 14.4836 46.4883 13.3656 46.4883 11.9864V2.49717Z" fill="#FFC49D"/>
<mask id="mask0_4474_1686" style="mask-type:alpha" maskUnits="userSpaceOnUse" x="46" y="0" width="15" height="15">
<path d="M46.4883 2.49717C46.4883 1.11802 47.6063 0 48.9854 0H58.4747C59.8538 0 60.9719 1.11802 60.9719 2.49717V11.9864C60.9719 13.3656 59.8538 14.4836 58.4747 14.4836H48.9854C47.6063 14.4836 46.4883 13.3656 46.4883 11.9864V2.49717Z" fill="#FFC49D"/>
</mask>
<g mask="url(#mask0_4474_1686)">
<path d="M60.9719 0H46.4883V14.4836H60.9719V0Z" fill="#E37600"/>
<path d="M50.2046 13.0996H49.9552C49.9214 13.0996 49.8876 13.0837 49.8643 13.0545L49.2305 12.2356V13.0041C49.2305 13.0572 49.189 13.0996 49.1396 13.0996H48.9708C48.9213 13.0996 48.8799 13.0572 48.8799 13.0041V11.3397C48.8799 11.2866 48.9213 11.2441 48.9708 11.2441H49.1396C49.189 11.2441 49.2305 11.2866 49.2305 11.3397V12.1268L49.8229 11.2919C49.8438 11.2627 49.8799 11.2441 49.9164 11.2441H50.1449C50.1917 11.2441 50.2176 11.2999 50.1891 11.3397L49.5837 12.1586L50.2514 13.0041C50.2799 13.0412 50.2541 13.0996 50.2046 13.0996Z" fill="white"/>
<path d="M52.1425 12.1725C52.1425 12.7158 51.7554 13.1344 51.2177 13.1344C50.68 13.1344 50.293 12.7158 50.293 12.1725C50.293 11.6292 50.68 11.2129 51.2177 11.2129C51.7554 11.2129 52.1425 11.6288 52.1425 12.1725ZM51.7892 12.1725C51.7892 11.865 51.5945 11.5549 51.2177 11.5549C50.8409 11.5549 50.6462 11.865 50.6462 12.1725C50.6462 12.4799 50.8409 12.7927 51.2177 12.7927C51.5945 12.7927 51.7892 12.4826 51.7892 12.1725Z" fill="white"/>
<path d="M53.7246 13.0996H53.4934C53.452 13.0996 53.4128 13.0757 53.3919 13.0386L53.0543 12.4316H52.7478V13.0041C52.7478 13.0572 52.7063 13.0996 52.6542 13.0996H52.4881C52.4363 13.0996 52.3945 13.0572 52.3945 13.0041V11.3397C52.3945 11.2866 52.436 11.2441 52.4881 11.2441H53.0257C53.4337 11.2441 53.7011 11.4959 53.7011 11.8485C53.7011 12.0843 53.579 12.2621 53.3816 12.3573L53.774 13.0091C53.7976 13.0489 53.7714 13.0993 53.7246 13.0993V13.0996ZM52.7478 12.1215H53.0257C53.2048 12.1215 53.3425 12.0365 53.3425 11.8485C53.3425 11.6813 53.2204 11.5782 53.0257 11.5782H52.7478V12.1215Z" fill="white"/>
<path d="M54.9987 12.7672C55.0505 12.7672 55.0923 12.8097 55.0923 12.8627V13.006C55.0923 13.0591 55.0508 13.1016 54.9987 13.1016H54.1101C54.0584 13.1016 54.0166 13.0591 54.0166 13.006V11.3416C54.0166 11.2886 54.0581 11.2461 54.1101 11.2461H54.9752C55.0246 11.2461 55.0661 11.2886 55.0661 11.3416V11.4846C55.0661 11.5376 55.0246 11.5801 54.9752 11.5801H54.3699V11.9964H54.9155C54.9649 11.9964 55.0064 12.0388 55.0064 12.0919V12.2375C55.0064 12.2879 54.9649 12.3304 54.9155 12.3304H54.3699V12.7676H54.9984L54.9987 12.7672Z" fill="white"/>
<path d="M56.5676 13.02L56.4714 12.7311H55.7231L55.6269 13.02C55.6113 13.0678 55.5672 13.0996 55.5178 13.0996H55.3254C55.276 13.0996 55.2421 13.0518 55.2577 13.0041L55.8525 11.3211C55.868 11.276 55.9122 11.2441 55.9616 11.2441H56.2319C56.2813 11.2441 56.3228 11.276 56.341 11.3211L56.9334 13.0041C56.949 13.0518 56.9152 13.0996 56.8684 13.0996H56.676C56.6266 13.0996 56.5825 13.0678 56.5669 13.02H56.5676ZM56.3649 12.4104L56.0972 11.6073L55.8296 12.4104H56.3649Z" fill="white"/>
<path d="M58.37 11.2441H58.5362C58.5882 11.2441 58.6297 11.2866 58.6297 11.3397V13.0041C58.6297 13.0572 58.5882 13.0996 58.5362 13.0996H58.3856C58.3388 13.0996 58.2947 13.0757 58.2685 13.0359L57.5046 11.8724V13.0041C57.5046 13.0572 57.4632 13.0996 57.4111 13.0996H57.2449C57.1932 13.0996 57.1514 13.0572 57.1514 13.0041V11.3397C57.1514 11.2866 57.1928 11.2441 57.2449 11.2441H57.3981C57.4423 11.2441 57.4864 11.268 57.5126 11.3078L58.2765 12.4714V11.3397C58.2765 11.2866 58.3179 11.2441 58.37 11.2441Z" fill="white"/>
<path d="M50.5768 6.35977C49.1861 6.35977 48.0547 5.25955 48.0547 3.90759C48.0547 2.55562 49.1864 1.45508 50.5768 1.45508C51.9673 1.45508 53.099 2.55529 53.099 3.90726C53.099 5.25922 51.9676 6.35944 50.5768 6.35944V6.35977ZM50.5768 1.8478C49.3957 1.8478 48.4348 2.77155 48.4348 3.90726C48.4348 5.04296 49.3957 5.96672 50.5768 5.96672C51.758 5.96672 52.7189 5.04263 52.7189 3.90726C52.7189 2.77188 51.758 1.8478 50.5768 1.8478Z" fill="#4F0000"/>
<path d="M51.1495 4.4906C51.4047 4.4906 51.6116 4.2824 51.6116 4.02558C51.6116 3.76875 51.4047 3.56055 51.1495 3.56055C50.8944 3.56055 50.6875 3.76875 50.6875 4.02558C50.6875 4.2824 50.8944 4.4906 51.1495 4.4906Z" fill="black"/>
<path d="M56.3663 4.48474C56.6215 4.48474 56.8284 4.27654 56.8284 4.01972C56.8284 3.76289 56.6215 3.55469 56.3663 3.55469C56.1112 3.55469 55.9043 3.76289 55.9043 4.01972C55.9043 4.27654 56.1112 4.48474 56.3663 4.48474Z" fill="black"/>
<path d="M56.9265 6.34576C55.5357 6.34576 54.4043 5.24555 54.4043 3.89359C54.4043 2.54162 55.5357 1.44141 56.9265 1.44141C58.3172 1.44141 59.4486 2.54162 59.4486 3.89359C59.4486 5.24555 58.3172 6.34576 56.9265 6.34576ZM56.9265 1.83379C55.7453 1.83379 54.7844 2.75755 54.7844 3.89325C54.7844 5.02896 55.7453 5.95271 56.9265 5.95271C58.1076 5.95271 59.0685 5.02863 59.0685 3.89325C59.0685 2.75788 58.1076 1.83379 56.9265 1.83379Z" fill="#4F0000"/>
<path d="M54.7649 3.85156H52.7217V4.24428H54.7649V3.85156Z" fill="#4F0000"/>
<path d="M46.4883 8.25107C46.4883 8.25107 48.6521 6.99219 53.7301 6.99219C58.8081 6.99219 60.9719 8.25107 60.9719 8.25107V10.2385H46.4883V8.25107Z" fill="#FFBE91"/>
<path d="M53.7424 7.15039C53.2243 7.15039 52.8993 7.37693 52.7139 7.57528C52.887 8.26619 53.2051 8.93057 53.7912 8.93057C54.3421 8.93057 54.6562 8.31495 54.8357 7.63963C54.6858 7.42967 54.3687 7.15039 53.7424 7.15039Z" fill="#E65D52"/>
<path d="M52.5098 5.91016V6.04913C52.5098 6.04913 52.5267 6.82761 52.7141 7.57557C52.8995 7.37722 53.2246 7.15067 53.7427 7.15067C54.3685 7.15067 54.6856 7.42996 54.8359 7.63992C55.0538 6.81932 55.0727 5.91049 55.0727 5.91049H52.5101L52.5098 5.91016Z" fill="#9C0000"/>
<path d="M61.0078 10.1465H46.4766V14.4598H61.0078V10.1465Z" fill="#E94A08"/>
<path d="M50.1305 13.0254H49.8834C49.8499 13.0254 49.8164 13.0095 49.7932 12.9803L49.165 12.1604V12.9299C49.165 12.983 49.1239 13.0254 49.0748 13.0254H48.9076C48.8588 13.0254 48.8174 12.983 48.8174 12.9299V11.2635C48.8174 11.2104 48.8585 11.168 48.9076 11.168H49.0748C49.1235 11.168 49.165 11.2104 49.165 11.2635V12.0516L49.7518 11.2157C49.7723 11.1865 49.8085 11.168 49.8443 11.168H50.0708C50.1173 11.168 50.1428 11.2237 50.1146 11.2635L49.5149 12.0834L50.1763 12.9299C50.2045 12.9671 50.179 13.0254 50.1299 13.0254H50.1305Z" fill="white"/>
<path d="M52.0663 12.0973C52.0663 12.6413 51.6829 13.0605 51.1499 13.0605C50.6168 13.0605 50.2334 12.6413 50.2334 12.0973C50.2334 11.5533 50.6168 11.1367 51.1499 11.1367C51.6829 11.1367 52.0663 11.5533 52.0663 12.0973ZM51.7164 12.0973C51.7164 11.7895 51.5233 11.479 51.1502 11.479C50.777 11.479 50.584 11.7895 50.584 12.0973C50.584 12.4051 50.777 12.7182 51.1502 12.7182C51.5233 12.7182 51.7164 12.4078 51.7164 12.0973Z" fill="white"/>
<path d="M53.6492 13.0254H53.42C53.3789 13.0254 53.3401 13.0015 53.3195 12.9644L52.9848 12.3567H52.681V12.9299C52.681 12.983 52.6399 13.0254 52.5884 13.0254H52.4236C52.3722 13.0254 52.3311 12.983 52.3311 12.9299V11.2635C52.3311 11.2104 52.3722 11.168 52.4236 11.168H52.9563C53.3603 11.168 53.6256 11.4201 53.6256 11.773C53.6256 12.0091 53.5046 12.1869 53.3092 12.2824L53.6979 12.9352C53.7212 12.975 53.6953 13.0254 53.6492 13.0254ZM52.6813 12.0463H52.9566C53.1341 12.0463 53.2707 11.9614 53.2707 11.773C53.2707 11.6058 53.1497 11.5023 52.9566 11.5023H52.6813V12.0463Z" fill="white"/>
<path d="M54.926 12.6911C54.9774 12.6911 55.0185 12.7335 55.0185 12.7866V12.9299C55.0185 12.983 54.9774 13.0254 54.926 13.0254H54.0457C53.9943 13.0254 53.9531 12.983 53.9531 12.9299V11.2635C53.9531 11.2104 53.9943 11.168 54.0457 11.168H54.9027C54.9515 11.168 54.993 11.2104 54.993 11.2635V11.4068C54.993 11.4599 54.9518 11.5023 54.9027 11.5023H54.3031V11.9189H54.8437C54.8925 11.9189 54.9339 11.9614 54.9339 12.0144V12.1604C54.9339 12.2108 54.8928 12.2533 54.8437 12.2533H54.3031V12.6911H54.926Z" fill="white"/>
<path d="M56.4963 12.9458L56.4011 12.6566H55.6597L55.5646 12.9458C55.5493 12.9936 55.5055 13.0254 55.4564 13.0254H55.266C55.2173 13.0254 55.1838 12.9777 55.199 12.9299L55.7884 11.2449C55.804 11.1998 55.8478 11.168 55.8966 11.168H56.1642C56.213 11.168 56.2545 11.1998 56.2724 11.2449L56.8591 12.9299C56.8747 12.9777 56.8412 13.0254 56.7948 13.0254H56.6044C56.5556 13.0254 56.5119 12.9936 56.4963 12.9458ZM56.2956 12.3355L56.0306 11.5315L55.7656 12.3355H56.2959H56.2956Z" fill="white"/>
<path d="M58.2978 11.168H58.4627C58.5141 11.168 58.5552 11.2104 58.5552 11.2635V12.9299C58.5552 12.983 58.5141 13.0254 58.4627 13.0254H58.3134C58.267 13.0254 58.2232 13.0015 58.1977 12.9617L57.4408 11.7969V12.9299C57.4408 12.983 57.3996 13.0254 57.3482 13.0254H57.1834C57.1319 13.0254 57.0908 12.983 57.0908 12.9299V11.2635C57.0908 11.2104 57.1319 11.168 57.1834 11.168H57.3353C57.3791 11.168 57.4228 11.1918 57.4487 11.2317L58.2056 12.3965V11.2635C58.2056 11.2104 58.2468 11.168 58.2982 11.168H58.2978Z" fill="white"/>
</g>
<path d="M5.92597 87.6728C6.01214 87.3894 6.11563 87.1124 6.21912 86.8354L8.27596 81.3308C8.41179 80.9673 8.55409 80.5865 8.66176 80.1927C8.68973 80.0651 8.76944 79.799 8.66767 79.7018C8.57237 79.5872 8.40365 79.5636 8.27163 79.4946C8.12231 79.4191 7.95358 79.3955 7.80426 79.32L6.99069 79.016C6.6034 78.891 6.20089 78.7011 5.8136 78.5761C5.63403 78.5288 5.48471 78.4532 5.31161 78.3886C5.05196 78.2915 4.75769 78.1816 4.59087 77.9417C4.34606 77.5938 4.40181 77.1806 4.53764 76.8171C4.60441 76.5856 4.74042 76.38 4.9219 76.2111C5.01911 76.1093 5.12716 76.0313 5.25689 76.0009C5.42334 75.925 5.71533 75.9355 5.88405 75.959C6.41401 76.019 6.96147 76.2433 7.46346 76.4308L10.4754 77.5563C10.7568 77.7009 11.1073 77.8713 11.3455 78.0787C11.4927 78.2126 11.6552 78.4114 11.7008 78.606C11.7856 79.0125 11.6692 79.3241 11.5615 79.7178C11.3741 80.3777 11.1175 81.0117 10.8782 81.6522L8.75668 87.3299C8.73727 87.3818 8.23505 88.8315 7.92877 89.5456C7.71951 90 7.40221 90.5325 6.71227 90.5311C6.47221 90.54 6.25155 90.497 6.07845 90.4324C5.78418 90.3224 5.48325 90.0719 5.4591 89.7669C5.41536 89.3561 5.4732 88.8845 5.64137 88.4344L5.92597 87.6728ZM15.3438 84.8003C15.6662 84.9405 16.0232 85.0936 16.3284 85.2274C16.4495 85.2727 16.5751 85.359 16.7071 85.4281C17.1248 85.6828 17.3437 86.1 17.1626 86.5846C17.0397 86.9135 16.8413 87.3917 16.463 87.5068C16.2857 87.5589 16.1149 87.5937 15.9288 87.5637C15.5459 87.4798 14.9422 87.195 14.5722 87.0765C14.5376 87.0635 14.4965 87.0679 14.4706 87.1372C14.2398 87.7019 13.8755 88.7297 13.6556 89.3182C13.453 89.9133 13.2266 90.5191 12.9959 91.0839L12.9053 91.3262C12.6789 91.9321 12.3491 92.8149 11.7784 93.0751C11.5817 93.1791 11.359 93.1945 11.1339 93.1105C11.1339 93.1105 11.1231 93.0867 11.1058 93.0802C9.99355 92.6252 10.3769 91.2297 10.6485 90.5027L14.4906 80.2205C14.5035 80.1858 14.8096 79.3139 15.3327 79.0753C15.5467 78.9778 15.9426 79.027 16.2022 79.1241C16.4619 79.2211 16.6481 79.409 16.7457 79.623C16.9344 80.0684 16.8158 80.4383 16.7082 80.8321C16.6996 80.9078 16.6737 80.977 16.6479 81.0463C16.5575 81.4465 16.3958 81.8793 16.2579 82.3012C16.122 82.6647 16.1846 82.55 15.4925 84.4022C15.4473 84.5233 15.3955 84.6618 15.3438 84.8003Z" fill="#E5E4E9"/>
<path d="M26.9756 81.4829L28.0618 85.8322C28.117 86.0532 28.146 86.2683 28.2099 86.4747C28.236 86.5794 28.268 86.7073 28.3668 86.7568C28.4802 86.8149 28.6284 86.7656 28.7447 86.7365C28.9192 86.693 29.1082 86.6581 29.2826 86.6146C29.678 86.5158 30.4542 86.3096 30.8496 86.2603C31.1258 86.2284 31.4369 86.1877 31.7072 86.2808C31.8438 86.3332 31.9368 86.4582 31.9833 86.5949C32.0124 86.6618 32.0298 86.7315 32.0501 86.8129C32.0821 86.9903 32.0646 87.1676 31.9802 87.3246C31.8959 87.4815 31.7621 87.5891 31.608 87.6646C31.3958 87.7547 31.2068 87.8389 30.9858 87.8941C30.8463 87.929 30.1922 88.08 30.0642 88.1119L28.9943 88.3791C28.692 88.4546 28.3896 88.4807 28.0844 88.5446C27.8489 88.5911 27.564 88.5881 27.3489 88.4688C27.1454 88.3467 27.0117 88.1577 26.91 87.9483C26.6921 87.4715 26.605 86.9249 26.4773 86.4133L25.7657 83.5641C25.6989 83.2966 25.6409 83.0146 25.5595 82.7384C25.5479 82.6919 25.2836 81.7325 25.1791 81.215C25.1239 80.8952 25.1095 80.4911 25.4642 80.2295C25.6241 80.1278 25.7986 80.0348 25.9963 80.0349C26.194 80.0349 26.3974 80.1077 26.5282 80.285C26.6764 80.4828 26.7723 80.7183 26.8362 80.9741C26.8798 81.1485 26.9204 81.3114 26.9756 81.4829ZM33.5951 81.6706L33.6184 81.6648C33.6881 81.6474 33.7637 81.6532 33.8451 81.6329C33.9294 81.6242 34.0254 81.6126 34.1213 81.601C34.3045 81.5923 34.508 81.6156 34.6329 81.7697C34.7143 81.8482 34.7637 81.9471 34.7898 82.0517C34.8189 82.168 34.845 82.2727 34.8392 82.3977C34.845 82.5198 34.8507 82.6913 34.7664 82.7989C34.6908 82.8919 34.6006 82.9762 34.4902 83.0285C34.2547 83.1243 33.8273 83.194 33.586 83.2666C33.5627 83.2724 33.554 83.287 33.554 83.287C33.554 83.287 33.5424 83.2899 33.554 83.3364C33.6382 83.7231 33.8241 84.4179 33.9228 84.8133C34.0332 85.2058 34.1348 85.6128 34.2191 85.9995L34.2597 86.1623C34.3614 86.5693 34.5095 87.1624 34.3001 87.5112C34.2332 87.6391 34.1198 87.7292 33.9686 87.767C33.9686 87.767 33.9541 87.7582 33.9424 87.7611C33.1807 87.9267 32.8728 87.0399 32.7508 86.5515L31.0257 79.6437C31.0199 79.6204 30.8631 79.0419 31.055 78.7221C31.1335 78.5913 31.3632 78.4722 31.5377 78.4286C31.7121 78.3851 31.8807 78.4171 32.0115 78.4956C32.276 78.6643 32.3486 78.9056 32.4358 79.1556C32.459 79.1993 32.4707 79.2458 32.4823 79.2923C32.5811 79.5394 32.6537 79.8302 32.735 80.1063C32.7786 80.2808 32.8279 80.4291 32.8715 80.6035C32.8831 80.6994 32.9151 80.7779 32.9354 80.8593L33.0951 81.499C33.1155 81.5804 33.1387 81.6734 33.1823 81.749C33.1852 81.7606 33.4178 81.7025 33.4294 81.6996C33.4904 81.6967 33.5399 81.6968 33.5951 81.6706Z" fill="#E5E4E9"/>
<path d="M47.763 81.5628C48.4284 81.4145 49.0769 81.4313 49.3256 82.146C49.5743 82.8606 48.9224 83.4715 48.3158 83.6424C47.8418 83.7659 45.5517 84.2581 44.4427 84.5051L44.3062 84.5355C43.7905 84.6325 43.1934 84.7655 42.6473 84.7259C42.2662 84.7034 41.8357 84.459 41.5777 84.1046C41.2456 83.6592 41.0612 82.5899 41.0498 82.5388L39.4346 75.2874C39.3909 75.1718 39.0016 73.987 39.2175 73.3479C39.4011 72.8055 40.694 72.4996 40.8135 72.473L44.806 71.5837C44.8742 71.5685 46.296 71.1981 46.6775 71.8653C46.8198 72.1022 46.9395 72.7203 46.879 72.9307C46.8279 73.1033 46.6971 73.2399 46.5208 73.3329C46.3275 73.4297 46.0109 73.536 45.5673 73.6348C45.2772 73.6994 45.0516 73.7318 42.953 74.1992C42.6459 74.2676 42.2573 74.3721 42.1189 74.4746C41.8251 74.6833 42.0094 75.4302 42.1005 75.6785L42.1043 75.6956L43.4876 81.5839C43.5864 82.0275 43.8292 82.3136 44.3581 82.1958C44.4814 82.1863 46.2615 81.8972 47.763 81.5628ZM51.0739 75.0408L52.4484 74.86C52.8769 74.8541 53.296 75.0473 53.4063 75.5421C53.4443 75.7127 53.4785 75.8662 53.4653 76.0483C53.4807 76.4388 53.3481 76.8086 52.9216 76.9036L51.5263 77.2323C51.7544 78.4172 52.1914 80.2182 52.5068 81.6343C52.6398 82.2315 52.904 83.4979 51.9125 83.7904C50.8187 84.1057 50.4902 83.0327 50.3306 82.3161L47.9971 71.84C47.9894 71.8059 47.7824 70.9566 48.0741 70.4976C48.1935 70.3098 48.5328 70.1447 48.7887 70.0877C49.0446 70.0307 49.2892 70.0837 49.477 70.203C49.8563 70.4588 49.9532 70.8133 50.0709 71.1811C50.4507 72.4038 50.7851 73.7441 51.0739 75.0408Z" fill="#E5E4E9"/>
<path d="M72.8724 82.7697L72.9029 82.7793C72.9944 82.8081 73.0762 82.8674 73.1829 82.9011C73.2849 82.9499 73.402 83.0036 73.5191 83.0572C73.7334 83.175 73.9485 83.3433 73.9832 83.6055C74.021 83.7515 74.0082 83.8983 73.965 84.0355C73.917 84.1879 73.8738 84.3251 73.78 84.4631C73.7015 84.606 73.5886 84.805 73.4178 84.8685C73.267 84.9215 73.1058 84.9545 72.9438 84.937C72.6093 84.8819 72.0749 84.6633 71.75 84.5777C71.7195 84.5681 71.6995 84.5785 71.6995 84.5785C71.6995 84.5785 71.6842 84.5737 71.665 84.6347C71.4913 85.1329 71.2713 85.8847 71.108 86.403C70.96 86.926 70.7919 87.4596 70.6183 87.9578L70.551 88.1712C70.383 88.7047 70.1381 89.4822 69.657 89.7328C69.4918 89.8315 69.3002 89.8549 69.102 89.7925C69.102 89.7925 69.0915 89.7725 69.0763 89.7677C68.0951 89.4251 68.3629 88.2025 68.5646 87.5622L71.4167 78.5076C71.4263 78.4771 71.6512 77.7101 72.0922 77.4804C72.2726 77.3864 72.6167 77.411 72.8454 77.4831C73.074 77.5551 73.2434 77.709 73.3373 77.8894C73.5205 78.2654 73.4349 78.5903 73.3598 78.9353C73.3558 79.0011 73.3366 79.0621 73.3174 79.123C73.2575 79.4728 73.1374 79.8539 73.0374 80.2245C72.975 80.4227 72.9038 80.7019 72.4237 82.2262C72.3901 82.3329 72.3516 82.4549 72.3485 82.5712C72.3437 82.5864 72.6486 82.6825 72.6638 82.6873C72.7352 82.7265 72.7914 82.761 72.8724 82.7697ZM63.9007 82.4738C63.4755 82.4404 63.4726 82.8752 63.3814 83.1648C63.2998 83.4239 63.1125 84.0184 63.0566 84.3024C63.0133 84.4396 62.8916 84.7196 62.9543 84.8399C62.9447 84.8704 62.996 84.9201 63.0265 84.9297C63.4838 85.0738 64.4193 85.4019 64.8862 85.5155C65.6027 85.7412 66.445 85.9395 67.127 86.2213C67.3918 86.3383 67.501 86.5235 67.5445 86.7047C67.6184 86.8956 67.6249 86.9814 67.5529 87.21C67.5065 87.4635 67.3382 87.6786 67.2036 87.787C67.0737 87.8801 66.8924 87.9236 66.7112 87.967C66.2524 88.0404 65.8753 87.8545 65.4389 87.7506C65.0731 87.6353 64.5452 87.5026 64.1737 87.352C63.8784 87.2255 63.1371 87.0255 62.8627 86.9391C62.598 86.8222 62.314 86.7662 62.0396 86.6798C61.5614 86.4957 61.0527 86.3019 60.7476 85.8875C60.6088 85.7432 60.5701 85.5467 60.562 85.3598C60.5216 85.0623 60.5711 84.6924 60.6928 84.4124C61.0258 83.4617 61.1809 82.7565 61.4978 81.7504C61.6179 81.3694 61.7634 80.6947 62.0471 80.4322C62.5898 79.9329 63.145 80.1916 63.6938 80.3644L65.2486 80.8542C65.4925 80.931 66.0108 81.0943 66.2892 81.1149C66.395 81.098 66.4752 81.0562 66.5345 80.9744C66.7988 80.4544 67.0053 79.7989 67.1477 79.2406C67.2149 79.0272 67.3894 78.5795 67.3251 78.3581C67.2929 78.2475 67.1645 78.1232 66.9054 78.0416L64.0557 77.1942C63.7813 77.1078 63.3937 76.9019 63.278 76.6309C63.2506 76.505 63.2185 76.3943 63.2055 76.2227C63.2356 75.5954 63.6732 75.1636 64.2804 75.204C64.797 75.2662 65.2656 75.4808 65.763 75.604L68.0648 76.3291C68.4611 76.4539 68.928 76.5675 69.2859 76.8143C69.4753 76.9577 69.6102 77.1678 69.681 77.4749C69.6827 77.576 69.6892 77.6618 69.6765 77.8086C69.6781 77.9097 69.6798 78.0107 69.651 78.1022C69.5711 78.4624 69.3886 79.0416 69.2878 79.3618C69.0765 80.0325 68.8957 80.7128 68.6796 81.3987C68.4588 82.1 68.302 82.7041 67.9702 83.119C67.8163 83.2883 67.6159 83.3928 67.4137 83.3961C67.0256 83.4582 66.5875 83.2531 66.2521 83.1475C65.7948 83.0034 64.8297 82.7162 64.4638 82.6009C64.1285 82.4953 64.26 82.5032 63.9007 82.4738Z" fill="#E5E4E9"/>
<path d="M84.9029 70.1152C84.9332 70.0779 86.1053 69.5947 86.1248 69.5858C87.7879 68.8332 88.751 70.0239 89.1052 70.8065L93.5941 80.7263C93.6206 80.785 94.1127 81.9766 94.0388 82.6465C93.9396 83.4693 92.5202 84.1352 92.4419 84.1706L88.9006 85.7732C88.4114 85.9945 86.7521 86.6511 85.8896 85.8392C85.1479 85.1377 84.7336 84.1701 84.337 83.2417L81.1496 76.1981C81.0592 76.0504 80.0136 74.2606 80.0722 73.2441C80.1224 71.9485 81.6159 71.6026 82.5746 71.1688C83.3964 70.7969 84.1291 70.4889 84.9029 70.1152ZM95.8767 71.9145L95.9159 71.8968C96.0333 71.8436 96.1684 71.8297 96.3053 71.7677C96.4511 71.7253 96.6165 71.674 96.7819 71.6227C97.1019 71.5486 97.4681 71.5244 97.7379 71.7559C97.9065 71.8681 98.0254 72.0265 98.105 72.2026C98.1936 72.3982 98.2733 72.5743 98.3031 72.7966C98.3525 73.0099 98.4178 73.3104 98.3037 73.527C98.2003 73.7153 98.0684 73.8928 97.8905 74.0205C97.5062 74.2651 96.7753 74.5251 96.3732 74.7306C96.3341 74.7483 96.3234 74.7767 96.3234 74.7767C96.3234 74.7767 96.3038 74.7856 96.3392 74.8639C96.6119 75.5184 97.1538 76.6639 97.4548 77.3291C97.7754 77.9855 98.0853 78.6703 98.3579 79.3248L98.4819 79.5987C98.7918 80.2835 99.2433 81.2814 98.9862 81.9635C98.9094 82.2104 98.7384 82.4056 98.4841 82.5207C98.4841 82.5207 98.4557 82.51 98.4361 82.5188C97.1466 83.0552 96.3191 81.5911 95.9472 80.7693L90.688 69.1473C90.6703 69.1082 90.208 68.1388 90.4437 67.5136C90.5401 67.2578 90.9067 66.974 91.2002 66.8412C91.4937 66.7084 91.8011 66.7107 92.0569 66.8071C92.5773 67.0195 92.7828 67.4215 93.0167 67.8342C93.0717 67.9036 93.1071 67.9819 93.1426 68.0602C93.396 68.4641 93.6174 68.9532 93.8494 69.4139C93.9823 69.7074 94.1169 69.9529 94.2497 70.2464C94.301 70.4118 94.3825 70.5399 94.4445 70.6768L94.9403 71.7725C95.0023 71.9095 95.0731 72.066 95.1742 72.1852C95.1831 72.2048 95.5744 72.0277 95.594 72.0189C95.7007 71.9942 95.7878 71.9783 95.8767 71.9145ZM84.0082 75.8474L87.2221 82.9497C87.3391 83.1561 87.5823 83.3289 87.9024 83.2548L89.7308 82.4509C90.035 82.2897 90.3588 82.1196 90.5423 81.848C90.7454 81.5675 90.5222 81.1263 90.3344 80.7635L90.237 80.5482C89.9467 79.8546 89.812 79.6091 89.511 78.9439L87.3772 74.2285C87.3772 74.2285 86.9681 73.3765 86.7146 72.9726C86.4257 72.4905 86.0167 72.6284 85.8601 72.6993L85.8406 72.7081L84.1598 73.4216C83.5337 73.7049 83.359 73.9961 83.4098 74.4209C83.4662 74.7019 83.8577 75.5148 84.0082 75.8474Z" fill="#E5E4E9"/>
<path fill-rule="evenodd" clip-rule="evenodd" d="M2.96127 63.6394C3.12073 63.1838 3.61934 62.9437 4.07494 63.1032L14.0636 66.5992C14.5192 66.7587 14.7593 67.2573 14.5998 67.7129C14.4404 68.1685 13.9418 68.4086 13.4862 68.2491L3.49748 64.7531C3.04188 64.5936 2.80181 64.095 2.96127 63.6394Z" fill="#E5E4E9"/>
<path fill-rule="evenodd" clip-rule="evenodd" d="M9.81936 54.4444C10.2298 54.1903 10.7685 54.3171 11.0225 54.7275L17.5152 65.2156C17.7692 65.6261 17.6425 66.1647 17.2321 66.4188C16.8216 66.6729 16.283 66.5461 16.0289 66.1357L9.53626 55.6476C9.28219 55.2372 9.40894 54.6985 9.81936 54.4444Z" fill="#E5E4E9"/>
<path fill-rule="evenodd" clip-rule="evenodd" d="M107.57 97.3872C107.333 97.8076 106.8 97.9562 106.379 97.719L95.6357 91.6587C95.2152 91.4216 95.0667 90.8885 95.3038 90.4681C95.541 90.0477 96.074 89.8991 96.4945 90.1362L107.238 96.1965C107.659 96.4337 107.807 96.9668 107.57 97.3872Z" fill="#E5E4E9"/>
<path fill-rule="evenodd" clip-rule="evenodd" d="M20.7676 56.0605C21.2503 56.0605 21.6416 56.4519 21.6416 56.9346L21.6416 65.4249C21.6416 65.9076 21.2503 66.2989 20.7676 66.2989C20.2849 66.2989 19.8936 65.9076 19.8936 65.4249L19.8936 56.9346C19.8936 56.4519 20.2849 56.0605 20.7676 56.0605Z" fill="#E5E4E9"/>
<path fill-rule="evenodd" clip-rule="evenodd" d="M97.1984 101.247C96.7755 101.479 96.244 101.325 96.0114 100.902L91.9193 93.463C91.6866 93.0401 91.8409 92.5086 92.2638 92.276C92.6868 92.0433 93.2182 92.1976 93.4509 92.6205L97.543 100.06C97.7756 100.483 97.6213 101.014 97.1984 101.247Z" fill="#E5E4E9"/>
</svg>
