<svg width="434" height="408" viewBox="0 0 434 408" fill="none" xmlns="http://www.w3.org/2000/svg">
<path d="M322.032 87.9677C326.66 85.6797 332.224 86.0437 336.124 89.7877C337.684 91.3477 338.932 93.8437 339.504 95.9757C340.648 99.7717 339.66 103.828 337.632 107.156C336.696 108.664 335.188 109.964 333.576 110.692C331.496 111.628 328.948 112.044 326.66 111.836C318.392 111.368 313.764 103.828 315.844 96.0277C316.936 91.9197 319.172 89.3717 322.032 87.9677ZM323.592 94.9357C321.564 96.9117 321.252 101.02 322.968 103.464C323.644 104.504 325.724 105.284 327.648 105.388C332.12 105.648 334.512 99.3037 332.12 95.4557C330.404 92.6477 325.776 92.9077 323.592 94.9357Z" fill="#492B21" fill-opacity="0.7"/>
<path d="M313.712 88.5406C314.232 89.8406 313.764 91.8166 312.568 92.2846C311.372 92.8046 308.044 93.0126 306.328 93.0646C306.484 97.2246 306.64 102.009 306.536 105.025C306.536 107.157 306.64 110.797 305.236 111.317C303.104 112.201 301.128 111.681 300.4 110.589C299.256 108.821 299.412 105.493 299.464 103.673C299.516 100.761 299.568 96.8606 299.568 93.1166H298.788C297.124 93.1166 293.276 93.0646 292.288 91.8686C290.728 90.0486 291.872 87.4486 293.64 86.9806C294.888 86.6686 297.488 86.6686 299.516 86.7206C299.464 86.0446 299.464 85.3686 299.412 84.7446C299.308 83.0286 299.256 79.2846 300.816 78.0886C302.896 76.4246 305.288 77.9326 305.808 79.8566C306.276 81.4686 306.224 84.6926 306.224 86.7206H306.744C308.772 86.7726 312.672 86.0446 313.712 88.5406Z" fill="#492B21" fill-opacity="0.7"/>
<path d="M270.144 104.347C271.756 103.879 273.888 104.035 273.888 106.375C273.888 108.091 272.016 109.391 270.664 109.963C268.688 110.847 265.932 111.367 263.176 111.263C259.432 111.107 255.688 109.859 253.764 106.791C251.996 103.775 251.736 99.6674 252.412 96.3914C253.192 92.3874 255.116 89.9434 257.664 88.4354C260.732 86.6674 264.996 86.6154 268.48 88.1754C270.82 89.2154 272.796 90.9834 273.784 93.4794C274.304 94.7274 274.564 97.3274 274.044 98.8354C273.16 101.331 271.704 101.383 267.908 101.539C264.58 101.695 262.24 101.539 258.236 101.435C257.82 104.243 260.888 105.335 263.436 105.543C265.776 105.699 267.856 105.023 270.144 104.347ZM267.908 94.2594C267.284 93.5314 266.608 92.9594 265.828 92.5954C264.736 92.1274 263.436 92.2314 262.344 92.5434C261.252 92.8034 260.524 93.2714 259.796 94.1034C259.588 94.3114 258.132 96.5474 258.704 96.5474H268.896C268.844 95.5594 268.584 94.9874 267.908 94.2594Z" fill="#492B21" fill-opacity="0.7"/>
<path d="M247.887 99.3565C247.991 101.592 247.991 103.464 247.887 105.648C247.835 107.364 248.095 109.964 246.639 110.9C244.923 111.992 242.219 111.68 242.063 108.976C241.959 107.364 241.907 105.7 241.907 104.192C241.907 102.632 241.855 101.436 241.907 98.8365C241.907 97.5365 241.803 95.4565 240.971 94.7805C239.775 93.6885 237.643 94.3125 237.279 96.5485C237.279 97.4325 237.227 98.4205 237.279 99.2525C237.331 101.488 237.331 103.36 237.279 105.544C237.175 107.312 237.643 109.964 236.135 110.9C234.419 111.992 232.183 111.316 231.975 108.612C231.819 107 231.819 105.752 231.819 104.244C231.819 102.632 231.975 100.916 231.819 99.3045C231.767 98.3165 231.819 96.4965 231.403 95.6125C230.883 94.6245 229.063 94.3645 228.127 94.8325C226.203 95.7685 226.359 98.0565 226.359 99.8765C226.359 104.348 226.567 107.728 225.839 109.704C225.111 111.836 221.003 111.94 220.327 109.6C219.859 108.092 219.755 103.412 219.807 100.552V93.0645C219.755 91.4525 219.599 89.4245 220.171 87.9165C220.639 86.6165 221.835 86.3565 222.927 86.4085C225.475 86.4605 225.527 89.2165 225.631 91.2965C226.411 89.5805 227.347 88.3845 229.323 88.0205C231.819 87.5525 233.951 88.2285 235.459 89.9965C236.187 89.2685 237.123 88.6965 238.111 88.2805C241.439 87.0325 245.287 88.5405 246.795 91.8165C247.835 94.0005 247.783 96.9645 247.887 99.3565Z" fill="#492B21" fill-opacity="0.7"/>
<path d="M197.568 87.9677C202.196 85.6797 207.76 86.0437 211.66 89.7877C213.22 91.3477 214.468 93.8437 215.04 95.9757C216.184 99.7717 215.196 103.828 213.168 107.156C212.232 108.664 210.724 109.964 209.112 110.692C207.032 111.628 204.484 112.044 202.196 111.836C193.928 111.368 189.3 103.828 191.38 96.0277C192.472 91.9197 194.708 89.3717 197.568 87.9677ZM199.128 94.9357C197.1 96.9117 196.788 101.02 198.504 103.464C199.18 104.504 201.26 105.284 203.184 105.388C207.656 105.648 210.048 99.3037 207.656 95.4557C205.94 92.6477 201.312 92.9077 199.128 94.9357Z" fill="#492B21" fill-opacity="0.7"/>
<path d="M186.184 91.4529C186.704 92.3889 186.756 93.5849 186.236 94.5729C185.612 95.8209 184.416 96.2369 183.012 95.9249C181.712 95.6129 181.296 94.4169 179.268 94.1049C178.228 93.9489 176.876 94.1049 175.94 94.5209C172.924 96.0809 172.196 101.177 174.432 103.725C175.264 104.713 176.772 105.389 178.02 105.493C179.216 105.649 180.412 105.441 181.504 105.077C182.336 104.713 183.48 103.933 184.416 103.829C186.86 103.777 187.276 106.845 186.08 108.353C185.248 109.393 183.48 110.433 182.128 110.849C180.464 111.369 178.228 111.421 176.46 111.213C175.628 111.109 174.692 110.849 173.86 110.589C167.724 108.405 165.696 102.009 167.308 96.3409C168.816 90.8809 171.936 89.2169 176.616 88.1769C179.06 87.7089 181.972 88.2289 184.104 89.5289C184.884 89.9449 185.664 90.6729 186.184 91.4529Z" fill="#492B21" fill-opacity="0.7"/>
<path d="M162.584 107.312C162.532 107.676 162.48 107.988 162.48 108.3L162.168 109.392C162.116 109.496 162.064 109.6 162.012 109.653L161.856 109.965C161.648 110.381 161.284 110.693 160.92 110.901C160.088 111.317 159.204 111.421 158.268 111.213C157.696 111.161 157.176 110.952 156.864 110.693C156.552 110.485 156.292 110.224 156.136 109.808C155.98 109.444 155.876 109.081 155.824 108.769C155.72 108.405 155.668 108.092 155.668 107.833V78.7125C155.668 78.2445 155.72 77.8805 155.772 77.5165C155.824 77.0485 155.928 76.7365 156.084 76.3205C156.188 76.0085 156.396 75.6965 156.656 75.4885C157.02 75.2285 157.436 75.0205 157.852 74.9685C158.32 74.8125 158.736 74.8125 159.256 74.8125C159.776 74.8125 160.348 74.9685 160.92 75.2285C161.388 75.4885 161.752 75.9045 161.96 76.3725C162.272 76.9965 162.48 77.6725 162.48 78.2965C162.532 78.9725 162.584 80.7405 162.584 81.4165V81.6245C162.688 83.8605 162.688 85.7845 162.636 88.1765C162.636 90.5165 162.584 92.7005 162.584 94.8325V105.752C162.584 106.012 162.636 106.273 162.636 106.533C162.636 106.845 162.636 107.053 162.584 107.312Z" fill="#492B21" fill-opacity="0.7"/>
<path d="M146.187 104.347C147.799 103.879 149.931 104.035 149.931 106.375C149.931 108.091 148.059 109.391 146.707 109.963C144.731 110.847 141.975 111.367 139.219 111.263C135.475 111.107 131.731 109.859 129.807 106.791C128.039 103.775 127.779 99.6674 128.455 96.3914C129.235 92.3874 131.159 89.9434 133.707 88.4354C136.775 86.6674 141.039 86.6154 144.523 88.1754C146.863 89.2154 148.839 90.9834 149.827 93.4794C150.347 94.7274 150.607 97.3274 150.087 98.8354C149.203 101.331 147.747 101.383 143.951 101.539C140.623 101.695 138.283 101.539 134.279 101.435C133.863 104.243 136.931 105.335 139.479 105.543C141.819 105.699 143.899 105.023 146.187 104.347ZM143.951 94.2594C143.327 93.5314 142.651 92.9594 141.871 92.5954C140.779 92.1274 139.479 92.2314 138.387 92.5434C137.295 92.8034 136.567 93.2714 135.839 94.1034C135.631 94.3114 134.175 96.5474 134.747 96.5474H144.939C144.887 95.5594 144.627 94.9874 143.951 94.2594Z" fill="#492B21" fill-opacity="0.7"/>
<path d="M126.12 76.736C126.276 77.412 126.276 78.088 126.12 78.816C126.016 79.492 125.86 80.168 125.756 80.844L125.704 81.052C124.768 85.316 123.416 90.36 122.428 94.572C121.596 98.004 120.66 102.58 119.724 106.012C119.412 107.156 119.048 108.352 118.476 109.548C117.488 111.628 115.824 112.928 113.64 111.368C111.976 110.224 111.404 107.78 110.572 106.064C110.052 105.024 108.18 98.576 107.4 96.808C106.152 99.876 104.8 105.076 104.332 106.428C103.292 109.236 101.836 113.76 98.1962 111.42C97.5202 111.004 97.0002 110.328 96.7402 109.652C96.4282 108.664 96.0122 107.78 95.8042 106.844L94.7642 102.944L92.6322 94.572C92.1122 92.44 91.5922 90.204 90.9162 87.76C90.2922 85.368 89.9802 83.444 89.1482 78.816C89.0442 78.088 88.9922 77.412 89.0962 76.736C89.1482 76.216 89.4082 75.748 89.8242 75.384C90.1882 75.02 90.7082 74.812 91.2282 74.708C91.6962 74.552 92.1642 74.5 92.5282 74.5C92.9442 74.5 93.4122 74.656 93.8282 74.916C94.0882 75.072 94.3482 75.28 94.5562 75.592L95.1802 76.684C95.3362 77.152 95.4402 77.516 95.5962 77.932C95.7002 78.4 95.8042 78.764 95.8562 79.128C96.4802 82.716 97.4682 86.2 98.2482 89.268C98.8722 91.712 99.8602 97.276 100.64 99.408C101.524 96.34 102.46 93.168 103.552 89.996C104.696 86.668 105.788 84.328 108.44 85.316C109.584 85.784 110.52 87.656 111.196 89.32C112.392 92.388 113.64 96.34 114.68 98.42C115.148 96.86 115.824 93.428 116.344 91.244C117.228 87.5 118.268 83.652 119.152 80.012L119.412 79.128C119.516 78.764 119.568 78.4 119.672 77.932C119.776 77.516 119.932 77.152 120.088 76.684C120.244 76.32 120.4 75.956 120.66 75.592C120.868 75.28 121.18 75.072 121.44 74.916C121.908 74.656 122.324 74.5 122.688 74.5C123.104 74.5 123.52 74.552 123.988 74.708C124.56 74.812 125.028 75.02 125.496 75.384C125.86 75.748 126.068 76.216 126.12 76.736Z" fill="#492B21" fill-opacity="0.7"/>
<path d="M286.256 155.944C286.352 158.008 286.352 159.736 286.256 161.752C286.208 163.336 286.448 165.736 285.104 166.6C283.52 167.608 281.024 167.32 280.88 164.824C280.784 163.336 280.736 161.8 280.736 160.408C280.736 158.968 280.688 157.864 280.736 155.464C280.736 154.264 280.64 152.344 279.872 151.72C278.768 150.712 276.8 151.288 276.464 153.352C276.464 154.168 276.416 155.08 276.464 155.848C276.512 157.912 276.512 159.64 276.464 161.656C276.368 163.288 276.8 165.736 275.408 166.6C273.824 167.608 271.76 166.984 271.568 164.488C271.424 163 271.424 161.848 271.424 160.456C271.424 158.968 271.568 157.384 271.424 155.896C271.376 154.984 271.424 153.304 271.04 152.488C270.56 151.576 268.88 151.336 268.016 151.768C266.24 152.632 266.384 154.744 266.384 156.424C266.384 160.552 266.576 163.672 265.904 165.496C265.232 167.464 261.44 167.56 260.816 165.4C260.384 164.008 260.288 159.688 260.336 157.048V150.136C260.288 148.648 260.144 146.776 260.672 145.384C261.104 144.184 262.208 143.944 263.216 143.992C265.568 144.04 265.616 146.584 265.712 148.504C266.432 146.92 267.296 145.816 269.12 145.48C271.424 145.048 273.392 145.672 274.784 147.304C275.456 146.632 276.32 146.104 277.232 145.72C280.304 144.568 283.856 145.96 285.248 148.984C286.208 151 286.16 153.736 286.256 155.944Z" fill="#F26647"/>
<path d="M238.247 146.922C242.135 144.954 246.839 145.242 250.103 148.41C251.783 150.09 252.599 152.058 252.983 154.458C253.463 157.722 255.527 160.074 256.247 163.194C256.583 164.682 256.055 166.314 254.423 166.602C252.455 166.986 251.063 164.874 250.199 163.482C248.711 165.402 247.079 166.41 244.679 166.746C242.615 166.986 240.887 166.89 238.775 166.314C233.303 164.874 231.719 158.874 233.111 153.642C234.023 150.186 235.895 148.074 238.247 146.922ZM239.447 152.538C237.623 154.266 237.431 157.77 238.871 159.834C239.495 160.746 241.223 161.418 242.903 161.514C246.743 161.754 248.807 156.282 246.743 152.97C245.255 150.522 241.271 150.762 239.447 152.538Z" fill="#F26647"/>
<path d="M209.899 136.794C210.043 134.49 211.387 132.762 213.787 133.434C216.091 134.058 215.755 136.218 215.803 138.138V144.762C215.755 145.722 215.803 146.778 215.803 146.778C215.803 146.778 218.011 146.778 218.923 146.73C225.979 146.682 228.859 151.05 228.763 157.05C228.667 164.154 224.203 167.274 217.339 167.274C209.419 167.274 209.899 168.042 209.899 157.626C209.899 152.682 209.947 147.786 209.899 142.89C209.899 141.546 209.755 140.346 209.899 136.794ZM218.875 161.898C220.699 161.802 221.803 161.37 222.523 160.458C223.963 158.49 224.059 154.89 222.043 153.21C220.219 151.674 218.683 151.962 215.899 152.058V157.818L215.803 161.802C215.803 161.802 217.483 161.994 218.875 161.898Z" fill="#F26647"/>
<path d="M205.359 163.289C205.311 163.625 205.263 163.913 205.263 164.201L204.975 165.209C204.927 165.305 204.879 165.401 204.831 165.449L204.687 165.737C204.495 166.121 204.159 166.409 203.823 166.601C203.055 166.985 202.239 167.081 201.375 166.889C200.847 166.841 200.367 166.649 200.079 166.409C199.791 166.217 199.551 165.977 199.407 165.593C199.263 165.257 199.167 164.921 199.119 164.633C199.023 164.297 198.975 164.009 198.975 163.769V136.889C198.975 136.457 199.023 136.121 199.071 135.785C199.119 135.353 199.215 135.065 199.359 134.681C199.455 134.393 199.647 134.105 199.887 133.913C200.223 133.673 200.607 133.481 200.991 133.433C201.423 133.289 201.807 133.289 202.287 133.289C202.767 133.289 203.295 133.433 203.823 133.673C204.255 133.913 204.591 134.297 204.783 134.729C205.071 135.305 205.263 135.929 205.263 136.505C205.311 137.129 205.359 138.761 205.359 139.385V139.577C205.455 141.641 205.455 143.417 205.407 145.625C205.407 147.785 205.359 149.801 205.359 151.769V161.849C205.359 162.089 205.407 162.329 205.407 162.569C205.407 162.857 205.407 163.049 205.359 163.289Z" fill="#F26647"/>
<path d="M176.981 146.922C180.869 144.954 185.573 145.242 188.837 148.41C190.517 150.09 191.333 152.058 191.717 154.458C192.197 157.722 194.261 160.074 194.981 163.194C195.317 164.682 194.789 166.314 193.157 166.602C191.189 166.986 189.797 164.874 188.933 163.482C187.445 165.402 185.813 166.41 183.413 166.746C181.349 166.986 179.621 166.89 177.509 166.314C172.037 164.874 170.453 158.874 171.845 153.642C172.757 150.186 174.629 148.074 176.981 146.922ZM178.181 152.538C176.357 154.266 176.165 157.77 177.605 159.834C178.229 160.746 179.957 161.418 181.637 161.514C185.477 161.754 187.541 156.282 185.477 152.97C183.989 150.522 180.005 150.762 178.181 152.538Z" fill="#F26647"/>
<path d="M163.558 149.417C165.43 150.617 166.726 152.201 167.494 154.553C169.222 159.785 167.782 165.545 160.87 166.985C158.998 167.417 156.214 167.705 154.246 167.705C151.75 167.753 149.014 167.849 146.518 167.321C145.414 166.985 145.03 166.121 144.838 165.113C144.694 164.777 144.646 164.489 144.646 164.249V136.985C144.646 133.385 147.862 133.241 151.126 133.289C152.422 133.289 153.718 133.241 155.062 133.289C157.174 133.337 159.574 133.577 161.59 134.345C162.118 134.537 162.646 134.777 163.126 135.017C163.606 135.257 164.086 135.593 164.422 135.977C168.502 139.673 168.454 146.441 163.558 149.417ZM155.158 162.137C157.126 162.041 159.526 161.801 160.294 160.889C162.022 158.873 161.59 154.937 159.382 153.353C157.894 152.201 155.878 151.961 154.006 151.961C152.182 152.009 150.982 151.817 151.03 153.593C151.126 155.225 150.934 156.953 150.934 158.489C150.934 159.353 150.742 160.601 151.414 161.273C152.134 161.945 153.574 162.185 155.158 162.137ZM156.118 139.097C152.134 139.001 151.078 138.569 151.174 141.545C151.174 142.745 151.126 143.945 151.126 145.097C151.078 147.689 155.014 147.161 157.078 146.825C159.382 146.441 160.63 145.337 160.822 143.033C161.062 140.153 159.094 139.193 156.118 139.097Z" fill="#F26647"/>
<path d="M286.256 199.37C286.352 201.434 286.352 203.162 286.256 205.178C286.208 206.762 286.448 209.162 285.104 210.026C283.52 211.034 281.024 210.746 280.88 208.25C280.784 206.762 280.736 205.226 280.736 203.834C280.736 202.394 280.688 201.29 280.736 198.89C280.736 197.69 280.64 195.77 279.872 195.146C278.768 194.138 276.8 194.714 276.464 196.778C276.464 197.594 276.416 198.506 276.464 199.274C276.512 201.338 276.512 203.066 276.464 205.082C276.368 206.714 276.8 209.162 275.408 210.026C273.824 211.034 271.76 210.41 271.568 207.914C271.424 206.426 271.424 205.274 271.424 203.882C271.424 202.394 271.568 200.81 271.424 199.322C271.376 198.41 271.424 196.73 271.04 195.914C270.56 195.002 268.88 194.762 268.016 195.194C266.24 196.058 266.384 198.17 266.384 199.85C266.384 203.978 266.576 207.098 265.904 208.922C265.232 210.89 261.44 210.986 260.816 208.826C260.384 207.434 260.288 203.114 260.336 200.474V193.562C260.288 192.074 260.144 190.202 260.672 188.81C261.104 187.61 262.208 187.37 263.216 187.418C265.568 187.466 265.616 190.01 265.712 191.93C266.432 190.346 267.296 189.242 269.12 188.906C271.424 188.474 273.392 189.098 274.784 190.73C275.456 190.058 276.32 189.53 277.232 189.146C280.304 187.994 283.856 189.386 285.248 192.41C286.208 194.426 286.16 197.162 286.256 199.37Z" fill="#F26647"/>
<path d="M238.247 190.347C242.135 188.379 246.839 188.667 250.103 191.835C251.783 193.515 252.599 195.483 252.983 197.883C253.463 201.147 255.527 203.499 256.247 206.619C256.583 208.107 256.055 209.739 254.423 210.027C252.455 210.411 251.063 208.299 250.199 206.907C248.711 208.827 247.079 209.835 244.679 210.171C242.615 210.411 240.887 210.315 238.775 209.739C233.303 208.299 231.719 202.299 233.111 197.067C234.023 193.611 235.895 191.499 238.247 190.347ZM239.447 195.963C237.623 197.691 237.431 201.195 238.871 203.259C239.495 204.171 241.223 204.843 242.903 204.939C246.743 205.179 248.807 199.707 246.743 196.395C245.255 193.947 241.271 194.187 239.447 195.963Z" fill="#F26647"/>
<path d="M209.899 180.219C210.043 177.915 211.387 176.187 213.787 176.859C216.091 177.483 215.755 179.643 215.803 181.563V188.187C215.755 189.147 215.803 190.203 215.803 190.203C215.803 190.203 218.011 190.203 218.923 190.155C225.979 190.107 228.859 194.475 228.763 200.475C228.667 207.579 224.203 210.699 217.339 210.699C209.419 210.699 209.899 211.467 209.899 201.051C209.899 196.107 209.947 191.211 209.899 186.315C209.899 184.971 209.755 183.771 209.899 180.219ZM218.875 205.323C220.699 205.227 221.803 204.795 222.523 203.883C223.963 201.915 224.059 198.315 222.043 196.635C220.219 195.099 218.683 195.387 215.899 195.483V201.243L215.803 205.227C215.803 205.227 217.483 205.419 218.875 205.323Z" fill="#F26647"/>
<path d="M205.359 206.715C205.311 207.051 205.263 207.339 205.263 207.627L204.975 208.635C204.927 208.731 204.879 208.827 204.831 208.875L204.687 209.163C204.495 209.547 204.159 209.835 203.823 210.027C203.055 210.411 202.239 210.507 201.375 210.315C200.847 210.267 200.367 210.075 200.079 209.835C199.791 209.643 199.551 209.403 199.407 209.019C199.263 208.683 199.167 208.347 199.119 208.059C199.023 207.723 198.975 207.435 198.975 207.195V180.315C198.975 179.883 199.023 179.547 199.071 179.211C199.119 178.779 199.215 178.491 199.359 178.107C199.455 177.819 199.647 177.531 199.887 177.339C200.223 177.099 200.607 176.907 200.991 176.859C201.423 176.715 201.807 176.715 202.287 176.715C202.767 176.715 203.295 176.859 203.823 177.099C204.255 177.339 204.591 177.723 204.783 178.155C205.071 178.731 205.263 179.355 205.263 179.931C205.311 180.555 205.359 182.187 205.359 182.811V183.003C205.455 185.067 205.455 186.843 205.407 189.051C205.407 191.211 205.359 193.227 205.359 195.195V205.275C205.359 205.515 205.407 205.755 205.407 205.995C205.407 206.283 205.407 206.475 205.359 206.715Z" fill="#F26647"/>
<path d="M176.981 190.347C180.869 188.379 185.573 188.667 188.837 191.835C190.517 193.515 191.333 195.483 191.717 197.883C192.197 201.147 194.261 203.499 194.981 206.619C195.317 208.107 194.789 209.739 193.157 210.027C191.189 210.411 189.797 208.299 188.933 206.907C187.445 208.827 185.813 209.835 183.413 210.171C181.349 210.411 179.621 210.315 177.509 209.739C172.037 208.299 170.453 202.299 171.845 197.067C172.757 193.611 174.629 191.499 176.981 190.347ZM178.181 195.963C176.357 197.691 176.165 201.195 177.605 203.259C178.229 204.171 179.957 204.843 181.637 204.939C185.477 205.179 187.541 199.707 185.477 196.395C183.989 193.947 180.005 194.187 178.181 195.963Z" fill="#F26647"/>
<path d="M163.558 192.843C165.43 194.043 166.726 195.627 167.494 197.979C169.222 203.211 167.782 208.971 160.87 210.411C158.998 210.843 156.214 211.131 154.246 211.131C151.75 211.179 149.014 211.275 146.518 210.747C145.414 210.411 145.03 209.547 144.838 208.539C144.694 208.203 144.646 207.915 144.646 207.675V180.411C144.646 176.811 147.862 176.667 151.126 176.715C152.422 176.715 153.718 176.667 155.062 176.715C157.174 176.763 159.574 177.003 161.59 177.771C162.118 177.963 162.646 178.203 163.126 178.443C163.606 178.683 164.086 179.019 164.422 179.403C168.502 183.099 168.454 189.867 163.558 192.843ZM155.158 205.563C157.126 205.467 159.526 205.227 160.294 204.315C162.022 202.299 161.59 198.363 159.382 196.779C157.894 195.627 155.878 195.387 154.006 195.387C152.182 195.435 150.982 195.243 151.03 197.019C151.126 198.651 150.934 200.379 150.934 201.915C150.934 202.779 150.742 204.027 151.414 204.699C152.134 205.371 153.574 205.611 155.158 205.563ZM156.118 182.523C152.134 182.427 151.078 181.995 151.174 184.971C151.174 186.171 151.126 187.371 151.126 188.523C151.078 191.115 155.014 190.587 157.078 190.251C159.382 189.867 160.63 188.763 160.822 186.459C161.062 183.579 159.094 182.619 156.118 182.523Z" fill="#F26647"/>
<path d="M187 10C187 4.47715 191.477 0 197 0H235C240.523 0 245 4.47715 245 10V48C245 53.5229 240.523 58 235 58H197C191.477 58 187 53.5228 187 48V10Z" fill="#FFC49D"/>
<mask id="mask0_4473_2137" style="mask-type:alpha" maskUnits="userSpaceOnUse" x="187" y="0" width="58" height="58">
<path d="M187 10C187 4.47715 191.477 0 197 0H235C240.523 0 245 4.47715 245 10V48C245 53.5229 240.523 58 235 58H197C191.477 58 187 53.5228 187 48V10Z" fill="#FFC49D"/>
</mask>
<g mask="url(#mask0_4473_2137)">
<path d="M245.001 0H187.001V58H245.001V0Z" fill="#E37600"/>
<path d="M201.886 52.4596H200.887C200.751 52.4596 200.616 52.3958 200.523 52.2789L197.985 48.9995V52.077C197.985 52.2896 197.819 52.4596 197.621 52.4596H196.945C196.747 52.4596 196.581 52.2896 196.581 52.077V45.4118C196.581 45.1993 196.747 45.0293 196.945 45.0293H197.621C197.819 45.0293 197.985 45.1993 197.985 45.4118V48.5638L200.357 45.2206C200.44 45.1037 200.585 45.0293 200.731 45.0293H201.647C201.834 45.0293 201.937 45.2524 201.823 45.4118L199.399 48.6913L202.073 52.077C202.187 52.2258 202.084 52.4596 201.886 52.4596Z" fill="white"/>
<path d="M209.646 48.745C209.646 50.9207 208.096 52.597 205.943 52.597C203.79 52.597 202.24 50.9207 202.24 48.745C202.24 46.5693 203.79 44.9023 205.943 44.9023C208.096 44.9023 209.646 46.568 209.646 48.745ZM208.232 48.745C208.232 47.5137 207.452 46.2718 205.943 46.2718C204.434 46.2718 203.654 47.5137 203.654 48.745C203.654 49.9763 204.434 51.2288 205.943 51.2288C207.452 51.2288 208.232 49.9869 208.232 48.745Z" fill="white"/>
<path d="M215.982 52.4596H215.056C214.89 52.4596 214.734 52.3639 214.65 52.2152L213.298 49.7845H212.07V52.077C212.07 52.2896 211.904 52.4596 211.696 52.4596H211.03C210.823 52.4596 210.656 52.2896 210.656 52.077V45.4118C210.656 45.1993 210.822 45.0293 211.03 45.0293H213.183C214.817 45.0293 215.888 46.0374 215.888 47.4494C215.888 48.3938 215.399 49.1057 214.609 49.4869L216.18 52.097C216.274 52.2564 216.169 52.4583 215.982 52.4583V52.4596ZM212.07 48.5425H213.183C213.901 48.5425 214.452 48.2025 214.452 47.4494C214.452 46.7799 213.963 46.3669 213.183 46.3669H212.07V48.5425Z" fill="white"/>
<path d="M221.08 51.1226C221.287 51.1226 221.455 51.2927 221.455 51.5052V52.079C221.455 52.2915 221.288 52.4615 221.08 52.4615H217.522C217.314 52.4615 217.147 52.2915 217.147 52.079V45.4138C217.147 45.2013 217.313 45.0312 217.522 45.0312H220.986C221.184 45.0312 221.35 45.2013 221.35 45.4138V45.9863C221.35 46.1988 221.184 46.3688 220.986 46.3688H218.562V48.0358H220.747C220.944 48.0358 221.111 48.2058 221.111 48.4183V49.0014C221.111 49.2033 220.944 49.3733 220.747 49.3733H218.562V51.124H221.079L221.08 51.1226Z" fill="white"/>
<path d="M227.364 52.1408L226.979 50.9839H223.982L223.597 52.1408C223.535 52.3321 223.358 52.4596 223.16 52.4596H222.39C222.192 52.4596 222.056 52.2683 222.119 52.077L224.5 45.3375C224.563 45.1568 224.74 45.0293 224.937 45.0293H226.02C226.218 45.0293 226.384 45.1568 226.457 45.3375L228.829 52.077C228.892 52.2683 228.756 52.4596 228.569 52.4596H227.799C227.601 52.4596 227.424 52.3321 227.362 52.1408H227.364ZM226.553 49.6995L225.481 46.4837L224.409 49.6995H226.553Z" fill="white"/>
<path d="M234.583 45.0293H235.248C235.457 45.0293 235.623 45.1993 235.623 45.4118V52.077C235.623 52.2896 235.457 52.4596 235.248 52.4596H234.645C234.458 52.4596 234.281 52.364 234.176 52.2046L231.117 47.545V52.077C231.117 52.2896 230.951 52.4596 230.743 52.4596H230.077C229.87 52.4596 229.703 52.2896 229.703 52.077V45.4118C229.703 45.1993 229.869 45.0293 230.077 45.0293H230.691C230.868 45.0293 231.044 45.1249 231.149 45.2843L234.208 49.9439V45.4118C234.208 45.1993 234.374 45.0293 234.583 45.0293Z" fill="white"/>
<path d="M203.375 25.473C197.805 25.473 193.274 21.0672 193.274 15.6532C193.274 10.2392 197.806 5.83203 203.375 5.83203C208.943 5.83203 213.475 10.2379 213.475 15.6519C213.475 21.0658 208.944 25.4717 203.375 25.4717V25.473ZM203.375 7.40469C198.645 7.40469 194.797 11.1039 194.797 15.6519C194.797 20.1998 198.645 23.899 203.375 23.899C208.104 23.899 211.952 20.1985 211.952 15.6519C211.952 11.1052 208.104 7.40469 203.375 7.40469Z" fill="#4F0000"/>
<path d="M205.67 17.9823C206.692 17.9823 207.52 17.1485 207.52 16.12C207.52 15.0916 206.692 14.2578 205.67 14.2578C204.648 14.2578 203.82 15.0916 203.82 16.12C203.82 17.1485 204.648 17.9823 205.67 17.9823Z" fill="black"/>
<path d="M226.558 17.9627C227.58 17.9627 228.409 17.129 228.409 16.1005C228.409 15.072 227.58 14.2383 226.558 14.2383C225.536 14.2383 224.708 15.072 224.708 16.1005C224.708 17.129 225.536 17.9627 226.558 17.9627Z" fill="black"/>
<path d="M228.804 25.417C223.234 25.417 218.704 21.0112 218.704 15.5972C218.704 10.1832 223.234 5.77734 228.804 5.77734C234.373 5.77734 238.904 10.1832 238.904 15.5972C238.904 21.0112 234.373 25.417 228.804 25.417ZM228.804 7.34868C224.074 7.34868 220.226 11.0479 220.226 15.5958C220.226 20.1438 224.074 23.843 228.804 23.843C233.534 23.843 237.382 20.1425 237.382 15.5958C237.382 11.0492 233.534 7.34868 228.804 7.34868Z" fill="#4F0000"/>
<path d="M220.147 15.4199H211.965V16.9926H220.147V15.4199Z" fill="#4F0000"/>
<path d="M187.001 33.0412C187.001 33.0412 195.666 28 216.001 28C236.336 28 245.001 33.0412 245.001 33.0412V41H187.001V33.0412Z" fill="#FFBE91"/>
<path d="M216.052 28.6348C213.977 28.6348 212.676 29.542 211.933 30.3363C212.626 33.103 213.9 35.7635 216.247 35.7635C218.454 35.7635 219.711 33.2983 220.43 30.5939C219.83 29.7532 218.56 28.6348 216.052 28.6348Z" fill="#E65D52"/>
<path d="M211.114 23.668V24.2245C211.114 24.2245 211.182 27.3419 211.932 30.3372C212.675 29.5429 213.977 28.6357 216.051 28.6357C218.558 28.6357 219.828 29.7541 220.429 30.5948C221.302 27.3087 221.378 23.6693 221.378 23.6693H211.116L211.114 23.668Z" fill="#9C0000"/>
<path d="M245.145 40.627H186.954V57.8996H245.145V40.627Z" fill="#E94A08"/>
<path d="M201.59 52.1609H200.6C200.466 52.1609 200.332 52.0972 200.239 51.9803L197.723 48.6968V51.7784C197.723 51.9909 197.558 52.1609 197.362 52.1609H196.692C196.497 52.1609 196.331 51.9909 196.331 51.7784V45.1052C196.331 44.8927 196.496 44.7227 196.692 44.7227H197.362C197.557 44.7227 197.723 44.8927 197.723 45.1052V48.2611L200.073 44.9139C200.155 44.797 200.3 44.7227 200.443 44.7227H201.351C201.537 44.7227 201.639 44.9458 201.526 45.1052L199.124 48.3887L201.773 51.7784C201.886 51.9271 201.784 52.1609 201.587 52.1609H201.59Z" fill="white"/>
<path d="M209.339 48.4423C209.339 50.6207 207.803 52.2996 205.669 52.2996C203.534 52.2996 201.999 50.6207 201.999 48.4423C201.999 46.264 203.534 44.5957 205.669 44.5957C207.803 44.5957 209.339 46.264 209.339 48.4423ZM207.937 48.4423C207.937 47.2097 207.164 45.9665 205.67 45.9665C204.176 45.9665 203.403 47.2097 203.403 48.4423C203.403 49.675 204.176 50.9288 205.67 50.9288C207.164 50.9288 207.937 49.6856 207.937 48.4423Z" fill="white"/>
<path d="M215.678 52.1609H214.761C214.596 52.1609 214.44 52.0653 214.358 51.9165L213.018 49.4831H211.801V51.7784C211.801 51.9909 211.637 52.1609 211.431 52.1609H210.77C210.565 52.1609 210.4 51.9909 210.4 51.7784V45.1052C210.4 44.8927 210.565 44.7227 210.77 44.7227H212.904C214.521 44.7227 215.584 45.7321 215.584 47.1454C215.584 48.0911 215.099 48.8031 214.317 49.1856L215.874 51.7996C215.967 51.959 215.863 52.1609 215.678 52.1609ZM211.803 48.2399H212.905C213.616 48.2399 214.163 47.8999 214.163 47.1454C214.163 46.476 213.678 46.0615 212.905 46.0615H211.803V48.2399Z" fill="white"/>
<path d="M220.79 50.822C220.996 50.822 221.16 50.992 221.16 51.2046V51.7784C221.16 51.9909 220.996 52.1609 220.79 52.1609H217.265C217.059 52.1609 216.894 51.9909 216.894 51.7784V45.1052C216.894 44.8927 217.059 44.7227 217.265 44.7227H220.697C220.892 44.7227 221.058 44.8927 221.058 45.1052V45.679C221.058 45.8915 220.893 46.0615 220.697 46.0615H218.295V47.7298H220.46C220.656 47.7298 220.822 47.8999 220.822 48.1124V48.6968C220.822 48.8987 220.657 49.0687 220.46 49.0687H218.295V50.822H220.79Z" fill="white"/>
<path d="M227.079 51.8421L226.698 50.6839H223.729L223.348 51.8421C223.287 52.0334 223.111 52.1609 222.915 52.1609H222.152C221.957 52.1609 221.823 51.9696 221.884 51.7784L224.244 45.0308C224.307 44.8502 224.482 44.7227 224.677 44.7227H225.749C225.945 44.7227 226.111 44.8502 226.182 45.0308L228.532 51.7784C228.594 51.9696 228.46 52.1609 228.274 52.1609H227.512C227.317 52.1609 227.141 52.0334 227.079 51.8421ZM226.275 49.3981L225.214 46.1784L224.153 49.3981H226.277H226.275Z" fill="white"/>
<path d="M234.293 44.7227H234.954C235.16 44.7227 235.324 44.8927 235.324 45.1052V51.7784C235.324 51.9909 235.16 52.1609 234.954 52.1609H234.356C234.17 52.1609 233.995 52.0653 233.892 51.9059L230.861 47.241V51.7784C230.861 51.9909 230.697 52.1609 230.491 52.1609H229.831C229.625 52.1609 229.46 51.9909 229.46 51.7784V45.1052C229.46 44.8927 229.625 44.7227 229.831 44.7227H230.439C230.614 44.7227 230.79 44.8183 230.893 44.9777L233.924 49.6425V45.1052C233.924 44.8927 234.089 44.7227 234.295 44.7227H234.293Z" fill="white"/>
</g>
<path d="M24.5675 351.088C24.9126 349.953 25.327 348.844 25.7414 347.735L33.9781 325.692C34.522 324.236 35.0919 322.711 35.5231 321.134C35.6351 320.623 35.9543 319.557 35.5467 319.168C35.1651 318.71 34.4894 318.615 33.9608 318.339C33.3628 318.036 32.6872 317.942 32.0892 317.639L28.8312 316.422C27.2803 315.921 25.6684 315.161 24.1175 314.66C23.3984 314.471 22.8004 314.168 22.1073 313.909C21.0675 313.521 19.8891 313.081 19.221 312.12C18.2407 310.727 18.4639 309.072 19.0079 307.616C19.2753 306.689 19.8199 305.866 20.5467 305.19C20.9359 304.782 21.3686 304.47 21.8881 304.348C22.5547 304.044 23.724 304.086 24.3996 304.18C26.5219 304.42 28.7142 305.318 30.7244 306.07L42.7859 310.576C43.9125 311.155 45.3164 311.838 46.2701 312.668C46.8597 313.205 47.5102 314.001 47.693 314.78C48.0327 316.408 47.5665 317.656 47.1353 319.232C46.3849 321.875 45.3572 324.414 44.3989 326.979L35.9032 349.715C35.8255 349.923 33.8143 355.728 32.5878 358.588C31.7498 360.408 30.4791 362.54 27.7163 362.535C26.7549 362.57 25.8713 362.398 25.1781 362.139C23.9997 361.699 22.7946 360.696 22.6979 359.474C22.5227 357.829 22.7544 355.941 23.4278 354.138L24.5675 351.088ZM62.2815 339.585C63.5726 340.147 65.0024 340.76 66.2243 341.296C66.7095 341.477 67.2122 341.823 67.7409 342.099C69.4137 343.119 70.2904 344.79 69.5652 346.731C69.073 348.048 68.2785 349.963 66.7633 350.424C66.0534 350.632 65.3693 350.772 64.6243 350.651C63.0909 350.315 60.6731 349.175 59.1915 348.7C59.0529 348.649 58.8884 348.666 58.7848 348.943C57.8607 351.205 56.4018 355.321 55.5212 357.678C54.7098 360.06 53.8033 362.487 52.8792 364.748L52.5166 365.719C51.61 368.145 50.2891 371.68 48.0038 372.722C47.2161 373.139 46.3241 373.2 45.4229 372.864C45.4229 372.864 45.3795 372.768 45.3102 372.743C40.8563 370.92 42.3914 365.332 43.4792 362.421L58.8647 321.245C58.9165 321.107 60.1423 317.615 62.2372 316.66C63.0941 316.269 64.6793 316.466 65.7191 316.855C66.7589 317.243 67.5046 317.996 67.8954 318.853C68.651 320.636 68.1764 322.118 67.7452 323.695C67.7109 323.998 67.6073 324.275 67.5037 324.552C67.1418 326.155 66.4943 327.888 65.942 329.578C65.398 331.033 65.6487 330.574 62.8772 337.991C62.6959 338.476 62.4887 339.031 62.2815 339.585Z" fill="#E5E4E9"/>
<path d="M108.865 326.305L113.214 343.722C113.435 344.607 113.551 345.468 113.807 346.295C113.912 346.714 114.04 347.226 114.436 347.425C114.89 347.657 115.483 347.46 115.949 347.343C116.648 347.169 117.404 347.029 118.103 346.855C119.686 346.46 122.795 345.634 124.378 345.436C125.484 345.308 126.73 345.146 127.812 345.519C128.36 345.728 128.732 346.229 128.918 346.776C129.034 347.044 129.104 347.323 129.186 347.649C129.314 348.36 129.244 349.07 128.906 349.698C128.568 350.327 128.032 350.757 127.415 351.06C126.565 351.421 125.809 351.758 124.924 351.979C124.365 352.119 121.745 352.723 121.233 352.851L116.949 353.921C115.738 354.224 114.527 354.328 113.305 354.584C112.362 354.77 111.221 354.758 110.359 354.28C109.545 353.791 109.009 353.034 108.602 352.196C107.729 350.287 107.381 348.098 106.869 346.049L104.02 334.639C103.752 333.568 103.52 332.439 103.194 331.333C103.147 331.147 102.089 327.305 101.67 325.232C101.449 323.952 101.392 322.333 102.812 321.286C103.453 320.879 104.151 320.506 104.943 320.506C105.734 320.507 106.549 320.798 107.073 321.508C107.667 322.3 108.05 323.243 108.306 324.268C108.481 324.966 108.644 325.618 108.865 326.305ZM135.373 327.057L135.466 327.034C135.745 326.964 136.048 326.987 136.374 326.906C136.711 326.871 137.096 326.824 137.48 326.778C138.213 326.743 139.028 326.836 139.529 327.454C139.854 327.768 140.052 328.164 140.157 328.583C140.273 329.049 140.378 329.468 140.355 329.968C140.378 330.457 140.401 331.144 140.063 331.575C139.76 331.947 139.399 332.285 138.957 332.494C138.014 332.878 136.302 333.157 135.336 333.448C135.243 333.471 135.208 333.53 135.208 333.53C135.208 333.53 135.161 333.541 135.208 333.727C135.545 335.276 136.29 338.058 136.685 339.642C137.127 341.214 137.534 342.843 137.871 344.392L138.034 345.044C138.441 346.674 139.034 349.049 138.196 350.446C137.928 350.958 137.474 351.319 136.868 351.47C136.868 351.47 136.81 351.435 136.763 351.446C133.713 352.109 132.48 348.558 131.992 346.602L125.083 318.94C125.06 318.847 124.432 316.53 125.201 315.25C125.515 314.726 126.435 314.249 127.134 314.074C127.832 313.9 128.507 314.028 129.031 314.342C130.09 315.018 130.381 315.984 130.73 316.986C130.823 317.16 130.87 317.346 130.916 317.533C131.312 318.522 131.603 319.687 131.928 320.793C132.103 321.491 132.3 322.085 132.475 322.784C132.521 323.168 132.649 323.482 132.731 323.808L133.37 326.369C133.452 326.695 133.545 327.068 133.719 327.371C133.731 327.417 134.662 327.185 134.709 327.173C134.953 327.161 135.151 327.161 135.373 327.057Z" fill="#E5E4E9"/>
<path d="M192.106 326.617C194.771 326.024 197.368 326.091 198.364 328.953C199.36 331.814 196.749 334.261 194.32 334.945C192.422 335.44 183.251 337.411 178.81 338.4L178.263 338.522C176.198 338.91 173.807 339.443 171.62 339.284C170.094 339.194 168.37 338.215 167.337 336.796C166.007 335.012 165.268 330.731 165.223 330.526L158.755 301.487C158.58 301.024 157.021 296.28 157.885 293.72C158.621 291.549 163.798 290.324 164.276 290.217L180.265 286.656C180.538 286.595 186.232 285.112 187.759 287.783C188.329 288.732 188.808 291.207 188.566 292.05C188.361 292.741 187.838 293.288 187.132 293.66C186.358 294.048 185.09 294.474 183.313 294.869C182.152 295.128 181.248 295.258 172.844 297.13C171.614 297.404 170.058 297.822 169.504 298.232C168.328 299.068 169.066 302.059 169.431 303.054L169.446 303.122L174.985 326.702C175.381 328.478 176.353 329.624 178.471 329.152C178.965 329.114 186.093 327.956 192.106 326.617ZM205.365 300.5L210.869 299.776C212.585 299.752 214.263 300.526 214.705 302.507C214.857 303.19 214.994 303.805 214.941 304.534C215.003 306.098 214.472 307.579 212.764 307.959L207.176 309.276C208.09 314.021 209.84 321.233 211.103 326.904C211.636 329.295 212.693 334.366 208.723 335.538C204.343 336.8 203.027 332.504 202.388 329.634L193.043 287.682C193.013 287.545 192.184 284.144 193.352 282.306C193.83 281.554 195.189 280.893 196.214 280.665C197.238 280.437 198.218 280.649 198.97 281.127C200.489 282.151 200.877 283.571 201.348 285.043C202.869 289.94 204.208 295.307 205.365 300.5Z" fill="#E5E4E9"/>
<path d="M292.657 331.452L292.78 331.49C293.146 331.606 293.474 331.843 293.901 331.978C294.309 332.173 294.778 332.388 295.247 332.603C296.105 333.075 296.967 333.749 297.105 334.799C297.257 335.383 297.206 335.971 297.033 336.521C296.84 337.131 296.667 337.68 296.292 338.233C295.978 338.805 295.525 339.602 294.841 339.856C294.238 340.069 293.592 340.201 292.943 340.131C291.604 339.91 289.464 339.035 288.163 338.692C288.04 338.653 287.96 338.695 287.96 338.695C287.96 338.695 287.899 338.676 287.822 338.92C287.127 340.915 286.246 343.926 285.592 346.001C284.999 348.096 284.326 350.232 283.63 352.228L283.361 353.082C282.688 355.219 281.708 358.332 279.781 359.336C279.12 359.731 278.352 359.825 277.559 359.575C277.559 359.575 277.517 359.495 277.456 359.475C273.526 358.103 274.599 353.207 275.406 350.644L286.828 314.384C286.867 314.262 287.767 311.191 289.533 310.271C290.255 309.894 291.633 309.993 292.549 310.281C293.465 310.57 294.143 311.186 294.519 311.908C295.253 313.414 294.91 314.715 294.609 316.097C294.593 316.36 294.516 316.604 294.439 316.849C294.199 318.249 293.719 319.775 293.318 321.26C293.068 322.053 292.783 323.171 290.86 329.275C290.726 329.703 290.572 330.191 290.559 330.657C290.54 330.718 291.761 331.102 291.822 331.122C292.108 331.279 292.333 331.417 292.657 331.452ZM256.73 330.267C255.027 330.133 255.016 331.874 254.65 333.034C254.323 334.072 253.573 336.452 253.349 337.59C253.176 338.139 252.689 339.26 252.94 339.742C252.901 339.864 253.107 340.063 253.229 340.102C255.06 340.678 258.807 341.993 260.676 342.447C263.545 343.351 266.919 344.145 269.65 345.274C270.71 345.742 271.147 346.484 271.321 347.21C271.617 347.974 271.643 348.318 271.355 349.233C271.169 350.248 270.496 351.11 269.956 351.544C269.436 351.917 268.71 352.091 267.985 352.265C266.147 352.558 264.637 351.814 262.89 351.398C261.425 350.936 259.311 350.405 257.823 349.802C256.641 349.295 253.672 348.494 252.573 348.148C251.513 347.68 250.376 347.456 249.277 347.11C247.362 346.373 245.325 345.597 244.103 343.937C243.547 343.359 243.392 342.572 243.36 341.824C243.198 340.632 243.396 339.151 243.884 338.03C245.217 334.223 245.838 331.399 247.107 327.37C247.588 325.844 248.171 323.142 249.307 322.091C251.48 320.092 253.704 321.128 255.901 321.82L262.128 323.781C263.104 324.089 265.18 324.742 266.294 324.825C266.718 324.757 267.039 324.59 267.277 324.262C268.335 322.18 269.162 319.555 269.732 317.319C270.002 316.465 270.7 314.672 270.443 313.786C270.314 313.342 269.8 312.845 268.762 312.518L257.35 309.125C256.252 308.779 254.7 307.954 254.236 306.869C254.127 306.365 253.998 305.921 253.946 305.234C254.066 302.722 255.819 300.993 258.25 301.155C260.319 301.404 262.196 302.263 264.187 302.757L273.405 305.66C274.992 306.16 276.862 306.615 278.295 307.603C279.054 308.177 279.594 309.019 279.877 310.249C279.884 310.653 279.91 310.997 279.859 311.585C279.866 311.99 279.873 312.394 279.757 312.761C279.437 314.203 278.706 316.523 278.303 317.805C277.456 320.49 276.733 323.215 275.867 325.962C274.983 328.77 274.355 331.189 273.026 332.85C272.41 333.529 271.607 333.947 270.798 333.96C269.243 334.209 267.489 333.388 266.146 332.965C264.315 332.388 260.45 331.237 258.985 330.776C257.642 330.353 258.169 330.385 256.73 330.267Z" fill="#E5E4E9"/>
<path d="M340.836 280.775C340.958 280.626 345.651 278.691 345.73 278.655C352.389 275.642 356.246 280.41 357.664 283.544L375.64 323.268C375.747 323.503 377.717 328.275 377.421 330.958C377.024 334.252 371.34 336.919 371.027 337.061L356.845 343.478C354.886 344.365 348.241 346.994 344.788 343.743C341.817 340.933 340.158 337.059 338.57 333.341L325.806 305.134C325.444 304.543 321.257 297.376 321.492 293.305C321.692 288.117 327.673 286.732 331.513 284.995C334.803 283.505 337.738 282.272 340.836 280.775ZM384.782 287.981L384.938 287.91C385.408 287.697 385.949 287.641 386.498 287.393C387.082 287.223 387.744 287.018 388.406 286.812C389.688 286.516 391.154 286.418 392.235 287.346C392.91 287.795 393.386 288.429 393.705 289.134C394.059 289.918 394.378 290.623 394.498 291.513C394.696 292.367 394.957 293.571 394.5 294.438C394.086 295.192 393.558 295.903 392.846 296.414C391.307 297.394 388.38 298.435 386.77 299.258C386.613 299.329 386.57 299.443 386.57 299.443C386.57 299.443 386.492 299.478 386.634 299.792C387.725 302.413 389.896 307 391.101 309.664C392.385 312.292 393.626 315.035 394.717 317.656L395.214 318.753C396.455 321.495 398.263 325.491 397.234 328.222C396.926 329.211 396.241 329.993 395.223 330.454C395.223 330.454 395.109 330.411 395.031 330.446C389.867 332.594 386.553 326.731 385.064 323.44L364.003 276.9C363.932 276.743 362.081 272.861 363.025 270.357C363.411 269.333 364.879 268.196 366.054 267.665C367.229 267.133 368.461 267.142 369.485 267.528C371.569 268.378 372.392 269.988 373.329 271.641C373.549 271.919 373.691 272.233 373.832 272.546C374.847 274.163 375.734 276.122 376.663 277.967C377.195 279.142 377.734 280.125 378.266 281.301C378.471 281.963 378.798 282.476 379.046 283.024L381.032 287.412C381.28 287.961 381.563 288.587 381.968 289.065C382.004 289.143 383.571 288.434 383.649 288.399C384.076 288.3 384.425 288.236 384.782 287.981ZM337.253 303.73L350.124 332.172C350.592 332.998 351.566 333.69 352.848 333.393L360.17 330.174C361.388 329.529 362.685 328.847 363.419 327.76C364.233 326.637 363.339 324.87 362.587 323.417L362.197 322.555C361.034 319.777 360.495 318.794 359.29 316.13L350.745 297.247C350.745 297.247 349.106 293.835 348.091 292.218C346.934 290.287 345.296 290.84 344.67 291.123L344.591 291.159L337.86 294.016C335.353 295.15 334.654 296.317 334.857 298.018C335.083 299.143 336.651 302.398 337.253 303.73Z" fill="#E5E4E9"/>
<path fill-rule="evenodd" clip-rule="evenodd" d="M12.6963 254.845C13.3349 253.02 15.3316 252.059 17.156 252.697L57.156 266.697C58.9805 267.336 59.9419 269.332 59.3033 271.157C58.6648 272.981 56.6681 273.943 54.8436 273.304L14.8436 259.304C13.0191 258.666 12.0577 256.669 12.6963 254.845Z" fill="#E5E4E9"/>
<path fill-rule="evenodd" clip-rule="evenodd" d="M40.1574 218.024C41.8009 217.006 43.9581 217.514 44.9755 219.158L70.9755 261.158C71.993 262.801 71.4854 264.958 69.8419 265.976C68.1983 266.993 66.0411 266.486 65.0237 264.842L39.0237 222.842C38.0062 221.198 38.5138 219.041 40.1574 218.024Z" fill="#E5E4E9"/>
<path fill-rule="evenodd" clip-rule="evenodd" d="M431.608 389.989C430.659 391.672 428.524 392.267 426.84 391.318L383.817 367.049C382.133 366.099 381.538 363.964 382.488 362.281C383.437 360.597 385.572 360.002 387.256 360.952L430.279 385.221C431.963 386.17 432.558 388.305 431.608 389.989Z" fill="#E5E4E9"/>
<path fill-rule="evenodd" clip-rule="evenodd" d="M83.9995 224.5C85.9325 224.5 87.4995 226.067 87.4995 228L87.4995 262C87.4995 263.933 85.9325 265.5 83.9995 265.5C82.0665 265.5 80.4995 263.933 80.4995 262L80.4995 228C80.4995 226.067 82.0665 224.5 83.9995 224.5Z" fill="#E5E4E9"/>
<path fill-rule="evenodd" clip-rule="evenodd" d="M390.073 405.444C388.38 406.376 386.252 405.758 385.32 404.064L368.933 374.274C368.001 372.58 368.619 370.452 370.313 369.52C372.006 368.589 374.135 369.206 375.066 370.9L391.453 400.69C392.385 402.384 391.767 404.512 390.073 405.444Z" fill="#E5E4E9"/>
</svg>
